<svg width="19" height="6" viewBox="0 0 19 6" fill="none" xmlns="http://www.w3.org/2000/svg">
<path d="M8.2798 1.19816C8.263 1.21625 8.24416 1.23269 8.22346 1.24734L7.65592 1.6445C7.6247 1.66647 7.58958 1.68366 7.55192 1.69547L4.83562 2.55269C4.79609 2.56509 4.75452 2.57152 4.71261 2.57152H3.31739C3.18453 2.57152 3.06203 2.50769 2.99789 2.40516C2.8048 2.09664 2.53773 1.92864 2.27302 1.92864C1.77094 1.92864 1.29996 2.5322 1.29996 3.32142C1.29996 4.11079 1.77099 4.71435 2.27302 4.71435C2.62594 4.71435 2.98039 4.41152 3.14974 3.91556C3.18775 3.80451 3.29074 3.72005 3.41918 3.69449L5.27083 3.32828C5.32004 3.31857 5.37094 3.31782 5.42049 3.32634L7.48593 3.68104C7.62014 3.70421 7.72856 3.7915 7.76657 3.90735C8.05569 4.78955 8.72895 5.3571 9.44873 5.3571C10.1776 5.3571 10.8584 4.7749 11.1411 3.87582C11.1792 3.75429 11.2944 3.66371 11.4356 3.64413L13.4812 3.35908C13.5197 3.3537 13.5591 3.35385 13.5976 3.35938L15.6919 3.66416C15.831 3.68434 15.9444 3.77328 15.9832 3.89256C16.149 4.40122 16.5087 4.71438 16.8677 4.71438C17.3696 4.71438 17.8406 4.11082 17.8406 3.32145C17.8406 2.53222 17.3696 1.92867 16.8677 1.92867C16.603 1.92867 16.3358 2.09667 16.1428 2.40518C16.0785 2.50772 15.9562 2.57155 15.8232 2.57155H14.4386C14.4023 2.57155 14.3662 2.56677 14.3314 2.55735L11.1658 1.70013C11.1224 1.68832 11.0816 1.66949 11.046 1.64453L10.9137 1.552C10.8789 1.52764 10.8494 1.49774 10.8268 1.46396C10.4747 0.939916 9.97214 0.642901 9.44869 0.642901C9.02314 0.642901 8.61184 0.837817 8.27981 1.19821L8.2798 1.19816ZM9.44867 0C10.2326 0 10.9438 0.40898 11.4189 1.08444L11.446 1.10357L14.4934 1.92865H15.6199C15.9314 1.52836 16.3746 1.28575 16.8677 1.28575C17.8434 1.28575 18.5703 2.21728 18.5703 3.32143C18.5703 4.42573 17.8434 5.35711 16.8677 5.35711C16.202 5.35711 15.638 4.91794 15.3562 4.26685L13.5368 4.00213L11.774 4.24787C11.3707 5.29194 10.482 6 9.44867 6C8.42522 6 7.5429 5.30525 7.13416 4.27569L5.35596 3.97031L3.77748 4.28256C3.49328 4.92561 2.93269 5.35713 2.27298 5.35713C1.29718 5.35713 0.570312 4.42575 0.570312 3.32145C0.570312 2.21731 1.29718 1.28578 2.27298 1.28578C2.76589 1.28578 3.20925 1.52837 3.52077 1.92867H4.64912L7.24901 1.10823L7.73919 0.765185C8.19935 0.279406 8.80116 3.09458e-05 9.44863 3.09458e-05L9.44867 0Z" fill="#E26B26"/>
</svg>
