<svg width="18" height="18" viewBox="0 0 18 18" fill="none" xmlns="http://www.w3.org/2000/svg">
<path fill-rule="evenodd" clip-rule="evenodd" d="M12.9229 0H5.07708C2.03028 0 0 2.17791 0 5.30385V12.6961C0 15.825 2.02493 18 5.07708 18H12.9229C15.9751 18 18 15.825 18 12.6961V5.30385C18 2.17499 15.9751 0 12.9229 0ZM5.07663 1.25597H12.9225C15.2602 1.25597 16.7437 2.84944 16.7437 5.304V12.6963C16.7437 15.1509 15.2602 16.7443 12.9225 16.7443H5.07663C2.7389 16.7443 1.25537 15.1509 1.25537 12.6963V5.304C1.25537 2.8527 2.74386 1.25597 5.07663 1.25597ZM8.99949 5.2972C9.31737 5.2972 9.58009 5.53342 9.62166 5.8399L9.6274 5.9251V8.36417H12.0702C12.417 8.36417 12.6981 8.64529 12.6981 8.99207C12.6981 9.30996 12.4619 9.57267 12.1554 9.61425L12.0702 9.61998H9.6274V12.0588C9.6274 12.4056 9.34627 12.6867 8.99949 12.6867C8.6816 12.6867 8.41889 12.4505 8.37731 12.144L8.37158 12.0588V9.61998H5.93064C5.58386 9.61998 5.30273 9.33886 5.30273 8.99207C5.30273 8.67419 5.53896 8.41148 5.84544 8.3699L5.93064 8.36417H8.37158V5.9251C8.37158 5.57832 8.65271 5.2972 8.99949 5.2972Z" fill="#563E1F"/>
</svg>
