<svg width="26" height="26" viewBox="0 0 26 26" fill="none" xmlns="http://www.w3.org/2000/svg">
<path d="M18.6664 0H7.33355C2.93262 0 0 3.14587 0 7.66112V18.3389C0 22.8584 2.92489 26 7.33355 26H18.6664C23.0751 26 26 22.8584 26 18.3389V7.66112C26 3.14165 23.0751 0 18.6664 0Z" fill="white"/>
<path d="M13 7C13.5063 7 13.9247 7.38361 13.9909 7.88131L14 8.01967V17.9803C14 18.5435 13.5523 19 13 19C12.4937 19 12.0753 18.6164 12.0091 18.1187L12 17.9803V8.01967C12 7.45652 12.4477 7 13 7Z" fill="#563E1F"/>
<path d="M17.9811 12C18.5438 12 19 12.4477 19 13C19 13.5063 18.6167 13.9247 18.1194 13.9909L17.9811 14H8.01887C7.45616 14 7 13.5523 7 13C7 12.4937 7.3833 12.0753 7.88061 12.0091L8.01887 12H17.9811Z" fill="#563E1F"/>
</svg>
