<svg width="24" height="24" viewBox="0 0 24 24" fill="none" xmlns="http://www.w3.org/2000/svg">
<path d="M4.97149 4.25H19.0484C19.2609 4.25 19.439 4.3219 19.5828 4.4657C19.7265 4.60952 19.7984 4.78772 19.7984 5.0003C19.7984 5.2129 19.7265 5.39099 19.5828 5.53457C19.439 5.67816 19.2609 5.74995 19.0484 5.74995H4.97149C4.75901 5.74995 4.58089 5.67805 4.43714 5.53425C4.29339 5.39043 4.22152 5.21223 4.22152 4.99965C4.22152 4.78705 4.29339 4.60896 4.43714 4.46538C4.58089 4.32179 4.75901 4.25 4.97149 4.25ZM5.16382 19.75C4.90774 19.75 4.69308 19.6633 4.51984 19.4901C4.34661 19.3169 4.25999 19.1022 4.25999 18.8461V13.75H3.95037C3.66575 13.75 3.43146 13.6387 3.24749 13.4163C3.06351 13.1939 3.00485 12.9403 3.07152 12.6557L4.07152 7.96345C4.11709 7.75535 4.22339 7.58442 4.39044 7.45065C4.55751 7.31688 4.74735 7.25 4.95997 7.25H19.06C19.2726 7.25 19.4624 7.31688 19.6295 7.45065C19.7965 7.58442 19.9029 7.75535 19.9484 7.96345L20.9484 12.6557C21.0151 12.9403 20.9564 13.1939 20.7724 13.4163C20.5885 13.6387 20.3542 13.75 20.0696 13.75H19.7599V19C19.7599 19.2125 19.688 19.3906 19.5442 19.5343C19.4004 19.6781 19.2222 19.75 19.0096 19.75C18.797 19.75 18.619 19.6781 18.4754 19.5343C18.3318 19.3906 18.26 19.2125 18.26 19V13.75H13.7599V18.8461C13.7599 19.1022 13.6733 19.3169 13.5001 19.4901C13.3269 19.6633 13.1122 19.75 12.8561 19.75H5.16382ZM5.75994 18.25H12.26V13.75H5.75994V18.25ZM4.67532 12.25H19.3446L18.5811 8.74995H5.43879L4.67532 12.25Z" fill="#A58761"/>
</svg>
