<svg width="126" height="154" viewBox="0 0 126 154" fill="none" xmlns="http://www.w3.org/2000/svg">
<path fill-rule="evenodd" clip-rule="evenodd" d="M59.6172 20.533C52.2693 27.7521 52.1849 27.8761 53.2633 29.9134C53.8643 31.0491 55.4617 34.3237 56.8131 37.1911L59.2698 42.4045L56.9732 47.2006C55.7108 49.8385 54.1118 53.7522 53.4211 55.8981C52.1795 59.754 52.1053 59.8195 46.9589 61.5642C36.4975 65.1107 36.9616 64.7388 36.3381 70.0869C36.0318 72.7079 36.0218 77.4 36.3149 80.513L36.8479 86.1737L44.0767 88.5714C48.0527 89.8895 51.6342 91.3817 52.0349 91.8868C52.4356 92.3912 53.3801 94.7103 54.1335 97.0394C54.8869 99.3685 56.3396 102.937 57.3615 104.968L59.2203 108.662L55.7146 116.029L52.2082 123.396L57.8102 129.158C60.8904 132.327 64.3242 135.57 65.4388 136.365L67.4663 137.811L74.5651 134.372L81.6639 130.933L86.1149 133.169C88.5631 134.399 92.4626 135.959 94.7801 136.633L98.9944 137.861L101.702 145.332C104.818 153.93 104.651 153.819 114.562 153.94C125.323 154.071 125.166 154.163 128.063 146.041C131.069 137.611 131.237 137.367 134.443 136.769C135.828 136.51 139.482 135.096 142.563 133.626L148.165 130.954L154.822 134.015C158.484 135.7 161.945 137.077 162.512 137.077C163.434 137.077 169.097 132.406 171.846 129.378C172.422 128.743 173.94 127.077 175.219 125.677L177.542 123.131L176.01 119.682L174.478 116.235L169.999 118.484C161.415 122.792 155.049 124.184 141.152 124.79C134.133 125.095 127.24 125.714 125.837 126.164C113.615 130.083 94.6122 125.612 82.1667 115.889C61.2253 99.5287 56.8208 68.3784 72.2615 45.837C73.7072 43.7273 73.8441 42.356 73.8488 30.0135L73.8542 16.5007L70.4591 14.8584L67.0633 13.2168L59.6172 20.533ZM70.9209 55.2798C66.6866 65.1291 65.4079 77.0374 67.5939 86.26C69.1727 92.9217 74.2069 102.639 78.4305 107.178C82.0739 111.095 82.3129 111.222 83.6279 109.941C84.9476 108.655 84.8857 108.474 82.186 105.706C78.1683 101.586 74.0615 94.4477 72.1068 88.1849C69.8233 80.8664 69.8627 69.5272 72.1973 62.3912C74.9774 53.8915 73.9586 48.2131 70.9209 55.2798Z" fill="#E36E26"/>
<path fill-rule="evenodd" clip-rule="evenodd" d="M110.929 2.55352C108.153 5.379 105.164 10.9868 104.24 15.1043C103.694 17.5324 103.682 18.8472 104.184 21.2402C105.013 25.2022 107.617 30.4369 110.289 33.5124L112.415 35.9604V44.8683C112.415 54.2119 112.203 54.8318 110.286 51.0868C107.154 44.9709 97.7136 40.2141 88.708 40.2141H84.7774L84.7818 42.2388C84.7839 43.3527 85.037 45.8429 85.3443 47.7732C87.402 60.6938 95.4142 68.1099 108.622 69.3182L112.144 69.6406L112.29 81.6542C112.37 88.2619 112.248 93.6645 112.019 93.6607C111.79 93.6569 110.909 92.2137 110.061 90.4546C105.985 81.9965 95.063 76.0766 82.8807 75.7219L78.0035 75.5799L77.8257 77.4394C77.5575 80.2487 79.245 89.3958 80.7266 93.1624C85.1302 104.358 94.1743 110.419 108.486 111.765L112.415 112.135V122.577C112.415 132.816 112.712 134.624 114.156 133.185C114.535 132.807 114.719 116.921 114.721 84.2108L114.725 35.7968L116.78 33.4303C119.387 30.4293 121.993 25.166 122.815 21.2402C123.624 17.3731 122.827 13.4753 120.194 8.43126C118.568 5.31745 114.425 0.258789 113.499 0.258789C113.325 0.258789 112.169 1.29169 110.929 2.55352ZM116.04 5.81905C120.236 11.3745 121.811 17.4061 120.347 22.3168C119.362 25.6207 117.014 30.0903 115.587 31.3769C114.623 32.2462 114.583 32.1814 114.583 29.7571C114.583 27.883 115.147 26.1142 116.769 22.901C117.97 20.5194 118.809 18.338 118.633 18.0535C118.007 17.0438 116.873 17.56 116.209 19.1566C115.839 20.0474 115.329 20.7764 115.078 20.7764C114.826 20.7764 114.55 18.1647 114.466 14.972C114.34 10.2406 114.162 9.16774 113.499 9.16774C112.81 9.16774 112.645 10.9376 112.415 20.7764L112.144 32.385L110.676 30.4725C105.975 24.3507 104.887 17.3672 107.7 11.3556C109.556 7.38756 112.414 3.53188 113.499 3.53188C113.946 3.53188 115.09 4.561 116.04 5.81905ZM13.1158 30.2603C11.4884 31.1404 9.99272 33.5799 9.99272 35.3546C9.99272 38.2163 13.0817 41.2939 15.9538 41.2939C17.7996 41.2939 20.209 39.7751 21.1069 38.0451L21.9426 36.4345H33.4713H45.0001L51.8825 43.3651C55.6683 47.1771 58.7654 50.4275 58.7654 50.5884C58.7654 50.7493 58.3687 51.8216 57.8842 52.9717C56.2985 56.735 54.9779 62.258 54.3509 67.7524L53.7353 73.1502H32.9343H12.1333L11.6185 71.8003C10.8278 69.7291 7.96053 68.1844 5.46879 68.4884C1.55072 68.9651 -0.702581 72.8235 0.810455 76.4627C1.60653 78.3778 4.20828 80.1656 6.19929 80.1656C8.08246 80.1656 11.0012 78.2769 11.6185 76.6598L12.1333 75.3099H32.9343H53.7353L54.3596 80.7822C54.9969 86.3656 55.8585 90.0372 57.7563 95.2508L58.8239 98.1838L51.8928 105.105L44.9622 112.026H33.4524H21.9426L21.1069 110.415C20.209 108.685 17.7996 107.166 15.9538 107.166C13.0817 107.166 9.99272 110.244 9.99272 113.105C9.99272 115.967 13.0817 119.045 15.9538 119.045C17.7996 119.045 20.209 117.526 21.1069 115.796L21.9426 114.185H33.7239H45.5046L52.2623 107.436C55.9788 103.724 59.2677 100.692 59.5701 100.699C59.8725 100.706 61.0544 102.368 62.1962 104.391C64.6473 108.734 70.6063 115.992 71.9286 116.246C73.5283 116.553 72.9864 114.524 70.9412 112.549C65.2137 107.018 59.6818 96.3545 57.3363 86.3257C55.9506 80.3999 55.9506 68.0602 57.3363 62.1344C59.6818 52.1056 65.2137 41.4424 70.9412 35.9113C72.9864 33.9362 73.5283 31.9066 71.9286 32.2138C70.6063 32.4676 64.6473 39.7265 62.1962 44.0692C61.0544 46.0923 59.8725 47.7537 59.5701 47.7607C59.2677 47.7678 55.9788 44.736 52.2623 41.024L45.5046 34.2748H33.7239H21.9426L21.1069 32.6641C19.5939 29.7485 16.0394 28.6799 13.1158 30.2603ZM18.4168 32.9006C19.1484 33.6295 19.7472 34.7337 19.7472 35.3546C19.7472 35.9756 19.1484 37.0797 18.4168 37.8086C17.6852 38.5376 16.577 39.1342 15.9538 39.1342C15.3306 39.1342 14.2224 38.5376 13.4908 37.8086C12.7592 37.0797 12.1604 35.9756 12.1604 35.3546C12.1604 34.7337 12.7592 33.6295 13.4908 32.9006C14.2224 32.1717 15.3306 31.5751 15.9538 31.5751C16.577 31.5751 17.6852 32.1717 18.4168 32.9006ZM154.143 32.9805C154.143 33.4568 155.272 35.0965 156.652 36.6251C162.992 43.6464 167.326 52.144 169.662 62.1344C171.048 68.0602 171.048 80.3999 169.662 86.3257C167.316 96.3545 161.785 107.018 156.057 112.549C154.103 114.436 153.528 116.345 154.914 116.345C156.398 116.345 162.694 108.31 166.832 101.137C169.233 96.9738 171.778 87.9493 172.782 80.0344C173.403 75.142 173.403 73.3181 172.782 68.4257C171.778 60.5108 169.233 51.4863 166.832 47.3234C161.158 37.4858 154.143 29.5563 154.143 32.9805ZM95.5323 43.2528C104.846 45.9244 109.622 51.0959 111.627 60.6782C112.085 62.8617 112.318 64.7882 112.146 64.9593C111.975 65.1305 107.602 61.0594 102.43 55.9127C93.8334 47.3574 91.8224 45.8483 91.8224 47.9513C91.8224 48.3109 94.0096 50.7747 96.6828 53.4258C99.3556 56.0768 101.452 58.3359 101.342 58.4461C101.231 58.5568 100.16 58.3538 98.9605 57.9963C97.7618 57.6383 96.3534 57.5088 95.8315 57.7085C94.2393 58.317 95.9269 59.364 101.101 60.9778C104.795 62.129 106.207 62.8763 107.84 64.543C108.976 65.7023 109.732 66.8243 109.52 67.0359C108.877 67.6768 102.608 66.1672 98.9855 64.4993C92.199 61.3747 88.3075 55.1028 87.183 45.4784L86.8205 42.3738H89.6444C91.1975 42.3738 93.847 42.7696 95.5323 43.2528ZM8.66231 71.776C9.3939 72.5049 9.99272 73.6091 9.99272 74.23C9.99272 75.6868 7.66139 78.0096 6.19929 78.0096C4.7372 78.0096 2.40586 75.6868 2.40586 74.23C2.40586 72.7733 4.7372 70.4505 6.19929 70.4505C6.8225 70.4505 7.93072 71.0471 8.66231 71.776ZM91.0095 78.8859C99.0353 80.9274 105.425 85.776 108.568 92.2099C111.043 97.2778 113.213 107.166 111.85 107.166C111.502 107.166 105.961 101.942 99.5366 95.5575C93.1127 89.1728 87.6718 83.9489 87.4458 83.9489C85.819 83.9489 87.3992 86.1788 93.0758 91.8946C96.6791 95.5219 99.4661 98.6503 99.27 98.8457C99.0738 99.0417 97.3147 98.6395 95.3616 97.9527C92.6179 96.9873 91.6636 96.8496 91.1661 97.3452C90.1706 98.3371 91.0117 98.8036 97.777 101.012C103.054 102.734 104.401 103.416 106.624 105.487C108.066 106.831 109.494 108.391 109.796 108.954C110.307 109.906 110.182 109.953 107.993 109.628C90.6031 107.048 82.9566 99.6589 80.4096 82.9738C79.5609 77.414 79.6802 77.2434 84.1114 77.691C86.1171 77.8935 89.2212 78.4313 91.0095 78.8859ZM18.4168 110.651C19.1484 111.38 19.7472 112.485 19.7472 113.105C19.7472 114.562 17.4159 116.885 15.9538 116.885C14.4917 116.885 12.1604 114.562 12.1604 113.105C12.1604 111.649 14.4917 109.326 15.9538 109.326C16.577 109.326 17.6852 109.923 18.4168 110.651Z" fill="#E36E26"/>
</svg>
