<svg width="122" height="155" viewBox="0 0 122 155" fill="none" xmlns="http://www.w3.org/2000/svg">
<path d="M56.4346 0.358178V8.0799H48.5323V56.5075H77.1775V75.6625L85.0743 67.7381V67.9389L96.4678 56.5075H113.237V48.7857H121.143V0.354492L56.4346 0.358178ZM110.058 45.5902V47.1879V48.7857V53.3174H99.6485H97.3988H95.1529H94.9527L88.2569 60.0366L86.6647 61.6344L85.0743 63.2322L80.3528 67.9684V53.3322H51.7149V11.2847H56.4346H58.025H59.6172H110.058V45.5902ZM117.958 45.5902H113.237V8.08543H59.6172V3.5556H117.96V45.5902H117.958ZM23.7896 56.5167L17.0939 60.4347L11.7424 51.2147C12.657 50.7466 13.5899 50.3282 14.5375 50.0131C17.9092 51.7086 21.0184 53.8961 23.7896 56.5167ZM30.4358 64.6438L22.2984 69.3967L18.552 62.9336L25.8924 58.6471C27.5617 60.4734 29.0694 62.4932 30.4358 64.6438ZM26.3625 55.0147C24.0596 52.7498 21.5381 50.7705 18.8238 49.0953C23.2534 48.6383 27.738 49.663 31.5175 52.0108L26.3625 55.0147ZM8.59101 68.7406L16.0489 64.3858L19.7935 70.847L11.634 75.6164C10.411 73.3902 9.38988 71.0976 8.59101 68.7406ZM28.423 57.1617L34.0463 53.8777C35.712 55.3151 37.1738 57.0198 38.3363 59.0249C38.4795 59.2792 38.6025 59.5372 38.7311 59.7952L32.9315 63.1769C31.5744 61.0281 30.0667 59.0212 28.423 57.1617ZM3.9319 80.1168C3.77396 79.8735 3.60685 79.6505 3.46544 79.4017C2.30296 77.3948 1.55368 75.2681 1.12027 73.1101L6.06036 70.226C6.88861 72.5646 7.9152 74.8479 9.13461 77.0742L3.9319 80.1168ZM5.16784 67.3934L0.747467 69.9809C0.606059 66.026 1.61244 62.0988 3.65459 58.706C3.86028 61.6344 4.37081 64.5443 5.16784 67.3934ZM7.73889 65.897C6.81148 62.3623 6.39277 58.7503 6.435 55.1308C7.29447 54.2481 8.2329 53.4243 9.26316 52.7L14.5889 61.8924L7.73889 65.897ZM21.0533 91.5169L23.1983 90.2601L23.3048 90.4407C23.0385 90.6305 22.8806 90.789 22.8291 90.9032C22.7685 91.0138 22.7428 91.1465 22.7593 91.3031C22.7851 91.4579 22.8787 91.6975 23.055 92.0016L26.2119 97.4363L26.0503 97.5284L18.4914 94.6609L20.9027 98.8148C21.1267 99.1797 21.3489 99.3897 21.6061 99.4248C21.8466 99.4635 22.0762 99.4119 22.3002 99.2865L22.4453 99.1962L22.5537 99.3787L20.2507 100.722L20.1479 100.545C20.5042 100.328 20.7099 100.105 20.7741 99.8818C20.8237 99.6551 20.7503 99.3658 20.5501 99.0285L17.8762 94.425L17.6411 94.3328C17.3932 94.2407 17.2077 94.1946 17.0737 94.1983C16.9378 94.2075 16.7706 94.2739 16.5705 94.3808L16.4676 94.1983L18.7761 92.8549L24.3295 95.0239L22.7043 92.2172C22.4784 91.8302 22.2617 91.5943 22.078 91.5188C21.8117 91.4266 21.5087 91.4837 21.1488 91.7049L21.0533 91.5169ZM31.949 91.1207L32.1253 91.0193L33.0344 93.2658L27.4111 96.548L27.3138 96.3656L27.5323 96.2402C27.7215 96.1352 27.8464 96.0062 27.9272 95.8809C27.9768 95.7832 28.008 95.6708 27.9859 95.5344C27.9694 95.4367 27.8831 95.223 27.6903 94.8986L25.2019 90.6028C25.0256 90.3135 24.9227 90.1366 24.8584 90.0776C24.7684 89.9855 24.6583 89.9265 24.5389 89.9136C24.3626 89.897 24.1789 89.9523 23.9549 90.0776L23.7455 90.1992L23.6427 90.0223L29.0897 86.8396L30.2081 88.7728L30.0281 88.8742C29.659 88.4522 29.3376 88.1942 29.0456 88.0873C28.7554 87.9822 28.4285 87.973 28.0631 88.0541C27.8537 88.0947 27.5066 88.2624 27.0108 88.5535L26.3423 88.9442L27.8739 91.5962L28.0116 91.5206C28.423 91.2755 28.6416 90.9733 28.6746 90.6028C28.7095 90.2343 28.6012 89.7883 28.3569 89.2502L28.5479 89.1451L30.5331 92.5655L30.3531 92.6724C30.0905 92.3186 29.8389 92.0587 29.5726 91.8984C29.31 91.7288 29.0695 91.6496 28.8693 91.6625C28.6599 91.6754 28.3991 91.7731 28.0796 91.9574L29.1429 93.7984C29.3541 94.1541 29.4992 94.366 29.58 94.4287C29.6608 94.4877 29.7471 94.5171 29.8628 94.5171C29.9767 94.5264 30.1254 94.4711 30.3091 94.3568L30.7057 94.1264C31.3154 93.7745 31.7085 93.3432 31.9105 92.8567C32.1033 92.3739 32.1253 91.786 31.949 91.1207ZM38.0369 81.604L39.732 80.6199L39.8293 80.7986C39.7154 80.8816 39.6291 80.9756 39.5759 81.0751C39.5226 81.1856 39.4951 81.3183 39.5024 81.4695C39.5061 81.5284 39.5502 81.8307 39.6328 82.4038L40.7182 88.9737L40.529 89.0788L36.4778 85.8168L37.1389 91.0636L36.9626 91.1594L31.7287 87.0866C31.1998 86.6701 30.8637 86.4434 30.7131 86.3808C30.5625 86.3089 30.3825 86.3384 30.1695 86.4379L30.0667 86.2573L32.8838 84.6061L32.9866 84.7922C32.7607 84.9249 32.6267 85.0484 32.5844 85.1534C32.5404 85.2621 32.5477 85.3616 32.6102 85.4556C32.6836 85.5717 32.9095 85.7837 33.2896 86.0896L36.4116 88.5075L35.9948 85.439L35.3281 84.9101C34.9553 84.6171 34.7019 84.4218 34.544 84.3425C34.386 84.2541 34.2428 84.2283 34.1069 84.2356C33.9728 84.2356 33.8057 84.3038 33.6037 84.4218L33.5064 84.2356L36.6504 82.3946L36.7532 82.5807C36.5347 82.706 36.3841 82.8166 36.307 82.9014C36.2445 82.9769 36.217 83.0396 36.2078 83.1096C36.1986 83.1852 36.2151 83.2571 36.2592 83.3289C36.3015 83.399 36.5126 83.5851 36.8726 83.8836L39.8532 86.2812L39.2839 82.8645C39.2325 82.5107 39.1847 82.2711 39.1498 82.1476C39.1149 82.0334 39.0635 81.9173 39.0176 81.8325C38.9405 81.7072 38.8413 81.6224 38.7091 81.6021C38.5768 81.5708 38.3803 81.6353 38.1232 81.7791L38.0369 81.604ZM46.5379 81.3773C46.9879 81.5542 47.3441 81.8657 47.5939 82.2932C47.9061 82.8314 47.9722 83.4285 47.7794 84.0679C47.5792 84.7037 47.1568 85.2197 46.5067 85.5938C46.2955 85.7155 46.0935 85.8076 45.8841 85.8666C45.6729 85.9293 45.4067 85.9919 45.0632 86.0343C44.8704 86.0601 44.7308 86.1006 44.6262 86.1596C44.5435 86.2094 44.4737 86.2849 44.4168 86.4121C44.3654 86.5227 44.3342 86.6701 44.3654 86.836L44.1891 86.9336L42.7566 84.4697L42.9329 84.3683C43.4765 84.982 44.055 85.3524 44.661 85.4851C45.2781 85.6068 45.8144 85.5478 46.2735 85.2769C46.6334 85.0631 46.8703 84.8051 46.9566 84.4771C47.0503 84.1564 47.0356 83.8634 46.8832 83.6054C46.7932 83.4506 46.6555 83.3326 46.4957 83.2276C46.3304 83.1391 46.1265 83.0636 45.8841 83.0304C45.6399 82.9972 45.2469 83.0046 44.7033 83.0396C43.9448 83.093 43.3682 83.093 42.9954 83.0396C42.6171 82.9898 42.2957 82.8756 42.0037 82.6987C41.7245 82.5254 41.4876 82.2895 41.3095 81.9781C41.023 81.4621 40.9496 80.9074 41.113 80.314C41.2838 79.7261 41.6529 79.269 42.2369 78.9281C42.4555 78.8102 42.674 78.7088 42.8925 78.6498C43.0688 78.5927 43.2929 78.5614 43.5683 78.5448C43.8346 78.5227 44.0183 78.4821 44.1083 78.4342C44.1983 78.39 44.2368 78.3199 44.2644 78.2425C44.2791 78.1615 44.2442 78.0159 44.1744 77.7947L44.3176 77.7081L45.6344 79.8569L45.4415 79.9712C45.021 79.4791 44.5453 79.1714 43.9871 79.0553C43.4288 78.9336 42.9458 78.9963 42.5252 79.2469C42.1983 79.4367 41.989 79.6708 41.899 79.962C41.809 80.2476 41.8255 80.5001 41.9688 80.7323C42.0551 80.8742 42.1616 80.9885 42.2938 81.0603C42.4701 81.158 42.7107 81.2243 42.9972 81.2502C43.2176 81.2667 43.6675 81.2501 44.3635 81.2004C45.3626 81.1414 46.0806 81.193 46.5379 81.3773ZM88.5563 82.0573C76.6082 90.2988 74.5734 103.324 82.9459 117.832C88.907 128.148 90.8757 143.039 84.4628 146.787C80.9643 148.829 77.2289 149.284 73.6717 148.108C72.2797 147.646 70.9445 146.885 69.6609 145.947C71.2108 143.833 71.6387 141.264 70.4652 139.237L48.064 94.4176L56.5907 89.4308L43.46 66.8129L40.9991 68.2504C40.9128 66.3043 40.5657 64.3582 39.8936 62.4637L34.397 65.6759C35.2932 67.3271 36.0627 69.0152 36.7422 70.7438L34.2189 72.2108C33.5559 70.4877 32.803 68.7885 31.8976 67.1336L23.74 71.8956L26.5241 76.7L24.0283 78.1578L21.2479 73.357L13.1142 78.108C14.1225 79.704 15.2519 81.1856 16.4254 82.6047L13.9039 84.0771C12.7414 82.6471 11.6157 81.1599 10.6056 79.5713L5.65451 82.4628C6.96758 83.9832 8.47899 85.2492 10.1208 86.2868L7.6636 87.7242L20.7907 110.34L29.3137 105.363L57.0903 147.058C58.5062 149.487 61.7402 150.316 64.9191 149.312C67.099 151.179 69.3946 152.708 71.8867 153.532C77.0435 155.248 82.3839 154.618 87.3479 151.717C97.9847 145.508 94.5027 126.377 87.9007 114.951C83.0928 106.636 79.8661 95 91.7921 86.7696L88.5563 82.0573ZM21.6116 107.189L10.8003 88.5591L42.6391 69.9606L53.4541 88.5959L21.6116 107.189Z" fill="#3F2C13"/>
</svg>
