<svg width="27" height="30" viewBox="0 0 27 30" fill="none" xmlns="http://www.w3.org/2000/svg">
<path fill-rule="evenodd" clip-rule="evenodd" d="M12.3368 0.0810702C10.6372 0.315678 9.13134 0.98287 7.76833 2.10515C6.17298 3.41873 4.94106 5.61559 4.68347 7.60603C4.64986 7.86619 4.60188 7.96489 4.41478 8.15917C4.01011 8.57939 4.00016 8.62968 3.97481 10.3773C3.95992 11.408 3.97481 12.051 4.01848 12.2631C4.09688 12.6439 4.34004 13.0054 4.6505 13.2029C4.84225 13.3249 4.88906 13.3985 4.97694 13.7166C5.15223 14.3513 5.61593 15.3182 6.08964 16.0366C6.61708 16.8366 7.45509 17.7224 8.20348 18.2709C8.57191 18.541 8.71103 18.6811 8.76349 18.8348C8.87318 19.1564 9.00816 19.3273 9.29977 19.5136C9.94405 19.9254 10.6653 19.8927 10.9395 19.4394C11.084 19.2006 11.0862 19.0219 10.9485 18.718C10.7076 18.1864 10.1873 17.8682 9.55933 17.8682C9.10936 17.8682 9.01985 17.8209 8.24675 17.1756C7.26735 16.3581 6.37246 15.0529 5.919 13.7807L5.76773 13.3563L5.98437 13.2439C6.44487 13.0053 6.68652 12.6058 6.73694 11.9999L6.77097 11.591L6.90369 12.1069C7.33487 13.7831 8.22569 15.437 9.33403 16.6192C11.4828 18.9111 14.0423 19.3104 16.4097 17.7231C17.5152 16.9819 18.644 15.6068 19.3456 14.1466C19.6543 13.504 20.0845 12.3062 20.1664 11.8609C20.2083 11.6333 20.2116 11.64 20.2822 12.0908C20.3633 12.6085 20.5463 12.9358 20.8826 13.1641C21.4515 13.5505 22.2177 13.448 22.6739 12.9243C22.9915 12.5598 23.0091 12.4344 23.0079 10.5422C23.0067 8.61421 22.9997 8.57336 22.599 8.16961C22.4206 7.9898 22.3814 7.89755 22.3104 7.49052C21.8064 4.60226 19.9778 2.16458 17.3676 0.901581C15.7636 0.125495 14.0454 -0.154768 12.3368 0.0810702ZM14.3226 0.933581C17.6046 1.26981 20.4591 3.7157 21.26 6.87777C21.4932 7.79862 21.4938 7.76117 21.2457 7.83607C20.9816 7.91583 20.6689 8.142 20.5319 8.35252L20.4297 8.50959L20.3921 8.28049C20.144 6.76964 19.6402 5.6861 18.7404 4.72833C17.4634 3.36909 15.6958 2.67728 13.5 2.67728C11.3042 2.67728 9.53659 3.36909 8.2596 4.72833C7.74757 5.27338 7.31086 5.94198 7.0631 6.56006C6.92119 6.91405 6.68687 7.80067 6.60702 8.28565L6.5684 8.52002L6.48948 8.36823C6.41306 8.22118 5.86061 7.76234 5.67246 7.68955C5.55754 7.64512 5.59255 7.35209 5.79372 6.67493C6.52391 4.21639 8.42372 2.20731 10.8247 1.35456C11.9933 0.9395 13.0911 0.807398 14.3226 0.933581ZM18.6257 19.2636C18.4712 19.5759 17.8006 20.9727 17.1353 22.3675C16.4699 23.7623 15.9156 24.8934 15.9033 24.881C15.891 24.8686 15.5582 23.978 15.1637 22.9018L14.4465 20.9451L14.2786 20.9606C14.1862 20.9692 13.8359 20.9761 13.5 20.9761C13.1641 20.9761 12.813 20.9692 12.7196 20.9606L12.5499 20.9451L11.7941 23.011C11.3785 24.1472 11.0231 25.0768 11.0043 25.0765C10.9854 25.0763 10.2945 23.6553 9.46866 21.9187L7.96724 18.7613L5.92098 19.7421C4.79554 20.2816 3.69152 20.8162 3.4676 20.9302C2.20294 21.5741 1.02045 22.8579 0.425606 24.2332C0.0347207 25.1367 0.0437354 25.0608 0.020879 27.641L0 30H13.5H27L26.9791 27.641C26.9563 25.0608 26.9653 25.1367 26.5744 24.2332C26.0827 23.0966 25.1838 22.008 24.1511 21.2988C23.8188 21.0706 22.6224 20.4736 19.5909 19.0232L18.9063 18.6956L18.6257 19.2636Z" fill="white"/>
</svg>
