<svg width="15" height="15" viewBox="0 0 15 15" fill="none" xmlns="http://www.w3.org/2000/svg">
<path fill-rule="evenodd" clip-rule="evenodd" d="M6.85379 0.0405351C5.90955 0.157839 5.07297 0.491435 4.31574 1.05258C3.42943 1.70937 2.74503 2.8078 2.60193 3.80302C2.58325 3.9331 2.5566 3.98244 2.45265 4.07959C2.22784 4.2897 2.22231 4.31484 2.20823 5.18865C2.19995 5.70402 2.20823 6.02552 2.23249 6.13157C2.27605 6.32193 2.41114 6.5027 2.58361 6.60143C2.69014 6.66244 2.71615 6.69927 2.76497 6.85831C2.86235 7.17564 3.11996 7.65909 3.38313 8.0183C3.67615 8.4183 4.14172 8.8612 4.55749 9.13546C4.76217 9.27049 4.83946 9.34056 4.86861 9.41739C4.92954 9.57821 5.00453 9.66363 5.16654 9.75679C5.52447 9.96268 5.92516 9.94636 6.0775 9.71972C6.15779 9.60031 6.15902 9.51093 6.08251 9.35899C5.94865 9.0932 5.65963 8.93408 5.31074 8.93408C5.06075 8.93408 5.01103 8.91046 4.58153 8.5878C4.03742 8.17904 3.54026 7.52647 3.28833 6.89036L3.20429 6.67815L3.32465 6.62197C3.58048 6.50264 3.71473 6.30288 3.74275 5.99996L3.76165 5.79548L3.83538 6.05344C4.07493 6.89157 4.56983 7.71852 5.18557 8.30961C6.37931 9.45557 7.80126 9.65522 9.11649 8.86155C9.73068 8.49095 10.3578 7.80339 10.7476 7.07328C10.9191 6.75202 11.158 6.15311 11.2036 5.93043C11.2268 5.81664 11.2287 5.82001 11.2679 6.04541C11.3129 6.30423 11.4146 6.46789 11.6014 6.58206C11.9175 6.77526 12.3431 6.72398 12.5966 6.46215C12.7731 6.27988 12.7828 6.21722 12.7822 5.27109C12.7815 4.3071 12.7776 4.28668 12.555 4.0848C12.4559 3.9949 12.4341 3.94877 12.3946 3.74526C12.1147 2.30113 11.0988 1.08229 9.64865 0.45079C8.75756 0.0627475 7.80301 -0.077384 6.85379 0.0405351ZM7.957 0.46679C9.78031 0.634907 11.3661 1.85785 11.8111 3.43889C11.9407 3.89931 11.941 3.88058 11.8032 3.91803C11.6564 3.95792 11.4827 4.071 11.4066 4.17626L11.3498 4.2548L11.3289 4.14025C11.1911 3.38482 10.9112 2.84305 10.4113 2.36416C9.70189 1.68455 8.71991 1.33864 7.5 1.33864C6.28009 1.33864 5.29811 1.68455 4.58867 2.36416C4.30421 2.63669 4.06159 2.97099 3.92394 3.28003C3.84511 3.45702 3.71493 3.90034 3.67057 4.14283L3.64911 4.26001L3.60527 4.18411C3.56281 4.11059 3.25589 3.88117 3.15137 3.84477C3.08752 3.82256 3.10697 3.67604 3.21874 3.33746C3.62439 2.10819 4.67985 1.10365 6.01372 0.677281C6.66293 0.46975 7.27283 0.403699 7.957 0.46679ZM10.3476 9.63181C10.2618 9.78797 9.8892 10.4864 9.5196 11.1837C9.14997 11.8812 8.84198 12.4467 8.83517 12.4405C8.82835 12.4343 8.64347 11.989 8.42431 11.4509L8.02585 10.4725L7.93257 10.4803C7.88123 10.4846 7.68659 10.4881 7.5 10.4881C7.31341 10.4881 7.11832 10.4846 7.06646 10.4803L6.97218 10.4725L6.5523 11.5055C6.32141 12.0736 6.12393 12.5384 6.11349 12.5383C6.10303 12.5381 5.71915 11.8276 5.26037 10.9594L4.42624 9.38067L3.28943 9.87107C2.66419 10.1408 2.05084 10.4081 1.92645 10.4651C1.22386 10.787 0.566919 11.429 0.236448 12.1166C0.0192893 12.5684 0.0242974 12.5304 0.0115994 13.8205L0 15H7.5H15L14.9884 13.8205C14.9757 12.5304 14.9807 12.5684 14.7636 12.1166C14.4904 11.5483 13.991 11.004 13.4173 10.6494C13.2327 10.5353 12.568 10.2368 10.8838 9.5116L10.5035 9.34782L10.3476 9.63181Z" fill="#FAA326"/>
</svg>
