<svg width="26" height="26" viewBox="0 0 26 26" fill="none" xmlns="http://www.w3.org/2000/svg">
<g clip-path="url(#clip0_2077_1761)">
<path d="M19.5 24.375C18.5358 24.375 17.5933 24.0891 16.7916 23.5534C15.9899 23.0177 15.3651 22.2564 14.9961 21.3656C14.6271 20.4748 14.5306 19.4946 14.7187 18.5489C14.9068 17.6033 15.3711 16.7346 16.0529 16.0529C16.7346 15.3711 17.6033 14.9068 18.5489 14.7187C19.4946 14.5306 20.4748 14.6271 21.3656 14.9961C22.2564 15.3651 23.0177 15.9899 23.5534 16.7916C24.0891 17.5933 24.375 18.5358 24.375 19.5C24.3736 20.7925 23.8595 22.0316 22.9456 22.9456C22.0316 23.8595 20.7925 24.3736 19.5 24.375ZM19.5 16.25C18.8572 16.25 18.2289 16.4406 17.6944 16.7977C17.1599 17.1548 16.7434 17.6624 16.4974 18.2563C16.2514 18.8501 16.187 19.5036 16.3125 20.134C16.4379 20.7645 16.7474 21.3436 17.2019 21.7981C17.6564 22.2526 18.2355 22.5622 18.866 22.6876C19.4964 22.813 20.1499 22.7486 20.7437 22.5026C21.3376 22.2566 21.8452 21.8401 22.2023 21.3056C22.5594 20.7711 22.75 20.1428 22.75 19.5C22.749 18.6383 22.4063 17.8123 21.797 17.203C21.1877 16.5937 20.3617 16.251 19.5 16.25Z" fill="#F39A00"/>
<path d="M9.75 12.6669L7.64562 10.5625L6.5 11.7081L9.75 14.9581L15.4375 9.27062L14.2919 8.125L9.75 12.6669Z" fill="#F39A00"/>
<path d="M11.375 19.5C9.76803 19.5 8.19715 19.0235 6.861 18.1307C5.52485 17.2379 4.48345 15.969 3.86848 14.4843C3.25352 12.9997 3.09262 11.366 3.40612 9.7899C3.71963 8.2138 4.49346 6.76606 5.62976 5.62976C6.76606 4.49346 8.2138 3.71963 9.7899 3.40612C11.366 3.09262 12.9997 3.25352 14.4843 3.86848C15.969 4.48345 17.2379 5.52485 18.1307 6.861C19.0235 8.19715 19.5 9.76803 19.5 11.375H21.125C21.125 9.44664 20.5532 7.56157 19.4818 5.95819C18.4105 4.35482 16.8877 3.10513 15.1062 2.36718C13.3246 1.62922 11.3642 1.43614 9.47287 1.81235C7.58156 2.18855 5.84428 3.11715 4.48071 4.48071C3.11715 5.84428 2.18855 7.58156 1.81235 9.47287C1.43614 11.3642 1.62922 13.3246 2.36718 15.1062C3.10513 16.8877 4.35482 18.4105 5.95819 19.4818C7.56157 20.5532 9.44664 21.125 11.375 21.125V19.5Z" fill="#F39A00"/>
</g>
<defs>
<clipPath id="clip0_2077_1761">
<rect width="26" height="26" fill="white"/>
</clipPath>
</defs>
</svg>
