<svg width="23" height="23" viewBox="0 0 23 23" fill="none" xmlns="http://www.w3.org/2000/svg">
<path fill-rule="evenodd" clip-rule="evenodd" d="M15.8462 0.0271891C15.4308 0.444261 16.3577 3.68948 17.0111 4.1056C17.4479 4.38397 17.277 4.51119 16.4505 4.52124C14.2788 4.54802 13.8477 5.2315 15.2852 6.36793C16.8083 7.57227 18.2687 7.69232 18.6679 6.64629C18.8292 6.22396 19.2613 6.02021 19.6653 6.17613C20.8544 6.63482 21.6856 5.47974 21.6718 3.38672L21.659 1.41233L19.9998 3.20593C19.0876 4.19265 18.194 4.99953 18.0146 4.99953C17.8347 4.99953 17.9446 4.74125 18.2587 4.42558C19.2375 3.44173 18.8901 1.87627 17.456 0.810634C16.7003 0.249117 15.9761 -0.103385 15.8462 0.0271891ZM21.4254 6.72521C20.6521 7.12841 19.8418 7.77794 19.6243 8.1687C19.3583 8.64604 19.0462 8.72735 18.6722 8.41694C17.9242 7.79564 14.5472 7.18438 14.5472 7.67032C14.5472 7.88268 15.1225 8.65991 15.8258 9.39744C17.0458 10.6778 18.8297 11.2193 18.8297 10.31C18.8297 10.0737 19.5197 9.91208 20.3624 9.9513C21.7432 10.0144 21.9569 9.83651 22.5141 8.15866C22.8543 7.13415 23.0651 6.22731 22.9818 6.14409C22.8985 6.06038 22.1981 6.32201 21.4254 6.72521ZM14.0714 9.73894C14.0714 9.99196 14.2802 10.7505 14.5353 11.4254C15.0344 12.7445 14.6428 13.02 13.6422 12.0544C13.1359 11.566 13.0555 11.832 13.2039 13.5055C13.3771 15.455 13.3495 15.5062 12.6396 14.5601C11.6546 13.2467 11.2164 13.7882 11.2164 16.3193C11.2164 18.2043 11.3229 18.3918 12.3912 18.3918C13.2115 18.3918 13.4875 18.5969 13.3057 19.0724C12.8822 20.1825 14.6381 20.8129 16.6204 20.2628C17.574 19.9983 18.3539 19.6898 18.3539 19.5774C18.3539 19.1623 15.5146 17.9135 14.571 17.9135C13.9372 17.9135 13.5955 17.6016 13.5955 17.0234C13.5955 16.3102 13.8563 16.1825 14.9041 16.3824C15.624 16.5202 16.4515 16.9588 16.7436 17.3577C17.1947 17.9737 17.4959 17.9905 18.7502 17.4682C21.0338 16.5173 21.5557 15.6277 20.0526 15.2484C19.3702 15.0762 18.273 15.0389 17.6144 15.1657C16.7493 15.3321 16.274 15.1274 15.9024 14.4296C15.4827 13.6413 15.5188 13.5141 16.0994 13.738C16.4905 13.8891 17.0772 13.76 17.4036 13.4519C17.858 13.0224 18.0479 13.031 18.2149 13.4892C18.6218 14.6037 20.6298 14.1416 21.6523 12.6981C22.1934 11.9338 22.6364 11.2097 22.6364 11.0882C22.6364 10.8012 19.1466 11.4426 18.4899 11.8501C18.2125 12.0223 17.7096 11.8286 17.3717 11.4197C16.549 10.4229 14.0714 9.16116 14.0714 9.73894ZM8.66113 16.5982C8.12914 18.5941 8.35612 19.7688 9.41913 20.5168C10.0006 20.9262 10.2956 21.2615 10.0744 21.2615C9.85309 21.2615 9.93874 21.5844 10.2647 21.979C10.6325 22.4242 11.6784 22.6964 13.0231 22.6964H15.1891L14.1089 21.5413C13.5151 20.9057 12.5144 20.2561 11.8849 20.0973C11.0512 19.8869 10.7405 19.478 10.7405 18.5902C10.7405 17.2276 9.96872 15.522 9.35156 15.522C9.12982 15.522 8.8191 16.0065 8.66113 16.5982ZM6.2201 21.5341C4.91156 21.9 2.88831 22.2038 1.72347 22.209C0.159883 22.2157 -0.254568 22.3582 0.139422 22.7543C0.776564 23.3947 5.33791 22.706 7.90788 21.5805C9.95539 20.6842 9.32158 20.6665 6.2201 21.5341Z" fill="#FAA326"/>
</svg>
