<svg width="24" height="24" viewBox="0 0 24 24" fill="none" xmlns="http://www.w3.org/2000/svg">
<path d="M15.5 17.4617L20.6423 12.3194C20.7808 12.1809 20.9548 12.1101 21.1644 12.1069C21.374 12.1037 21.5513 12.1745 21.6961 12.3194C21.841 12.4642 21.9134 12.6399 21.9134 12.8463C21.9134 13.0527 21.841 13.2283 21.6961 13.3732L16.1327 18.9366C15.9519 19.1174 15.741 19.2078 15.5 19.2078C15.259 19.2078 15.0481 19.1174 14.8673 18.9366L12.1231 16.1924C11.9846 16.0539 11.9138 15.8799 11.9106 15.6703C11.9074 15.4607 11.9782 15.2835 12.1231 15.1386C12.2679 14.9937 12.4436 14.9213 12.65 14.9213C12.8564 14.9213 13.032 14.9937 13.1769 15.1386L15.5 17.4617ZM5.3077 20.5001C4.81058 20.5001 4.38502 20.3231 4.03102 19.9691C3.67701 19.6151 3.5 19.1895 3.5 18.6924V5.30784C3.5 4.81072 3.67701 4.38516 4.03102 4.03116C4.38502 3.67714 4.81058 3.50014 5.3077 3.50014H9.71348C9.85194 3.01297 10.135 2.60914 10.5625 2.28864C10.9901 1.96812 11.4692 1.80786 12 1.80786C12.5512 1.80786 13.0381 1.96812 13.4605 2.28864C13.883 2.60914 14.1634 3.01297 14.3019 3.50014H18.6922C19.1894 3.50014 19.6149 3.67714 19.9689 4.03116C20.3229 4.38516 20.5 4.81072 20.5 5.30784V9.25014C20.5 9.46262 20.428 9.64074 20.2842 9.78449C20.1404 9.92824 19.9622 10.0001 19.7496 10.0001C19.537 10.0001 19.3589 9.92824 19.2154 9.78449C19.0718 9.64074 19 9.46262 19 9.25014V5.30784C19 5.2309 18.9679 5.16038 18.9038 5.09626C18.8397 5.03216 18.7692 5.00011 18.6922 5.00011H16.5V6.71164C16.5 6.96772 16.4137 7.18238 16.2412 7.35561C16.0687 7.52884 15.8549 7.61546 15.5999 7.61546H8.39982C8.14482 7.61546 7.93111 7.52884 7.75867 7.35561C7.58622 7.18238 7.5 6.96772 7.5 6.71164V5.00011H5.3077C5.23077 5.00011 5.16024 5.03216 5.09612 5.09626C5.03202 5.16038 4.99997 5.2309 4.99997 5.30784V18.6924C4.99997 18.7693 5.03202 18.8398 5.09612 18.904C5.16024 18.9681 5.23077 19.0001 5.3077 19.0001H10.25C10.4625 19.0001 10.6406 19.072 10.7843 19.2158C10.9281 19.3596 11 19.5378 11 19.7504C11 19.963 10.9281 20.1411 10.7843 20.2847C10.6406 20.4283 10.4625 20.5001 10.25 20.5001H5.3077ZM12.0016 5.11551C12.2582 5.11551 12.4727 5.02873 12.6452 4.85516C12.8176 4.68161 12.9038 4.46655 12.9038 4.20999C12.9038 3.95342 12.817 3.73892 12.6435 3.56649C12.4699 3.39405 12.2549 3.30784 11.9983 3.30784C11.7417 3.30784 11.5272 3.39461 11.3548 3.56816C11.1823 3.74173 11.0961 3.9568 11.0961 4.21336C11.0961 4.46993 11.1829 4.68443 11.3565 4.85686C11.53 5.0293 11.7451 5.11551 12.0016 5.11551Z" fill="#A58761"/>
</svg>
