<svg width="18" height="25" viewBox="0 0 18 25" fill="none" xmlns="http://www.w3.org/2000/svg">
<path fill-rule="evenodd" clip-rule="evenodd" d="M5.6121 0.0474327L12.2953 0.02164C15.7228 0.00841174 17.914 1.72246 17.9271 5.1105L17.9923 22.0028C17.9943 22.5342 17.8043 23.0446 17.4641 23.4216C17.1238 23.7987 16.6612 24.0115 16.1654 24.0133C15.8696 24.0093 15.5786 23.9305 15.2977 23.7731L9.00178 20.0361L2.76041 23.8294C2.0086 24.2629 1.09483 24.0678 0.51998 23.3505L0.409678 23.2002L0.304149 23.0151C0.166262 22.7285 0.0912405 22.4105 0.0849169 22.072L0.0205418 5.39169C0.00694537 1.86871 2.13674 0.0608454 5.6121 0.0474327ZM12.3031 1.75943L5.61998 1.78522C2.93937 1.79557 1.59265 2.93873 1.60209 5.38563L1.6663 22.0514C1.66669 22.0718 1.66874 22.0921 1.67038 22.1082C1.67298 22.1338 1.6745 22.1488 1.66637 22.1365L1.70859 22.2109C1.78124 22.3189 1.91694 22.3537 2.0116 22.2993L8.25034 18.5083C8.71535 18.2296 9.27693 18.2275 9.74636 18.5039L16.0315 22.2342C16.0791 22.2608 16.1316 22.275 16.1724 22.2757C16.2365 22.2754 16.2979 22.2472 16.343 22.1972C16.3881 22.1472 16.4134 22.0795 16.4131 22.009L16.3479 5.11664C16.3391 2.83632 14.9494 1.74921 12.3031 1.75943Z" fill="#563F1F"/>
</svg>
