<svg width="27" height="26" viewBox="0 0 27 26" fill="none" xmlns="http://www.w3.org/2000/svg">
<path fill-rule="evenodd" clip-rule="evenodd" d="M19.229 0H8.05262C3.71244 0 0.820312 3.10244 0.820312 7.55535V18.0857C0.820312 22.5428 3.70482 25.641 8.05262 25.641H19.229C23.5768 25.641 26.4613 22.5428 26.4613 18.0857V7.55535C26.4613 3.09827 23.5768 0 19.229 0ZM8.05157 1.78888H19.228C22.5581 1.78888 24.6714 4.05878 24.6714 7.55531V18.0856C24.6714 21.5822 22.5581 23.8521 19.228 23.8521H8.05157C4.72147 23.8521 2.60817 21.5822 2.60817 18.0856V7.55531C2.60817 4.06342 4.72853 1.78888 8.05157 1.78888ZM13.6415 7.5459C14.0944 7.5459 14.4686 7.8824 14.5278 8.31898L14.536 8.44035V11.9147H18.0124C18.5064 11.9147 18.9069 12.3151 18.9069 12.8091C18.9069 13.262 18.5704 13.6362 18.1338 13.6954L18.0124 13.7036H14.536V17.1778C14.536 17.6718 14.1355 18.0723 13.6415 18.0723C13.1887 18.0723 12.8145 17.7358 12.7552 17.2992L12.7471 17.1778V13.7036H9.26665C8.77266 13.7036 8.3722 13.3031 8.3722 12.8091C8.3722 12.3563 8.70869 11.9821 9.14528 11.9228L9.26665 11.9147H12.7471V8.44035C12.7471 7.94636 13.1475 7.5459 13.6415 7.5459Z" fill="#563F1F"/>
</svg>
