<svg width="20" height="19" viewBox="0 0 20 19" fill="none" xmlns="http://www.w3.org/2000/svg">
<path fill-rule="evenodd" clip-rule="evenodd" d="M5.7599 3.71376C5.7599 2.62681 4.86462 1.74192 3.76229 1.74192C2.66113 1.74192 1.76467 2.62681 1.76467 3.71376C1.76467 4.80072 2.66113 5.68561 3.76229 5.68561C4.86462 5.68561 5.7599 4.80072 5.7599 3.71376ZM7.52457 3.71376C7.52457 5.76109 5.83754 7.42753 3.76229 7.42753C1.68821 7.42753 0 5.76109 0 3.71376C0 1.66643 1.68821 0 3.76229 0C5.83754 0 7.52457 1.66643 7.52457 3.71376ZM20 3.714C20 3.23323 19.6047 2.84304 19.1177 2.84304H11.8825C11.3954 2.84304 11.0002 3.23323 11.0002 3.714C11.0002 4.19476 11.3954 4.58495 11.8825 4.58495H19.1177C19.6047 4.58495 20 4.19476 20 3.714ZM14.2393 15.2863C14.2393 16.3732 15.1346 17.2581 16.2369 17.2581C17.3392 17.2581 18.2345 16.3732 18.2345 15.2863C18.2345 14.1982 17.3392 13.3144 16.2369 13.3144C15.1346 13.3144 14.2393 14.1982 14.2393 15.2863ZM12.4746 15.2863C12.4746 13.2378 14.1616 11.5725 16.2369 11.5725C18.3122 11.5725 19.9992 13.2378 19.9992 15.2863C19.9992 17.3336 18.3122 19 16.2369 19C14.1616 19 12.4746 17.3336 12.4746 15.2863ZM0.883161 14.4149H8.11715C8.6042 14.4149 8.99949 14.8051 8.99949 15.2859C8.99949 15.7667 8.6042 16.1568 8.11715 16.1568H0.883161C0.396111 16.1568 0.000823515 15.7667 0.000823515 15.2859C0.000823515 14.8051 0.396111 14.4149 0.883161 14.4149Z" fill="#563F1F"/>
</svg>
