<?xml version="1.0" standalone="no"?>
<!DOCTYPE svg PUBLIC "-//W3C//DTD SVG 20010904//EN"
 "http://www.w3.org/TR/2001/REC-SVG-20010904/DTD/svg10.dtd">
<svg version="1.0" xmlns="http://www.w3.org/2000/svg"
 width="20.000000pt" height="20.000000pt" viewBox="0 0 20.000000 20.000000"
 preserveAspectRatio="xMidYMid meet">

<g transform="translate(0.000000,20.000000) scale(0.100000,-0.100000)"
fill="#000000" stroke="none">
<path d="M76 174 c-34 -33 -8 -82 38 -70 33 8 43 42 20 67 -21 23 -37 24 -58
3z m54 -29 c0 -31 -26 -43 -47 -22 -21 21 -9 47 22 47 20 0 25 -5 25 -25z"/>
<path d="M25 77 c-26 -20 -13 -67 18 -67 45 0 65 50 28 70 -25 13 -24 13 -46
-3z m50 -18 c12 -19 -5 -23 -22 -6 -16 16 -16 17 -1 17 9 0 20 -5 23 -11z
m-25 -37 c-7 -3 -16 2 -21 9 -16 25 -9 32 12 13 13 -12 16 -20 9 -22z"/>
<path d="M100 80 c0 -5 13 -10 28 -10 27 0 52 -15 52 -32 0 -4 -18 -8 -40 -8
-22 0 -40 -4 -40 -10 0 -5 20 -10 45 -10 38 0 45 3 45 20 0 11 -9 29 -20 40
-21 21 -70 28 -70 10z"/>
</g>
</svg>
