<svg width="117" height="126" viewBox="0 0 117 126" fill="none" xmlns="http://www.w3.org/2000/svg">
<path fill-rule="evenodd" clip-rule="evenodd" d="M174.238 0.601482C174.894 0.931405 175.714 1.58782 176.061 2.05987C176.407 2.53193 177.738 6.43298 179.018 10.7285L181.345 18.5389L200.152 18.5464C217.875 18.5536 219.043 18.5914 220.414 19.2059C223.862 20.7512 223.862 25.596 220.414 27.1412C219.048 27.7533 217.902 27.7935 201.654 27.8007C189.99 27.8059 184.35 27.924 184.35 28.1629C184.35 28.3579 185.005 30.6753 185.806 33.3126L187.262 38.1076H200.252C214.338 38.1076 214.829 38.1653 216.283 39.989C217.904 42.0241 217.426 44.885 215.195 46.4965C214.255 47.1752 213.703 47.2099 202.238 47.3081C193.755 47.3808 190.263 47.5216 190.263 47.7918C190.263 48.0016 190.913 50.3114 191.707 52.9246L193.152 57.6764H199.893C207.254 57.6764 208.342 57.8869 209.683 59.5695C210.589 60.7058 210.696 63.0537 209.909 64.554C208.903 66.4752 207.767 66.7742 201.477 66.7742C197.67 66.7742 195.868 66.8919 195.961 67.1347C197.164 70.2437 208.434 108.706 208.447 109.747C208.469 111.427 207.715 112.714 206.157 113.651C205.096 114.29 204.284 114.321 188.256 114.322L171.467 114.323L171.628 113.55C172.047 111.551 172.133 109.506 171.882 107.543L171.608 105.397H184.567C191.695 105.397 197.593 105.281 197.674 105.139C197.755 104.998 196.769 101.406 195.483 97.1573C194.197 92.9088 192.883 88.5446 192.564 87.4587L191.983 85.4847H142.966H93.9495L92.0424 79.5626C90.9937 76.3052 84.948 57.2857 78.6075 37.2964C72.2669 17.3074 66.9958 0.738119 66.8939 0.476172C66.7367 0.0714066 74.6791 -3.77207e-07 119.877 0.000686247C169.808 0.00102956 173.118 0.037764 174.238 0.601482ZM60.8309 12.2734C62.9763 19.024 69.0703 38.2192 74.3733 54.9299L84.0152 85.313L46.5295 85.4002L9.04356 85.4878V95.2705V105.053H16.6089H24.1742V109.688V114.323H13.8088C2.57254 114.323 2.22124 114.271 0.726257 112.395L-1.52588e-05 111.484V69.325C-1.52588e-05 43.19 0.126953 26.8364 0.334259 26.2987C0.518265 25.8212 4.59134 19.9564 9.38617 13.2656C16.2235 3.7246 18.3571 0.981528 19.2785 0.550328C20.3098 0.0672881 22.6813 0 38.6915 0H56.9303L60.8309 12.2734ZM16.3869 19.187L9.04356 29.4479V36.5243V43.6006H25.3916H41.7396V26.4924C41.7396 17.0825 41.6352 9.28076 41.5076 9.15511C41.3803 9.02911 37.328 8.92611 32.5033 8.92611H23.7303L16.3869 19.187ZM123.625 19.0902C121.235 20.2094 120.333 23.3291 121.746 25.5857C123.2 27.9075 121.837 27.8083 152.315 27.8083C167.447 27.8083 179.833 27.6926 179.838 27.5508C179.844 27.409 179.263 25.3234 178.547 22.9161L177.246 18.5389H151.024C127.664 18.5389 124.674 18.5989 123.625 19.0902ZM139.932 38.7805C137.775 40.0782 137.09 43.0585 138.445 45.252C139.785 47.421 139.26 47.3771 163.817 47.3771C176.067 47.3771 186.089 47.2827 186.089 47.1676C186.089 47.0022 184.121 40.5177 183.469 38.5368C183.359 38.1996 178.794 38.108 162.186 38.109C141.831 38.11 141.004 38.1351 139.932 38.7805ZM156.691 59.1077C155.176 60.7408 154.85 62.3791 155.705 64.0764C156.059 64.7806 156.791 65.6756 157.331 66.0653C158.287 66.7553 158.765 66.7766 175.157 66.8696C184.422 66.9218 192.007 66.8446 192.012 66.698C192.018 66.551 191.435 64.4565 190.718 62.0437L189.414 57.6565L173.638 57.7523L157.861 57.8481L156.691 59.1077ZM152.166 93.7403C160.397 95.1304 165.976 101.642 165.958 109.836C165.948 114.671 164.334 118.328 160.784 121.567C154.15 127.618 144.436 127.457 138.087 121.191C133.007 116.177 131.803 108.912 134.977 102.439C136.712 98.9024 141.444 95.0635 145.219 94.1296C147.425 93.5841 150.29 93.4234 152.166 93.7403ZM49.044 93.7534C52.1804 94.2711 55.6253 96.159 57.9951 98.659C59.137 99.864 60.4222 101.565 60.8507 102.439C64.0254 108.912 62.8209 116.177 57.7411 121.191C51.3122 127.536 41.4321 127.593 34.7719 121.323C31.1951 117.955 29.753 114.213 29.9707 108.865C30.0904 105.922 30.2424 105.279 31.3579 102.989C32.0466 101.576 33.1753 99.7785 33.8661 98.9958C37.3628 95.0346 43.6492 92.8635 49.044 93.7534ZM127.48 109.86V114.323L122.088 114.322C116.19 114.32 115.179 114.044 113.875 112.081C113.092 110.9 113.108 108.548 113.908 107.343C115.051 105.62 115.979 105.397 121.984 105.397L127.48 105.397V109.86ZM102.544 105.861C105.563 107.515 105.279 112.514 102.092 113.829C100.407 114.523 90.8998 114.523 89.2149 113.829C86.0472 112.522 85.707 107.438 88.6851 105.918C90.0389 105.227 101.302 105.181 102.544 105.861ZM77.2593 106.73C78.4162 107.872 78.6092 108.277 78.6082 109.562C78.6064 111.479 77.565 113.185 76.0043 113.829C75.2533 114.138 73.6001 114.323 71.5771 114.323H68.3486V109.86V105.397H72.1288H75.9086L77.2593 106.73Z" fill="#FFB141"/>
</svg>
