<svg width="94" height="139" viewBox="0 0 94 139" fill="none" xmlns="http://www.w3.org/2000/svg">
<g clip-path="url(#clip0_0_9387)">
<g clip-path="url(#clip1_0_9387)">
<path d="M142.333 38.3271L78.6569 6.48909C77.2994 5.80963 75.7006 5.80963 74.3426 6.48909L10.6667 38.3271C9.03234 39.1444 8 40.8143 8 42.6419V130.196C8 132.86 10.1597 135.02 12.8241 135.02H28.7433C31.4072 135.02 33.5673 132.861 33.5673 130.196V55.4253H119.434V130.196C119.434 132.86 121.593 135.02 124.258 135.02H140.177C142.841 135.02 145.001 132.861 145.001 130.196V42.6419C145 40.8143 143.968 39.1444 142.333 38.3271ZM135.352 125.372H129.081V50.6012C129.081 47.9374 126.922 45.7772 124.257 45.7772H28.7428C26.0789 45.7772 23.9188 47.9369 23.9188 50.6012V125.372H17.6477V45.6231L76.5 16.1972L135.352 45.6231V125.372Z" fill="#EC884F"/>
<path d="M108.338 63.1436H76.4997C74.6347 63.1436 73.1231 64.6552 73.1231 66.5201V94.9815H44.6617C42.7968 94.9815 41.2852 96.4931 41.2852 98.3581V130.196C41.2852 132.061 42.7968 133.573 44.6617 133.573H108.338C110.203 133.573 111.714 132.061 111.714 130.196V66.5206C111.715 64.6552 110.203 63.1436 108.338 63.1436ZM79.8763 106.511L87.6428 114.278L79.8763 122.044V106.511ZM73.1231 122.044L65.3566 114.277L73.1231 106.511V122.044ZM84.6523 101.735H100.185L92.4184 109.502L84.6523 101.735ZM84.6523 94.9815L92.4189 87.215L100.185 94.9815H84.6523ZM104.961 90.2059L97.195 82.4393L104.961 74.6728V90.2059ZM92.4189 77.6637L84.6523 69.8971H100.185L92.4189 77.6637ZM87.6428 82.4393L79.8763 90.2059V74.6732L87.6428 82.4393ZM60.5805 109.502L52.8139 101.735H68.3466L60.5805 109.502ZM55.8049 114.277L48.0383 122.044V106.511L55.8049 114.277ZM60.5805 119.053L68.347 126.82H52.8144L60.5805 119.053ZM92.4184 119.053L100.185 126.82H84.6523L92.4184 119.053ZM97.1945 114.277L104.961 106.511V122.043L97.1945 114.277Z" fill="#EC884F"/>
</g>
</g>
<defs>
<clipPath id="clip0_0_9387">
<rect width="94" height="139" fill="white"/>
</clipPath>
<clipPath id="clip1_0_9387">
<rect width="137" height="137" fill="white" transform="translate(8 2)"/>
</clipPath>
</defs>
</svg>
