<svg width="14" height="18" viewBox="0 0 14 18" fill="none" xmlns="http://www.w3.org/2000/svg">
<path fill-rule="evenodd" clip-rule="evenodd" d="M4.40309 0.0876002L9.34621 0.0682186C11.8814 0.0582784 13.502 1.33264 13.5116 3.85171L13.5593 16.4115C13.5608 16.8066 13.4202 17.186 13.1685 17.4664C12.9169 17.7467 12.5747 17.905 12.208 17.9064C11.9892 17.9034 11.7739 17.8448 11.5662 17.7278L6.90962 14.9494L2.29316 17.77C1.73708 18.0924 1.06123 17.9473 0.636073 17.414L0.554495 17.3022L0.476447 17.1646C0.37447 16.9516 0.318991 16.7151 0.314324 16.4634L0.267211 4.06133C0.257261 1.44193 1.83259 0.097679 4.40309 0.0876002ZM9.34947 1.35991L4.40634 1.37929C2.42366 1.38707 1.42754 2.23707 1.43445 4.05639L1.48144 16.4477C1.48172 16.4629 1.48325 16.478 1.48445 16.4899C1.48638 16.509 1.4875 16.5201 1.48149 16.5109L1.51271 16.5663C1.56645 16.6466 1.66681 16.6724 1.73683 16.632L6.35135 13.8131C6.6953 13.6059 7.11067 13.6043 7.45787 13.8098L12.1065 16.5832C12.1417 16.603 12.1805 16.6135 12.2107 16.614C12.2581 16.6138 12.3035 16.5928 12.3369 16.5556C12.3703 16.5185 12.3889 16.4681 12.3887 16.4157L12.341 3.85594C12.3346 2.16047 11.3067 1.35224 9.34947 1.35991Z" fill="#563E1F"/>
</svg>
