<svg width="86" height="123" viewBox="0 0 86 123" fill="none" xmlns="http://www.w3.org/2000/svg">
<path d="M73.7792 63.2017C61.5351 63.2017 51.5742 73.1625 51.5742 85.4066C51.5742 97.6506 61.5351 107.611 73.7792 107.611C86.0232 107.611 95.9845 97.6506 95.9845 85.4066C95.9845 73.1625 86.0224 63.2017 73.7792 63.2017ZM73.7792 99.4737C66.0227 99.4737 59.7121 93.163 59.7121 85.4066C59.7121 83.0058 60.318 80.7442 61.3827 78.765L70.9017 88.284C71.665 89.0469 72.6999 89.4759 73.7792 89.4759H87.2441C85.4939 95.254 80.1209 99.4737 73.7792 99.4737ZM75.4647 81.3377L67.1372 73.0101C69.1168 71.9454 71.3784 71.3395 73.7787 71.3395C80.1213 71.3395 85.4944 75.5592 87.2441 81.3377H75.4647Z" fill="#563E1F"/>
<path d="M97.7377 12.0904H86.0308C84.5999 8.55033 81.1294 6.04479 77.0829 6.04479H70.7635C69.1943 2.48857 65.6344 0 61.5038 0C57.3731 0 53.8132 2.48857 52.244 6.0452H45.9246C41.8781 6.0452 38.4072 8.55075 36.9767 12.0908H25.2698C19.6719 12.0908 15.1172 16.6455 15.1172 22.2435V112.848C15.1172 118.446 19.6719 123 25.2698 123H97.7377C103.336 123 107.89 118.446 107.89 112.848V22.243C107.89 16.6451 103.336 12.0904 97.7377 12.0904ZM44.4134 15.6938C44.4139 14.861 45.0918 14.1831 45.9246 14.1831H55.4581C57.7053 14.1831 59.5271 12.3613 59.5271 10.1141C59.5271 9.02453 60.4137 8.13785 61.5033 8.13785C62.5929 8.13785 63.4796 9.02453 63.4796 10.1141C63.4796 12.3613 65.3014 14.1831 67.5485 14.1831H77.082C77.9149 14.1831 78.5928 14.861 78.5928 15.6938V22.6709C78.5928 23.5037 77.9149 24.1816 77.082 24.1816H45.9242C45.0914 24.1816 44.4134 23.5037 44.4134 22.6709V15.6938ZM97.7377 114.862H25.2698C24.1587 114.862 23.255 113.958 23.255 112.847V22.243C23.255 21.1319 24.1587 20.2283 25.2698 20.2283H36.276V22.6704C36.276 27.9909 40.6046 32.3191 45.9246 32.3191H77.0825C82.4029 32.3191 86.7311 27.9905 86.7311 22.6704V20.2283H97.7373C98.8484 20.2283 99.7521 21.1319 99.7521 22.243V112.847H99.7525C99.7521 113.958 98.8484 114.862 97.7377 114.862Z" fill="#563E1F"/>
<path d="M31.276 47.1577H61.5028C63.7499 47.1577 65.5717 45.3358 65.5717 43.0887C65.5717 40.8416 63.7499 39.0198 61.5028 39.0198H31.276C29.0288 39.0198 27.207 40.8416 27.207 43.0887C27.2066 45.3358 29.0284 47.1577 31.276 47.1577Z" fill="#563E1F"/>
<path d="M31.276 59.2484H49.4124C51.6595 59.2484 53.4813 57.4266 53.4813 55.1795C53.4813 52.9324 51.6595 51.1106 49.4124 51.1106H31.276C29.0288 51.1106 27.207 52.9324 27.207 55.1795C27.2066 57.4266 29.0284 59.2484 31.276 59.2484Z" fill="#563E1F"/>
<path d="M53.4809 67.2703C53.4809 65.0232 51.6591 63.2014 49.412 63.2014H31.276C29.0288 63.2014 27.207 65.0232 27.207 67.2703C27.207 69.5174 29.0288 71.3392 31.276 71.3392H49.4124C51.6595 71.3392 53.4809 69.5174 53.4809 67.2703Z" fill="#563E1F"/>
</svg>
