<svg width="122" height="100" viewBox="0 0 122 100" fill="none" xmlns="http://www.w3.org/2000/svg">
<path d="M45.505 0C43.7494 0.00506189 42.0337 0.523735 40.5705 1.4918C39.1074 2.45986 37.9609 3.8348 37.2732 5.44637C15.6252 6.68069 -0.0673525 8.7565 0.000217371 10.379C0.0631273 11.9899 15.6392 12.6966 37.1124 12.062C37.858 14.0657 39.2933 15.7347 41.1619 16.7738H37.6762V23.1476H33.4124C33.1447 23.1473 32.8797 23.1997 32.6323 23.3016C32.385 23.4036 32.1602 23.5532 31.9709 23.7419C31.7815 23.9306 31.6313 24.1546 31.5288 24.4013C31.4264 24.6479 31.3736 24.9123 31.3736 25.1793V29.7214C31.3736 30.8442 32.2846 31.753 33.41 31.753H62.1063C69.3362 33.45 70.1447 36.0371 75.5596 40.7722C74.6742 45.6839 73.3695 51.0466 72.3489 55.6817V95.1359C72.3489 96.426 72.8626 97.6632 73.7769 98.5754C74.6913 99.4875 75.9314 100 77.2244 100C78.5175 100 79.7576 99.4875 80.6719 98.5754C81.5863 97.6632 82.0999 96.426 82.0999 95.1359V76.0585C81.9881 60.0193 84.5837 53.5339 93.5286 41.1186L95.777 40.0772C95.777 49.7147 102.455 50.2935 111.873 52.4437H104.799C102.646 52.4437 100.898 54.1871 100.898 56.3372V79.5825C100.898 81.7304 102.646 83.4738 104.799 83.4738H128.201C130.354 83.4738 132.102 81.7304 132.102 79.5825V56.3372C132.102 54.1871 130.354 52.446 128.201 52.446H121.134C130.55 50.2888 137.223 49.7123 137.223 40.0772L139.471 41.1186C150.788 52.8016 150.9 60.7538 150.9 76.0562V95.1336C150.9 96.4236 151.414 97.6608 152.328 98.573C153.242 99.4852 154.482 99.9977 155.776 99.9977C157.069 99.9977 158.309 99.4852 159.223 98.573C160.137 97.6608 160.651 96.4236 160.651 95.1336V55.6817C159.456 50.5887 158.177 45.2516 156.97 39.9633C162.093 34.9539 164.195 33.8265 170.847 31.753H199.59C200.13 31.753 200.648 31.539 201.03 31.158C201.412 30.777 201.626 30.2602 201.626 29.7214V25.1793C201.626 24.6405 201.412 24.1237 201.03 23.7427C200.648 23.3617 200.13 23.1476 199.59 23.1476H195.324V16.7738H191.838C193.708 15.7351 195.144 14.064 195.888 12.062C217.361 12.6966 232.937 11.9899 233 10.379C233.067 8.7565 217.375 6.68302 195.727 5.44637C195.063 3.8922 193.972 2.55707 192.58 1.5952C191.188 0.633326 189.552 0.0839514 187.86 0.0105389C186.168 -0.0628737 184.49 0.342669 183.02 1.18032C181.549 2.01798 180.346 3.25356 179.55 4.74436C157.864 4.08652 142.03 4.7862 141.939 6.40872C141.871 8.01962 157.352 10.0815 178.816 11.3181C179.131 12.4659 179.672 13.5396 180.408 14.4763C181.143 15.4131 182.059 16.1941 183.101 16.7738H179.615V23.1476C157.634 23.0965 140.62 12.0759 116.5 11.6226C93.193 12.1154 73.6747 23.1476 53.3851 23.1476V16.7738H49.8994C50.9412 16.1941 51.8567 15.4131 52.5924 14.4763C53.3281 13.5396 53.8693 12.4659 54.1843 11.3181C75.6482 10.0815 91.1287 8.01729 91.0611 6.40872C90.9702 4.7862 75.1356 4.0842 53.4503 4.74436C52.683 3.30821 51.5378 2.10786 50.1379 1.27235C48.738 0.436842 47.1363 -0.00223634 45.505 0.00232325V0ZM116.5 58.1434C121.968 58.1434 126.463 62.6274 126.463 68.0831C126.463 73.5387 121.968 78.0251 116.5 78.0251C111.031 78.0251 106.532 73.5387 106.532 68.0831C106.532 62.6274 111.029 58.1434 116.5 58.1434ZM116.5 63.978C114.193 63.978 112.383 65.7818 112.383 68.0831C112.383 70.3844 114.193 72.1882 116.5 72.1882C118.807 72.1882 120.612 70.3844 120.612 68.0831C120.612 65.7818 118.807 63.978 116.5 63.978Z" fill="#563E1F"/>
</svg>
