<svg width="16" height="16" viewBox="0 0 16 16" fill="none" xmlns="http://www.w3.org/2000/svg">
<path d="M7.99991 13.673C7.31872 13.673 6.71467 13.4897 6.18774 13.123C5.66082 12.7563 5.23882 12.2794 4.92173 11.6922L3.44096 12.5345L2.94098 11.6666L4.52301 10.7499C4.48113 10.6149 4.44801 10.4749 4.42364 10.3301C4.39929 10.1852 4.376 10.041 4.35378 9.89737H2.45508V8.89739H4.34738C4.36104 8.72559 4.38219 8.55657 4.41083 8.39034C4.43946 8.22409 4.47686 8.06276 4.52301 7.90635L2.93456 6.98327L3.43454 6.12175L4.90506 6.98074C4.98967 6.8209 5.08604 6.66599 5.19416 6.51599C5.30227 6.36599 5.41531 6.22774 5.53326 6.10124C5.51531 6.03201 5.50526 5.96279 5.50313 5.89355C5.50099 5.82432 5.49993 5.75509 5.49993 5.68585C5.49993 5.41064 5.54309 5.14867 5.62941 4.89995C5.71573 4.65124 5.83411 4.42346 5.98454 4.21662L5.03199 3.26407L5.72813 2.55127L6.74093 3.53075C6.92982 3.41793 7.12918 3.33224 7.33901 3.27369C7.54884 3.21514 7.76914 3.18587 7.99991 3.18587C8.23068 3.18587 8.45376 3.21792 8.66914 3.28202C8.88453 3.34613 9.08667 3.4346 9.27556 3.54742L10.2717 2.55127L10.9678 3.26407L10.0089 4.22304C10.1593 4.42987 10.276 4.65658 10.3589 4.90317C10.4418 5.14975 10.4832 5.41064 10.4832 5.68585V5.88522C10.4832 5.9489 10.4743 6.01535 10.4563 6.08457C10.5743 6.21107 10.6862 6.35103 10.7922 6.50445C10.8982 6.65786 10.9935 6.81449 11.0781 6.97432L12.5524 6.13202L13.0524 6.99354L11.4601 7.89994C11.5063 8.0478 11.5454 8.19951 11.5774 8.35507C11.6095 8.51063 11.6345 8.67003 11.6524 8.83329L13.5447 8.83329L13.5447 9.83325L11.6524 9.83325C11.6345 9.99651 11.6112 10.1548 11.5826 10.3083C11.5539 10.4617 11.5187 10.6123 11.4768 10.7602L13.0653 11.6833L12.5653 12.5448L11.0845 11.6858C10.7674 12.273 10.3443 12.751 9.81529 13.1198C9.28623 13.4886 8.6811 13.673 7.99991 13.673ZM6.54093 5.38074C6.75118 5.25595 6.9796 5.16022 7.22618 5.09355C7.47277 5.02689 7.73068 4.99355 7.99991 4.99355C8.26487 4.99355 8.51722 5.02518 8.75698 5.08842C8.99672 5.15168 9.22172 5.24356 9.43198 5.36407C9.36873 5.02731 9.20356 4.74675 8.93646 4.52239C8.66936 4.29803 8.35718 4.18585 7.99991 4.18585C7.63837 4.18585 7.32063 4.30081 7.04669 4.53072C6.77276 4.76064 6.60417 5.04398 6.54093 5.38074ZM7.99991 12.673C8.81102 12.673 9.45931 12.3331 9.94478 11.6531C10.4303 10.9732 10.673 10.1999 10.673 9.33327C10.673 8.55549 10.4469 7.80442 9.99478 7.08007C9.54264 6.3557 8.87769 5.99352 7.99991 5.99352C7.12897 5.99352 6.46572 6.35292 6.01016 7.07174C5.55461 7.79054 5.32683 8.54438 5.32683 9.33327C5.32683 10.1999 5.56957 10.9732 6.05504 11.6531C6.54051 12.3331 7.1888 12.673 7.99991 12.673ZM7.49993 11.1666V7.66022H8.49989V11.1666H7.49993Z" fill="#623E13"/>
</svg>
