<svg width="106" height="148" viewBox="0 0 106 148" fill="none" xmlns="http://www.w3.org/2000/svg">
<g clip-path="url(#clip0_0_9380)">
<path d="M38.0508 65.682V79.8042C38.0508 80.925 38.9474 81.8216 39.8441 82.0458C54.8629 84.2874 67.1918 85.4082 79.2965 85.4082C91.177 85.4082 102.833 84.2874 114.938 82.0458C116.059 81.8216 116.731 80.925 116.731 79.8042V65.682C116.731 63.4404 114.938 61.6471 112.472 61.6471H42.3098C40.0682 61.6471 38.0508 63.4404 38.0508 65.682ZM50.1555 57.1639H103.73C82.883 37.4377 63.6052 40.5759 50.1555 57.1639Z" fill="#EC884F"/>
<path d="M51.0538 36.7654L45.2256 42.5936C44.7773 43.042 44.5531 43.4903 44.5531 44.1628C44.5531 44.8353 44.7773 45.2836 45.2256 45.7319L49.933 50.4393C57.5545 42.8178 66.0726 39.0071 75.2632 39.0071C77.9532 39.0071 80.4189 39.2312 83.1089 39.9037C81.3156 35.4205 78.8498 31.3856 75.4874 28.0232L69.2109 21.7466C68.3142 20.85 66.9693 20.85 66.0726 21.7466L60.4686 27.3507C58.4511 26.2299 54.8645 23.5399 52.6229 17.9359C51.0538 13.6768 43.2082 6.05535 38.5008 2.24461C34.69 -0.893646 29.3102 -0.669484 26.1719 2.46877C23.0336 5.60703 22.8095 10.9869 25.9477 14.7976C29.9826 19.7292 37.38 27.5748 41.8632 28.9198C47.9155 31.1614 50.3813 34.9722 51.0538 36.7654ZM60.0203 100.876C61.5894 109.842 66.2968 117.464 75.4874 116.343C75.2632 115.446 76.1599 111.411 73.2458 107.6C70.1075 103.341 63.831 101.548 60.0203 100.876ZM80.4189 116.567C89.6096 117.464 94.3169 110.066 95.8861 101.1C86.6955 102.669 79.2981 107.152 80.4189 116.567Z" fill="#EC884F"/>
<path d="M114.95 86.5291C103.069 88.7707 91.4126 89.6673 79.532 89.6673C67.4273 89.6673 55.0984 88.7707 40.3038 86.5291C35.1481 106.928 35.8206 120.826 42.5454 137.638C43.6662 140.552 46.132 142.794 49.2703 143.69C60.7025 146.828 69.6689 148.173 78.1871 148.173C86.7052 148.173 95.2233 146.828 105.983 143.914C109.121 143.018 111.811 140.552 112.932 137.638C118.984 120.826 119.657 106.704 114.95 86.5291ZM80.2045 121.05V131.81C80.2045 133.155 79.3079 134.051 77.9629 134.051C76.6179 134.051 75.7213 133.155 75.7213 131.81V121.05C63.1683 122.171 56.2193 110.738 55.3226 98.6338C55.3226 97.9613 55.5468 97.2888 55.9951 96.8405C56.4434 96.3921 57.1159 96.168 57.7884 96.168C64.9615 96.6163 74.1522 99.9787 78.1871 106.479C82.222 99.9787 91.4126 96.6163 98.5857 96.168C99.2582 96.168 99.9307 96.3921 100.379 96.8405C100.827 97.2888 101.052 97.9613 101.052 98.6338C99.9307 110.514 92.9817 122.171 80.2045 121.05Z" fill="#EC884F"/>
</g>
<defs>
<clipPath id="clip0_0_9380">
<rect width="106" height="148" fill="white"/>
</clipPath>
</defs>
</svg>
