<svg width="26" height="26" viewBox="0 0 26 26" fill="none" xmlns="http://www.w3.org/2000/svg">
<rect width="25.7727" height="25.7727" rx="12.8864" fill="#E26B26"/>
<path d="M17.6292 16.5806L15.9501 14.9012C15.6156 14.5681 15.0617 14.5782 14.7156 14.9245L13.8697 15.7702C13.8162 15.7408 13.7609 15.71 13.7027 15.6774C13.1685 15.3814 12.4373 14.9757 11.6679 14.2057C10.8962 13.4341 10.4902 12.7018 10.1932 12.1672C10.1619 12.1106 10.1319 12.056 10.1023 12.0041L10.67 11.4372L10.9492 11.1577C11.2958 10.811 11.3054 10.2573 10.9717 9.9232L9.29252 8.24366C8.95884 7.91005 8.40472 7.92017 8.05808 8.2669L7.58484 8.74287L7.59777 8.75571C7.43908 8.95819 7.30648 9.19172 7.2078 9.44355C7.11684 9.68327 7.06021 9.91202 7.03431 10.1412C6.81259 11.9794 7.65256 13.6593 9.93213 15.9389C13.0832 19.0897 15.6225 18.8517 15.7321 18.8401C15.9707 18.8116 16.1993 18.7546 16.4317 18.6643C16.6814 18.5668 16.9147 18.4344 17.1171 18.276L17.1274 18.2852L17.6069 17.8157C17.9528 17.4691 17.9627 16.9152 17.6292 16.5806Z" fill="white"/>
</svg>
