<svg width="19" height="16" viewBox="0 0 19 16" fill="none" xmlns="http://www.w3.org/2000/svg">
<path d="M17.4706 12.9786C17.4706 13.3757 17.3128 13.7566 17.032 14.0374C16.7512 14.3182 16.3704 14.4759 15.9733 14.4759H2.49733C2.10021 14.4759 1.71936 14.3182 1.43856 14.0374C1.15775 13.7566 1 13.3757 1 12.9786V4.74332C1 4.3462 1.15775 3.96535 1.43856 3.68455C1.71936 3.40374 2.10021 3.24599 2.49733 3.24599H5.49198L6.98931 1H11.4813L12.9786 3.24599H15.9733C16.3704 3.24599 16.7512 3.40374 17.032 3.68455C17.3128 3.96535 17.4706 4.3462 17.4706 4.74332V12.9786Z" stroke="#E26B26" stroke-width="1.33245" stroke-linecap="round" stroke-linejoin="round"/>
<path d="M9.23293 11.4815C10.8868 11.4815 12.2276 10.1407 12.2276 8.48684C12.2276 6.83294 10.8868 5.49219 9.23293 5.49219C7.57903 5.49219 6.23828 6.83294 6.23828 8.48684C6.23828 10.1407 7.57903 11.4815 9.23293 11.4815Z" stroke="#E26B26" stroke-width="1.33245" stroke-linecap="round" stroke-linejoin="round"/>
</svg>
