<svg width="50" height="50" viewBox="0 0 50 50" fill="none" xmlns="http://www.w3.org/2000/svg">
<circle cx="25" cy="25" r="24" fill="#522D34" stroke="white" stroke-width="2"/>
<path d="M32.1865 13H17.8135C16.5368 13 15.3125 13.507 14.4099 14.4097C13.5072 15.3126 13 16.5369 13 17.8134V32.1866C13 33.4631 13.5072 34.6874 14.4099 35.5903C15.3125 36.493 16.5368 37 17.8135 37H32.1865C33.4632 37 34.6875 36.493 35.5901 35.5903C36.4928 34.6874 37 33.4631 37 32.1866V17.8134C37 16.5369 36.4928 15.3126 35.5901 14.4097C34.6875 13.507 33.4632 13 32.1865 13ZM35.0746 32.1869C35.0746 32.9527 34.7704 33.6874 34.2288 34.229C33.6872 34.7706 32.9525 35.075 32.1865 35.075H17.8135C17.0475 35.075 16.3128 34.7706 15.7712 34.229C15.2296 33.6874 14.9254 32.9527 14.9254 32.1869V17.8137C14.9254 17.0478 15.2296 16.3132 15.7712 15.7715C16.3128 15.2299 17.0475 14.9255 17.8135 14.9255H32.1865C32.9525 14.9255 33.6872 15.2299 34.2288 15.7715C34.7704 16.3132 35.0746 17.0478 35.0746 17.8137V32.1869ZM25.0047 20.0856C23.6994 20.0833 22.4466 20.5995 21.5221 21.5209C20.5977 22.4424 20.0775 23.6935 20.0757 24.9986C20.074 26.304 20.5911 27.5563 21.5132 28.4804C22.4353 29.4042 23.6865 29.9238 24.9918 29.9247C26.297 29.9256 27.5491 29.4076 28.4724 28.4849C29.3956 27.5622 29.9144 26.3105 29.9144 25.0053C29.9144 23.7021 29.3973 22.4523 28.4769 21.53C27.5566 20.6077 26.3077 20.0882 25.0047 20.0856ZM25.0047 27.9893C24.2096 27.9919 23.4461 27.6781 22.8827 27.117C22.319 26.5559 22.002 25.7939 22.0012 24.9988C22.0003 24.2034 22.3158 23.4405 22.878 22.8784C23.4403 22.3161 24.2032 22.0005 24.9983 22.0014C25.7934 22.0023 26.5556 22.3195 27.1167 22.8829C27.6778 23.4463 27.9916 24.2098 27.989 25.0052C27.9839 25.7933 27.6673 26.5474 27.1081 27.1029C26.549 27.6584 25.7928 27.9703 25.0047 27.9703V27.9893ZM33.2552 17.4958C33.2552 17.751 33.1536 17.9961 32.973 18.1767C32.7926 18.3571 32.5477 18.4587 32.2924 18.4587H31.3297C30.9858 18.4587 30.668 18.2751 30.4959 17.9773C30.3241 17.6793 30.3241 17.3124 30.4959 17.0146C30.668 16.7166 30.9858 16.5332 31.3297 16.5332H32.2924C32.5477 16.5332 32.7926 16.6345 32.973 16.8151C33.1536 16.9958 33.2552 17.2403 33.2552 17.4958Z" fill="#FBB320"/>
</svg>
