<svg width="85" height="32" viewBox="0 0 85 32" fill="none" xmlns="http://www.w3.org/2000/svg">
<rect width="85" height="32" rx="16" fill="#FFC9CC" fill-opacity="0.6"/>
<path d="M30.356 18.088C30.748 18.088 31.072 18.056 31.328 17.992C31.592 17.92 31.84 17.828 32.072 17.716L32.348 18.712C32.092 18.832 31.796 18.928 31.46 19C31.124 19.08 30.712 19.12 30.224 19.12C29.704 19.12 29.216 19.036 28.76 18.868C28.312 18.692 27.92 18.44 27.584 18.112C27.256 17.776 26.996 17.368 26.804 16.888C26.612 16.4 26.516 15.844 26.516 15.22C26.516 14.612 26.608 14.068 26.792 13.588C26.976 13.1 27.232 12.688 27.56 12.352C27.896 12.016 28.292 11.76 28.748 11.584C29.212 11.408 29.72 11.32 30.272 11.32C30.776 11.32 31.188 11.364 31.508 11.452C31.836 11.532 32.124 11.64 32.372 11.776L32.072 12.748C31.8 12.628 31.54 12.532 31.292 12.46C31.052 12.388 30.764 12.352 30.428 12.352C30.084 12.352 29.756 12.404 29.444 12.508C29.14 12.612 28.872 12.78 28.64 13.012C28.416 13.244 28.236 13.544 28.1 13.912C27.964 14.272 27.896 14.708 27.896 15.22C27.896 15.732 27.96 16.172 28.088 16.54C28.224 16.9 28.4 17.196 28.616 17.428C28.84 17.652 29.1 17.82 29.396 17.932C29.7 18.036 30.02 18.088 30.356 18.088ZM33.4965 13.84C33.8645 13.64 34.2165 13.492 34.5525 13.396C34.8965 13.292 35.2765 13.24 35.6925 13.24C36.0125 13.24 36.3045 13.276 36.5685 13.348C36.8405 13.42 37.0725 13.536 37.2645 13.696C37.4565 13.856 37.6045 14.072 37.7085 14.344C37.8205 14.608 37.8765 14.932 37.8765 15.316V19H36.8805L36.7485 18.388H36.7125C36.4885 18.644 36.2285 18.832 35.9325 18.952C35.6365 19.064 35.3085 19.12 34.9485 19.12C34.3805 19.12 33.9205 18.968 33.5685 18.664C33.2245 18.36 33.0525 17.956 33.0525 17.452C33.0525 17.14 33.1165 16.872 33.2445 16.648C33.3725 16.416 33.5525 16.224 33.7845 16.072C34.0165 15.92 34.2925 15.808 34.6125 15.736C34.9325 15.656 35.2845 15.616 35.6685 15.616H36.6285V15.184C36.6285 14.824 36.5325 14.576 36.3405 14.44C36.1485 14.296 35.8845 14.224 35.5485 14.224C35.3405 14.224 35.1045 14.26 34.8405 14.332C34.5845 14.396 34.2885 14.52 33.9525 14.704L33.4965 13.84ZM36.6405 16.432L35.8845 16.444C35.3165 16.46 34.9165 16.56 34.6845 16.744C34.4525 16.928 34.3365 17.144 34.3365 17.392C34.3365 17.552 34.3605 17.684 34.4085 17.788C34.4645 17.892 34.5365 17.976 34.6245 18.04C34.7125 18.104 34.8125 18.152 34.9245 18.184C35.0445 18.208 35.1645 18.22 35.2845 18.22C35.5325 18.22 35.7765 18.16 36.0165 18.04C36.2645 17.912 36.4725 17.732 36.6405 17.5V16.432ZM40.6019 19H39.3659V13.336H40.3379L40.5059 14.092C40.7859 13.82 41.0779 13.612 41.3819 13.468C41.6939 13.316 42.0459 13.24 42.4379 13.24C43.0379 13.24 43.5019 13.404 43.8299 13.732C44.1579 14.06 44.3219 14.528 44.3219 15.136V19H43.0859V15.292C43.0859 14.964 43.0019 14.704 42.8339 14.512C42.6659 14.32 42.4139 14.224 42.0779 14.224C41.8219 14.224 41.5659 14.288 41.3099 14.416C41.0619 14.536 40.8259 14.712 40.6019 14.944V19ZM48.6773 18.184C48.9333 18.184 49.1573 18.156 49.3493 18.1C49.5493 18.036 49.7293 17.964 49.8893 17.884L50.1413 18.772C49.9493 18.876 49.7173 18.96 49.4453 19.024C49.1733 19.088 48.8733 19.12 48.5453 19.12C48.1293 19.12 47.7373 19.06 47.3693 18.94C47.0093 18.812 46.6933 18.628 46.4213 18.388C46.1573 18.14 45.9453 17.832 45.7853 17.464C45.6333 17.096 45.5573 16.668 45.5573 16.18C45.5573 15.732 45.6293 15.328 45.7733 14.968C45.9173 14.6 46.1213 14.288 46.3853 14.032C46.6493 13.776 46.9653 13.58 47.3333 13.444C47.7013 13.308 48.1053 13.24 48.5453 13.24C48.7933 13.24 49.0413 13.26 49.2893 13.3C49.5453 13.34 49.8253 13.432 50.1293 13.576L49.8533 14.476C49.4773 14.268 49.0853 14.164 48.6773 14.164C48.1253 14.164 47.6773 14.336 47.3333 14.68C46.9893 15.024 46.8173 15.512 46.8173 16.144C46.8173 16.528 46.8693 16.852 46.9733 17.116C47.0853 17.372 47.2293 17.58 47.4053 17.74C47.5813 17.9 47.7773 18.016 47.9933 18.088C48.2173 18.152 48.4453 18.184 48.6773 18.184ZM55.8638 16.384H51.8918V16.432C51.8918 17.008 52.0598 17.444 52.3958 17.74C52.7318 18.036 53.1758 18.184 53.7278 18.184C54.0318 18.184 54.3038 18.16 54.5438 18.112C54.7918 18.056 55.0398 17.972 55.2878 17.86L55.5278 18.76C55.2958 18.864 55.0198 18.948 54.6998 19.012C54.3798 19.084 54.0278 19.12 53.6438 19.12C53.2358 19.12 52.8478 19.064 52.4798 18.952C52.1118 18.84 51.7878 18.664 51.5078 18.424C51.2358 18.184 51.0198 17.88 50.8598 17.512C50.6998 17.144 50.6198 16.704 50.6198 16.192C50.6198 15.752 50.6838 15.352 50.8118 14.992C50.9478 14.624 51.1358 14.312 51.3758 14.056C51.6238 13.792 51.9198 13.592 52.2638 13.456C52.6158 13.312 53.0038 13.24 53.4278 13.24C53.7958 13.24 54.1278 13.3 54.4238 13.42C54.7278 13.54 54.9838 13.712 55.1918 13.936C55.4078 14.152 55.5718 14.42 55.6838 14.74C55.8038 15.052 55.8638 15.4 55.8638 15.784V16.384ZM54.5918 15.52C54.5918 15.328 54.5678 15.148 54.5198 14.98C54.4718 14.812 54.3998 14.668 54.3038 14.548C54.2078 14.42 54.0798 14.32 53.9198 14.248C53.7678 14.168 53.5838 14.128 53.3678 14.128C52.9678 14.128 52.6398 14.256 52.3838 14.512C52.1358 14.768 51.9838 15.112 51.9278 15.544L54.5918 15.52ZM57.1093 19V10.468H58.3213V19H57.1093Z" fill="#E42C36"/>
</svg>
