<svg width="15" height="17" viewBox="0 0 15 17" fill="none" xmlns="http://www.w3.org/2000/svg">
<path fill-rule="evenodd" clip-rule="evenodd" d="M6.13636 1.73469C6.13636 2.68878 5.98295 3.46939 5.79545 3.46939C5.60795 3.46939 5.45455 2.92296 5.45455 2.2551C5.45455 0.911408 5.13409 0.730653 4.3783 1.64796C3.61432 2.57498 2.58852 5.17841 2.87284 5.46776C3.20182 5.80255 10.4345 5.80255 10.7635 5.46776C11.0478 5.17841 10.022 2.57498 9.25807 1.64796C8.50227 0.730653 8.18182 0.911408 8.18182 2.2551C8.18182 2.92296 8.02841 3.46939 7.84091 3.46939C7.65341 3.46939 7.5 2.68878 7.5 1.73469C7.5 0.231408 7.40898 0 6.81818 0C6.22739 0 6.13636 0.231408 6.13636 1.73469ZM3.40909 6.95265C3.40909 7.1511 3.71591 7.92547 4.09091 8.67347C5.18352 10.8533 5.02773 11.3081 2.79545 12.4548C1.0067 13.3738 0 14.5166 0 15.6286C0 15.8103 1.18875 15.964 2.64205 15.9703C4.42295 15.9776 5.49989 16.1472 5.9458 16.4907C6.43159 16.8643 7.57398 17 10.2395 17C14.9983 17 15 16.9979 15 12.0287V8.32653H12.4367H9.87341L10.0872 7.45918L10.3012 6.59184H6.855C4.69705 6.59184 3.40909 6.7268 3.40909 6.95265ZM14.3182 12.274C14.3182 14.7303 14.1941 15.6324 13.8113 15.9554C13.1922 16.4782 12.2727 16.176 12.2727 15.4495C12.2727 15.0315 11.8367 14.9184 10.2273 14.9184H8.18182V11.9694V9.02041H11.25H14.3182V12.274ZM9.97159 10.4689C8.99284 11.0847 8.86364 11.3442 8.86364 12.6952V14.2245H11.25H13.6364V12.6976C13.6364 11.3154 13.5211 11.1013 12.4237 10.4425C11.7566 10.0418 11.1815 9.72712 11.1453 9.74308C11.1092 9.75869 10.5811 10.0855 9.97159 10.4689ZM12.2727 11.1072C13.0026 11.6925 13.0514 11.8448 12.6136 12.1668C12.2284 12.4499 12.2076 12.5859 12.5284 12.7184C13.4952 13.1178 12.8451 13.5306 11.25 13.5306C9.65489 13.5306 9.00477 13.1178 9.97159 12.7184C10.2924 12.5859 10.2716 12.4499 9.88636 12.1668C9.44864 11.8448 9.49739 11.6925 10.2273 11.1072C10.696 10.7312 11.1562 10.4234 11.25 10.4234C11.3438 10.4234 11.804 10.7312 12.2727 11.1072ZM10.9091 12.4898C10.9091 12.6806 11.0625 12.8367 11.25 12.8367C11.4375 12.8367 11.5909 12.6806 11.5909 12.4898C11.5909 12.299 11.4375 12.1429 11.25 12.1429C11.0625 12.1429 10.9091 12.299 10.9091 12.4898ZM11.7614 15.9592C11.895 16.1795 10.9762 16.3061 9.24477 16.3061C7.74477 16.3061 6.42273 16.15 6.30682 15.9592C6.17318 15.7389 7.09193 15.6122 8.82341 15.6122C10.3234 15.6122 11.6455 15.7684 11.7614 15.9592Z" fill="#FAA326"/>
</svg>
