<svg width="21" height="21" viewBox="0 0 21 21" fill="none" xmlns="http://www.w3.org/2000/svg">
<path fill-rule="evenodd" clip-rule="evenodd" d="M10.4391 8.55062e-05C14.1263 -0.0147321 17.5502 1.89719 19.4664 5.03994C21.3828 8.1831 21.5115 12.0986 19.8055 15.3604L19.6125 15.7367C19.5387 15.875 19.5244 16.0242 19.5672 16.1621C19.8429 16.8906 20.0851 17.6773 20.2783 18.4766L20.2989 18.6488C20.2989 19.4525 19.87 20.0047 19.019 19.9858L18.8772 19.9688C18.1041 19.798 17.3427 19.5781 16.5978 19.3103C16.499 19.2853 16.3373 19.295 16.1913 19.3547L15.4746 19.7602C15.473 19.7652 15.4718 19.769 15.4643 19.7734L15.4162 19.7902C11.5574 21.8192 6.84472 21.2595 3.5703 18.3831C0.295391 15.5063 -0.860943 10.9095 0.664074 6.8289C2.18893 2.74876 6.07793 0.0321369 10.4391 8.55062e-05ZM10.7448 1.46879L10.4499 1.46417C6.69645 1.49272 3.34928 3.83086 2.03715 7.34177C0.725166 10.8523 1.71996 14.807 4.53789 17.2824L4.76909 17.4787C7.4949 19.7167 11.2795 20.1678 14.4563 18.6339L14.7585 18.4825L14.7455 18.4842L14.7646 18.479L15.2081 18.2246C15.3677 18.1343 15.4944 18.066 15.5965 18.0168C16.0828 17.8163 16.5765 17.7868 17.0408 17.9146L17.4803 18.0656C17.7708 18.1615 18.0568 18.2482 18.3413 18.3266L18.7561 18.435L18.8549 18.821C18.6758 18.08 18.4512 17.3507 18.1826 16.6372C18.0097 16.084 18.0626 15.5299 18.3152 15.057L18.5052 14.6865C19.9756 11.8752 19.8649 8.50681 18.2161 5.80262C16.6186 3.18258 13.803 1.55629 10.7448 1.46879ZM16.3026 10.4999C16.3026 9.83816 15.7658 9.30222 15.1042 9.30222C14.4426 9.30222 13.9058 9.83816 13.9058 10.4999C13.9058 11.1616 14.4426 11.6975 15.1042 11.6975C15.7658 11.6975 16.3026 11.1616 16.3026 10.4999ZM11.6444 10.4999C11.6444 9.83816 11.1076 9.30222 10.446 9.30222C9.78441 9.30222 9.24759 9.83816 9.24759 10.4999C9.24759 11.1616 9.78441 11.6975 10.446 11.6975C11.1076 11.6975 11.6444 11.1616 11.6444 10.4999ZM5.78586 9.30222C6.44747 9.30222 6.98429 9.83816 6.98429 10.4999C6.98429 11.1616 6.44747 11.6975 5.78586 11.6975C5.12425 11.6975 4.58743 11.1616 4.58743 10.4999C4.58743 9.83816 5.12425 9.30222 5.78586 9.30222Z" fill="white"/>
</svg>
