<svg width="32" height="28" viewBox="0 0 32 28" fill="none" xmlns="http://www.w3.org/2000/svg">
<path fill-rule="evenodd" clip-rule="evenodd" d="M15.4964 0.022529C14.035 0.176748 12.7663 1.2733 12.3328 2.75681C12.1601 3.34778 12.1849 4.26547 12.3907 4.89961C13.0015 6.78156 14.9533 7.87559 16.835 7.39062C17.5384 7.2093 18.0209 6.92847 18.5665 6.38281C19.7514 5.19765 20.0012 3.59011 19.2417 2.03746C18.5591 0.641925 17.0944 -0.146059 15.4964 0.022529ZM2.92632 5.02522C1.53161 5.34267 0.373093 6.52329 0.081104 7.92474C-0.325204 9.87514 0.829994 11.775 2.76473 12.3383C3.212 12.4684 4.07583 12.4856 4.55231 12.3737C5.7733 12.087 6.86321 11.1018 7.25576 9.92997C7.91834 7.9521 6.88316 5.82858 4.92122 5.14099C4.35056 4.94102 3.51049 4.89224 2.92632 5.02522ZM27.4517 5.02774C26.1337 5.31607 25.0016 6.42466 24.6591 7.76214C24.5372 8.23822 24.5237 9.12024 24.6316 9.56487C24.9564 10.9041 26.0114 11.9924 27.3205 12.339C27.8532 12.48 28.7414 12.4803 29.2215 12.3397C29.9189 12.1354 30.3834 11.8612 30.8817 11.3598C32.0726 10.1613 32.3366 8.42837 31.5566 6.92809C31.2573 6.35224 30.5273 5.63844 29.9427 5.34998C29.1416 4.95476 28.2894 4.84453 27.4517 5.02774ZM13.5118 8.99879C12.4391 9.2899 11.6039 10.1995 11.431 11.265C11.3973 11.473 11.3695 12.1427 11.3693 12.7534L11.3689 13.8636L10.853 14.0561C10.5693 14.1619 10.1326 14.3416 9.88266 14.4553L9.42826 14.662L9.32494 14.5076C8.83309 13.7723 7.68258 13.2362 6.81668 13.3388C6.63157 13.3607 5.61852 13.5611 4.5655 13.7842C2.3521 14.2529 2.07131 14.3618 1.51503 14.9673C1.14093 15.3746 1.0328 15.5563 0.855697 16.0749C0.646383 16.6881 0.690348 17.1353 1.20303 19.6079C1.45913 20.8427 1.7114 21.9743 1.76375 22.1226C1.97481 22.7207 2.5556 23.3934 3.10631 23.6777C3.84207 24.0575 4.80796 24.0771 6.00143 23.7366C6.07191 23.7165 6.17992 23.8052 6.33289 24.0088C7.90946 26.1072 10.8243 27.5424 14.3082 27.9356C15.0774 28.0223 16.9178 28.0213 17.7165 27.9335C21.0377 27.5688 23.9089 26.1522 25.6643 24.0126L25.909 23.7142L26.4718 23.8459C27.9713 24.1965 29.1033 23.8533 29.8561 22.8199C30.1993 22.3487 30.2923 22.0316 30.7961 19.6156C31.1447 17.9433 31.2619 17.2589 31.26 16.9056C31.2558 16.1206 31.0159 15.5295 30.4652 14.9478C29.8524 14.3003 29.5412 14.1969 26.1739 13.5228C25.0573 13.2993 24.9788 13.2916 24.5538 13.3651C23.7974 13.4958 23.0378 13.9551 22.6714 14.5033L22.5711 14.6535L21.9261 14.3686C21.5714 14.2119 21.1334 14.0324 20.9529 13.9697L20.6245 13.8556V12.7107C20.6245 11.3941 20.5739 11.0415 20.3051 10.4879C19.9504 9.75735 19.272 9.21011 18.4549 8.99564C17.952 8.86361 14.0005 8.86613 13.5118 8.99879ZM21.5782 15.754C21.8448 15.8784 22.0628 16.0111 22.0626 16.049C22.0625 16.0868 21.8919 16.9261 21.6835 17.914C21.2635 19.9064 21.1927 20.4964 21.3127 21.0091C21.5004 21.8109 22.0785 22.5811 22.7505 22.9242C22.9337 23.0178 23.3515 23.1628 23.6789 23.2465C24.0063 23.3302 24.2839 23.4084 24.2956 23.4203C24.3074 23.4322 24.2093 23.5539 24.0774 23.6909C23.1814 24.6213 21.851 25.405 20.3118 25.9092C16.0326 27.3109 10.8169 26.4477 8.1523 23.8969C7.8907 23.6465 7.68627 23.432 7.69796 23.4202C7.70966 23.4083 7.98714 23.3302 8.31452 23.2465C8.64197 23.1628 9.05972 23.0178 9.24296 22.9242C9.89554 22.591 10.4639 21.8484 10.6798 21.0474C10.8068 20.5759 10.7257 19.8854 10.3098 17.8977C10.1012 16.9009 9.93056 16.0718 9.93056 16.0554C9.93056 15.9994 11.2286 15.393 11.3484 15.393C11.3597 15.393 11.3689 15.5877 11.3689 15.8256C11.3689 17.3386 12.1827 18.4743 13.5265 18.8366C13.9725 18.9568 18.021 18.9568 18.467 18.8366C19.5496 18.5447 20.3882 17.6308 20.5635 16.5519C20.5967 16.3478 20.624 15.9908 20.6242 15.7586L20.6245 15.3364L20.859 15.4322C20.9881 15.4849 21.3117 15.6297 21.5782 15.754Z" fill="white"/>
</svg>
