<svg width="120" height="32" viewBox="0 0 120 32" fill="none" xmlns="http://www.w3.org/2000/svg">
<rect width="120" height="32" rx="16" fill="#C4C4C4"/>
<path d="M23.356 18.088C23.748 18.088 24.072 18.056 24.328 17.992C24.592 17.92 24.84 17.828 25.072 17.716L25.348 18.712C25.092 18.832 24.796 18.928 24.46 19C24.124 19.08 23.712 19.12 23.224 19.12C22.704 19.12 22.216 19.036 21.76 18.868C21.312 18.692 20.92 18.44 20.584 18.112C20.256 17.776 19.996 17.368 19.804 16.888C19.612 16.4 19.516 15.844 19.516 15.22C19.516 14.612 19.608 14.068 19.792 13.588C19.976 13.1 20.232 12.688 20.56 12.352C20.896 12.016 21.292 11.76 21.748 11.584C22.212 11.408 22.72 11.32 23.272 11.32C23.776 11.32 24.188 11.364 24.508 11.452C24.836 11.532 25.124 11.64 25.372 11.776L25.072 12.748C24.8 12.628 24.54 12.532 24.292 12.46C24.052 12.388 23.764 12.352 23.428 12.352C23.084 12.352 22.756 12.404 22.444 12.508C22.14 12.612 21.872 12.78 21.64 13.012C21.416 13.244 21.236 13.544 21.1 13.912C20.964 14.272 20.896 14.708 20.896 15.22C20.896 15.732 20.96 16.172 21.088 16.54C21.224 16.9 21.4 17.196 21.616 17.428C21.84 17.652 22.1 17.82 22.396 17.932C22.7 18.036 23.02 18.088 23.356 18.088ZM31.6113 16.108C31.6113 16.58 31.5353 17.004 31.3833 17.38C31.2393 17.756 31.0393 18.072 30.7833 18.328C30.5273 18.584 30.2273 18.78 29.8833 18.916C29.5393 19.052 29.1673 19.12 28.7673 19.12C28.3673 19.12 27.9953 19.056 27.6513 18.928C27.3153 18.8 27.0193 18.616 26.7633 18.376C26.5153 18.128 26.3193 17.824 26.1753 17.464C26.0393 17.104 25.9713 16.692 25.9713 16.228C25.9713 15.748 26.0433 15.324 26.1873 14.956C26.3393 14.588 26.5433 14.276 26.7993 14.02C27.0553 13.764 27.3553 13.572 27.6993 13.444C28.0433 13.308 28.4153 13.24 28.8153 13.24C29.2153 13.24 29.5833 13.304 29.9193 13.432C30.2633 13.552 30.5593 13.732 30.8073 13.972C31.0633 14.212 31.2593 14.512 31.3953 14.872C31.5393 15.232 31.6113 15.644 31.6113 16.108ZM30.3273 16.168C30.3273 15.808 30.2833 15.504 30.1953 15.256C30.1073 15 29.9913 14.792 29.8473 14.632C29.7033 14.472 29.5393 14.356 29.3553 14.284C29.1713 14.212 28.9793 14.176 28.7793 14.176C28.5873 14.176 28.3993 14.208 28.2153 14.272C28.0313 14.336 27.8673 14.444 27.7233 14.596C27.5793 14.748 27.4633 14.952 27.3753 15.208C27.2953 15.464 27.2553 15.784 27.2553 16.168C27.2553 16.52 27.2993 16.824 27.3873 17.08C27.4753 17.336 27.5913 17.548 27.7353 17.716C27.8793 17.876 28.0433 17.996 28.2273 18.076C28.4193 18.148 28.6113 18.184 28.8033 18.184C28.9953 18.184 29.1833 18.152 29.3673 18.088C29.5513 18.024 29.7153 17.916 29.8593 17.764C30.0033 17.604 30.1153 17.396 30.1953 17.14C30.2833 16.876 30.3273 16.552 30.3273 16.168ZM34.0824 19H32.8464V13.336H33.8064L33.9744 14.092C34.2384 13.828 34.5224 13.62 34.8264 13.468C35.1304 13.316 35.4864 13.24 35.8944 13.24C36.3024 13.24 36.6344 13.32 36.8904 13.48C37.1544 13.64 37.3544 13.864 37.4904 14.152C37.7624 13.864 38.0624 13.64 38.3904 13.48C38.7264 13.32 39.0944 13.24 39.4944 13.24C40.0864 13.24 40.5304 13.404 40.8264 13.732C41.1304 14.052 41.2824 14.508 41.2824 15.1V19H40.0464V15.292C40.0464 14.948 39.9704 14.684 39.8184 14.5C39.6744 14.316 39.4344 14.224 39.0984 14.224C38.5864 14.224 38.1144 14.452 37.6824 14.908V19H36.4464V15.292C36.4464 14.948 36.3704 14.684 36.2184 14.5C36.0744 14.316 35.8344 14.224 35.4984 14.224C34.9864 14.224 34.5144 14.464 34.0824 14.944V19ZM45.3142 19.12C45.0742 19.12 44.8422 19.088 44.6182 19.024C44.3942 18.96 44.2022 18.872 44.0422 18.76V21.76H42.8182V13.264H43.8142L43.9702 13.972C44.1942 13.764 44.4462 13.592 44.7262 13.456C45.0062 13.312 45.3302 13.24 45.6982 13.24C46.4502 13.24 47.0422 13.484 47.4742 13.972C47.9062 14.46 48.1222 15.152 48.1222 16.048C48.1222 16.568 48.0422 17.024 47.8822 17.416C47.7302 17.8 47.5222 18.12 47.2582 18.376C47.0022 18.624 46.7022 18.812 46.3582 18.94C46.0222 19.06 45.6742 19.12 45.3142 19.12ZM45.3982 14.212C45.0942 14.212 44.8222 14.288 44.5822 14.44C44.3502 14.584 44.1702 14.736 44.0422 14.896V17.812C44.3702 18.06 44.7422 18.184 45.1582 18.184C45.3662 18.184 45.5702 18.148 45.7702 18.076C45.9702 18.004 46.1502 17.884 46.3102 17.716C46.4702 17.548 46.5982 17.332 46.6942 17.068C46.7902 16.796 46.8382 16.468 46.8382 16.084C46.8382 15.516 46.7182 15.064 46.4782 14.728C46.2462 14.384 45.8862 14.212 45.3982 14.212ZM49.3944 19V10.468H50.6064V19H49.3944ZM57.1372 16.384H53.1652V16.432C53.1652 17.008 53.3332 17.444 53.6692 17.74C54.0052 18.036 54.4492 18.184 55.0012 18.184C55.3052 18.184 55.5772 18.16 55.8172 18.112C56.0652 18.056 56.3132 17.972 56.5612 17.86L56.8012 18.76C56.5692 18.864 56.2932 18.948 55.9732 19.012C55.6532 19.084 55.3012 19.12 54.9172 19.12C54.5092 19.12 54.1212 19.064 53.7532 18.952C53.3852 18.84 53.0612 18.664 52.7812 18.424C52.5092 18.184 52.2932 17.88 52.1332 17.512C51.9732 17.144 51.8932 16.704 51.8932 16.192C51.8932 15.752 51.9572 15.352 52.0852 14.992C52.2212 14.624 52.4092 14.312 52.6492 14.056C52.8972 13.792 53.1932 13.592 53.5372 13.456C53.8892 13.312 54.2772 13.24 54.7012 13.24C55.0692 13.24 55.4012 13.3 55.6972 13.42C56.0012 13.54 56.2572 13.712 56.4652 13.936C56.6812 14.152 56.8452 14.42 56.9572 14.74C57.0772 15.052 57.1372 15.4 57.1372 15.784V16.384ZM55.8652 15.52C55.8652 15.328 55.8412 15.148 55.7932 14.98C55.7452 14.812 55.6732 14.668 55.5772 14.548C55.4812 14.42 55.3532 14.32 55.1932 14.248C55.0412 14.168 54.8572 14.128 54.6412 14.128C54.2412 14.128 53.9132 14.256 53.6572 14.512C53.4092 14.768 53.2572 15.112 53.2012 15.544L55.8652 15.52ZM61.4547 14.248H59.8467V17.308C59.8467 17.588 59.9107 17.776 60.0387 17.872C60.1747 17.968 60.3547 18.016 60.5787 18.016C60.7387 18.016 60.9067 18 61.0827 17.968C61.2667 17.928 61.4267 17.884 61.5627 17.836L61.7547 18.748C61.5947 18.812 61.3867 18.872 61.1307 18.928C60.8827 18.976 60.6187 19 60.3387 19C59.7307 19 59.2907 18.876 59.0187 18.628C58.7547 18.372 58.6227 17.996 58.6227 17.5V14.248H57.7587V13.336H58.6227V11.548H59.8467V13.336H61.4547V14.248ZM67.6841 16.384H63.7121V16.432C63.7121 17.008 63.8801 17.444 64.2161 17.74C64.5521 18.036 64.9961 18.184 65.5481 18.184C65.8521 18.184 66.1241 18.16 66.3641 18.112C66.6121 18.056 66.8601 17.972 67.1081 17.86L67.3481 18.76C67.1161 18.864 66.8401 18.948 66.5201 19.012C66.2001 19.084 65.8481 19.12 65.4641 19.12C65.0561 19.12 64.6681 19.064 64.3001 18.952C63.9321 18.84 63.6081 18.664 63.3281 18.424C63.0561 18.184 62.8401 17.88 62.6801 17.512C62.5201 17.144 62.4401 16.704 62.4401 16.192C62.4401 15.752 62.5041 15.352 62.6321 14.992C62.7681 14.624 62.9561 14.312 63.1961 14.056C63.4441 13.792 63.7401 13.592 64.0841 13.456C64.4361 13.312 64.8241 13.24 65.2481 13.24C65.6161 13.24 65.9481 13.3 66.2441 13.42C66.5481 13.54 66.8041 13.712 67.0121 13.936C67.2281 14.152 67.3921 14.42 67.5041 14.74C67.6241 15.052 67.6841 15.4 67.6841 15.784V16.384ZM66.4121 15.52C66.4121 15.328 66.3881 15.148 66.3401 14.98C66.2921 14.812 66.2201 14.668 66.1241 14.548C66.0281 14.42 65.9001 14.32 65.7401 14.248C65.5881 14.168 65.4041 14.128 65.1881 14.128C64.7881 14.128 64.4601 14.256 64.2041 14.512C63.9561 14.768 63.8041 15.112 63.7481 15.544L66.4121 15.52ZM74.9846 11.32C75.5046 11.32 75.9846 11.404 76.4246 11.572C76.8646 11.74 77.2446 11.988 77.5646 12.316C77.8846 12.644 78.1326 13.052 78.3086 13.54C78.4926 14.028 78.5846 14.588 78.5846 15.22C78.5846 15.844 78.4926 16.4 78.3086 16.888C78.1246 17.368 77.8686 17.776 77.5406 18.112C77.2126 18.44 76.8246 18.692 76.3766 18.868C75.9366 19.036 75.4566 19.12 74.9366 19.12C74.4166 19.12 73.9366 19.036 73.4966 18.868C73.0566 18.7 72.6766 18.452 72.3566 18.124C72.0366 17.796 71.7846 17.392 71.6006 16.912C71.4246 16.424 71.3366 15.86 71.3366 15.22C71.3366 14.596 71.4286 14.044 71.6126 13.564C71.7966 13.076 72.0526 12.668 72.3806 12.34C72.7086 12.004 73.0926 11.752 73.5326 11.584C73.9806 11.408 74.4646 11.32 74.9846 11.32ZM72.7166 15.22C72.7166 15.708 72.7766 16.136 72.8966 16.504C73.0166 16.864 73.1766 17.164 73.3766 17.404C73.5846 17.644 73.8246 17.824 74.0966 17.944C74.3766 18.056 74.6726 18.112 74.9846 18.112C75.2966 18.112 75.5886 18.056 75.8606 17.944C76.1326 17.824 76.3646 17.644 76.5566 17.404C76.7566 17.164 76.9126 16.864 77.0246 16.504C77.1446 16.136 77.2046 15.708 77.2046 15.22C77.2046 14.716 77.1446 14.284 77.0246 13.924C76.9046 13.556 76.7406 13.256 76.5326 13.024C76.3326 12.784 76.0926 12.608 75.8126 12.496C75.5406 12.384 75.2486 12.328 74.9366 12.328C74.6246 12.328 74.3326 12.388 74.0606 12.508C73.7886 12.62 73.5526 12.796 73.3526 13.036C73.1606 13.276 73.0046 13.58 72.8846 13.948C72.7726 14.308 72.7166 14.732 72.7166 15.22ZM79.8852 19V13.336H80.8212L81.0012 14.428C81.1372 14.092 81.3572 13.812 81.6612 13.588C81.9652 13.356 82.3332 13.24 82.7652 13.24C82.9572 13.24 83.1212 13.256 83.2572 13.288C83.4012 13.32 83.5292 13.364 83.6412 13.42L83.4132 14.452C83.3172 14.404 83.2052 14.364 83.0772 14.332C82.9572 14.3 82.8172 14.284 82.6572 14.284C82.2172 14.284 81.8492 14.436 81.5532 14.74C81.2572 15.036 81.1092 15.488 81.1092 16.096V19H79.8852ZM87.8011 10.468H89.0371V19H88.0651L87.9211 18.376H87.8731C87.6651 18.616 87.4331 18.8 87.1771 18.928C86.9211 19.056 86.5891 19.12 86.1811 19.12C85.8611 19.12 85.5531 19.06 85.2571 18.94C84.9691 18.812 84.7091 18.624 84.4771 18.376C84.2531 18.128 84.0731 17.82 83.9371 17.452C83.8011 17.084 83.7331 16.66 83.7331 16.18C83.7331 15.732 83.7891 15.328 83.9011 14.968C84.0211 14.608 84.1891 14.3 84.4051 14.044C84.6291 13.788 84.9011 13.592 85.2211 13.456C85.5411 13.312 85.9051 13.24 86.3131 13.24C86.5931 13.24 86.8651 13.284 87.1291 13.372C87.3931 13.46 87.6171 13.584 87.8011 13.744V10.468ZM87.8011 14.74C87.4651 14.356 87.0611 14.164 86.5891 14.164C86.3811 14.164 86.1811 14.2 85.9891 14.272C85.7971 14.344 85.6251 14.46 85.4731 14.62C85.3211 14.78 85.2011 14.984 85.1131 15.232C85.0251 15.48 84.9811 15.784 84.9811 16.144C84.9811 16.504 85.0211 16.812 85.1011 17.068C85.1891 17.324 85.3011 17.536 85.4371 17.704C85.5731 17.872 85.7291 17.996 85.9051 18.076C86.0891 18.148 86.2771 18.184 86.4691 18.184C86.7571 18.184 87.0091 18.12 87.2251 17.992C87.4491 17.864 87.6411 17.684 87.8011 17.452V14.74ZM95.5161 16.384H91.5441V16.432C91.5441 17.008 91.7121 17.444 92.0481 17.74C92.3841 18.036 92.8281 18.184 93.3801 18.184C93.6841 18.184 93.9561 18.16 94.1961 18.112C94.4441 18.056 94.6921 17.972 94.9401 17.86L95.1801 18.76C94.9481 18.864 94.6721 18.948 94.3521 19.012C94.0321 19.084 93.6801 19.12 93.2961 19.12C92.8881 19.12 92.5001 19.064 92.1321 18.952C91.7641 18.84 91.4401 18.664 91.1601 18.424C90.8881 18.184 90.6721 17.88 90.5121 17.512C90.3521 17.144 90.2721 16.704 90.2721 16.192C90.2721 15.752 90.3361 15.352 90.4641 14.992C90.6001 14.624 90.7881 14.312 91.0281 14.056C91.2761 13.792 91.5721 13.592 91.9161 13.456C92.2681 13.312 92.6561 13.24 93.0801 13.24C93.4481 13.24 93.7801 13.3 94.0761 13.42C94.3801 13.54 94.6361 13.712 94.8441 13.936C95.0601 14.152 95.2241 14.42 95.3361 14.74C95.4561 15.052 95.5161 15.4 95.5161 15.784V16.384ZM94.2441 15.52C94.2441 15.328 94.2201 15.148 94.1721 14.98C94.1241 14.812 94.0521 14.668 93.9561 14.548C93.8601 14.42 93.7321 14.32 93.5721 14.248C93.4201 14.168 93.2361 14.128 93.0201 14.128C92.6201 14.128 92.2921 14.256 92.0361 14.512C91.7881 14.768 91.6361 15.112 91.5801 15.544L94.2441 15.52ZM96.7016 19V13.336H97.6376L97.8176 14.428C97.9536 14.092 98.1736 13.812 98.4776 13.588C98.7816 13.356 99.1496 13.24 99.5816 13.24C99.7736 13.24 99.9376 13.256 100.074 13.288C100.218 13.32 100.346 13.364 100.458 13.42L100.23 14.452C100.134 14.404 100.022 14.364 99.8936 14.332C99.7736 14.3 99.6336 14.284 99.4736 14.284C99.0336 14.284 98.6656 14.436 98.3696 14.74C98.0736 15.036 97.9256 15.488 97.9256 16.096V19H96.7016Z" fill="white"/>
</svg>
