<svg width="24" height="24" viewBox="0 0 24 24" fill="none" xmlns="http://www.w3.org/2000/svg">
<path fill-rule="evenodd" clip-rule="evenodd" d="M17.2306 0H6.76944C2.70703 0 0 2.90388 0 7.0718V16.9282C0 21.1 2.6999 24 6.76944 24H17.2306C21.3001 24 24 21.1 24 16.9282V7.0718C24 2.89998 21.3001 0 17.2306 0ZM6.76689 1.67491H17.228C20.345 1.67491 22.323 3.79954 22.323 7.0723V16.9287C22.323 20.2014 20.345 22.3261 17.228 22.3261H6.76689C3.64992 22.3261 1.67188 20.2014 1.67188 16.9287V7.0723C1.67188 3.80389 3.65653 1.67491 6.76689 1.67491ZM11.9974 7.0624C12.4212 7.0624 12.7715 7.37736 12.8269 7.786L12.8346 7.89961V11.1524H16.0936C16.556 11.1524 16.9308 11.5272 16.9308 11.9896C16.9308 12.4134 16.6158 12.7637 16.2072 12.8192L16.0936 12.8268H12.8346V16.0779C12.8346 16.5402 12.4597 16.9151 11.9974 16.9151C11.5735 16.9151 11.2232 16.6001 11.1678 16.1915L11.1602 16.0779V12.8268H7.90752C7.44514 12.8268 7.07031 12.452 7.07031 11.9896C7.07031 11.5658 7.38528 11.2155 7.79392 11.16L7.90752 11.1524H11.1602V7.89961C11.1602 7.43723 11.535 7.0624 11.9974 7.0624Z" fill="#563F1F"/>
</svg>
