<svg width="111" height="147" viewBox="0 0 111 147" fill="none" xmlns="http://www.w3.org/2000/svg">
<path fill-rule="evenodd" clip-rule="evenodd" d="M16.0814 10.7245L17.731 22.3584L18.9298 23.6639C20.6476 25.5353 23.0082 29.0463 24.1072 31.3655C26.6839 36.8027 27.2867 42.4153 26.0484 49.4373L25.5476 52.2763L26.7945 55.153C27.4801 56.735 29.1693 60.3457 30.5479 63.1767C38.4848 79.4754 46.8765 92.1843 57.835 104.501C70.7557 119.023 84.7606 129.521 102.784 138.193C109.889 141.611 111.491 143.073 110.355 145.1C110.007 145.72 109.623 145.927 108.534 146.078C106.755 146.325 104.686 145.567 98.8673 142.534C96.3888 141.243 93.6377 139.972 92.7537 139.711C89.4344 138.73 83.3381 138.51 78.8255 139.208C76.2787 139.602 70.4078 141.296 68.1815 142.278C67.3205 142.658 66.5456 142.916 66.4594 142.851C66.1594 142.624 70.4382 139.914 72.6354 138.939C76.8687 137.061 81.2934 136.121 86.0551 136.088L87.2801 136.08L85.7368 135.033C81.5422 132.189 70.5802 132.088 62.8234 134.821C59.4897 135.996 54.8777 138.383 51.8899 140.481C50.6256 141.37 49.539 142.057 49.4754 142.009C49.4119 141.962 50.2354 141.052 51.3054 139.989C56.3022 135.021 63.3076 131.484 70.2749 130.412C72.9064 130.007 76.2274 129.868 77.7508 130.099C78.091 130.151 76.7536 128.879 74.7789 127.272L71.189 124.352L67.6427 124.711C58.509 125.635 51.0978 122.954 44.7391 116.425C43.8252 115.486 41.9566 114.046 40.5864 113.225C36.9237 111.029 31.413 107.169 28.7727 104.951C25.0377 101.813 25.2547 101.884 32.9552 106.31C36.1051 108.12 39.8627 110.219 41.3052 110.974L43.9281 112.346L46.5515 111.94C49.7216 111.449 53.7165 111.511 56.5222 112.093C57.6614 112.33 58.4823 112.381 58.346 112.208C57.4485 111.067 55.8025 109.339 55.361 109.075C55.0722 108.902 54.34 108.837 53.7342 108.931C52.321 109.149 47.278 108.633 44.7459 108.01C39.1512 106.634 33.738 102.861 29.6283 97.4725C28.9733 96.6139 27.6874 95.2472 26.7706 94.4354C24.221 92.1781 20.0398 87.9573 17.7787 85.3583C15.4973 82.7359 13.8278 80.456 14.3602 80.6899C14.5537 80.7748 16.3563 82.3257 18.3659 84.1358C20.3755 85.9462 23.5469 88.69 25.4132 90.2332L28.8071 93.0389L31.4725 93.0244C35.9538 93 40.7143 94.0003 44.0917 95.6756C44.7771 96.0159 45.3177 96.1947 45.2926 96.0734C45.2674 95.952 44.4182 94.7135 43.4057 93.3213L41.5644 90.7899L38.9051 90.4492C30.2792 89.3437 23.3833 85.0868 18.8066 78.0419C18.1131 76.9742 16.5719 74.899 15.3819 73.4305C12.4783 69.8467 9.70535 65.803 7.14674 61.4203C5.30521 58.2662 3.8408 55.1259 4.39549 55.5202C4.49618 55.5916 6.09778 57.6922 7.9547 60.1883C12.9517 66.9053 16.1874 70.7834 16.9601 70.9817C17.3367 71.0784 18.634 71.2911 19.8427 71.4542C24.1109 72.0299 28.9949 73.9428 32.5409 76.4277C33.2792 76.9451 33.7829 77.1702 33.6607 76.9282C33.5385 76.6862 32.8953 75.406 32.2312 74.0835C31.0918 71.8133 30.9593 71.6678 29.8637 71.4849C27.8606 71.1506 23.152 69.3968 20.9339 68.1589C14.9596 64.8246 10.8473 59.8255 7.99834 52.4324C7.58704 51.3653 6.62094 49.1663 5.85112 47.5458C4.10729 43.8737 1.45604 36.6628 0.734734 33.6298C0.0429233 30.7207 0.453517 31.1699 2.38116 35.431C3.19012 37.2194 4.96213 40.8796 6.31908 43.5643L8.78597 48.4464L10.8047 48.9823C15.2641 50.1664 20.4852 53.2424 23.4947 56.4584C24.4905 57.5227 25.2859 58.2678 25.2621 58.1137C25.238 57.9596 24.8093 56.687 24.3095 55.2857C23.6238 53.364 23.0631 52.3627 22.0271 51.2107C19.9302 48.8793 17.9134 45.8399 16.5623 42.9749C15.5098 40.7431 15.2473 39.8076 14.668 36.2184C13.951 31.7783 14.02 28.7375 14.9329 24.5645C15.2729 23.0101 15.2495 21.6379 14.8023 16.9038C14.2251 10.79 13.977 3.36835 14.2611 0.698532C14.4113 -0.714806 14.6315 0.498892 16.0814 10.7245ZM31.795 14.1166C33.5022 17.8213 36.1056 25.996 37.1229 30.8465C37.529 32.7842 38.2755 35.3768 38.7815 36.6079C41.8287 44.0235 42.2098 50.3043 40.0262 57.1239C39.1364 59.9023 37.046 64.2186 35.7484 65.9566L34.992 66.9693L34.0622 65.1104C30.018 57.0248 29.2435 49.4736 31.6965 42.0462C32.0754 40.8995 33.0461 38.6735 33.854 37.0999L35.3231 34.2385L34.8203 31.0246C34.5437 29.2567 33.6383 24.8447 32.8081 21.2197C31.9776 17.5947 31.2876 14.2479 31.2745 13.7821C31.2527 13.004 31.2947 13.0313 31.795 14.1166ZM42.9854 35.5536C44.8117 40.4971 47.2079 49.5149 47.9571 54.2626C48.1983 55.7928 48.7283 57.57 49.3991 59.1002C50.279 61.1069 50.5889 62.3352 51.2161 66.3047C52.0862 71.8096 51.962 73.7243 50.4084 78.7812C49.4624 81.8609 46.8118 87.3395 46.3631 87.1426C45.9519 86.9621 43.4695 82.2099 42.5454 79.8343C41.2675 76.5499 40.4252 70.6425 40.7785 67.4452C41.159 64.0023 42.5065 59.5046 44.1427 56.2157L45.4822 53.5233L44.0418 45.6355C43.2497 41.2974 42.3613 36.7534 42.0678 35.5374C41.3519 32.5704 41.8871 32.5799 42.9854 35.5536ZM52.1078 51.9336C53.6199 54.8961 56.2512 62.1992 58.2067 68.8605C58.9883 71.5229 60.1559 74.9078 60.8014 76.3825C64.4329 84.679 64.323 92.615 60.4584 101.169C59.8459 102.525 59.2321 103.652 59.0944 103.673C58.7444 103.728 56.6116 100.285 55.226 97.429C52.0202 90.8223 51.4645 84.3285 53.4968 77.2264C53.9731 75.5617 54.7377 73.38 55.1954 72.3786C56.2157 70.1465 56.231 70.2656 53.6241 60.1949C52.5358 55.9918 51.6317 52.1825 51.6149 51.7303C51.5854 50.9441 51.6074 50.953 52.1078 51.9336ZM63.7285 70.1411C65.1813 73.3839 67.2567 79.0827 68.6508 83.6573C69.5063 86.4642 69.8713 87.2197 71.1391 88.8074C76.4411 95.4462 78.5082 103.26 77.1767 111.63C76.7588 114.255 75.5537 118.523 75.2152 118.575C74.8563 118.631 72.1207 115.439 70.5084 113.084C69.7585 111.989 68.5866 109.907 67.9043 108.458C66.842 106.202 66.5704 105.246 66.015 101.812C65.2874 97.312 65.4105 94.1301 66.488 89.5827C67.0725 87.1163 67.0711 87.0738 66.3091 83.7378C65.551 80.4186 62.8968 70.365 62.2778 68.4678C61.6142 66.433 62.5518 67.5148 63.7285 70.1411ZM95.8003 102.73C98.6185 103.388 100.592 104.908 102.138 107.61L102.803 108.772L101.993 107.948C100.486 106.415 98.102 104.841 96.613 104.396C94.3746 103.729 90.8713 104.352 88.7603 105.794C85.6701 107.904 83.7506 111.452 83.5528 115.417C83.4229 118.027 84.2768 121.443 85.5644 123.464L86.6609 125.186L83.8683 123.051C81.2262 121.031 81.0643 120.842 80.8688 119.561C79.863 112.966 82.9599 106.29 88.1856 103.786C90.3019 102.773 93.8665 102.278 95.8003 102.73ZM87.8891 112.977C87.8944 113.846 88.1767 116.293 88.5167 118.415C89.0489 121.737 89.2868 122.558 90.2278 124.322C90.829 125.449 91.9809 127.121 92.7875 128.038C93.5941 128.954 94.4134 129.893 94.6077 130.124C94.8023 130.355 93.7488 129.794 92.2665 128.878C90.7846 127.962 89.2656 126.771 88.8913 126.232C87.1849 123.777 86.3872 118.573 87.0854 114.452C87.5616 111.64 87.8772 111.061 87.8891 112.977Z" fill="#F39A00"/>
</svg>
