<svg width="16" height="16" viewBox="0 0 16 16" fill="none" xmlns="http://www.w3.org/2000/svg">
<path d="M7.58195 14.2372C6.86827 14.1013 6.16614 13.8695 5.47555 13.5417C4.78495 13.2139 4.1685 12.7579 3.6262 12.1737C3.08389 11.5896 2.64521 10.8682 2.31017 10.0097C1.97513 9.15111 1.80762 8.12654 1.80762 6.93596V6.81544C1.80762 6.67698 1.85121 6.56417 1.93838 6.47699C2.02556 6.38981 2.13838 6.34622 2.27683 6.34622H2.38453C2.89991 6.34622 3.46722 6.43768 4.08645 6.62059C4.70568 6.80349 5.25718 7.04793 5.74093 7.35392C5.82897 6.57017 6.03495 5.75884 6.35887 4.91995C6.6828 4.08107 7.08323 3.32658 7.56015 2.6565C7.67638 2.49325 7.82296 2.41162 7.99988 2.41162C8.17681 2.41162 8.32338 2.49325 8.43962 2.6565C8.91654 3.32658 9.31697 4.0832 9.6409 4.92637C9.96482 5.76953 10.1708 6.58298 10.2588 7.36674C10.7298 7.07358 11.2706 6.83341 11.8813 6.64622C12.492 6.45904 13.0657 6.35904 13.6024 6.34622L13.6947 6.3398C13.8358 6.33553 13.956 6.38318 14.0556 6.48275C14.1552 6.58232 14.2028 6.70262 14.1986 6.84364L14.1922 6.94877C14.1622 8.02825 14.0022 8.97695 13.712 9.79489C13.4219 10.6128 13.0313 11.316 12.5402 11.9045C12.0492 12.493 11.4712 12.9735 10.8063 13.3462C10.1413 13.7188 9.41784 14.0051 8.63578 14.2051C8.49134 14.2402 8.3157 14.2598 8.10887 14.2641C7.90203 14.2684 7.7264 14.2594 7.58195 14.2372ZM8.09477 13.3C7.97254 11.4667 7.41977 10.075 6.43643 9.12504C5.4531 8.17504 4.25032 7.58893 2.8281 7.3667C2.80588 7.3667 2.80588 7.3667 2.8281 7.3667C2.95032 9.24448 3.51977 10.6556 4.53643 11.6C5.5531 12.5445 6.73921 13.1111 8.09477 13.3C8.11699 13.3111 8.11699 13.3139 8.09477 13.3084C8.07254 13.3028 8.07254 13.3 8.09477 13.3ZM6.69988 7.96672C6.93493 8.16417 7.17147 8.40413 7.4095 8.6866C7.64753 8.96908 7.84433 9.24109 7.99988 9.50264C8.15801 9.24109 8.35544 8.96908 8.59218 8.6866C8.82894 8.40413 9.06484 8.16417 9.29988 7.96672C9.28621 7.31202 9.16548 6.62527 8.9377 5.90647C8.70992 5.18766 8.39732 4.49407 7.99988 3.82569C7.60245 4.49407 7.28984 5.18659 7.06207 5.90325C6.83429 6.61993 6.71356 7.30775 6.69988 7.96672ZM8.5409 10.5949C8.67423 10.9505 8.78598 11.3244 8.87615 11.7167C8.96632 12.109 9.03918 12.5496 9.09473 13.0385C9.5503 12.8838 10.0089 12.6656 10.4704 12.384C10.9319 12.1024 11.3505 11.7361 11.7262 11.2853C12.1018 10.8344 12.4221 10.2883 12.687 9.64682C12.952 9.00538 13.1135 8.24534 13.1717 7.3667C13.1717 7.34448 13.1717 7.34448 13.1717 7.3667C12.1101 7.52226 11.1721 7.88551 10.3576 8.45645C9.54303 9.0274 8.93748 9.74022 8.5409 10.5949Z" fill="#623E13"/>
</svg>
