<svg width="28" height="30" viewBox="0 0 28 30" fill="none" xmlns="http://www.w3.org/2000/svg">
<path fill-rule="evenodd" clip-rule="evenodd" d="M10.7624 1.23457C9.83934 2.13457 9.49621 3.08642 9.21391 4.66667C9.49621 8.02469 12.1553 9.33333 14 9.33333C16.4601 9.25926 18.9924 6.79012 18.7861 4.66667C18.9924 2.46914 16.5778 0 14 0C13.2137 0 11.6854 0.334568 10.7624 1.23457ZM5.97919 13.618C4.85241 14.5427 3.046 16.946 1.96503 18.9587L0 22.6187L2.7267 25.3427C4.43124 27.0453 5.89304 27.9553 6.626 27.7687C7.35417 27.5833 7.95517 27.95 8.21088 28.7353C8.56847 29.8353 9.3192 30 13.9726 30C18.0983 30 19.4138 29.7713 19.7173 29C19.9334 28.45 20.6732 28 21.361 28C22.0482 28 23.8238 26.7893 25.3054 25.3093L28 22.6187L26.035 18.9587C24.0275 15.22 20.8113 12 19.0849 12C17.8836 12 16.0355 16.1433 15.6963 19.5973C15.4003 22.6047 14.6796 23.546 13.118 22.9613C12.3324 22.6673 12.1143 22.0253 12.3727 20.766C12.8233 18.5713 10.4467 12.4087 9.04503 12.1347C8.48642 12.026 7.10666 12.6933 5.97919 13.618ZM12.2818 14.4147C12.8507 15.7427 13.3163 16.9427 13.3163 17.0813C13.3163 17.22 13.5775 17.3333 13.8961 17.3333C14.2154 17.3333 14.96 16.1333 15.5507 14.6667L16.6248 12H13.9357H11.2466L12.2818 14.4147ZM7.77808 23.6513L7.84645 25.6367L6.02842 23.8633C4.21586 22.0967 4.21381 22.084 5.47939 20.212L6.74839 18.3333L7.22973 20C7.49365 20.9167 7.74048 22.56 7.77808 23.6513ZM23.5722 21.9573C23.5722 22.22 22.803 23.1387 21.8629 24C20.2062 25.5173 20.1535 25.5233 20.1535 24.1993C20.1535 23.448 20.3559 21.8467 20.6034 20.6407L21.0533 18.448L22.3128 19.9647C23.0054 20.7987 23.5722 21.6953 23.5722 21.9573Z" fill="#18967D"/>
</svg>
