<svg width="13" height="13" viewBox="0 0 13 13" fill="none" xmlns="http://www.w3.org/2000/svg">
<path d="M11.9628 0.182486C12.1885 0.403682 12.209 0.749817 12.0244 0.993729L11.9628 1.06361L6.87007 6.05602L11.9628 11.0484C12.1885 11.2696 12.209 11.6158 12.0244 11.8597L11.9628 11.9296C11.7372 12.1508 11.3841 12.1709 11.1353 11.9899L11.064 11.9296L5.52208 6.49659C5.29645 6.27539 5.27594 5.92925 5.46055 5.68534L5.52208 5.61546L11.064 0.182486C11.3122 -0.0608288 11.7146 -0.0608288 11.9628 0.182486Z" fill="#0D0D0D"/>
<path d="M0.185619 0.182486C-0.0400133 0.403682 -0.0605254 0.749817 0.124083 0.993729L0.185619 1.06361L5.27837 6.05602L0.185619 11.0484C-0.0400133 11.2696 -0.0605254 11.6158 0.124083 11.8597L0.185619 11.9296C0.411251 12.1508 0.764328 12.1709 1.01313 11.9899L1.08441 11.9296L6.62635 6.49659C6.85199 6.27539 6.8725 5.92925 6.68789 5.68534L6.62635 5.61546L1.08441 0.182486C0.836218 -0.0608288 0.433814 -0.0608288 0.185619 0.182486Z" fill="#0D0D0D"/>
</svg>
