<svg width="127" height="32" viewBox="0 0 127 32" fill="none" xmlns="http://www.w3.org/2000/svg">
<rect width="127" height="32" rx="16" fill="#E26B26"/>
<path d="M42.32 11.32C43.2 11.32 43.936 11.468 44.528 11.764L44.24 12.712C43.952 12.576 43.66 12.476 43.364 12.412C43.076 12.348 42.776 12.316 42.464 12.316C42.12 12.316 41.792 12.368 41.48 12.472C41.176 12.576 40.904 12.744 40.664 12.976C40.432 13.208 40.244 13.508 40.1 13.876C39.964 14.244 39.896 14.696 39.896 15.232C39.896 16.168 40.108 16.884 40.532 17.38C40.956 17.868 41.556 18.112 42.332 18.112C42.604 18.112 42.836 18.1 43.028 18.076C43.228 18.044 43.416 17.996 43.592 17.932V15.94H42.224V14.956H44.804V18.664C44.484 18.792 44.124 18.9 43.724 18.988C43.324 19.076 42.856 19.12 42.32 19.12C41.792 19.12 41.296 19.036 40.832 18.868C40.368 18.7 39.964 18.452 39.62 18.124C39.276 17.796 39.004 17.392 38.804 16.912C38.612 16.424 38.516 15.864 38.516 15.232C38.516 14.6 38.612 14.04 38.804 13.552C38.996 13.064 39.26 12.656 39.596 12.328C39.94 11.992 40.344 11.74 40.808 11.572C41.272 11.404 41.776 11.32 42.32 11.32ZM51.1528 16.384H47.1808V16.432C47.1808 17.008 47.3488 17.444 47.6848 17.74C48.0208 18.036 48.4648 18.184 49.0168 18.184C49.3208 18.184 49.5928 18.16 49.8328 18.112C50.0808 18.056 50.3288 17.972 50.5768 17.86L50.8168 18.76C50.5848 18.864 50.3088 18.948 49.9888 19.012C49.6688 19.084 49.3168 19.12 48.9328 19.12C48.5248 19.12 48.1368 19.064 47.7688 18.952C47.4008 18.84 47.0768 18.664 46.7968 18.424C46.5248 18.184 46.3088 17.88 46.1488 17.512C45.9888 17.144 45.9088 16.704 45.9088 16.192C45.9088 15.752 45.9728 15.352 46.1008 14.992C46.2368 14.624 46.4248 14.312 46.6648 14.056C46.9128 13.792 47.2088 13.592 47.5528 13.456C47.9048 13.312 48.2928 13.24 48.7168 13.24C49.0848 13.24 49.4168 13.3 49.7128 13.42C50.0168 13.54 50.2728 13.712 50.4808 13.936C50.6968 14.152 50.8608 14.42 50.9728 14.74C51.0928 15.052 51.1528 15.4 51.1528 15.784V16.384ZM49.8808 15.52C49.8808 15.328 49.8568 15.148 49.8088 14.98C49.7608 14.812 49.6888 14.668 49.5928 14.548C49.4968 14.42 49.3688 14.32 49.2088 14.248C49.0568 14.168 48.8728 14.128 48.6568 14.128C48.2568 14.128 47.9288 14.256 47.6728 14.512C47.4248 14.768 47.2728 15.112 47.2168 15.544L49.8808 15.52ZM55.4703 14.248H53.8623V17.308C53.8623 17.588 53.9263 17.776 54.0543 17.872C54.1903 17.968 54.3703 18.016 54.5943 18.016C54.7543 18.016 54.9223 18 55.0983 17.968C55.2823 17.928 55.4423 17.884 55.5783 17.836L55.7703 18.748C55.6103 18.812 55.4023 18.872 55.1463 18.928C54.8983 18.976 54.6343 19 54.3543 19C53.7463 19 53.3063 18.876 53.0343 18.628C52.7703 18.372 52.6383 17.996 52.6383 17.5V14.248H51.7743V13.336H52.6383V11.548H53.8623V13.336H55.4703V14.248ZM62.1508 11.44C62.7028 11.44 63.2108 11.516 63.6748 11.668C64.1388 11.82 64.5388 12.048 64.8748 12.352C65.2108 12.648 65.4708 13.024 65.6548 13.48C65.8468 13.928 65.9428 14.452 65.9428 15.052C65.9428 15.764 65.8308 16.372 65.6068 16.876C65.3828 17.372 65.0788 17.78 64.6948 18.1C64.3188 18.412 63.8748 18.64 63.3628 18.784C62.8588 18.928 62.3268 19 61.7668 19H59.6308V11.44H62.1508ZM60.9148 17.968H61.6588C62.0268 17.968 62.3828 17.928 62.7268 17.848C63.0788 17.76 63.3908 17.608 63.6628 17.392C63.9348 17.168 64.1508 16.868 64.3108 16.492C64.4788 16.116 64.5628 15.636 64.5628 15.052C64.5628 14.22 64.3228 13.584 63.8428 13.144C63.3708 12.696 62.7348 12.472 61.9348 12.472H60.9148V17.968ZM67.3886 19V13.336H68.6246V19H67.3886ZM68.0126 11.932C67.7966 11.932 67.6246 11.868 67.4966 11.74C67.3686 11.604 67.3046 11.436 67.3046 11.236C67.3046 11.036 67.3686 10.872 67.4966 10.744C67.6246 10.608 67.7966 10.54 68.0126 10.54C68.2206 10.54 68.3886 10.608 68.5166 10.744C68.6526 10.872 68.7206 11.036 68.7206 11.236C68.7206 11.444 68.6526 11.612 68.5166 11.74C68.3886 11.868 68.2206 11.932 68.0126 11.932ZM70.3149 19V13.336H71.2509L71.4309 14.428C71.5669 14.092 71.7869 13.812 72.0909 13.588C72.3949 13.356 72.7629 13.24 73.1949 13.24C73.3869 13.24 73.5509 13.256 73.6869 13.288C73.8309 13.32 73.9589 13.364 74.0709 13.42L73.8429 14.452C73.7469 14.404 73.6349 14.364 73.5069 14.332C73.3869 14.3 73.2469 14.284 73.0869 14.284C72.6469 14.284 72.2789 14.436 71.9829 14.74C71.6869 15.036 71.5389 15.488 71.5389 16.096V19H70.3149ZM79.4653 16.384H75.4933V16.432C75.4933 17.008 75.6613 17.444 75.9973 17.74C76.3333 18.036 76.7773 18.184 77.3293 18.184C77.6333 18.184 77.9053 18.16 78.1453 18.112C78.3933 18.056 78.6413 17.972 78.8893 17.86L79.1293 18.76C78.8973 18.864 78.6213 18.948 78.3013 19.012C77.9813 19.084 77.6293 19.12 77.2453 19.12C76.8373 19.12 76.4493 19.064 76.0813 18.952C75.7133 18.84 75.3893 18.664 75.1093 18.424C74.8373 18.184 74.6213 17.88 74.4613 17.512C74.3013 17.144 74.2213 16.704 74.2213 16.192C74.2213 15.752 74.2853 15.352 74.4133 14.992C74.5493 14.624 74.7373 14.312 74.9773 14.056C75.2253 13.792 75.5213 13.592 75.8653 13.456C76.2173 13.312 76.6053 13.24 77.0293 13.24C77.3973 13.24 77.7293 13.3 78.0253 13.42C78.3293 13.54 78.5853 13.712 78.7933 13.936C79.0093 14.152 79.1733 14.42 79.2853 14.74C79.4053 15.052 79.4653 15.4 79.4653 15.784V16.384ZM78.1933 15.52C78.1933 15.328 78.1693 15.148 78.1213 14.98C78.0733 14.812 78.0013 14.668 77.9053 14.548C77.8093 14.42 77.6813 14.32 77.5213 14.248C77.3693 14.168 77.1853 14.128 76.9693 14.128C76.5693 14.128 76.2413 14.256 75.9853 14.512C75.7373 14.768 75.5853 15.112 75.5293 15.544L78.1933 15.52ZM83.4468 18.184C83.7028 18.184 83.9268 18.156 84.1188 18.1C84.3188 18.036 84.4988 17.964 84.6588 17.884L84.9108 18.772C84.7188 18.876 84.4868 18.96 84.2148 19.024C83.9428 19.088 83.6428 19.12 83.3148 19.12C82.8988 19.12 82.5068 19.06 82.1388 18.94C81.7788 18.812 81.4628 18.628 81.1908 18.388C80.9268 18.14 80.7148 17.832 80.5548 17.464C80.4028 17.096 80.3268 16.668 80.3268 16.18C80.3268 15.732 80.3988 15.328 80.5428 14.968C80.6868 14.6 80.8908 14.288 81.1548 14.032C81.4188 13.776 81.7348 13.58 82.1028 13.444C82.4708 13.308 82.8748 13.24 83.3148 13.24C83.5628 13.24 83.8108 13.26 84.0588 13.3C84.3148 13.34 84.5948 13.432 84.8988 13.576L84.6228 14.476C84.2468 14.268 83.8548 14.164 83.4468 14.164C82.8948 14.164 82.4468 14.336 82.1028 14.68C81.7588 15.024 81.5868 15.512 81.5868 16.144C81.5868 16.528 81.6388 16.852 81.7428 17.116C81.8548 17.372 81.9988 17.58 82.1748 17.74C82.3508 17.9 82.5468 18.016 82.7628 18.088C82.9868 18.152 83.2148 18.184 83.4468 18.184ZM89.2203 14.248H87.6123V17.308C87.6123 17.588 87.6763 17.776 87.8043 17.872C87.9403 17.968 88.1203 18.016 88.3443 18.016C88.5043 18.016 88.6723 18 88.8483 17.968C89.0323 17.928 89.1923 17.884 89.3283 17.836L89.5203 18.748C89.3603 18.812 89.1523 18.872 88.8963 18.928C88.6483 18.976 88.3843 19 88.1043 19C87.4963 19 87.0563 18.876 86.7843 18.628C86.5203 18.372 86.3883 17.996 86.3883 17.5V14.248H85.5243V13.336H86.3883V11.548H87.6123V13.336H89.2203V14.248ZM90.6737 19V13.336H91.9097V19H90.6737ZM91.2977 11.932C91.0817 11.932 90.9097 11.868 90.7817 11.74C90.6537 11.604 90.5897 11.436 90.5897 11.236C90.5897 11.036 90.6537 10.872 90.7817 10.744C90.9097 10.608 91.0817 10.54 91.2977 10.54C91.5057 10.54 91.6737 10.608 91.8017 10.744C91.9377 10.872 92.0057 11.036 92.0057 11.236C92.0057 11.444 91.9377 11.612 91.8017 11.74C91.6737 11.868 91.5057 11.932 91.2977 11.932ZM98.916 16.108C98.916 16.58 98.84 17.004 98.688 17.38C98.544 17.756 98.344 18.072 98.088 18.328C97.832 18.584 97.532 18.78 97.188 18.916C96.844 19.052 96.472 19.12 96.072 19.12C95.672 19.12 95.3 19.056 94.956 18.928C94.62 18.8 94.324 18.616 94.068 18.376C93.82 18.128 93.624 17.824 93.48 17.464C93.344 17.104 93.276 16.692 93.276 16.228C93.276 15.748 93.348 15.324 93.492 14.956C93.644 14.588 93.848 14.276 94.104 14.02C94.36 13.764 94.66 13.572 95.004 13.444C95.348 13.308 95.72 13.24 96.12 13.24C96.52 13.24 96.888 13.304 97.224 13.432C97.568 13.552 97.864 13.732 98.112 13.972C98.368 14.212 98.564 14.512 98.7 14.872C98.844 15.232 98.916 15.644 98.916 16.108ZM97.632 16.168C97.632 15.808 97.588 15.504 97.5 15.256C97.412 15 97.296 14.792 97.152 14.632C97.008 14.472 96.844 14.356 96.66 14.284C96.476 14.212 96.284 14.176 96.084 14.176C95.892 14.176 95.704 14.208 95.52 14.272C95.336 14.336 95.172 14.444 95.028 14.596C94.884 14.748 94.768 14.952 94.68 15.208C94.6 15.464 94.56 15.784 94.56 16.168C94.56 16.52 94.604 16.824 94.692 17.08C94.78 17.336 94.896 17.548 95.04 17.716C95.184 17.876 95.348 17.996 95.532 18.076C95.724 18.148 95.916 18.184 96.108 18.184C96.3 18.184 96.488 18.152 96.672 18.088C96.856 18.024 97.02 17.916 97.164 17.764C97.308 17.604 97.42 17.396 97.5 17.14C97.588 16.876 97.632 16.552 97.632 16.168ZM101.387 19H100.151V13.336H101.123L101.291 14.092C101.571 13.82 101.863 13.612 102.167 13.468C102.479 13.316 102.831 13.24 103.223 13.24C103.823 13.24 104.287 13.404 104.615 13.732C104.943 14.06 105.107 14.528 105.107 15.136V19H103.871V15.292C103.871 14.964 103.787 14.704 103.619 14.512C103.451 14.32 103.199 14.224 102.863 14.224C102.607 14.224 102.351 14.288 102.095 14.416C101.847 14.536 101.611 14.712 101.387 14.944V19ZM109.942 14.488C109.686 14.368 109.446 14.284 109.222 14.236C109.006 14.18 108.79 14.152 108.574 14.152C108.238 14.152 107.982 14.216 107.806 14.344C107.638 14.464 107.554 14.628 107.554 14.836C107.554 14.996 107.618 15.136 107.746 15.256C107.874 15.368 108.138 15.48 108.538 15.592L108.898 15.7C109.418 15.86 109.81 16.068 110.074 16.324C110.346 16.58 110.482 16.924 110.482 17.356C110.482 17.884 110.282 18.312 109.882 18.64C109.482 18.96 108.934 19.12 108.238 19.12C107.862 19.12 107.51 19.084 107.182 19.012C106.862 18.948 106.574 18.856 106.318 18.736L106.606 17.8C106.838 17.912 107.086 18.004 107.35 18.076C107.614 18.148 107.886 18.184 108.166 18.184C108.51 18.184 108.778 18.124 108.97 18.004C109.162 17.884 109.258 17.7 109.258 17.452C109.258 17.22 109.17 17.056 108.994 16.96C108.826 16.856 108.562 16.748 108.202 16.636L107.83 16.528C107.326 16.36 106.95 16.148 106.702 15.892C106.462 15.636 106.342 15.3 106.342 14.884C106.342 14.636 106.394 14.412 106.498 14.212C106.602 14.012 106.746 13.84 106.93 13.696C107.114 13.552 107.334 13.44 107.59 13.36C107.854 13.28 108.142 13.24 108.454 13.24C108.75 13.24 109.05 13.268 109.354 13.324C109.666 13.38 109.954 13.468 110.218 13.588L109.942 14.488Z" fill="white"/>
<path d="M24.7581 8.97336L18.7381 10.9734C14.6915 12.3267 14.6915 14.5334 18.7381 15.88L20.5248 16.4734L21.1181 18.26C22.4648 22.3067 24.6781 22.3067 26.0248 18.26L28.0315 12.2467C28.9248 9.5467 27.4581 8.07336 24.7581 8.97336ZM24.9715 12.56L22.4381 15.1067C22.3381 15.2067 22.2115 15.2534 22.0848 15.2534C21.9581 15.2534 21.8315 15.2067 21.7315 15.1067C21.5381 14.9134 21.5381 14.5934 21.7315 14.4L24.2648 11.8534C24.4581 11.66 24.7781 11.66 24.9715 11.8534C25.1648 12.0467 25.1648 12.3667 24.9715 12.56Z" fill="#FFF3D7"/>
</svg>
