<svg width="26" height="26" viewBox="0 0 26 26" fill="none" xmlns="http://www.w3.org/2000/svg">
<rect x="0.226562" width="25.7727" height="25.7727" rx="12.8864" fill="#E26B26"/>
<rect x="7.58984" y="6.13623" width="12.2727" height="14.7273" rx="4.90909" fill="white"/>
<path d="M0.604338 11.977L12.1735 0.378715C12.415 0.1367 12.7427 0.000484581 13.0846 1.2904e-06C13.4265 -0.000482001 13.7547 0.134807 13.9969 0.376138L25.6214 11.9744C25.7414 12.0942 25.8366 12.2364 25.9016 12.3929C25.9666 12.5495 26 12.7173 26 12.8868C26 13.0564 25.9666 13.2242 25.9016 13.3808C25.8366 13.5373 25.7414 13.6795 25.6214 13.7992L13.9969 25.3976C13.4943 25.8989 12.6748 25.8976 12.1735 25.395L0.604338 13.7967C0.4848 13.6772 0.389973 13.5354 0.325274 13.3793C0.260574 13.2232 0.227272 13.0558 0.227272 12.8868C0.227272 12.7179 0.260574 12.5505 0.325274 12.3944C0.389973 12.2383 0.4848 12.0965 0.604338 11.977ZM9.24705 18.0417H11.8243V12.8868H15.6901V15.4642L19.5559 11.5981L15.6901 7.73204V10.3094H9.24705V18.0417Z" fill="#E26B26"/>
</svg>
