<svg width="30" height="30" viewBox="0 0 30 30" fill="none" xmlns="http://www.w3.org/2000/svg">
<path d="M17.7 24C17.445 24 17.2313 23.9137 17.0588 23.7412C16.8863 23.5687 16.8 23.355 16.8 23.1V22.1325C16.455 22.0725 16.1288 21.9863 15.8213 21.8738C15.5138 21.7613 15.225 21.6075 14.955 21.4125L14.055 22.3125C13.875 22.4775 13.6612 22.5637 13.4137 22.5712C13.1662 22.5787 12.9525 22.4925 12.7725 22.3125C12.5925 22.1325 12.5025 21.9187 12.5025 21.6712C12.5025 21.4237 12.5925 21.21 12.7725 21.03L13.695 20.1075C13.65 20.0325 13.605 19.9537 13.56 19.8712C13.515 19.7887 13.47 19.71 13.425 19.635L12.8175 18.4425L11.715 19.545C11.535 19.71 11.325 19.7963 11.085 19.8038C10.845 19.8113 10.635 19.725 10.455 19.545C10.275 19.365 10.185 19.155 10.185 18.915C10.185 18.675 10.275 18.465 10.455 18.285L11.5575 17.16L10.365 16.575C10.29 16.545 10.2225 16.5112 10.1625 16.4737C10.1025 16.4362 10.035 16.395 9.96 16.35L9.15 17.16C8.97 17.325 8.75625 17.4112 8.50875 17.4187C8.26125 17.4262 8.0475 17.34 7.8675 17.16C7.6875 16.98 7.5975 16.77 7.5975 16.53C7.5975 16.29 7.6875 16.08 7.8675 15.9L8.655 15.1125C8.445 14.8275 8.27625 14.5237 8.14875 14.2012C8.02125 13.8787 7.9275 13.545 7.8675 13.2H6.9C6.645 13.2 6.43125 13.1137 6.25875 12.9412C6.08625 12.7687 6 12.555 6 12.3C6 12.045 6.08625 11.8312 6.25875 11.6587C6.43125 11.4862 6.645 11.4 6.9 11.4H7.9125C7.9875 11.115 8.0775 10.845 8.1825 10.59C8.2875 10.335 8.4225 10.0875 8.5875 9.8475L7.8 9.06C7.62 8.88 7.53 8.67 7.53 8.43C7.53 8.19 7.62 7.98 7.8 7.8C7.98 7.62 8.19 7.53 8.43 7.53C8.67 7.53 8.88 7.62 9.06 7.8L9.8475 8.5875C10.0875 8.4225 10.335 8.2875 10.59 8.1825C10.845 8.0775 11.115 7.9875 11.4 7.9125V6.9C11.4 6.645 11.4862 6.43125 11.6587 6.25875C11.8312 6.08625 12.045 6 12.3 6C12.555 6 12.7687 6.08625 12.9412 6.25875C13.1137 6.43125 13.2 6.645 13.2 6.9V7.8675C13.56 7.9275 13.9012 8.025 14.2237 8.16C14.5462 8.295 14.85 8.4675 15.135 8.6775L15.9225 7.89C16.1025 7.71 16.3162 7.62 16.5637 7.62C16.8112 7.62 17.025 7.71 17.205 7.89C17.385 8.07 17.475 8.28 17.475 8.52C17.475 8.76 17.385 8.97 17.205 9.15L16.3725 9.9825C16.4025 10.0425 16.4362 10.1025 16.4737 10.1625C16.5112 10.2225 16.545 10.29 16.575 10.365L17.1375 11.49L18.1725 10.455C18.3525 10.275 18.5662 10.185 18.8137 10.185C19.0612 10.185 19.275 10.275 19.455 10.455C19.635 10.635 19.725 10.8487 19.725 11.0962C19.725 11.3437 19.635 11.5575 19.455 11.7375L18.375 12.795L19.635 13.425C19.725 13.47 19.8188 13.5188 19.9163 13.5713C20.0138 13.6238 20.1 13.68 20.175 13.74L21.075 12.84C21.255 12.66 21.465 12.57 21.705 12.57C21.945 12.57 22.155 12.66 22.335 12.84C22.515 13.02 22.605 13.2337 22.605 13.4812C22.605 13.7287 22.515 13.9425 22.335 14.1225L21.435 15C21.615 15.27 21.7613 15.555 21.8738 15.855C21.9863 16.155 22.0725 16.47 22.1325 16.8H23.1C23.355 16.8 23.5687 16.8863 23.7412 17.0588C23.9137 17.2313 24 17.445 24 17.7C24 17.955 23.9137 18.1688 23.7412 18.3413C23.5687 18.5138 23.355 18.6 23.1 18.6H22.0875C22.0125 18.885 21.9225 19.1512 21.8175 19.3987C21.7125 19.6462 21.5775 19.89 21.4125 20.13L22.1775 20.895C22.3575 21.075 22.4475 21.2888 22.4475 21.5363C22.4475 21.7838 22.3575 21.9975 22.1775 22.1775C21.9975 22.3425 21.7838 22.4288 21.5363 22.4363C21.2888 22.4438 21.075 22.3575 20.895 22.1775L20.1525 21.4125C19.9125 21.5775 19.665 21.7125 19.41 21.8175C19.155 21.9225 18.885 22.0125 18.6 22.0875V23.1C18.6 23.355 18.5138 23.5687 18.3413 23.7412C18.1688 23.9137 17.955 24 17.7 24ZM17.565 20.4C18.435 20.4 19.1512 20.07 19.7137 19.41C20.2762 18.75 20.49 17.985 20.355 17.115C20.28 16.665 20.1112 16.26 19.8487 15.9C19.5862 15.54 19.245 15.255 18.825 15.045L17.34 14.28C16.995 14.1 16.6837 13.8712 16.4062 13.5937C16.1287 13.3162 15.9 13.005 15.72 12.66L14.955 11.175C14.715 10.695 14.37 10.3125 13.92 10.0275C13.47 9.7425 12.975 9.6 12.435 9.6C11.565 9.6 10.8488 9.93 10.2863 10.59C9.72375 11.25 9.51 12.015 9.645 12.885C9.72 13.335 9.88875 13.74 10.1513 14.1C10.4138 14.46 10.755 14.745 11.175 14.955L12.66 15.72C13.005 15.9 13.3162 16.1287 13.5937 16.4062C13.8712 16.6837 14.1 16.995 14.28 17.34L15.045 18.825C15.285 19.305 15.63 19.6875 16.08 19.9725C16.53 20.2575 17.025 20.4 17.565 20.4ZM12.75 13.65C13.125 13.65 13.4437 13.5187 13.7062 13.2562C13.9687 12.9937 14.1 12.675 14.1 12.3C14.1 11.925 13.9687 11.6062 13.7062 11.3437C13.4437 11.0812 13.125 10.95 12.75 10.95C12.375 10.95 12.0562 11.0812 11.7937 11.3437C11.5312 11.6062 11.4 11.925 11.4 12.3C11.4 12.675 11.5312 12.9937 11.7937 13.2562C12.0562 13.5187 12.375 13.65 12.75 13.65ZM17.25 19.275C17.565 19.275 17.8312 19.1662 18.0487 18.9487C18.2662 18.7312 18.375 18.465 18.375 18.15C18.375 17.835 18.2662 17.5687 18.0487 17.3512C17.8312 17.1337 17.565 17.025 17.25 17.025C16.935 17.025 16.6687 17.1337 16.4512 17.3512C16.2337 17.5687 16.125 17.835 16.125 18.15C16.125 18.465 16.2337 18.7312 16.4512 18.9487C16.6687 19.1662 16.935 19.275 17.25 19.275Z" fill="white"/>
<g clip-path="url(#clip0_3_4)">
<path d="M3.33333 30C2.41667 30 1.63194 29.6736 0.979167 29.0208C0.326389 28.3681 0 27.5833 0 26.6667V21C0 20.4477 0.447715 20 1 20H2.33333C2.88562 20 3.33333 20.4477 3.33333 21V25.6667C3.33333 26.219 3.78105 26.6667 4.33333 26.6667H9C9.55229 26.6667 10 27.1144 10 27.6667V29C10 29.5523 9.55228 30 9 30H3.33333ZM21 30C20.4477 30 20 29.5523 20 29V27.6667C20 27.1144 20.4477 26.6667 21 26.6667H25.6667C26.219 26.6667 26.6667 26.219 26.6667 25.6667V21C26.6667 20.4477 27.1144 20 27.6667 20H29C29.5523 20 30 20.4477 30 21V26.6667C30 27.5833 29.6736 28.3681 29.0208 29.0208C28.3681 29.6736 27.5833 30 26.6667 30H21ZM0.999999 10C0.447714 10 0 9.55228 0 9V3.33333C0 2.41667 0.326389 1.63194 0.979167 0.979167C1.63194 0.326389 2.41667 0 3.33333 0H9C9.55229 0 10 0.447715 10 1V2.33333C10 2.88562 9.55228 3.33333 9 3.33333H4.33333C3.78105 3.33333 3.33333 3.78105 3.33333 4.33333V9C3.33333 9.55229 2.88562 10 2.33333 10H0.999999ZM27.6667 10C27.1144 10 26.6667 9.55228 26.6667 9V4.33333C26.6667 3.78105 26.219 3.33333 25.6667 3.33333H21C20.4477 3.33333 20 2.88562 20 2.33333V0.999999C20 0.447714 20.4477 0 21 0H26.6667C27.5833 0 28.3681 0.326389 29.0208 0.979167C29.6736 1.63194 30 2.41667 30 3.33333V9C30 9.55229 29.5523 10 29 10H27.6667Z" fill="white"/>
</g>
<defs>
<clipPath id="clip0_3_4">
<rect width="30" height="30" fill="white"/>
</clipPath>
</defs>
</svg>
