<svg width="99" height="94" viewBox="0 0 99 94" fill="none" xmlns="http://www.w3.org/2000/svg">
<path fill-rule="evenodd" clip-rule="evenodd" d="M23.8768 0.14713C22.0357 0.879593 20.6964 2.93785 20.6964 5.03524C20.6964 5.54494 20.2832 5.95814 19.7735 5.95814H10.6505H1.40014C0.911116 5.95814 0.462606 6.22989 0.23622 6.66336C-0.312555 7.71379 0.110059 8.48857 1.34555 8.69756C1.88532 8.78886 6.01812 9.25263 10.5296 9.72828C15.0411 10.2039 19.1742 10.6668 19.7144 10.757C20.2812 10.8518 20.6964 11.3423 20.6964 11.917V12.9161C20.6964 15.726 20.8253 15.8132 24.9711 15.8132C29.1214 15.8132 29.2458 15.7286 29.2458 12.8981C29.2458 11.7912 29.2719 10.8793 29.3035 10.8718C29.3352 10.8639 33.8467 10.359 39.3287 9.74944C44.8109 9.14017 49.4118 8.55176 49.5532 8.4422C49.8954 8.17669 49.882 6.74365 49.5331 6.30597C49.3261 6.04626 46.731 5.95814 39.2808 5.95814H30.6373C29.8834 5.95814 29.2541 5.38289 29.1866 4.63206C29.0547 3.16278 28.1501 1.51032 27.025 0.683072C26.1886 0.0679997 24.7086 -0.183884 23.8768 0.14713ZM113.5 0.282783C111.873 1.03438 110.58 3.14887 110.58 5.05988C110.58 5.55598 110.178 5.95814 109.682 5.95814H100.575C93.1015 5.95814 90.4997 6.04626 90.2927 6.30597C89.9043 6.79321 89.9472 7.84539 90.3738 8.28916C90.6118 8.53698 94.0491 9.0306 100.598 9.75727C106.025 10.3596 110.49 10.8599 110.522 10.8689C110.554 10.8781 110.58 11.7912 110.58 12.8981C110.58 15.7286 110.704 15.8132 114.855 15.8132C119 15.8132 119.129 15.726 119.129 12.9161V11.917C119.129 11.3423 119.545 10.8518 120.111 10.757C120.651 10.6668 124.785 10.2039 129.296 9.72828C133.808 9.25263 137.94 8.78886 138.48 8.69756C139.716 8.48857 140.138 7.71379 139.59 6.66336C139.363 6.22989 138.915 5.95814 138.426 5.95814H129.175H120.052C119.543 5.95814 119.129 5.54494 119.129 5.03524C119.129 1.73321 116.028 -0.885042 113.5 0.282783ZM66.9668 14.0118C65.4398 14.0651 64.5984 14.2074 64.5984 14.4129C64.5984 16.2393 66.1803 19.0355 67.7049 19.9042C68.9179 20.5952 70.9039 20.5981 72.108 19.91C73.3701 19.1891 74.6153 17.3749 74.985 15.7193C75.1534 14.9645 75.2507 14.3031 75.2015 14.2489C75.0513 14.0842 69.4857 13.9239 66.9668 14.0118ZM58.7063 14.5636C58.3251 14.626 50.0588 15.7161 40.3368 16.9865C30.6148 18.257 22.4005 19.3932 22.0828 19.5115C21.0712 19.8877 20.1289 20.7535 19.5376 21.85C19.0496 22.7546 18.9634 23.2488 18.9634 25.1399C18.9634 27.6204 19.2056 28.2451 20.7905 29.8544C21.6576 30.7346 21.6884 30.7422 25.2814 30.9326C27.2711 31.0378 31.0936 31.1358 33.7758 31.15C41.7867 31.192 47.478 31.9683 55.2603 34.0807C61.5174 35.7793 64.4362 36.2016 69.9129 36.2016C75.3896 36.2016 78.3083 35.7793 84.5655 34.0807C92.3478 31.9683 98.0391 31.192 106.05 31.15C108.732 31.1358 112.555 31.0378 114.544 30.9326C118.137 30.7422 118.168 30.7346 119.035 29.8544C120.481 28.3868 120.831 27.5941 120.934 25.5578C121.072 22.8503 120.182 20.8471 118.368 19.779C117.644 19.352 84.4285 14.8091 79.3634 14.4442L78.3431 14.3708C77.6749 14.3226 77.0888 14.8126 77.0176 15.4787C76.7184 18.2761 75.1495 20.8309 72.9167 22.1564C71.1877 23.1828 68.7347 23.2071 66.9622 22.2152C64.8186 21.0158 62.7499 17.4906 62.7499 15.037C62.7499 14.3906 62.6832 14.3657 61.0747 14.4074C60.1532 14.4312 59.0876 14.5016 58.7063 14.5636ZM47.3657 41.832C47.0157 42.1309 43.1096 48.5749 43.1096 48.8538C43.1096 49.4642 43.973 50.3691 44.3947 50.201C44.9708 49.9714 48.8861 43.5598 48.8861 42.8465C48.8861 41.8543 48.0183 41.2752 47.3657 41.832ZM91.2169 41.9581C91.0644 42.1494 90.9397 42.5491 90.9397 42.8465C90.9397 43.5404 94.8474 49.9683 95.4043 50.1903C95.8585 50.3714 96.7162 49.5842 96.7162 48.9859C96.7162 48.6152 92.9079 42.2143 92.4601 41.832C92.0844 41.5114 91.528 41.568 91.2169 41.9581ZM58.0351 44.5813C57.6192 45.3903 55.818 51.9219 55.818 52.6216C55.818 53.3645 56.4197 53.8758 57.0577 53.6749C57.5265 53.5274 57.7562 52.9662 58.5776 49.961C59.8552 45.2871 59.924 44.8091 59.3912 44.3204C58.784 43.7636 58.4193 43.8338 58.0351 44.5813ZM80.484 44.2422C79.9075 44.6633 79.957 45.0604 81.1389 49.5091C82.0581 52.9688 82.272 53.5187 82.7593 53.6723C83.4063 53.8758 84.0078 53.3697 84.0078 52.6216C84.0078 51.9219 82.2066 45.3903 81.7907 44.5813C81.4252 43.8703 81.1063 43.7877 80.484 44.2422ZM69.393 45.1117C69.0349 45.3735 68.9886 45.9323 68.9886 50.0109C68.9886 54.3601 69.0143 54.6248 69.4508 54.7987C69.7049 54.8998 70.1209 54.8998 70.375 54.7987C70.8113 54.6251 70.8372 54.3601 70.8372 50.0546C70.8372 44.8604 70.6435 44.1981 69.393 45.1117ZM36.1243 60.0885C33.6427 64.165 33.5551 64.3575 33.8587 65.0691C34.0107 65.425 34.3446 65.6682 34.6822 65.6682C35.1205 65.6682 35.606 65.0987 36.8112 63.1697C39.343 59.1187 39.4853 58.8253 39.3208 58.0024C39.205 57.4239 39.0278 57.2624 38.5086 57.2624C37.9404 57.2624 37.5966 57.67 36.1243 60.0885ZM100.505 58.0024C100.34 58.8253 100.483 59.1187 103.015 63.1697C104.22 65.0987 104.705 65.6682 105.144 65.6682C105.481 65.6682 105.815 65.425 105.967 65.0691C106.271 64.3575 106.183 64.165 103.702 60.0885C102.229 57.67 101.885 57.2624 101.317 57.2624C100.798 57.2624 100.621 57.4239 100.505 58.0024ZM52.9307 63.1621C52.3452 64.283 50.7108 70.6917 50.8405 71.3584C50.999 72.1729 51.7793 72.4053 52.3262 71.8007C52.7504 71.332 54.6627 64.6871 54.6627 63.6816C54.6627 62.4285 53.4965 62.0787 52.9307 63.1621ZM85.4404 62.8277C85.0247 63.3491 85.0785 63.7279 86.1451 67.7969C87.1463 71.6166 87.6535 72.5639 88.483 72.1645C88.6926 72.0636 88.9199 71.7016 88.9883 71.3598C89.1177 70.7129 87.4654 64.2819 86.8741 63.132C86.507 62.4178 85.8741 62.2836 85.4404 62.8277ZM69.393 64.532C69.0346 64.7937 68.9886 65.3529 68.9886 69.4407C68.9886 73.7569 69.0185 74.0734 69.4508 74.3639C69.7791 74.5842 70.0467 74.5842 70.375 74.3639C70.8076 74.0734 70.8372 73.7569 70.8372 69.4363C70.8372 65.1679 70.8034 64.7963 70.3903 64.519C69.8584 64.1619 69.9004 64.1613 69.393 64.532ZM28.0694 73.4218C27.528 74.1798 27.2242 74.6647 25.2412 77.9369C24.7749 78.7062 24.3934 79.6473 24.3934 80.0279C24.3934 80.7871 25.0822 81.4155 25.6268 81.1534C26.1585 80.8975 29.9389 74.5288 29.9389 73.8891C29.9389 72.5019 28.9105 72.2447 28.0694 73.4218ZM110.164 72.9726C110.012 73.1639 109.887 73.5763 109.887 73.8891C109.887 74.5166 113.662 80.8952 114.182 81.1453C114.628 81.3598 115.171 81.0633 115.426 80.4665C115.727 79.7616 115.224 78.7859 111.949 73.7117C111.229 72.5972 110.654 72.3587 110.164 72.9726ZM47.75 81.6642C47.6356 82.0331 47.0947 83.9839 46.5478 85.9995C45.7021 89.1163 45.5997 89.7337 45.8618 90.13C46.2285 90.6842 47.121 90.743 47.4367 90.2334C47.8648 89.5424 49.6212 82.5731 49.5426 81.876C49.4804 81.3224 49.3057 81.1563 48.7108 81.0844C48.1021 81.0108 47.9182 81.1218 47.75 81.6642ZM90.4114 81.21C90.0686 81.6401 90.2793 83.0175 91.1756 86.201C92.384 90.4946 92.4561 90.6502 93.1847 90.5407C94.3476 90.3656 94.3391 89.8042 93.1054 85.3381C91.9912 81.305 91.9339 81.1729 91.2659 81.0894C90.8867 81.0418 90.5023 81.0963 90.4114 81.21ZM69.1 84.5813C69.0293 84.9401 69.0014 87.1108 69.0379 89.4053C69.0952 93.007 69.1594 93.6207 69.5085 93.8966C69.8031 94.1294 70.0227 94.1291 70.3173 93.8963C70.6699 93.6178 70.7297 92.9897 70.7854 88.9923C70.8531 84.1297 70.8147 83.9427 69.744 83.9334C69.3999 83.9305 69.1857 84.1459 69.1 84.5813Z" fill="#EC884F"/>
</svg>
