<svg width="133" height="24" viewBox="0 0 133 24" fill="none" xmlns="http://www.w3.org/2000/svg">
<rect x="0.160156" width="132.721" height="24" rx="12" fill="#FFEACD" fill-opacity="0.6"/>
<path d="M8.6344 9.53045C8.37257 9.53045 8.16016 9.30323 8.16016 9.02316C8.16016 8.74285 8.37257 8.51562 8.6344 8.51562H18.9613C19.2234 8.51562 19.4358 8.74285 19.4358 9.02316C19.4358 9.30323 19.2234 9.53045 18.9613 9.53045H8.6344Z" fill="#E26B26"/>
<path d="M27.1307 9.53045C26.8687 9.53045 26.6562 9.30323 26.6562 9.02316C26.6562 8.74285 26.8687 8.51562 27.1307 8.51562H37.4079C37.6698 8.51562 37.8822 8.74285 37.8822 9.02316C37.8822 9.30323 37.6698 9.53045 37.4079 9.53045H27.1307Z" fill="#E26B26"/>
<path d="M32.0586 8.00753C32.0586 7.72722 32.2708 7.5 32.5328 7.5C32.7949 7.5 33.0071 7.72722 33.0071 8.00753V10.3753C33.0071 10.6556 32.7949 10.8826 32.5328 10.8826C32.2708 10.8826 32.0586 10.6556 32.0586 10.3753V8.00753Z" fill="#E26B26"/>
<path d="M13.1016 8.00753C13.1016 7.72722 13.3138 7.5 13.5758 7.5C13.8379 7.5 14.05 7.72722 14.05 8.00753V10.3753C14.05 10.6556 13.8379 10.8826 13.5758 10.8826C13.3138 10.8826 13.1016 10.6556 13.1016 10.3753V8.00753Z" fill="#E26B26"/>
<path d="M21.6953 10.1769C21.6731 10.2008 21.6483 10.2224 21.6211 10.2417L20.8737 10.7647C20.8326 10.7936 20.7864 10.8163 20.7368 10.8318L17.1598 11.9607C17.1077 11.977 17.053 11.9855 16.9978 11.9855H15.1605C14.9855 11.9855 14.8242 11.9014 14.7397 11.7664C14.4855 11.3601 14.1338 11.1389 13.7852 11.1389C13.124 11.1389 12.5038 11.9337 12.5038 12.973C12.5038 14.0125 13.1241 14.8073 13.7852 14.8073C14.2499 14.8073 14.7167 14.4085 14.9397 13.7554C14.9898 13.6091 15.1254 13.4979 15.2945 13.4642L17.7329 12.982C17.7977 12.9692 17.8647 12.9682 17.93 12.9794L20.6499 13.4465C20.8266 13.477 20.9694 13.592 21.0194 13.7445C21.4002 14.9063 22.2867 15.6537 23.2346 15.6537C24.1945 15.6537 25.0909 14.887 25.4631 13.703C25.5134 13.543 25.6651 13.4237 25.851 13.3979L28.5448 13.0226C28.5955 13.0155 28.6473 13.0157 28.6981 13.023L31.4559 13.4243C31.6392 13.4509 31.7884 13.568 31.8396 13.7251C32.0579 14.3949 32.5316 14.8073 33.0043 14.8073C33.6653 14.8073 34.2855 14.0125 34.2855 12.973C34.2855 11.9337 33.6652 11.1389 33.0043 11.1389C32.6558 11.1389 32.3039 11.3601 32.0498 11.7664C31.9651 11.9014 31.804 11.9855 31.6288 11.9855H29.8056C29.7578 11.9855 29.7102 11.9792 29.6644 11.9668L25.4957 10.838C25.4385 10.8224 25.3849 10.7976 25.338 10.7647L25.1637 10.6429C25.1179 10.6108 25.079 10.5714 25.0493 10.5269C24.5857 9.83686 23.9238 9.44573 23.2345 9.44573C22.6742 9.44573 22.1325 9.70241 21.6953 10.177L21.6953 10.1769ZM23.2345 8.59912C24.2668 8.59912 25.2034 9.13769 25.829 10.0272L25.8648 10.0524L29.8777 11.1389H31.3611C31.7713 10.6117 32.3549 10.2923 33.0043 10.2923C34.2892 10.2923 35.2464 11.519 35.2464 12.973C35.2464 14.4272 34.2892 15.6537 33.0043 15.6537C32.1277 15.6537 31.385 15.0753 31.0139 14.218L28.618 13.8694L26.2967 14.193C25.7656 15.5679 24.5952 16.5003 23.2345 16.5003C21.8868 16.5003 20.7249 15.5854 20.1866 14.2296L17.845 13.8275L15.7664 14.2387C15.3921 15.0855 14.6539 15.6537 13.7851 15.6537C12.5001 15.6537 11.543 14.4272 11.543 12.973C11.543 11.519 12.5001 10.2923 13.7851 10.2923C14.4342 10.2923 15.0181 10.6118 15.4283 11.1389H16.9142L20.3379 10.0585L20.9834 9.60676C21.5893 8.96706 22.3818 8.59916 23.2345 8.59916L23.2345 8.59912Z" fill="#E26B26"/>
<path d="M49.5004 7.94C50.0524 7.94 50.5604 8.016 51.0244 8.168C51.4884 8.32 51.8884 8.548 52.2244 8.852C52.5604 9.148 52.8204 9.524 53.0044 9.98C53.1964 10.428 53.2924 10.952 53.2924 11.552C53.2924 12.264 53.1804 12.872 52.9564 13.376C52.7324 13.872 52.4284 14.28 52.0444 14.6C51.6684 14.912 51.2244 15.14 50.7124 15.284C50.2084 15.428 49.6764 15.5 49.1164 15.5H46.9804V7.94H49.5004ZM48.2644 14.468H49.0084C49.3764 14.468 49.7324 14.428 50.0764 14.348C50.4284 14.26 50.7404 14.108 51.0124 13.892C51.2844 13.668 51.5004 13.368 51.6604 12.992C51.8284 12.616 51.9124 12.136 51.9124 11.552C51.9124 10.72 51.6724 10.084 51.1924 9.644C50.7204 9.196 50.0844 8.972 49.2844 8.972H48.2644V14.468ZM54.5942 15.5V9.836H55.5302L55.7102 10.928C55.8462 10.592 56.0662 10.312 56.3702 10.088C56.6742 9.856 57.0422 9.74 57.4742 9.74C57.6662 9.74 57.8302 9.756 57.9662 9.788C58.1102 9.82 58.2382 9.864 58.3502 9.92L58.1222 10.952C58.0262 10.904 57.9142 10.864 57.7862 10.832C57.6662 10.8 57.5262 10.784 57.3662 10.784C56.9262 10.784 56.5582 10.936 56.2622 11.24C55.9662 11.536 55.8182 11.988 55.8182 12.596V15.5H54.5942ZM64.1406 12.608C64.1406 13.08 64.0646 13.504 63.9126 13.88C63.7686 14.256 63.5686 14.572 63.3126 14.828C63.0566 15.084 62.7566 15.28 62.4126 15.416C62.0686 15.552 61.6966 15.62 61.2966 15.62C60.8966 15.62 60.5246 15.556 60.1806 15.428C59.8446 15.3 59.5486 15.116 59.2926 14.876C59.0446 14.628 58.8486 14.324 58.7046 13.964C58.5686 13.604 58.5006 13.192 58.5006 12.728C58.5006 12.248 58.5726 11.824 58.7166 11.456C58.8686 11.088 59.0726 10.776 59.3286 10.52C59.5846 10.264 59.8846 10.072 60.2286 9.944C60.5726 9.808 60.9446 9.74 61.3446 9.74C61.7446 9.74 62.1126 9.804 62.4486 9.932C62.7926 10.052 63.0886 10.232 63.3366 10.472C63.5926 10.712 63.7886 11.012 63.9246 11.372C64.0686 11.732 64.1406 12.144 64.1406 12.608ZM62.8566 12.668C62.8566 12.308 62.8126 12.004 62.7246 11.756C62.6366 11.5 62.5206 11.292 62.3766 11.132C62.2326 10.972 62.0686 10.856 61.8846 10.784C61.7006 10.712 61.5086 10.676 61.3086 10.676C61.1166 10.676 60.9286 10.708 60.7446 10.772C60.5606 10.836 60.3966 10.944 60.2526 11.096C60.1086 11.248 59.9926 11.452 59.9046 11.708C59.8246 11.964 59.7846 12.284 59.7846 12.668C59.7846 13.02 59.8286 13.324 59.9166 13.58C60.0046 13.836 60.1206 14.048 60.2646 14.216C60.4086 14.376 60.5726 14.496 60.7566 14.576C60.9486 14.648 61.1406 14.684 61.3326 14.684C61.5246 14.684 61.7126 14.652 61.8966 14.588C62.0806 14.524 62.2446 14.416 62.3886 14.264C62.5326 14.104 62.6446 13.896 62.7246 13.64C62.8126 13.376 62.8566 13.052 62.8566 12.668ZM66.6117 15.5H65.3757V9.836H66.3477L66.5157 10.592C66.7957 10.32 67.0877 10.112 67.3917 9.968C67.7037 9.816 68.0557 9.74 68.4477 9.74C69.0477 9.74 69.5117 9.904 69.8397 10.232C70.1677 10.56 70.3317 11.028 70.3317 11.636V15.5H69.0957V11.792C69.0957 11.464 69.0117 11.204 68.8437 11.012C68.6757 10.82 68.4237 10.724 68.0877 10.724C67.8317 10.724 67.5757 10.788 67.3197 10.916C67.0717 11.036 66.8357 11.212 66.6117 11.444V15.5ZM76.811 12.884H72.839V12.932C72.839 13.508 73.007 13.944 73.343 14.24C73.679 14.536 74.123 14.684 74.675 14.684C74.979 14.684 75.251 14.66 75.491 14.612C75.739 14.556 75.987 14.472 76.235 14.36L76.475 15.26C76.243 15.364 75.967 15.448 75.647 15.512C75.327 15.584 74.975 15.62 74.591 15.62C74.183 15.62 73.795 15.564 73.427 15.452C73.059 15.34 72.735 15.164 72.455 14.924C72.183 14.684 71.967 14.38 71.807 14.012C71.647 13.644 71.567 13.204 71.567 12.692C71.567 12.252 71.631 11.852 71.759 11.492C71.895 11.124 72.083 10.812 72.323 10.556C72.571 10.292 72.867 10.092 73.211 9.956C73.563 9.812 73.951 9.74 74.375 9.74C74.743 9.74 75.075 9.8 75.371 9.92C75.675 10.04 75.931 10.212 76.139 10.436C76.355 10.652 76.519 10.92 76.631 11.24C76.751 11.552 76.811 11.9 76.811 12.284V12.884ZM75.539 12.02C75.539 11.828 75.515 11.648 75.467 11.48C75.419 11.312 75.347 11.168 75.251 11.048C75.155 10.92 75.027 10.82 74.867 10.748C74.715 10.668 74.531 10.628 74.315 10.628C73.915 10.628 73.587 10.756 73.331 11.012C73.083 11.268 72.931 11.612 72.875 12.044L75.539 12.02ZM83.0795 7.82C83.9035 7.82 84.6235 7.972 85.2395 8.276L84.9395 9.296C84.6035 9.136 84.2915 9.02 84.0035 8.948C83.7235 8.868 83.4395 8.828 83.1515 8.828C82.7195 8.828 82.3795 8.92 82.1315 9.104C81.8835 9.288 81.7595 9.544 81.7595 9.872C81.7595 10.16 81.8555 10.388 82.0475 10.556C82.2395 10.724 82.5515 10.876 82.9835 11.012L83.7275 11.252C84.3835 11.46 84.8635 11.752 85.1675 12.128C85.4715 12.496 85.6235 12.924 85.6235 13.412C85.6235 13.74 85.5595 14.04 85.4315 14.312C85.3035 14.584 85.1195 14.816 84.8795 15.008C84.6475 15.2 84.3635 15.352 84.0275 15.464C83.6915 15.568 83.3195 15.62 82.9115 15.62C82.5035 15.62 82.0955 15.58 81.6875 15.5C81.2875 15.428 80.8955 15.3 80.5115 15.116L80.8115 14.108C81.1555 14.276 81.4915 14.404 81.8195 14.492C82.1475 14.572 82.4915 14.612 82.8515 14.612C83.2835 14.612 83.6355 14.52 83.9075 14.336C84.1795 14.152 84.3155 13.88 84.3155 13.52C84.3155 13.264 84.2195 13.036 84.0275 12.836C83.8435 12.636 83.4795 12.448 82.9355 12.272L82.2275 12.044C81.6755 11.86 81.2395 11.616 80.9195 11.312C80.6075 11 80.4515 10.568 80.4515 10.016C80.4515 9.352 80.6755 8.82 81.1235 8.42C81.5715 8.02 82.2235 7.82 83.0795 7.82ZM89.3513 15.62C89.1113 15.62 88.8793 15.588 88.6553 15.524C88.4313 15.46 88.2393 15.372 88.0793 15.26V18.26H86.8553V9.764H87.8513L88.0073 10.472C88.2313 10.264 88.4833 10.092 88.7633 9.956C89.0433 9.812 89.3673 9.74 89.7353 9.74C90.4873 9.74 91.0793 9.984 91.5113 10.472C91.9433 10.96 92.1593 11.652 92.1593 12.548C92.1593 13.068 92.0793 13.524 91.9193 13.916C91.7673 14.3 91.5593 14.62 91.2953 14.876C91.0393 15.124 90.7393 15.312 90.3953 15.44C90.0593 15.56 89.7113 15.62 89.3513 15.62ZM89.4353 10.712C89.1313 10.712 88.8593 10.788 88.6193 10.94C88.3873 11.084 88.2073 11.236 88.0793 11.396V14.312C88.4073 14.56 88.7793 14.684 89.1953 14.684C89.4033 14.684 89.6073 14.648 89.8073 14.576C90.0073 14.504 90.1873 14.384 90.3473 14.216C90.5073 14.048 90.6353 13.832 90.7313 13.568C90.8273 13.296 90.8753 12.968 90.8753 12.584C90.8753 12.016 90.7553 11.564 90.5153 11.228C90.2833 10.884 89.9233 10.712 89.4353 10.712ZM93.3715 15.5V9.836H94.3075L94.4875 10.928C94.6235 10.592 94.8435 10.312 95.1475 10.088C95.4515 9.856 95.8195 9.74 96.2515 9.74C96.4435 9.74 96.6075 9.756 96.7435 9.788C96.8875 9.82 97.0155 9.864 97.1275 9.92L96.8995 10.952C96.8035 10.904 96.6915 10.864 96.5635 10.832C96.4435 10.8 96.3035 10.784 96.1435 10.784C95.7035 10.784 95.3355 10.936 95.0395 11.24C94.7435 11.536 94.5955 11.988 94.5955 12.596V15.5H93.3715ZM97.8149 10.34C98.1829 10.14 98.5349 9.992 98.8709 9.896C99.2149 9.792 99.5949 9.74 100.011 9.74C100.331 9.74 100.623 9.776 100.887 9.848C101.159 9.92 101.391 10.036 101.583 10.196C101.775 10.356 101.923 10.572 102.027 10.844C102.139 11.108 102.195 11.432 102.195 11.816V15.5H101.199L101.067 14.888H101.031C100.807 15.144 100.547 15.332 100.251 15.452C99.9549 15.564 99.6269 15.62 99.2669 15.62C98.6989 15.62 98.2389 15.468 97.8869 15.164C97.5429 14.86 97.3709 14.456 97.3709 13.952C97.3709 13.64 97.4349 13.372 97.5629 13.148C97.6909 12.916 97.8709 12.724 98.1029 12.572C98.3349 12.42 98.6109 12.308 98.9309 12.236C99.2509 12.156 99.6029 12.116 99.9869 12.116H100.947V11.684C100.947 11.324 100.851 11.076 100.659 10.94C100.467 10.796 100.203 10.724 99.8669 10.724C99.6589 10.724 99.4229 10.76 99.1589 10.832C98.9029 10.896 98.6069 11.02 98.2709 11.204L97.8149 10.34ZM100.959 12.932L100.203 12.944C99.6349 12.96 99.2349 13.06 99.0029 13.244C98.7709 13.428 98.6549 13.644 98.6549 13.892C98.6549 14.052 98.6789 14.184 98.7269 14.288C98.7829 14.392 98.8549 14.476 98.9429 14.54C99.0309 14.604 99.1309 14.652 99.2429 14.684C99.3629 14.708 99.4829 14.72 99.6029 14.72C99.8509 14.72 100.095 14.66 100.335 14.54C100.583 14.412 100.791 14.232 100.959 14V12.932ZM102.871 9.836H104.203L105.343 12.896L105.751 14.252H105.775L106.171 12.884L107.203 9.836H108.463L106.315 15.884C106.075 16.564 105.767 17.116 105.391 17.54C105.023 17.972 104.539 18.292 103.939 18.5L103.411 17.528C103.811 17.376 104.159 17.156 104.455 16.868C104.751 16.588 104.971 16.22 105.115 15.764L105.211 15.488L102.871 9.836ZM109.465 15.5V9.836H110.701V15.5H109.465ZM110.089 8.432C109.873 8.432 109.701 8.368 109.573 8.24C109.445 8.104 109.381 7.936 109.381 7.736C109.381 7.536 109.445 7.372 109.573 7.244C109.701 7.108 109.873 7.04 110.089 7.04C110.297 7.04 110.465 7.108 110.593 7.244C110.729 7.372 110.797 7.536 110.797 7.736C110.797 7.944 110.729 8.112 110.593 8.24C110.465 8.368 110.297 8.432 110.089 8.432ZM113.639 15.5H112.403V9.836H113.375L113.543 10.592C113.823 10.32 114.115 10.112 114.419 9.968C114.731 9.816 115.083 9.74 115.475 9.74C116.075 9.74 116.539 9.904 116.867 10.232C117.195 10.56 117.359 11.028 117.359 11.636V15.5H116.123V11.792C116.123 11.464 116.039 11.204 115.871 11.012C115.703 10.82 115.451 10.724 115.115 10.724C114.859 10.724 114.603 10.788 114.347 10.916C114.099 11.036 113.863 11.212 113.639 11.444V15.5ZM118.8 11.732C118.8 11.42 118.856 11.14 118.968 10.892C119.088 10.644 119.252 10.436 119.46 10.268C119.668 10.092 119.916 9.96 120.204 9.872C120.492 9.784 120.804 9.74 121.14 9.74C121.388 9.74 121.64 9.772 121.896 9.836H124.332V10.688H123.912L123.024 10.568C123.16 10.72 123.268 10.896 123.348 11.096C123.428 11.296 123.468 11.504 123.468 11.72C123.468 12.032 123.412 12.312 123.3 12.56C123.188 12.8 123.028 13.008 122.82 13.184C122.62 13.352 122.376 13.48 122.088 13.568C121.8 13.656 121.484 13.7 121.14 13.7C121.028 13.7 120.92 13.696 120.816 13.688C120.72 13.68 120.624 13.668 120.528 13.652C120.376 13.716 120.268 13.792 120.204 13.88C120.14 13.968 120.108 14.064 120.108 14.168C120.108 14.328 120.164 14.44 120.276 14.504C120.388 14.568 120.548 14.6 120.756 14.6H122.184C122.808 14.6 123.292 14.744 123.636 15.032C123.988 15.312 124.164 15.716 124.164 16.244C124.164 16.556 124.092 16.836 123.948 17.084C123.812 17.34 123.612 17.556 123.348 17.732C123.092 17.916 122.78 18.056 122.412 18.152C122.044 18.248 121.632 18.296 121.176 18.296C120.336 18.296 119.672 18.148 119.184 17.852C118.696 17.556 118.452 17.12 118.452 16.544C118.452 16.264 118.544 16.024 118.728 15.824C118.912 15.624 119.156 15.468 119.46 15.356C119.316 15.26 119.2 15.148 119.112 15.02C119.024 14.884 118.98 14.708 118.98 14.492C118.98 14.236 119.056 14.02 119.208 13.844C119.36 13.66 119.56 13.516 119.808 13.412C119.52 13.276 119.28 13.072 119.088 12.8C118.896 12.52 118.8 12.164 118.8 11.732ZM120.168 15.56C119.8 15.736 119.616 16 119.616 16.352C119.616 16.672 119.744 16.916 120 17.084C120.264 17.252 120.672 17.336 121.224 17.336C121.536 17.336 121.8 17.304 122.016 17.24C122.232 17.184 122.408 17.108 122.544 17.012C122.688 16.916 122.792 16.808 122.856 16.688C122.92 16.568 122.952 16.444 122.952 16.316C122.952 16.012 122.848 15.808 122.64 15.704C122.44 15.608 122.172 15.56 121.836 15.56H120.168ZM122.232 11.744C122.232 11.36 122.132 11.076 121.932 10.892C121.732 10.7 121.468 10.604 121.14 10.604C120.804 10.604 120.536 10.696 120.336 10.88C120.144 11.064 120.048 11.34 120.048 11.708C120.048 12.092 120.148 12.376 120.348 12.56C120.548 12.744 120.812 12.836 121.14 12.836C121.476 12.836 121.74 12.744 121.932 12.56C122.132 12.376 122.232 12.104 122.232 11.744Z" fill="#E26B26"/>
</svg>
