<svg width="23" height="7" viewBox="0 0 23 7" fill="none" xmlns="http://www.w3.org/2000/svg">
<path d="M0.360132 1.70716C0.161305 1.70716 0 1.53462 0 1.32193C0 1.10907 0.161305 0.936523 0.360132 0.936523H8.20221C8.4012 0.936523 8.56251 1.10907 8.56251 1.32193C8.56251 1.53462 8.4012 1.70716 8.20221 1.70716H0.360132Z" fill="#E26B26"/>
<path d="M14.4033 1.70716C14.2043 1.70716 14.043 1.53462 14.043 1.32193C14.043 1.10907 14.2043 0.936523 14.4033 0.936523H22.2076C22.4064 0.936523 22.5677 1.10907 22.5677 1.32193C22.5677 1.53462 22.4064 1.70716 22.2076 1.70716H14.4033Z" fill="#E26B26"/>
<path d="M18.1484 0.550937C18.1484 0.338075 18.3096 0.165527 18.5086 0.165527C18.7076 0.165527 18.8687 0.338075 18.8687 0.550937V2.34898C18.8687 2.56184 18.7076 2.73421 18.5086 2.73421C18.3096 2.73421 18.1484 2.56184 18.1484 2.34898V0.550937Z" fill="#E26B26"/>
<path d="M3.75 0.550937C3.75 0.338075 3.91114 0.165527 4.11013 0.165527C4.30913 0.165527 4.47026 0.338075 4.47026 0.550937V2.34898C4.47026 2.56184 4.30913 2.73421 4.11013 2.73421C3.91114 2.73421 3.75 2.56184 3.75 2.34898V0.550937Z" fill="#E26B26"/>
<path d="M10.2798 2.19816C10.263 2.21625 10.2442 2.23269 10.2235 2.24734L9.65592 2.6445C9.6247 2.66647 9.58958 2.68366 9.55192 2.69547L6.83562 3.55269C6.79609 3.56509 6.75452 3.57152 6.71261 3.57152H5.31739C5.18453 3.57152 5.06203 3.5077 4.99789 3.40516C4.8048 3.09664 4.53773 2.92864 4.27302 2.92864C3.77094 2.92864 3.29996 3.5322 3.29996 4.32142C3.29996 5.11079 3.77099 5.71435 4.27302 5.71435C4.62594 5.71435 4.98039 5.41152 5.14974 4.91556C5.18775 4.80451 5.29074 4.72005 5.41918 4.69449L7.27083 4.32828C7.32004 4.31857 7.37094 4.31782 7.42049 4.32634L9.48593 4.68104C9.62014 4.70421 9.72856 4.7915 9.76657 4.90735C10.0557 5.78955 10.7289 6.3571 11.4487 6.3571C12.1776 6.3571 12.8584 5.7749 13.1411 4.87582C13.1792 4.75429 13.2944 4.66371 13.4356 4.64413L15.4812 4.35908C15.5197 4.3537 15.5591 4.35385 15.5976 4.35938L17.6919 4.66416C17.831 4.68434 17.9444 4.77328 17.9832 4.89256C18.149 5.40122 18.5087 5.71438 18.8677 5.71438C19.3696 5.71438 19.8406 5.11082 19.8406 4.32145C19.8406 3.53222 19.3696 2.92867 18.8677 2.92867C18.603 2.92867 18.3358 3.09667 18.1428 3.40518C18.0785 3.50772 17.9562 3.57155 17.8232 3.57155H16.4386C16.4023 3.57155 16.3662 3.56677 16.3314 3.55735L13.1658 2.70013C13.1224 2.68832 13.0816 2.66949 13.046 2.64453L12.9137 2.552C12.8789 2.52764 12.8494 2.49774 12.8268 2.46396C12.4747 1.93992 11.9721 1.6429 11.4487 1.6429C11.0231 1.6429 10.6118 1.83782 10.2798 2.19821L10.2798 2.19816ZM11.4487 1C12.2326 1 12.9438 1.40898 13.4189 2.08444L13.446 2.10357L16.4934 2.92865H17.6199C17.9314 2.52836 18.3746 2.28575 18.8677 2.28575C19.8434 2.28575 20.5703 3.21728 20.5703 4.32143C20.5703 5.42573 19.8434 6.35711 18.8677 6.35711C18.202 6.35711 17.638 5.91794 17.3562 5.26685L15.5368 5.00213L13.774 5.24787C13.3707 6.29194 12.482 7 11.4487 7C10.4252 7 9.5429 6.30525 9.13416 5.27569L7.35596 4.97031L5.77748 5.28256C5.49328 5.92561 4.93269 6.35713 4.27298 6.35713C3.29718 6.35713 2.57031 5.42575 2.57031 4.32145C2.57031 3.21731 3.29718 2.28578 4.27298 2.28578C4.76589 2.28578 5.20925 2.52837 5.52077 2.92867H6.64912L9.24901 2.10823L9.73919 1.76518C10.1994 1.27941 10.8012 1.00003 11.4486 1.00003L11.4487 1Z" fill="#E26B26"/>
</svg>
