<svg width="24" height="23" viewBox="0 0 24 23" fill="none" xmlns="http://www.w3.org/2000/svg">
<path fill-rule="evenodd" clip-rule="evenodd" d="M7.12373 9.47349L15.576 1.03527C16.9601 -0.345091 19.2034 -0.345091 20.5875 1.03527L21.9643 2.40973C23.3485 3.7917 23.3485 6.03311 21.9643 7.4136L13.4716 15.8921C12.8521 16.5107 12.0119 16.8583 11.1357 16.8583H6.89903C6.4223 16.8583 6.0392 16.4662 6.05105 15.9904L6.15737 11.7221C6.17869 10.8768 6.52452 10.0717 7.12373 9.47349ZM20.7663 3.60731L19.3902 2.23349C18.6685 1.51369 17.4984 1.51369 16.7769 2.23317L16.0799 2.92906L20.0693 6.91184L20.7667 6.21563C21.488 5.49628 21.488 4.32775 20.7663 3.60731ZM18.8697 8.10945L14.8803 4.12667L8.325 10.6711C8.03356 10.962 7.86536 11.3536 7.855 11.7644L7.76953 15.1636L11.1374 15.1646C11.5103 15.1646 11.8698 15.0351 12.1558 14.8011L12.2737 14.6945L18.8697 8.10945ZM10.7354 0.0437728C11.2039 0.0437728 11.5837 0.422916 11.5837 0.890612C11.5837 1.31933 11.2645 1.67365 10.8505 1.72972L10.7354 1.73745H6.50662C3.65475 1.73745 1.80752 3.62614 1.70133 6.55915L1.69649 6.82865V16.2161C1.69649 19.2157 3.4539 21.1887 6.24962 21.3022L6.50662 21.3073H16.4865C19.3455 21.3073 21.1871 19.4227 21.293 16.486L21.2978 16.2161V11.668C21.2978 11.2004 21.6776 10.8212 22.146 10.8212C22.5755 10.8212 22.9304 11.1398 22.9865 11.5531L22.9943 11.668V16.2161C22.9943 20.1253 20.5139 22.8738 16.7511 22.9967L16.4865 23.001H6.50662C2.6857 23.001 0.118716 20.3411 0.00400896 16.4869L0 16.2161V6.82865C0 2.92335 2.48668 0.171158 6.24254 0.0480757L6.50662 0.0437728H10.7354Z" fill="#563F1F"/>
</svg>
