<svg width="24" height="24" viewBox="0 0 24 24" fill="none" xmlns="http://www.w3.org/2000/svg">
<path fill-rule="evenodd" clip-rule="evenodd" d="M0.32928 0.225877C0.14832 0.408813 0 1.17492 0 1.92942V3.30047H10.5902H21.181L21.0302 1.7276L20.88 0.154735L10.7693 0.0245493C5.20848 -0.0470768 0.51024 0.0434237 0.32928 0.225877ZM0 12.0118V19.7551H6.6816H13.3627L12.6067 21.6963C11.7211 23.969 11.8858 24.2763 13.7434 23.8194C15.3672 23.4201 24 15.1178 24 13.9553C24 12.9206 23.0573 12.0118 21.984 12.0118C21.2242 12.0118 21.12 11.5457 21.12 8.14007V4.26839H10.56H0V12.0118ZM5.28 7.65611C5.28 7.92229 4.848 8.14007 4.32 8.14007C3.792 8.14007 3.36 7.92229 3.36 7.65611C3.36 7.38994 3.792 7.17215 4.32 7.17215C4.848 7.17215 5.28 7.38994 5.28 7.65611ZM17.76 7.65611C17.76 7.95085 15.6 8.14007 12.24 8.14007C8.88 8.14007 6.72 7.95085 6.72 7.65611C6.72 7.36138 8.88 7.17215 12.24 7.17215C15.6 7.17215 17.76 7.36138 17.76 7.65611ZM5.28 10.0759C5.28 10.3421 4.848 10.5599 4.32 10.5599C3.792 10.5599 3.36 10.3421 3.36 10.0759C3.36 9.80974 3.792 9.59195 4.32 9.59195C4.848 9.59195 5.28 9.80974 5.28 10.0759ZM17.76 10.0759C17.76 10.3706 15.6 10.5599 12.24 10.5599C8.88 10.5599 6.72 10.3706 6.72 10.0759C6.72 9.78118 8.88 9.59195 12.24 9.59195C15.6 9.59195 17.76 9.78118 17.76 10.0759ZM5.28 12.4957C5.28 12.7619 4.848 12.9797 4.32 12.9797C3.792 12.9797 3.36 12.7619 3.36 12.4957C3.36 12.2295 3.792 12.0118 4.32 12.0118C4.848 12.0118 5.28 12.2295 5.28 12.4957ZM17.76 12.4957C17.76 12.7904 15.6 12.9797 12.24 12.9797C8.88 12.9797 6.72 12.7904 6.72 12.4957C6.72 12.201 8.88 12.0118 12.24 12.0118C15.6 12.0118 17.76 12.201 17.76 12.4957ZM19.1098 18.6367C15.5582 22.2417 14.5968 22.7712 14.0779 21.4074C13.8778 20.8823 14.8978 19.5117 17.3088 17.0643C20.6486 13.6742 20.8776 13.5304 21.7138 14.2931C22.5581 15.0636 22.4462 15.2499 19.1098 18.6367ZM5.28 14.9155C5.28 15.1817 4.848 15.3995 4.32 15.3995C3.792 15.3995 3.36 15.1817 3.36 14.9155C3.36 14.6493 3.792 14.4316 4.32 14.4316C4.848 14.4316 5.28 14.6493 5.28 14.9155ZM15.84 14.9155C15.84 15.204 14.0002 15.3995 11.28 15.3995C8.55984 15.3995 6.72 15.204 6.72 14.9155C6.72 14.6271 8.55984 14.4316 11.28 14.4316C14.0002 14.4316 15.84 14.6271 15.84 14.9155Z" fill="#FAA326"/>
</svg>
