<svg width="109" height="112" viewBox="0 0 109 112" fill="none" xmlns="http://www.w3.org/2000/svg">
<path d="M161.813 60.2619H150.503V73.9561C150.503 76.7838 148.187 79.0663 145.393 79.0663C143.145 79.0663 141.237 77.6358 140.59 75.6256H116.233L92.9662 96.2692V111.463H86.4255V108.193H77.0915V111.463H70.5508V96.2692L47.2839 75.6256H22.9262C23.1306 75.1147 23.2327 74.5349 23.2327 73.9563L21.4268 75.6256H22.9262C22.2787 77.6359 20.3717 79.0663 18.1226 79.0663C15.2949 79.0663 13.0124 76.7839 13.0124 73.9561V60.2619H1.70378C0.749723 60.2619 0 59.479 0 58.5581V51.7456C0 50.7915 0.749692 50.0418 1.70378 50.0418H9.40266V37.9147L6.60938 32.8735V19.2138L11.2086 15.3643L15.8078 19.2138V32.8735L13.0145 37.9147V50.0418H27.5606V33.7243L23.8465 26.9461V5.17861L30.0127 0.000923157L36.179 5.17861V26.9461L32.4317 33.7255V50.043H44.6611V37.9159L41.9022 32.8748V19.215L46.4671 15.3655L51.0662 19.215V32.8748L48.3074 37.9159V50.043H62.0694V33.7255L58.3222 26.9461V5.17861L64.5219 0.000923157L70.6881 5.17861V26.9461L66.9408 33.7255V50.043H79.9543V37.9159L77.161 32.8748V19.215L81.7578 15.3643L86.357 19.2138V32.8735L83.5637 37.9147V50.0418H96.5772V33.7243L92.8299 26.9449V5.17741L98.9961 -0.000305176L105.162 5.17741V26.9449L101.449 33.7243V50.0418H115.211V37.9147L112.417 32.8735V19.2138L117.016 15.3643L121.615 19.2138V32.8735L118.821 37.9159V50.043H131.05V33.7255L127.337 26.9461V5.17861L133.504 0.000923157L139.669 5.17861V26.9461L135.922 33.7255V50.043H150.468V37.9159L147.709 32.8748V19.215L152.308 15.3655L156.873 19.215V32.8748L154.114 37.9159V50.043H161.813C162.733 50.043 163.517 50.7927 163.517 51.7468V58.5594C163.516 59.479 162.731 60.262 161.812 60.262L161.813 60.2619ZM140.283 60.2619H23.2337V67.1092H140.25L140.284 67.2458L140.283 60.2619Z" fill="#E36E26"/>
</svg>
