<svg width="9" height="9" viewBox="0 0 9 9" fill="none" xmlns="http://www.w3.org/2000/svg">
<path d="M8.48112 8.13632H6.44565V5.42237H8.48112C8.54323 5.42244 8.60416 5.40546 8.65729 5.37328C8.71041 5.34109 8.75367 5.29495 8.78237 5.23986C8.81107 5.18478 8.82409 5.12288 8.82002 5.0609C8.81595 4.99893 8.79495 4.93926 8.7593 4.8884L7.2327 2.70841H7.80263C7.86709 2.70839 7.93021 2.69 7.9846 2.6554C8.03899 2.6208 8.08239 2.57142 8.10973 2.51304C8.13706 2.45466 8.1472 2.3897 8.13896 2.32577C8.13071 2.26184 8.10442 2.20158 8.06317 2.15205L6.36694 0.116581C6.33417 0.0799062 6.29402 0.050564 6.24912 0.0304742C6.20422 0.0103845 6.15559 0 6.1064 0C6.05722 0 6.00858 0.0103845 5.96369 0.0304742C5.91879 0.050564 5.87864 0.0799062 5.84586 0.116581L4.14964 2.15205C4.10839 2.20158 4.0821 2.26184 4.07385 2.32577C4.0656 2.3897 4.07574 2.45466 4.10308 2.51304C4.13042 2.57142 4.17382 2.6208 4.22821 2.6554C4.2826 2.69 4.34572 2.70839 4.41018 2.70841H4.98011L3.45351 4.8884C3.41786 4.93926 3.39686 4.99893 3.39279 5.0609C3.38872 5.12288 3.40174 5.18478 3.43044 5.23986C3.45913 5.29495 3.5024 5.34109 3.55552 5.37328C3.60865 5.40546 3.66958 5.42244 3.73169 5.42237H5.76716V8.13632H2.03547V6.77935H3.0532C3.14318 6.77935 3.22946 6.74361 3.29308 6.67998C3.35671 6.61636 3.39245 6.53008 3.39245 6.4401C3.39245 6.35013 3.35671 6.26384 3.29308 6.20022C3.22946 6.1366 3.14318 6.10086 3.0532 6.10086H0.339245C0.249271 6.10086 0.162983 6.1366 0.0993625 6.20022C0.0357417 6.26384 0 6.35013 0 6.4401C0 6.53008 0.0357417 6.61636 0.0993625 6.67998C0.162983 6.74361 0.249271 6.77935 0.339245 6.77935H1.35698V8.13632H0.339245C0.249271 8.13632 0.162983 8.17207 0.0993625 8.23569C0.0357417 8.29931 0 8.3856 0 8.47557C0 8.56554 0.0357417 8.65183 0.0993625 8.71545C0.162983 8.77907 0.249271 8.81481 0.339245 8.81481H8.48112C8.57109 8.81481 8.65738 8.77907 8.721 8.71545C8.78462 8.65183 8.82036 8.56554 8.82036 8.47557C8.82036 8.3856 8.78462 8.29931 8.721 8.23569C8.65738 8.17207 8.57109 8.13632 8.48112 8.13632Z" fill="#563E1F"/>
</svg>
