<svg width="20" height="20" viewBox="0 0 20 20" fill="none" xmlns="http://www.w3.org/2000/svg">
<path d="M18.6901 8.82494L11.1818 1.31661C10.5568 0.691607 9.45677 0.683273 8.82344 1.31661L1.32344 8.81661C0.673437 9.46661 0.673437 10.5166 1.32344 11.1666L8.82344 18.6666C9.14844 18.9916 9.57344 19.1499 9.99844 19.1499C10.4234 19.1499 10.8484 18.9916 11.1734 18.6666L18.6651 11.1749C19.3234 10.5416 19.3318 9.49161 18.6901 8.82494ZM10.0068 17.4916L2.50677 9.99161L10.0068 2.49161L17.5068 9.99161L10.0068 17.4916ZM6.6651 9.16661V12.4999H8.33177V9.99994H11.6651V12.0833L14.5818 9.16661L11.6651 6.24994V8.33327H7.49844C7.0401 8.33327 6.6651 8.70827 6.6651 9.16661Z" fill="#E26B26"/>
</svg>
