
<svg width="24" height="24" viewBox="0 0 24 24" fill="none" xmlns="http://www.w3.org/2000/svg">
<rect width="24" height="24" rx="14.5" fill="#FEF9EE"/>
<mask id="path-2-outside-1_1949_1789" maskUnits="userSpaceOnUse" x="7.23438" y="7.76172" width="25" height="25" fill="black">
<rect fill="white" x="7.23438" y="7.76172" width="25" height="25"/>
<path d="M18.4447 8.33561C11.5149 9.28457 6.88774 16.0893 8.58718 22.8278C9.51406 26.5281 12.258 29.603 15.87 30.9933C22.8586 33.6931 30.6564 28.985 31.6567 21.4667C32.3556 16.1997 29.244 11.0207 24.168 9.00521C22.476 8.33561 20.2985 8.07833 18.4447 8.33561ZM20.2692 8.96105C20.5929 9.26273 20.946 10.1601 21.2402 11.3887C21.402 12.095 21.6816 13.6912 21.6449 13.7279C21.5861 13.7942 19.5261 13.8309 18.9451 13.7867L18.3125 13.7279L18.3492 13.4632C18.4521 12.7276 18.8273 10.9768 19.0039 10.4251C19.3277 9.40241 19.6881 8.81393 19.9896 8.81393C20.0558 8.81393 20.1809 8.88017 20.2692 8.96105ZM18.9377 9.04937C18.4154 10.2117 18.1284 11.2048 17.8711 12.7718C17.7902 13.2278 17.7165 13.6178 17.6945 13.6324C17.6431 13.6912 16.157 13.397 15.3698 13.1764L14.693 12.9851L14.9652 12.4996C15.8625 10.8813 17.0839 9.66737 18.3492 9.14513C18.8273 8.94617 18.9965 8.91689 18.9377 9.04937ZM21.6005 9.13745C22.5422 9.52001 23.4912 10.2998 24.2561 11.3224C24.6828 11.8962 25.2125 12.7864 25.2125 12.9261C25.2125 13.0511 23.903 13.397 22.5422 13.6324C22.2185 13.684 22.2552 13.75 22.086 12.676C22.0198 12.2272 21.8652 11.4916 21.7476 11.0282C21.5638 10.3218 21.4459 9.99089 21.0415 9.04937C20.9827 8.91689 21.1152 8.93897 21.6005 9.13745ZM16.5763 9.58625C15.87 10.1673 14.9652 11.3224 14.4355 12.3448C14.3179 12.5656 14.2147 12.7641 14.2001 12.7787C14.1559 12.8522 12.2505 11.9769 12.2801 11.896C12.3168 11.8005 13.3099 10.9986 13.7587 10.7044C14.4355 10.2556 15.3845 9.77753 16.1126 9.50537C16.4877 9.37289 16.8336 9.26273 16.8849 9.25529C16.944 9.25529 16.8043 9.40241 16.5763 9.58625ZM23.7929 9.48329C24.5652 9.75545 25.4995 10.2263 26.2205 10.7044C26.7502 11.0574 27.6991 11.83 27.7066 11.9109C27.714 11.9918 25.8233 12.8378 25.7717 12.779C25.757 12.7643 25.6541 12.5656 25.5437 12.3451C25.0582 11.3887 24.1166 10.175 23.4029 9.58649C23.1749 9.40265 23.0278 9.25553 23.0645 9.25553C23.1086 9.25529 23.4324 9.35825 23.7929 9.48329ZM12.3609 12.6539C12.611 12.779 13.0673 12.9849 13.3761 13.1099L13.9353 13.3379L13.6557 14.0735C13.1407 15.4197 12.7802 17.2075 12.6626 18.9434L12.611 19.7011H10.6985H8.7931L8.8447 19.1272C9.02134 17.1556 9.65398 15.3386 10.7059 13.757C11.1105 13.1536 11.7285 12.418 11.8315 12.418C11.8682 12.4185 12.1109 12.5215 12.3609 12.6539ZM28.5744 12.8231C29.9942 14.4784 30.9137 16.7368 31.1417 19.1644L31.1933 19.7015H29.2807H27.3682L27.2873 18.6496C27.1474 16.9135 26.7281 15.0302 26.2207 13.7798L26.0369 13.3458L26.677 13.0811C27.0226 12.934 27.4788 12.7281 27.6775 12.6177C27.8834 12.5147 28.0822 12.4264 28.1335 12.419C28.1772 12.4185 28.3759 12.6023 28.5744 12.8231ZM15.539 13.8235C15.9878 13.9339 16.6205 14.081 16.9589 14.1398C17.2973 14.1914 17.5915 14.2574 17.6136 14.2795C17.6282 14.3015 17.6136 14.6767 17.5694 15.118C17.4665 16.1037 17.3414 18.2812 17.3414 19.0905V19.7013H15.2743H13.1997L13.2511 18.9069C13.3541 17.362 13.6999 15.567 14.1413 14.3313C14.4134 13.5736 14.4576 13.4999 14.6047 13.559C14.6709 13.5882 15.0977 13.7059 15.539 13.8235ZM25.7791 14.1914C26.25 15.4199 26.6105 17.2663 26.7281 18.9436L26.7797 19.7013H24.72H22.6603L22.6087 18.2815C22.5794 17.5091 22.5132 16.2952 22.447 15.5889C22.3294 14.2058 22.3366 14.1839 22.7045 14.1839C22.9325 14.1839 24.4627 13.8381 24.985 13.6689C25.213 13.5952 25.4338 13.5438 25.4705 13.5513C25.5142 13.5587 25.6466 13.8455 25.7791 14.1914ZM21.755 14.4047C21.755 14.4268 21.8066 14.9711 21.8654 15.6187C21.917 16.2659 21.9905 17.4503 22.02 18.245L22.0716 19.7015H19.9896H17.9078L17.9594 18.2596C17.9889 17.4652 18.0552 16.2808 18.114 15.6261C18.1728 14.9788 18.2244 14.427 18.2244 14.405C18.2244 14.3829 19.0188 14.3682 19.9898 14.3682C20.9606 14.368 21.755 14.3827 21.755 14.4047ZM12.6626 21.0403C12.7802 22.7985 13.1628 24.6523 13.685 25.9984L13.9351 26.6531L13.5967 26.7856C13.4129 26.8593 12.9345 27.0727 12.5301 27.2637L11.802 27.6095L11.4489 27.2123C10.0365 25.6379 9.05806 23.2545 8.8447 20.8564L8.7931 20.29H10.6985H12.611L12.6626 21.0403ZM17.3412 20.9299C17.3412 21.7463 17.4588 23.8355 17.5692 24.8728C17.6133 25.3142 17.6354 25.6821 17.6205 25.6967C17.6059 25.7114 17.1645 25.8146 16.6421 25.9175C16.1124 26.0131 15.4209 26.1825 15.1046 26.278C14.7809 26.381 14.4941 26.4472 14.4645 26.4251C14.3616 26.3663 13.9423 25.1083 13.7289 24.2255C13.4789 23.1736 13.3243 22.1584 13.2509 21.077L13.1995 20.2898H15.2741H17.3412V20.9299ZM22.02 21.7022C21.9758 23.0116 21.895 24.2181 21.7846 25.2184L21.7404 25.6231H19.9821C19.0185 25.6231 18.2239 25.6084 18.2239 25.5863C18.2239 25.5643 18.1723 25.0125 18.1135 24.3652C18.0547 23.7105 17.9885 22.5261 17.9589 21.7317L17.9073 20.2898H19.9896H22.0714L22.02 21.7022ZM26.7281 21.0403C26.6472 22.2247 26.478 23.3279 26.2058 24.3727C25.9704 25.2921 25.632 26.3001 25.5218 26.4105C25.4923 26.44 25.1909 26.381 24.845 26.278C24.4992 26.1751 23.8078 26.0131 23.3002 25.9101C22.7926 25.8071 22.3733 25.7114 22.3586 25.7042C22.3512 25.6895 22.3879 25.1011 22.447 24.4022C22.5132 23.6959 22.5794 22.4822 22.6087 21.7024L22.6603 20.29H24.72H26.7797L26.7281 21.0403ZM31.1419 20.8195C31.0022 22.2981 30.5902 23.8209 30.0091 24.9683C29.634 25.7186 28.9351 26.7707 28.5084 27.2414L28.1774 27.6093L27.4493 27.2635C27.0446 27.0722 26.5666 26.8588 26.3753 26.7854L26.0369 26.6529L26.2207 26.2115C26.7283 24.9609 27.1476 23.0851 27.2873 21.3343L27.3682 20.2895H29.2807H31.1933L31.1419 20.8195ZM21.2916 26.219L21.6667 26.2703L21.63 26.5353C21.4387 27.9182 20.9458 29.8531 20.6369 30.4783C20.453 30.8459 20.1439 31.1771 19.9896 31.1771C19.6879 31.1771 19.3274 30.5887 19.0039 29.566C18.8273 29.0143 18.4521 27.2709 18.3492 26.5279L18.305 26.2557L18.6139 26.2262C19.1582 26.1823 20.8944 26.1748 21.2916 26.219ZM17.7458 26.4839C17.7605 26.5795 17.8341 26.9841 17.9004 27.3887C18.0696 28.4481 18.4154 29.728 18.7022 30.3976C18.8419 30.7211 18.9377 31.0007 18.923 31.0156C18.8642 31.0744 18.1949 30.8023 17.6798 30.5006C16.7309 29.9416 15.6641 28.7644 14.958 27.4919L14.6933 27.0064L15.4068 26.8005C16.0173 26.6313 17.3047 26.3517 17.6138 26.3296C17.6649 26.3219 17.7237 26.3956 17.7458 26.4839ZM23.5133 26.5502C24.433 26.734 25.2127 26.9695 25.2127 27.0652C25.2127 27.2049 24.683 28.0951 24.2563 28.6689C23.4912 29.6913 22.5422 30.4713 21.6007 30.8536C20.9609 31.1186 20.9385 31.0965 21.2107 30.5299C21.527 29.8751 21.8508 28.7056 22.0493 27.4917C22.1376 26.9474 22.2257 26.4619 22.2406 26.4103C22.2701 26.3073 22.351 26.3147 23.5133 26.5502ZM14.4209 27.6167C14.8843 28.5583 15.8553 29.8163 16.5763 30.4048C16.8043 30.5887 16.9514 30.7358 16.9147 30.7358C16.8705 30.7358 16.5468 30.6328 16.1863 30.5078C15.414 30.2356 14.4797 29.7647 13.7587 29.2867C13.1849 28.9041 12.2726 28.1611 12.2726 28.0655C12.2652 28.036 12.4197 27.9405 12.6185 27.8522C13.7882 27.3371 14.075 27.2123 14.1413 27.2123C14.1854 27.2047 14.3105 27.3887 14.4209 27.6167ZM26.3602 27.4183C27.1841 27.7641 27.7138 28.0214 27.7063 28.073C27.6989 28.1687 26.7425 28.9336 26.1468 29.3236C25.8158 29.5444 25.2934 29.8461 24.9919 30.0004C24.4769 30.2579 23.2337 30.736 23.0719 30.736C23.0278 30.736 23.2044 30.5594 23.4619 30.3388C24.205 29.7136 25.2348 28.3598 25.6099 27.514C25.6836 27.3448 25.7717 27.2051 25.8012 27.2051C25.8305 27.2047 26.0806 27.3004 26.3602 27.4183Z"/>
</mask>
<path d="M18.4447 8.33561C11.5149 9.28457 6.88774 16.0893 8.58718 22.8278C9.51406 26.5281 12.258 29.603 15.87 30.9933C22.8586 33.6931 30.6564 28.985 31.6567 21.4667C32.3556 16.1997 29.244 11.0207 24.168 9.00521C22.476 8.33561 20.2985 8.07833 18.4447 8.33561ZM20.2692 8.96105C20.5929 9.26273 20.946 10.1601 21.2402 11.3887C21.402 12.095 21.6816 13.6912 21.6449 13.7279C21.5861 13.7942 19.5261 13.8309 18.9451 13.7867L18.3125 13.7279L18.3492 13.4632C18.4521 12.7276 18.8273 10.9768 19.0039 10.4251C19.3277 9.40241 19.6881 8.81393 19.9896 8.81393C20.0558 8.81393 20.1809 8.88017 20.2692 8.96105ZM18.9377 9.04937C18.4154 10.2117 18.1284 11.2048 17.8711 12.7718C17.7902 13.2278 17.7165 13.6178 17.6945 13.6324C17.6431 13.6912 16.157 13.397 15.3698 13.1764L14.693 12.9851L14.9652 12.4996C15.8625 10.8813 17.0839 9.66737 18.3492 9.14513C18.8273 8.94617 18.9965 8.91689 18.9377 9.04937ZM21.6005 9.13745C22.5422 9.52001 23.4912 10.2998 24.2561 11.3224C24.6828 11.8962 25.2125 12.7864 25.2125 12.9261C25.2125 13.0511 23.903 13.397 22.5422 13.6324C22.2185 13.684 22.2552 13.75 22.086 12.676C22.0198 12.2272 21.8652 11.4916 21.7476 11.0282C21.5638 10.3218 21.4459 9.99089 21.0415 9.04937C20.9827 8.91689 21.1152 8.93897 21.6005 9.13745ZM16.5763 9.58625C15.87 10.1673 14.9652 11.3224 14.4355 12.3448C14.3179 12.5656 14.2147 12.7641 14.2001 12.7787C14.1559 12.8522 12.2505 11.9769 12.2801 11.896C12.3168 11.8005 13.3099 10.9986 13.7587 10.7044C14.4355 10.2556 15.3845 9.77753 16.1126 9.50537C16.4877 9.37289 16.8336 9.26273 16.8849 9.25529C16.944 9.25529 16.8043 9.40241 16.5763 9.58625ZM23.7929 9.48329C24.5652 9.75545 25.4995 10.2263 26.2205 10.7044C26.7502 11.0574 27.6991 11.83 27.7066 11.9109C27.714 11.9918 25.8233 12.8378 25.7717 12.779C25.757 12.7643 25.6541 12.5656 25.5437 12.3451C25.0582 11.3887 24.1166 10.175 23.4029 9.58649C23.1749 9.40265 23.0278 9.25553 23.0645 9.25553C23.1086 9.25529 23.4324 9.35825 23.7929 9.48329ZM12.3609 12.6539C12.611 12.779 13.0673 12.9849 13.3761 13.1099L13.9353 13.3379L13.6557 14.0735C13.1407 15.4197 12.7802 17.2075 12.6626 18.9434L12.611 19.7011H10.6985H8.7931L8.8447 19.1272C9.02134 17.1556 9.65398 15.3386 10.7059 13.757C11.1105 13.1536 11.7285 12.418 11.8315 12.418C11.8682 12.4185 12.1109 12.5215 12.3609 12.6539ZM28.5744 12.8231C29.9942 14.4784 30.9137 16.7368 31.1417 19.1644L31.1933 19.7015H29.2807H27.3682L27.2873 18.6496C27.1474 16.9135 26.7281 15.0302 26.2207 13.7798L26.0369 13.3458L26.677 13.0811C27.0226 12.934 27.4788 12.7281 27.6775 12.6177C27.8834 12.5147 28.0822 12.4264 28.1335 12.419C28.1772 12.4185 28.3759 12.6023 28.5744 12.8231ZM15.539 13.8235C15.9878 13.9339 16.6205 14.081 16.9589 14.1398C17.2973 14.1914 17.5915 14.2574 17.6136 14.2795C17.6282 14.3015 17.6136 14.6767 17.5694 15.118C17.4665 16.1037 17.3414 18.2812 17.3414 19.0905V19.7013H15.2743H13.1997L13.2511 18.9069C13.3541 17.362 13.6999 15.567 14.1413 14.3313C14.4134 13.5736 14.4576 13.4999 14.6047 13.559C14.6709 13.5882 15.0977 13.7059 15.539 13.8235ZM25.7791 14.1914C26.25 15.4199 26.6105 17.2663 26.7281 18.9436L26.7797 19.7013H24.72H22.6603L22.6087 18.2815C22.5794 17.5091 22.5132 16.2952 22.447 15.5889C22.3294 14.2058 22.3366 14.1839 22.7045 14.1839C22.9325 14.1839 24.4627 13.8381 24.985 13.6689C25.213 13.5952 25.4338 13.5438 25.4705 13.5513C25.5142 13.5587 25.6466 13.8455 25.7791 14.1914ZM21.755 14.4047C21.755 14.4268 21.8066 14.9711 21.8654 15.6187C21.917 16.2659 21.9905 17.4503 22.02 18.245L22.0716 19.7015H19.9896H17.9078L17.9594 18.2596C17.9889 17.4652 18.0552 16.2808 18.114 15.6261C18.1728 14.9788 18.2244 14.427 18.2244 14.405C18.2244 14.3829 19.0188 14.3682 19.9898 14.3682C20.9606 14.368 21.755 14.3827 21.755 14.4047ZM12.6626 21.0403C12.7802 22.7985 13.1628 24.6523 13.685 25.9984L13.9351 26.6531L13.5967 26.7856C13.4129 26.8593 12.9345 27.0727 12.5301 27.2637L11.802 27.6095L11.4489 27.2123C10.0365 25.6379 9.05806 23.2545 8.8447 20.8564L8.7931 20.29H10.6985H12.611L12.6626 21.0403ZM17.3412 20.9299C17.3412 21.7463 17.4588 23.8355 17.5692 24.8728C17.6133 25.3142 17.6354 25.6821 17.6205 25.6967C17.6059 25.7114 17.1645 25.8146 16.6421 25.9175C16.1124 26.0131 15.4209 26.1825 15.1046 26.278C14.7809 26.381 14.4941 26.4472 14.4645 26.4251C14.3616 26.3663 13.9423 25.1083 13.7289 24.2255C13.4789 23.1736 13.3243 22.1584 13.2509 21.077L13.1995 20.2898H15.2741H17.3412V20.9299ZM22.02 21.7022C21.9758 23.0116 21.895 24.2181 21.7846 25.2184L21.7404 25.6231H19.9821C19.0185 25.6231 18.2239 25.6084 18.2239 25.5863C18.2239 25.5643 18.1723 25.0125 18.1135 24.3652C18.0547 23.7105 17.9885 22.5261 17.9589 21.7317L17.9073 20.2898H19.9896H22.0714L22.02 21.7022ZM26.7281 21.0403C26.6472 22.2247 26.478 23.3279 26.2058 24.3727C25.9704 25.2921 25.632 26.3001 25.5218 26.4105C25.4923 26.44 25.1909 26.381 24.845 26.278C24.4992 26.1751 23.8078 26.0131 23.3002 25.9101C22.7926 25.8071 22.3733 25.7114 22.3586 25.7042C22.3512 25.6895 22.3879 25.1011 22.447 24.4022C22.5132 23.6959 22.5794 22.4822 22.6087 21.7024L22.6603 20.29H24.72H26.7797L26.7281 21.0403ZM31.1419 20.8195C31.0022 22.2981 30.5902 23.8209 30.0091 24.9683C29.634 25.7186 28.9351 26.7707 28.5084 27.2414L28.1774 27.6093L27.4493 27.2635C27.0446 27.0722 26.5666 26.8588 26.3753 26.7854L26.0369 26.6529L26.2207 26.2115C26.7283 24.9609 27.1476 23.0851 27.2873 21.3343L27.3682 20.2895H29.2807H31.1933L31.1419 20.8195ZM21.2916 26.219L21.6667 26.2703L21.63 26.5353C21.4387 27.9182 20.9458 29.8531 20.6369 30.4783C20.453 30.8459 20.1439 31.1771 19.9896 31.1771C19.6879 31.1771 19.3274 30.5887 19.0039 29.566C18.8273 29.0143 18.4521 27.2709 18.3492 26.5279L18.305 26.2557L18.6139 26.2262C19.1582 26.1823 20.8944 26.1748 21.2916 26.219ZM17.7458 26.4839C17.7605 26.5795 17.8341 26.9841 17.9004 27.3887C18.0696 28.4481 18.4154 29.728 18.7022 30.3976C18.8419 30.7211 18.9377 31.0007 18.923 31.0156C18.8642 31.0744 18.1949 30.8023 17.6798 30.5006C16.7309 29.9416 15.6641 28.7644 14.958 27.4919L14.6933 27.0064L15.4068 26.8005C16.0173 26.6313 17.3047 26.3517 17.6138 26.3296C17.6649 26.3219 17.7237 26.3956 17.7458 26.4839ZM23.5133 26.5502C24.433 26.734 25.2127 26.9695 25.2127 27.0652C25.2127 27.2049 24.683 28.0951 24.2563 28.6689C23.4912 29.6913 22.5422 30.4713 21.6007 30.8536C20.9609 31.1186 20.9385 31.0965 21.2107 30.5299C21.527 29.8751 21.8508 28.7056 22.0493 27.4917C22.1376 26.9474 22.2257 26.4619 22.2406 26.4103C22.2701 26.3073 22.351 26.3147 23.5133 26.5502ZM14.4209 27.6167C14.8843 28.5583 15.8553 29.8163 16.5763 30.4048C16.8043 30.5887 16.9514 30.7358 16.9147 30.7358C16.8705 30.7358 16.5468 30.6328 16.1863 30.5078C15.414 30.2356 14.4797 29.7647 13.7587 29.2867C13.1849 28.9041 12.2726 28.1611 12.2726 28.0655C12.2652 28.036 12.4197 27.9405 12.6185 27.8522C13.7882 27.3371 14.075 27.2123 14.1413 27.2123C14.1854 27.2047 14.3105 27.3887 14.4209 27.6167ZM26.3602 27.4183C27.1841 27.7641 27.7138 28.0214 27.7063 28.073C27.6989 28.1687 26.7425 28.9336 26.1468 29.3236C25.8158 29.5444 25.2934 29.8461 24.9919 30.0004C24.4769 30.2579 23.2337 30.736 23.0719 30.736C23.0278 30.736 23.2044 30.5594 23.4619 30.3388C24.205 29.7136 25.2348 28.3598 25.6099 27.514C25.6836 27.3448 25.7717 27.2051 25.8012 27.2051C25.8305 27.2047 26.0806 27.3004 26.3602 27.4183Z" fill="#FAA326"/>
<path d="M18.4447 8.33561C11.5149 9.28457 6.88774 16.0893 8.58718 22.8278C9.51406 26.5281 12.258 29.603 15.87 30.9933C22.8586 33.6931 30.6564 28.985 31.6567 21.4667C32.3556 16.1997 29.244 11.0207 24.168 9.00521C22.476 8.33561 20.2985 8.07833 18.4447 8.33561ZM20.2692 8.96105C20.5929 9.26273 20.946 10.1601 21.2402 11.3887C21.402 12.095 21.6816 13.6912 21.6449 13.7279C21.5861 13.7942 19.5261 13.8309 18.9451 13.7867L18.3125 13.7279L18.3492 13.4632C18.4521 12.7276 18.8273 10.9768 19.0039 10.4251C19.3277 9.40241 19.6881 8.81393 19.9896 8.81393C20.0558 8.81393 20.1809 8.88017 20.2692 8.96105ZM18.9377 9.04937C18.4154 10.2117 18.1284 11.2048 17.8711 12.7718C17.7902 13.2278 17.7165 13.6178 17.6945 13.6324C17.6431 13.6912 16.157 13.397 15.3698 13.1764L14.693 12.9851L14.9652 12.4996C15.8625 10.8813 17.0839 9.66737 18.3492 9.14513C18.8273 8.94617 18.9965 8.91689 18.9377 9.04937ZM21.6005 9.13745C22.5422 9.52001 23.4912 10.2998 24.2561 11.3224C24.6828 11.8962 25.2125 12.7864 25.2125 12.9261C25.2125 13.0511 23.903 13.397 22.5422 13.6324C22.2185 13.684 22.2552 13.75 22.086 12.676C22.0198 12.2272 21.8652 11.4916 21.7476 11.0282C21.5638 10.3218 21.4459 9.99089 21.0415 9.04937C20.9827 8.91689 21.1152 8.93897 21.6005 9.13745ZM16.5763 9.58625C15.87 10.1673 14.9652 11.3224 14.4355 12.3448C14.3179 12.5656 14.2147 12.7641 14.2001 12.7787C14.1559 12.8522 12.2505 11.9769 12.2801 11.896C12.3168 11.8005 13.3099 10.9986 13.7587 10.7044C14.4355 10.2556 15.3845 9.77753 16.1126 9.50537C16.4877 9.37289 16.8336 9.26273 16.8849 9.25529C16.944 9.25529 16.8043 9.40241 16.5763 9.58625ZM23.7929 9.48329C24.5652 9.75545 25.4995 10.2263 26.2205 10.7044C26.7502 11.0574 27.6991 11.83 27.7066 11.9109C27.714 11.9918 25.8233 12.8378 25.7717 12.779C25.757 12.7643 25.6541 12.5656 25.5437 12.3451C25.0582 11.3887 24.1166 10.175 23.4029 9.58649C23.1749 9.40265 23.0278 9.25553 23.0645 9.25553C23.1086 9.25529 23.4324 9.35825 23.7929 9.48329ZM12.3609 12.6539C12.611 12.779 13.0673 12.9849 13.3761 13.1099L13.9353 13.3379L13.6557 14.0735C13.1407 15.4197 12.7802 17.2075 12.6626 18.9434L12.611 19.7011H10.6985H8.7931L8.8447 19.1272C9.02134 17.1556 9.65398 15.3386 10.7059 13.757C11.1105 13.1536 11.7285 12.418 11.8315 12.418C11.8682 12.4185 12.1109 12.5215 12.3609 12.6539ZM28.5744 12.8231C29.9942 14.4784 30.9137 16.7368 31.1417 19.1644L31.1933 19.7015H29.2807H27.3682L27.2873 18.6496C27.1474 16.9135 26.7281 15.0302 26.2207 13.7798L26.0369 13.3458L26.677 13.0811C27.0226 12.934 27.4788 12.7281 27.6775 12.6177C27.8834 12.5147 28.0822 12.4264 28.1335 12.419C28.1772 12.4185 28.3759 12.6023 28.5744 12.8231ZM15.539 13.8235C15.9878 13.9339 16.6205 14.081 16.9589 14.1398C17.2973 14.1914 17.5915 14.2574 17.6136 14.2795C17.6282 14.3015 17.6136 14.6767 17.5694 15.118C17.4665 16.1037 17.3414 18.2812 17.3414 19.0905V19.7013H15.2743H13.1997L13.2511 18.9069C13.3541 17.362 13.6999 15.567 14.1413 14.3313C14.4134 13.5736 14.4576 13.4999 14.6047 13.559C14.6709 13.5882 15.0977 13.7059 15.539 13.8235ZM25.7791 14.1914C26.25 15.4199 26.6105 17.2663 26.7281 18.9436L26.7797 19.7013H24.72H22.6603L22.6087 18.2815C22.5794 17.5091 22.5132 16.2952 22.447 15.5889C22.3294 14.2058 22.3366 14.1839 22.7045 14.1839C22.9325 14.1839 24.4627 13.8381 24.985 13.6689C25.213 13.5952 25.4338 13.5438 25.4705 13.5513C25.5142 13.5587 25.6466 13.8455 25.7791 14.1914ZM21.755 14.4047C21.755 14.4268 21.8066 14.9711 21.8654 15.6187C21.917 16.2659 21.9905 17.4503 22.02 18.245L22.0716 19.7015H19.9896H17.9078L17.9594 18.2596C17.9889 17.4652 18.0552 16.2808 18.114 15.6261C18.1728 14.9788 18.2244 14.427 18.2244 14.405C18.2244 14.3829 19.0188 14.3682 19.9898 14.3682C20.9606 14.368 21.755 14.3827 21.755 14.4047ZM12.6626 21.0403C12.7802 22.7985 13.1628 24.6523 13.685 25.9984L13.9351 26.6531L13.5967 26.7856C13.4129 26.8593 12.9345 27.0727 12.5301 27.2637L11.802 27.6095L11.4489 27.2123C10.0365 25.6379 9.05806 23.2545 8.8447 20.8564L8.7931 20.29H10.6985H12.611L12.6626 21.0403ZM17.3412 20.9299C17.3412 21.7463 17.4588 23.8355 17.5692 24.8728C17.6133 25.3142 17.6354 25.6821 17.6205 25.6967C17.6059 25.7114 17.1645 25.8146 16.6421 25.9175C16.1124 26.0131 15.4209 26.1825 15.1046 26.278C14.7809 26.381 14.4941 26.4472 14.4645 26.4251C14.3616 26.3663 13.9423 25.1083 13.7289 24.2255C13.4789 23.1736 13.3243 22.1584 13.2509 21.077L13.1995 20.2898H15.2741H17.3412V20.9299ZM22.02 21.7022C21.9758 23.0116 21.895 24.2181 21.7846 25.2184L21.7404 25.6231H19.9821C19.0185 25.6231 18.2239 25.6084 18.2239 25.5863C18.2239 25.5643 18.1723 25.0125 18.1135 24.3652C18.0547 23.7105 17.9885 22.5261 17.9589 21.7317L17.9073 20.2898H19.9896H22.0714L22.02 21.7022ZM26.7281 21.0403C26.6472 22.2247 26.478 23.3279 26.2058 24.3727C25.9704 25.2921 25.632 26.3001 25.5218 26.4105C25.4923 26.44 25.1909 26.381 24.845 26.278C24.4992 26.1751 23.8078 26.0131 23.3002 25.9101C22.7926 25.8071 22.3733 25.7114 22.3586 25.7042C22.3512 25.6895 22.3879 25.1011 22.447 24.4022C22.5132 23.6959 22.5794 22.4822 22.6087 21.7024L22.6603 20.29H24.72H26.7797L26.7281 21.0403ZM31.1419 20.8195C31.0022 22.2981 30.5902 23.8209 30.0091 24.9683C29.634 25.7186 28.9351 26.7707 28.5084 27.2414L28.1774 27.6093L27.4493 27.2635C27.0446 27.0722 26.5666 26.8588 26.3753 26.7854L26.0369 26.6529L26.2207 26.2115C26.7283 24.9609 27.1476 23.0851 27.2873 21.3343L27.3682 20.2895H29.2807H31.1933L31.1419 20.8195ZM21.2916 26.219L21.6667 26.2703L21.63 26.5353C21.4387 27.9182 20.9458 29.8531 20.6369 30.4783C20.453 30.8459 20.1439 31.1771 19.9896 31.1771C19.6879 31.1771 19.3274 30.5887 19.0039 29.566C18.8273 29.0143 18.4521 27.2709 18.3492 26.5279L18.305 26.2557L18.6139 26.2262C19.1582 26.1823 20.8944 26.1748 21.2916 26.219ZM17.7458 26.4839C17.7605 26.5795 17.8341 26.9841 17.9004 27.3887C18.0696 28.4481 18.4154 29.728 18.7022 30.3976C18.8419 30.7211 18.9377 31.0007 18.923 31.0156C18.8642 31.0744 18.1949 30.8023 17.6798 30.5006C16.7309 29.9416 15.6641 28.7644 14.958 27.4919L14.6933 27.0064L15.4068 26.8005C16.0173 26.6313 17.3047 26.3517 17.6138 26.3296C17.6649 26.3219 17.7237 26.3956 17.7458 26.4839ZM23.5133 26.5502C24.433 26.734 25.2127 26.9695 25.2127 27.0652C25.2127 27.2049 24.683 28.0951 24.2563 28.6689C23.4912 29.6913 22.5422 30.4713 21.6007 30.8536C20.9609 31.1186 20.9385 31.0965 21.2107 30.5299C21.527 29.8751 21.8508 28.7056 22.0493 27.4917C22.1376 26.9474 22.2257 26.4619 22.2406 26.4103C22.2701 26.3073 22.351 26.3147 23.5133 26.5502ZM14.4209 27.6167C14.8843 28.5583 15.8553 29.8163 16.5763 30.4048C16.8043 30.5887 16.9514 30.7358 16.9147 30.7358C16.8705 30.7358 16.5468 30.6328 16.1863 30.5078C15.414 30.2356 14.4797 29.7647 13.7587 29.2867C13.1849 28.9041 12.2726 28.1611 12.2726 28.0655C12.2652 28.036 12.4197 27.9405 12.6185 27.8522C13.7882 27.3371 14.075 27.2123 14.1413 27.2123C14.1854 27.2047 14.3105 27.3887 14.4209 27.6167ZM26.3602 27.4183C27.1841 27.7641 27.7138 28.0214 27.7063 28.073C27.6989 28.1687 26.7425 28.9336 26.1468 29.3236C25.8158 29.5444 25.2934 29.8461 24.9919 30.0004C24.4769 30.2579 23.2337 30.736 23.0719 30.736C23.0278 30.736 23.2044 30.5594 23.4619 30.3388C24.205 29.7136 25.2348 28.3598 25.6099 27.514C25.6836 27.3448 25.7717 27.2051 25.8012 27.2051C25.8305 27.2047 26.0806 27.3004 26.3602 27.4183Z" stroke="#FAA326" stroke-width="0.6" mask="url(#path-2-outside-1_1949_1789)"/>
</svg>
