<svg width="22" height="22" viewBox="0 0 22 22" fill="none" xmlns="http://www.w3.org/2000/svg">
<rect width="22" height="22" rx="11" fill="#F39A00"/>
<path d="M8.95097 13.2721C8.95097 12.9308 8.98297 12.6108 9.04697 12.3121C9.12164 12.0028 9.25497 11.7201 9.44697 11.4641C9.63897 11.2081 9.91097 10.9788 10.263 10.7761C10.4123 10.6801 10.6043 10.5681 10.839 10.4401C11.0843 10.3121 11.319 10.1681 11.543 10.0081C11.767 9.83743 11.9536 9.64009 12.103 9.41609C12.263 9.18143 12.343 8.91476 12.343 8.61609C12.343 8.31743 12.2683 8.06676 12.119 7.86409C11.9803 7.66143 11.7936 7.50676 11.559 7.40009C11.335 7.29343 11.0896 7.24009 10.823 7.24009C10.5136 7.24009 10.2363 7.30943 9.99097 7.44809C9.74564 7.57609 9.53764 7.73609 9.36697 7.92809C9.1963 8.12009 9.0523 8.31743 8.93497 8.52009L7.54297 7.56009C7.73497 7.12276 7.9963 6.74943 8.32697 6.44009C8.6683 6.13076 9.05764 5.89609 9.49497 5.73609C9.94297 5.57609 10.407 5.49609 10.887 5.49609C11.2923 5.49609 11.6923 5.56009 12.087 5.68809C12.4816 5.80543 12.839 5.99209 13.159 6.24809C13.479 6.50409 13.735 6.82943 13.927 7.22409C14.119 7.61876 14.215 8.09343 14.215 8.64809C14.215 8.98943 14.1723 9.29343 14.087 9.56009C14.0123 9.82676 13.9003 10.0668 13.751 10.2801C13.6123 10.4828 13.4363 10.6694 13.223 10.8401C13.0096 11.0108 12.7803 11.1761 12.535 11.3361C12.2576 11.5068 11.975 11.6721 11.687 11.8321C11.4096 11.9921 11.175 12.1841 10.983 12.4081C10.8016 12.6214 10.711 12.9094 10.711 13.2721H8.95097ZM8.98297 17.0001V14.7921H10.759V17.0001H8.98297Z" fill="white"/>
</svg>
