<svg width="129" height="128" viewBox="0 0 129 128" fill="none" xmlns="http://www.w3.org/2000/svg">
<path fill-rule="evenodd" clip-rule="evenodd" d="M120.373 36.175C124.881 39.4927 127.646 44.4213 128.117 49.7846L128.185 51.0695V102.906C128.185 116.267 117.076 127.134 103.155 127.837H89.7662C83.3676 127.715 78.1936 122.985 77.7226 117.04L77.6553 116.139V97.8625C77.6553 95.8745 76.1011 94.2188 74.0221 93.8928L73.4165 93.8289H55.4454C53.299 93.8928 51.5497 95.3631 51.2806 97.2808L51.2133 97.8625V116.081C51.2133 116.458 51.1393 116.906 51.0787 117.225L51.0114 117.36L50.9374 117.801C50.1368 123.241 45.427 127.389 39.5734 127.779L38.6987 127.837H26.6551C12.5931 127.837 1.08776 117.36 0.347656 104.185V51.0695C0.408211 45.6295 2.90439 40.5794 7.07591 37.0636L48.993 5.03721C57.5378 -1.41281 69.5141 -1.66851 78.3214 4.27011L79.4047 5.03721L120.373 36.175ZM118.748 103.928L118.822 102.906V51.1265C118.748 48.3842 117.544 45.8208 115.458 43.9094L114.583 43.1999L73.541 12.0045C68.4275 8.10509 61.161 7.91971 55.7784 11.3013L54.7624 12.0045L13.8546 43.3341C11.5064 44.9898 10.0935 47.4828 9.75706 50.1037L9.68305 51.1265V102.906C9.68305 111.408 16.6804 118.376 25.5685 118.887H38.6886C40.1688 118.887 41.4472 117.934 41.6423 116.592L41.7836 115.441L41.8509 115.115V97.862C41.8509 91.0221 47.368 85.4606 54.4327 84.9428H73.4064C80.5989 84.9428 86.4525 90.191 86.9975 96.9032V116.138C86.9975 117.481 88.0067 118.638 89.3524 118.887H101.86C110.876 118.887 118.21 112.309 118.748 103.928Z" fill="#A6A4A4"/>
</svg>
