<svg width="23" height="23" viewBox="0 0 23 23" fill="none" xmlns="http://www.w3.org/2000/svg">
<path fill-rule="evenodd" clip-rule="evenodd" d="M21.5946 6.50849C22.4056 7.1054 22.9032 7.99214 22.9879 8.95709L23 9.18826V18.5145C23 20.9183 21.0014 22.8735 18.4968 23H16.0879C14.9367 22.9781 14.0058 22.1271 13.9211 21.0575L13.9089 20.8953V17.6071C13.9089 17.2494 13.6293 16.9515 13.2553 16.8929L13.1463 16.8814H9.913C9.52684 16.8929 9.21211 17.1574 9.16368 17.5024L9.15158 17.6071V20.8849C9.15158 20.9528 9.13826 21.0333 9.12737 21.0908L9.11526 21.115L9.10195 21.1943C8.9579 22.1731 8.11053 22.9195 7.05737 22.9897L6.9 23H4.73316C2.20316 23 0.133158 21.115 0 18.7446V9.18826C0.0108947 8.20951 0.46 7.30092 1.21053 6.66836L8.75211 0.906278C10.2895 -0.254189 12.4442 -0.300194 14.0288 0.768264L14.2237 0.906278L21.5946 6.50849ZM21.3023 18.6985L21.3156 18.5145V9.19855C21.3023 8.70515 21.0856 8.24396 20.7104 7.90007L20.553 7.77241L13.1688 2.15984C12.2488 1.45827 10.9414 1.42492 9.973 2.03333L9.79021 2.15984L2.43021 7.79656C2.00774 8.09444 1.75353 8.54299 1.693 9.01453L1.67969 9.19855V18.5145C1.67969 20.0441 2.93864 21.2978 4.53774 21.3898H6.89827C7.16458 21.3898 7.39458 21.2184 7.42969 20.9769L7.45511 20.7699L7.46721 20.7112V17.607C7.46721 16.3764 8.45985 15.3758 9.7309 15.2827H13.1446C14.4386 15.2827 15.4918 16.2269 15.5898 17.4345V20.8952C15.5898 21.1368 15.7714 21.3449 16.0135 21.3898H18.2639C19.886 21.3898 21.2055 20.2063 21.3023 18.6985Z" fill="#E26B26"/>
<path d="M1 8L11.5 0.5L22 8V19.5L18.5 22.75L15 22.5L14.5 16.5H9L8.5 22H4L1 20V8Z" fill="#E26B26"/>
</svg>
