<svg width="16" height="15" viewBox="0 0 16 15" fill="none" xmlns="http://www.w3.org/2000/svg">
<path fill-rule="evenodd" clip-rule="evenodd" d="M4.56453 0.331025C3.4426 0.944561 3.14795 1.62231 3.14795 3.58853C3.14795 4.87132 3.35855 5.95106 3.77754 6.81864C4.12382 7.53543 4.40713 8.3391 4.40713 8.60447C4.40713 8.87708 3.61165 9.48905 2.58132 10.0091C0.92959 10.843 0 11.8799 0 12.8888C0 13.0632 1.68856 13.1888 4.03756 13.1888C7.93032 13.1888 8.10125 13.2169 8.80986 13.9711C9.79894 15.0241 11.4223 15.3017 12.7864 14.6511C13.998 14.0734 15.108 12.4711 15.108 11.3001C15.108 10.0821 13.9782 8.51444 12.6727 7.92137C12.0223 7.62577 11.4447 7.35788 11.3893 7.3264C11.3339 7.29461 11.5621 6.72389 11.8958 6.05778C12.7505 4.35348 12.7914 1.74099 11.9758 0.925358C11.2555 0.205107 9.98593 -0.187128 9.26757 0.0886328C8.82119 0.259881 8.82119 0.342987 9.26694 0.979503C9.99821 2.02336 9.92077 5.34099 9.12906 6.89293C8.78279 7.57163 8.49947 8.34508 8.49947 8.61171C8.49947 8.87834 8.35781 9.0965 8.18468 9.0965C7.67723 9.0965 7.82486 7.75799 8.44501 6.73553C9.08971 5.6731 9.30535 2.45904 8.79601 1.5071C8.1192 0.242567 5.86936 -0.382616 4.56453 0.331025ZM12.861 8.60069C14.9855 9.69933 14.9219 13.0859 12.758 14.0718C11.1428 14.8078 9.38247 14.2771 8.63326 12.8284C7.15561 9.971 10.0036 7.12305 12.861 8.60069ZM11.0178 10.1983C11.0178 10.8279 10.8604 10.9853 10.2308 10.9853C9.798 10.9853 9.44386 11.1269 9.44386 11.3001C9.44386 11.4732 9.798 11.6149 10.2308 11.6149C10.8604 11.6149 11.0178 11.7723 11.0178 12.4018C11.0178 12.8347 11.1595 13.1888 11.3326 13.1888C11.5058 13.1888 11.6474 12.8347 11.6474 12.4018C11.6474 11.7723 11.8048 11.6149 12.4344 11.6149C12.8673 11.6149 13.2214 11.4732 13.2214 11.3001C13.2214 11.1269 12.8673 10.9853 12.4344 10.9853C11.8048 10.9853 11.6474 10.8279 11.6474 10.1983C11.6474 9.76544 11.5058 9.41129 11.3326 9.41129C11.1595 9.41129 11.0178 9.76544 11.0178 10.1983Z" fill="#FAA326"/>
</svg>
