<svg width="126" height="124" viewBox="0 0 126 124" fill="none" xmlns="http://www.w3.org/2000/svg">
<path d="M15.1397 87.9383C13.4975 81.3301 10.1368 77.4607 4.48985 75.677C3.54777 75.3793 2.15048 75.123 1.38525 75.1072C0.00551605 75.079 -0.00646973 75.0961 0.000808716 77.1103C0.0200787 82.2938 2.42369 88.9392 5.35829 91.9206C7.40904 94.0038 10.7899 95.601 13.1613 95.6061L14.9813 95.6104V100.816V106.023L13.632 103.988C11.6865 101.055 7.47327 98.6046 4.3738 98.6046C3.30282 98.6046 3.29682 98.6247 3.5469 101.492C4.2115 109.112 7.83854 114.255 13.1455 115.103L14.9496 115.391L15.0725 119.082C15.195 122.755 15.201 122.773 16.373 122.907L17.5506 123.043V120.02V116.998H18.8567C21.5554 116.998 24.0938 114.83 25.8697 111.009C26.4709 109.715 26.9651 108.224 26.9672 107.694C26.9711 106.877 26.7432 106.732 25.459 106.732C23.3423 106.732 21.0393 107.787 19.1564 109.62L17.5506 111.183V104.466V97.7491L18.9423 97.7397C23.1166 97.7115 27.279 93.4498 28.7216 87.7266C29.3879 85.0835 29.006 84.7247 25.936 85.1079C22.7 85.5117 19.9011 87.4242 18.0786 90.4774C16.4548 93.1975 15.8377 93.5978 15.8377 91.9305C15.8377 91.279 15.5238 89.4825 15.1397 87.9383Z" fill="#3F2C13"/>
<path fill-rule="evenodd" clip-rule="evenodd" d="M43.5107 56.3158C41.3358 56.0399 39.3531 57.59 39.0776 59.7767C38.8042 61.9633 40.3471 63.9589 42.5221 64.2337C44.6971 64.5085 46.682 62.9595 46.9553 60.7728C47.2286 58.5862 45.6858 56.5906 43.5107 56.3158ZM24.3242 45.403C22.1493 45.1282 20.1643 46.6772 19.891 48.8661C19.6166 51.0506 21.1584 53.0461 23.3333 53.3231C25.5083 53.5979 27.4932 52.0468 27.7665 49.8601C28.0399 47.6733 26.4992 45.6778 24.3242 45.403ZM37.4838 45.812C35.3089 45.5372 33.3239 47.0883 33.0506 49.2751C32.7773 51.4618 34.3201 53.4573 36.4951 53.7321C38.6702 54.0069 40.6528 52.4558 40.9283 50.269C41.2016 48.0846 39.6588 46.089 37.4838 45.812ZM30.9227 54.5769C28.7478 54.3021 26.7628 55.8511 26.4895 58.0378C26.2162 60.2244 27.7569 62.22 29.9319 62.4948C32.1068 62.7707 34.0917 61.2207 34.3672 59.034C34.6406 56.8473 33.0977 54.8517 30.9227 54.5769ZM68.5424 0.194336C61.3865 0.194336 55.587 6.02542 55.587 13.2195C55.587 20.4139 61.3868 26.2459 68.5424 26.2459C75.6982 26.2459 81.4989 20.4126 81.4989 13.2195C81.4989 6.02515 75.6968 0.194336 68.5424 0.194336ZM54.0954 38.3565L46.614 40.3725C42.1786 41.5629 43.9821 48.3407 48.4141 47.1502L56.3577 45.0108C56.882 46.4289 57.4863 47.9993 58.1749 49.691C51.3053 52.1772 55.6221 61.6783 61.8264 60.2548C62.0666 60.2001 62.4008 60.1185 62.8098 60.0144C68.3201 71.1761 76.5043 84.2874 87.8325 94.2578V111.596C87.8325 114.509 90.1985 116.931 93.139 116.931H97.541C100.483 116.931 102.847 114.509 102.847 111.596V104.331C108.716 107.149 115.175 109.048 122.268 109.64C126.845 110.02 127.419 103.022 122.841 102.642C115.447 102.024 108.8 99.7762 102.848 96.4593V84.5559L113.037 59.6398C113.037 59.6398 114.098 56.9261 112.763 53.418C111.429 49.912 98.297 27.9169 98.297 27.9169C98.297 27.9169 95.1804 21.5095 88.5617 23.2924C81.9429 25.0755 75.5516 33.0491 74.3388 34.0871C74.3388 34.0871 70.5625 40.4601 69.1786 46.2032L64.8203 47.5805C61.8158 40.2209 60.4183 35.1392 60.4022 35.0875C59.1658 30.6489 52.4509 32.5413 53.6894 36.9811C53.6926 36.9972 53.8282 37.4846 54.0941 38.353L54.0954 38.3565ZM87.8328 84.6777C79.9914 76.5388 73.9953 66.8453 69.6423 58.1933C72.9564 57.2884 76.3635 56.3362 77.9491 55.865C80.0557 55.2402 81.5013 50.8465 82.2423 47.9127C87.914 56.6463 94.536 66.287 94.536 66.287C94.536 66.287 87.832 81.0138 87.832 83.3312V84.6784L87.8328 84.6777Z" fill="#3F2C13"/>
</svg>
