<svg width="25" height="24" viewBox="0 0 25 24" fill="none" xmlns="http://www.w3.org/2000/svg">
<path d="M20.2125 6.73614C17.098 8.03372 16.7026 7.56701 13.8147 7.66956V5.75288C13.8515 3.87738 13.3067 2.0337 12.2494 0.456165C12.1615 0.313373 12.0797 0.180164 12.0078 0.0527056L10.2559 0.970791C10.3367 1.11454 10.4296 1.26596 10.5284 1.42792C11.4056 2.71048 11.8555 4.21897 11.8181 5.75288V6.14484C6.3776 4.37576 0.770351 8.72372 0.837234 14.3779C0.73042 20.4451 7.24309 24.8746 12.8164 22.2363C23.2572 26.4711 29.5802 11.9284 20.2125 6.73614ZM20.3363 4.30196C19.0671 5.30672 17.4547 5.82371 15.8112 5.75288C15.6874 2.13709 17.9724 -0.176337 21.7928 0.0105389C21.8939 1.56682 21.373 3.10154 20.3363 4.30196Z" fill="#E36E26"/>
</svg>
