<svg width="129" height="129" viewBox="0 0 129 129" fill="none" xmlns="http://www.w3.org/2000/svg">
<g clip-path="url(#clip0_522_529)">
<path d="M92.3661 33.5483C97.6606 27.7517 100.91 20.3803 101.618 12.5617C101.824 10.9495 101.657 9.31164 101.132 7.77356C100.607 6.23548 99.737 4.83795 98.5885 3.68795C97.4401 2.53794 96.0437 1.66596 94.5063 1.13874C92.969 0.611531 91.3314 0.443066 89.7188 0.646246C84.8693 1.0271 80.16 2.45478 75.9153 4.83091C71.6706 7.20704 67.9916 10.4751 65.1315 14.41C63.3208 9.87912 60.7602 5.68534 57.5572 2.00451C56.5633 1.01926 55.2215 0.464758 53.822 0.460897C52.4225 0.457036 51.0777 1.00412 50.0783 1.98388C49.079 2.96364 48.5054 4.29734 48.4815 5.69665C48.4577 7.09596 48.9855 8.44843 49.9509 9.46168C55.2314 16.0369 58.3214 24.1001 58.7876 32.5203H45.7802C33.4274 32.8978 21.7275 38.1543 13.2418 47.1392C4.75616 56.124 0.176196 68.105 0.504628 80.4592C-0.352945 110.288 30.5676 137.842 57.7649 125.122C59.842 123.801 62.2563 123.108 64.7177 123.126C67.1791 123.144 69.5829 123.873 71.6406 125.223C75.118 127.234 79.0499 128.326 83.066 128.398C137.738 126.885 144.673 46.2734 92.3661 33.5483ZM76.264 17.4355C80.3957 13.8225 85.5838 11.6404 91.0558 11.2141C90.619 16.6747 88.44 21.8506 84.8397 25.9793C80.7045 29.5901 75.5156 31.7718 70.0426 32.2007C70.4753 26.7382 72.6569 21.5605 76.264 17.4355ZM83.066 117.745C80.7186 117.655 78.4351 116.955 76.4398 115.716C72.7834 113.604 68.6452 112.468 64.4231 112.418C60.4256 112.511 56.514 113.597 53.0403 115.577C32.4905 124.462 10.6251 102.516 11.1577 80.4592C10.8292 70.9301 14.2869 61.6586 20.7748 54.6717C27.2627 47.6847 36.253 43.5507 45.7802 43.1734H83.066C128.874 44.8832 128.874 116.051 83.066 117.745Z" fill="#A6A4A4"/>
</g>
<defs>
<clipPath id="clip0_522_529">
<rect width="127.837" height="127.837" fill="white" transform="translate(0.507812 0.558594)"/>
</clipPath>
</defs>
</svg>
