<svg width="129" height="128" viewBox="0 0 129 128" fill="none" xmlns="http://www.w3.org/2000/svg">
<g clip-path="url(#clip0_522_525)">
<path d="M118.687 11.5228C115.693 9.01891 112.184 7.20502 108.409 6.20989C104.635 5.21475 100.688 5.06279 96.8483 5.76478L76.4903 9.46139C71.7901 10.3245 67.5166 12.7427 64.3564 16.3273C61.188 12.7365 56.9022 10.3178 52.1906 9.46139L31.8646 5.76478C28.025 5.06217 24.0779 5.21215 20.3026 6.20409C16.5274 7.19602 13.0164 9.00568 10.0181 11.5049C7.01981 14.0042 4.60753 17.132 2.95202 20.6669C1.29651 24.2018 0.438248 28.0573 0.437988 31.9607L0.437988 89.45C0.438294 95.6863 2.62707 101.725 6.62281 106.513C10.6185 111.301 16.1678 114.535 22.3034 115.651L55.786 121.74C61.4532 122.769 67.2596 122.769 72.9268 121.74L106.436 115.651C112.567 114.529 118.11 111.293 122.1 106.505C126.091 101.718 128.276 95.6825 128.275 89.45V31.9607C128.277 28.0587 127.419 24.2042 125.762 20.6716C124.105 17.139 121.689 14.0152 118.687 11.5228ZM59.0299 111.475C58.5825 111.411 58.135 111.337 57.6876 111.257L24.2103 105.174C20.5284 104.504 17.1984 102.563 14.8009 99.6897C12.4034 96.8162 11.0905 93.1924 11.0911 89.45V31.9607C11.0911 27.7226 12.7746 23.6582 15.7714 20.6614C18.7681 17.6646 22.8326 15.9811 27.0707 15.9811C28.0353 15.9834 28.9978 16.0707 29.947 16.2421L50.2944 19.9707C52.7425 20.4186 54.9565 21.7096 56.5522 23.6196C58.1479 25.5295 59.0245 27.9379 59.0299 30.4267V111.475ZM117.622 89.45C117.622 93.1924 116.309 96.8162 113.912 99.6897C111.514 102.563 108.184 104.504 104.503 105.174L71.0252 111.257C70.5778 111.337 70.1304 111.411 69.683 111.475V30.4267C69.6826 27.9318 70.5579 25.5159 72.1562 23.6002C73.7545 21.6845 75.9745 20.3906 78.4291 19.944L98.7818 16.2154C101.087 15.7961 103.456 15.8887 105.721 16.4866C107.986 17.0846 110.092 18.1733 111.889 19.6756C113.687 21.1779 115.132 23.0571 116.123 25.1801C117.114 27.3031 117.625 29.618 117.622 31.9607V89.45Z" fill="#A6A4A4"/>
</g>
<defs>
<clipPath id="clip0_522_525">
<rect width="127.837" height="127.837" fill="white" transform="translate(0.4375)"/>
</clipPath>
</defs>
</svg>
