<svg width="129" height="129" viewBox="0 0 129 129" fill="none" xmlns="http://www.w3.org/2000/svg">
<g clip-path="url(#clip0_522_579)">
<path d="M118.687 11.7088C115.651 9.17526 112.088 7.34977 108.258 6.36486C104.428 5.37995 100.427 5.26033 96.5447 6.0147L87.1487 8.31576C82.2453 9.21432 77.8122 11.8038 74.6209 15.6335C71.4297 19.4632 69.6823 24.2906 69.683 29.2757V111.661C66.1507 112.178 62.5621 112.178 59.0299 111.661V29.2757C59.0476 24.3366 57.3406 19.5463 54.2035 15.7314C51.0664 11.9165 46.696 9.31636 41.8465 8.37968L31.8646 5.95078C28.025 5.24818 24.0779 5.39815 20.3026 6.39009C16.5274 7.38203 13.0164 9.19168 10.0181 11.6909C7.01981 14.1902 4.60753 17.318 2.95202 20.8529C1.29651 24.3878 0.438248 28.2433 0.437988 32.1467L0.437988 89.636C0.438294 95.8723 2.62707 101.911 6.62281 106.699C10.6185 111.487 16.1678 114.721 22.3034 115.837L55.786 121.926C61.4532 122.955 67.2596 122.955 72.9268 121.926L106.436 115.837C112.567 114.715 118.11 111.479 122.1 106.691C126.091 101.904 128.276 95.8685 128.275 89.636V32.1467C128.277 28.2447 127.419 24.3902 125.762 20.8576C124.105 17.325 121.689 14.2012 118.687 11.7088Z" fill="#E36E26"/>
</g>
<defs>
<clipPath id="clip0_522_579">
<rect width="127.837" height="127.837" fill="white" transform="translate(0.4375 0.185547)"/>
</clipPath>
</defs>
</svg>
