<svg width="15" height="16" viewBox="0 0 15 16" fill="none" xmlns="http://www.w3.org/2000/svg">
<path fill-rule="evenodd" clip-rule="evenodd" d="M4.61116 0.978679C3.46493 1.50882 1.95754 2.09615 1.26104 2.28376C0.183112 2.57399 -0.00449522 2.7567 8.05692e-05 3.51105C0.0108663 5.18938 0.93256 8.7634 1.82353 10.5836C2.85896 12.6979 6.12869 16 7.187 16C8.17439 16 11.4902 12.5901 12.5652 10.4689C13.4411 8.74052 14.3592 5.20115 14.37 3.51105C14.3746 2.75245 14.188 2.57399 13.0744 2.27428C12.3589 2.08177 10.8512 1.4879 9.72428 0.954493C8.59733 0.421414 7.45469 -0.00805635 7.18504 0.000114692C6.9154 0.00795889 5.75707 0.448542 4.61116 0.978679ZM10.1266 5.08806C10.1266 5.19853 9.45104 6.37288 8.62511 7.69789C6.99057 10.3201 6.83009 10.3669 5.24981 8.67744C4.15032 7.50179 4.68666 7.17821 5.8646 8.30647L6.82519 9.22686L8.1855 7.05728C9.3654 5.17533 10.1266 4.403 10.1266 5.08806Z" fill="#FAA326"/>
</svg>
