<svg width="24" height="24" viewBox="0 0 24 24" fill="none" xmlns="http://www.w3.org/2000/svg">
<g id="Icons">
<path id="Vector" d="M6.15871 17.7115H11.851V17.4154C11.851 17.1603 11.7803 16.9239 11.6389 16.7064C11.4975 16.4888 11.3002 16.32 11.0472 16.2C10.7201 16.0564 10.389 15.9487 10.0538 15.8769C9.71861 15.8051 9.36896 15.7692 9.00486 15.7692C8.64076 15.7692 8.29111 15.8051 7.95591 15.8769C7.62071 15.9487 7.28959 16.0564 6.96256 16.2C6.70949 16.32 6.51225 16.4888 6.37083 16.7064C6.22942 16.9239 6.15871 17.1603 6.15871 17.4154V17.7115ZM14.601 16.1923H17.4087C17.5809 16.1923 17.7233 16.136 17.836 16.0235C17.9486 15.911 18.0049 15.7687 18.0049 15.5966C18.0049 15.4245 17.9486 15.282 17.836 15.1692C17.7233 15.0564 17.5809 15 17.4087 15H14.601C14.4288 15 14.2864 15.0562 14.1738 15.1688C14.0612 15.2813 14.0049 15.4236 14.0049 15.5957C14.0049 15.7678 14.0612 15.9102 14.1738 16.023C14.2864 16.1358 14.4288 16.1923 14.601 16.1923ZM9.00258 15C9.37588 15 9.69395 14.8693 9.95678 14.608C10.2196 14.3467 10.351 14.0294 10.351 13.6561C10.351 13.2828 10.2203 12.9647 9.95903 12.7019C9.69772 12.4391 9.38042 12.3077 9.00713 12.3077C8.63383 12.3077 8.31577 12.4384 8.05293 12.6997C7.79012 12.961 7.65871 13.2783 7.65871 13.6516C7.65871 14.0249 7.78937 14.3429 8.05068 14.6058C8.312 14.8686 8.6293 15 9.00258 15ZM14.601 13.5H17.4087C17.5809 13.5 17.7233 13.4437 17.836 13.3312C17.9486 13.2187 18.0049 13.0764 18.0049 12.9043C18.0049 12.7322 17.9486 12.5897 17.836 12.4769C17.7233 12.3641 17.5809 12.3077 17.4087 12.3077H14.601C14.4288 12.3077 14.2864 12.364 14.1738 12.4765C14.0612 12.589 14.0049 12.7313 14.0049 12.9034C14.0049 13.0755 14.0612 13.2179 14.1738 13.3308C14.2864 13.4436 14.4288 13.5 14.601 13.5ZM4.31258 21.5C3.80745 21.5 3.37988 21.325 3.02988 20.975C2.67988 20.625 2.50488 20.1974 2.50488 19.6923V9.3077C2.50488 8.80257 2.67988 8.375 3.02988 8.025C3.37988 7.675 3.80745 7.5 4.31258 7.5H9.50488V3.99998C9.50488 3.58749 9.65176 3.23438 9.94551 2.94063C10.2393 2.64688 10.5924 2.5 11.0049 2.5H13.0049C13.4173 2.5 13.7705 2.64688 14.0642 2.94063C14.358 3.23438 14.5048 3.58749 14.5048 3.99998V7.5H19.6971C20.2023 7.5 20.6298 7.675 20.9798 8.025C21.3298 8.375 21.5048 8.80257 21.5048 9.3077V19.6923C21.5048 20.1974 21.3298 20.625 20.9798 20.975C20.6298 21.325 20.2023 21.5 19.6971 21.5H4.31258ZM4.31258 20H19.6971C19.7869 20 19.8606 19.9711 19.9183 19.9134C19.976 19.8557 20.0049 19.782 20.0049 19.6923V9.3077C20.0049 9.21795 19.976 9.14423 19.9183 9.08653C19.8606 9.02883 19.7869 8.99998 19.6971 8.99998H14.5048V9.38463C14.5048 9.79359 14.3571 10.1458 14.0616 10.4413C13.7661 10.7368 13.4138 10.8846 13.0049 10.8846H11.0049C10.5959 10.8846 10.2437 10.7368 9.94816 10.4413C9.65264 10.1458 9.50488 9.79359 9.50488 9.38463V8.99998H4.31258C4.22283 8.99998 4.14911 9.02883 4.09141 9.08653C4.03371 9.14423 4.00486 9.21795 4.00486 9.3077V19.6923C4.00486 19.782 4.03371 19.8557 4.09141 19.9134C4.14911 19.9711 4.22283 20 4.31258 20ZM11.0049 9.38463H13.0049V3.99998H11.0049V9.38463Z" fill="#B0B0B0"/>
</g>
</svg>
