<svg width="24" height="22" viewBox="0 0 24 22" fill="none" xmlns="http://www.w3.org/2000/svg">
<path d="M24 22H21.216L20.146 19H15.271L14.194 22H11.497L16.438 9H19.042L24 22ZM19.427 16.931L17.722 12.028L16.01 16.931H19.427ZM10.175 6.127C10.301 5.641 10.376 5.275 10.446 4.915L8.247 4.487C8.211 4.672 8.145 5.02 8.027 5.487C7.285 5.378 6.495 5.365 5.695 5.446C5.714 4.909 5.747 4.383 5.793 3.877H8.249V1.794H6.088C6.194 1.263 6.286 0.945 6.376 0.645L4.229 0C4.071 0.526 3.939 1.042 3.807 1.794H1.356V3.877H3.54C3.482 4.55 3.447 5.248 3.437 5.954C1.024 6.84 0 8.529 0 10.061C0 11.87 1.427 13.46 3.684 13.255C6.486 13 8.357 10.884 9.454 8.281C10.588 8.935 11.062 10.034 10.635 11.052C10.239 11.993 9.074 12.89 6.85 12.844V15.086C9.319 15.124 11.748 14.187 12.7 11.92C13.63 9.706 12.568 7.285 10.175 6.127ZM7.283 7.658C6.934 8.432 6.474 9.201 5.888 9.807C5.798 9.162 5.737 8.455 5.704 7.7C6.237 7.63 6.776 7.617 7.283 7.658ZM3.495 8.382C3.557 9.329 3.664 10.2 3.812 10.978C1.816 11.343 1.736 9.375 3.495 8.382Z" fill="#FAA326"/>
</svg>
