<svg width="24" height="24" viewBox="0 0 24 24" fill="none" xmlns="http://www.w3.org/2000/svg">
<path d="M17.6211 9.62012H12.3711C11.9611 9.62012 11.6211 9.28012 11.6211 8.87012C11.6211 8.46012 11.9611 8.12012 12.3711 8.12012H17.6211C18.0311 8.12012 18.3711 8.46012 18.3711 8.87012C18.3711 9.28012 18.0411 9.62012 17.6211 9.62012Z" fill="#C4C4C4"/>
<path d="M7.11859 10.3798C6.92859 10.3798 6.73859 10.3098 6.58859 10.1598L5.83859 9.40982C5.54859 9.11982 5.54859 8.63982 5.83859 8.34982C6.12859 8.05982 6.60859 8.05982 6.89859 8.34982L7.11859 8.56982L8.83859 6.84982C9.12859 6.55982 9.60859 6.55982 9.89859 6.84982C10.1886 7.13982 10.1886 7.61982 9.89859 7.90982L7.64859 10.1598C7.50859 10.2998 7.31859 10.3798 7.11859 10.3798Z" fill="#C4C4C4"/>
<path d="M17.6211 16.6201H12.3711C11.9611 16.6201 11.6211 16.2801 11.6211 15.8701C11.6211 15.4601 11.9611 15.1201 12.3711 15.1201H17.6211C18.0311 15.1201 18.3711 15.4601 18.3711 15.8701C18.3711 16.2801 18.0411 16.6201 17.6211 16.6201Z" fill="#C4C4C4"/>
<path d="M7.11859 17.3798C6.92859 17.3798 6.73859 17.3098 6.58859 17.1598L5.83859 16.4098C5.54859 16.1198 5.54859 15.6398 5.83859 15.3498C6.12859 15.0598 6.60859 15.0598 6.89859 15.3498L7.11859 15.5698L8.83859 13.8498C9.12859 13.5598 9.60859 13.5598 9.89859 13.8498C10.1886 14.1398 10.1886 14.6198 9.89859 14.9098L7.64859 17.1598C7.50859 17.2998 7.31859 17.3798 7.11859 17.3798Z" fill="#C4C4C4"/>
<path d="M15 22.75H9C3.57 22.75 1.25 20.43 1.25 15V9C1.25 3.57 3.57 1.25 9 1.25H15C20.43 1.25 22.75 3.57 22.75 9V15C22.75 20.43 20.43 22.75 15 22.75ZM9 2.75C4.39 2.75 2.75 4.39 2.75 9V15C2.75 19.61 4.39 21.25 9 21.25H15C19.61 21.25 21.25 19.61 21.25 15V9C21.25 4.39 19.61 2.75 15 2.75H9Z" fill="#C4C4C4"/>
</svg>
