<svg width="11" height="12" viewBox="0 0 11 12" fill="none" xmlns="http://www.w3.org/2000/svg">
<path fill-rule="evenodd" clip-rule="evenodd" d="M5.18753 2.99758e-05C2.38415 -0.00936496 0.0943353 2.19082 0.00281481 4.94482L0 5.11577C0.0465963 6.46566 0.51218 7.75243 1.33221 8.8126L1.5248 9.06052C2.30753 10.0423 3.23771 10.904 4.28215 11.6143L4.53363 11.7813L4.57032 11.8097C4.9283 12.0634 5.41164 12.0634 5.76962 11.8097L5.80017 11.7849C6.62891 11.2548 7.39312 10.6318 8.07767 9.9284C9.4694 8.47514 10.3082 6.84677 10.3399 5.193L10.34 5.1316C10.3495 2.35916 8.12595 0.0934024 5.34273 0.00281426L5.18753 2.99758e-05ZM5.18616 0.910839C7.4844 0.918589 9.35035 2.73002 9.41964 4.98586L9.42161 5.18476C9.39498 6.57126 8.65907 7.99988 7.4141 9.29991C6.7793 9.95218 6.06755 10.532 5.29559 11.0251L5.24414 11.0633C5.20256 11.0988 5.14089 11.0988 5.09932 11.0633L5.04931 11.026C3.89932 10.2854 2.89002 9.35025 2.06755 8.26345C1.40507 7.40692 1.0125 6.38283 0.933485 5.31453L0.921875 5.10031C0.929681 2.8277 2.76031 0.981348 5.04006 0.912788L5.18616 0.910839ZM5.17662 3.24141C4.08885 3.24141 3.20703 4.11395 3.20703 5.19029C3.20703 6.26662 4.08885 7.13916 5.17662 7.13916C6.26439 7.13916 7.1462 6.26662 7.1462 5.19029C7.1462 4.11395 6.26439 3.24141 5.17662 3.24141ZM5.17836 4.15093C5.75796 4.15093 6.22782 4.61588 6.22782 5.18943C6.22782 5.76298 5.75796 6.22794 5.17836 6.22794C4.59876 6.22794 4.12891 5.76298 4.12891 5.18943C4.12891 4.61588 4.59876 4.15093 5.17836 4.15093Z" fill="#563E1F"/>
</svg>
