<svg width="21" height="24" viewBox="0 0 21 24" fill="none" xmlns="http://www.w3.org/2000/svg">
<path fill-rule="evenodd" clip-rule="evenodd" d="M10.2139 5.98305e-05C4.69423 -0.0186921 0.18574 4.37278 0.00554218 9.86967L0 10.2109C0.0917451 12.9052 1.00845 15.4735 2.62304 17.5896L3.00224 18.0844C4.54338 20.044 6.37485 21.764 8.43128 23.1817L8.92641 23.515L8.99866 23.5717C9.7035 24.0781 10.6552 24.0781 11.36 23.5717L11.4201 23.5223C13.0519 22.464 14.5566 21.2206 15.9044 19.8167C18.6446 16.916 20.2962 13.6659 20.3586 10.365L20.3587 10.2425C20.3774 4.70879 15.9995 0.186427 10.5195 0.00561715L10.2139 5.98305e-05ZM10.2048 1.8174C14.7299 1.83287 18.4038 5.44839 18.5402 9.95092L18.5441 10.3479C18.4917 13.1153 17.0427 15.9668 14.5915 18.5616C13.3416 19.8634 11.9402 21.0207 10.4202 22.005L10.3189 22.0811C10.2371 22.1521 10.1157 22.1521 10.0338 22.0811L9.93534 22.0068C7.67108 20.5285 5.68382 18.662 4.06445 16.4928C2.76006 14.7833 1.98711 12.7392 1.83153 10.6069L1.80868 10.1794C1.82404 5.64336 5.42844 1.95813 9.91712 1.82129L10.2048 1.8174ZM10.1878 6.4685C8.04604 6.4685 6.30981 8.21008 6.30981 10.3584C6.30981 12.5068 8.04604 14.2484 10.1878 14.2484C12.3295 14.2484 14.0657 12.5068 14.0657 10.3584C14.0657 8.21008 12.3295 6.4685 10.1878 6.4685ZM10.19 8.28573C11.3312 8.28573 12.2563 9.21371 12.2563 10.3584C12.2563 11.5032 11.3312 12.4311 10.19 12.4311C9.04878 12.4311 8.12366 11.5032 8.12366 10.3584C8.12366 9.21371 9.04878 8.28573 10.19 8.28573Z" fill="white"/>
</svg>
