<svg width="10" height="12" viewBox="0 0 10 12" fill="none" xmlns="http://www.w3.org/2000/svg">
<path fill-rule="evenodd" clip-rule="evenodd" d="M5.01695 2.99758e-05C2.30575 -0.00936496 0.0912334 2.19082 0.00272225 4.94482L0 5.11577C0.0450641 6.46566 0.495338 7.75243 1.28841 8.8126L1.47466 9.06052C2.23165 10.0423 3.13125 10.904 4.14135 11.6143L4.38455 11.7813L4.42004 11.8097C4.76625 12.0634 5.2337 12.0634 5.57991 11.8097L5.60945 11.7849C6.41093 11.2548 7.15002 10.6318 7.81206 9.9284C9.15803 8.47514 9.96927 6.84677 9.99989 5.193L9.99997 5.1316C10.0092 2.35916 7.85875 0.0934024 5.16705 0.00281426L5.01695 2.99758e-05ZM5.0147 0.911133C7.23736 0.918883 9.04196 2.73031 9.10897 4.98614L9.11088 5.18504C9.08512 6.57154 8.37341 8.00015 7.16938 9.30018C6.55545 9.95244 5.8671 10.5322 5.12052 11.0254L5.07076 11.0635C5.03056 11.0991 4.97092 11.0991 4.93071 11.0635L4.88235 11.0263C3.77017 10.2856 2.79405 9.35051 1.99863 8.26372C1.35794 7.4072 0.978272 6.38311 0.901853 5.31481L0.890625 5.10059C0.898174 2.82799 2.66861 0.981642 4.8734 0.913082L5.0147 0.911133ZM5.00248 3.24023C3.95047 3.24023 3.09766 4.11279 3.09766 5.18915C3.09766 6.2655 3.95047 7.13806 5.00248 7.13806C6.05448 7.13806 6.9073 6.2655 6.9073 5.18915C6.9073 4.11279 6.05448 3.24023 5.00248 3.24023ZM5.00323 4.15137C5.56377 4.15137 6.01817 4.61629 6.01817 5.1898C6.01817 5.76331 5.56377 6.22823 5.00323 6.22823C4.44269 6.22823 3.98828 5.76331 3.98828 5.1898C3.98828 4.61629 4.44269 4.15137 5.00323 4.15137Z" fill="#E26B26"/>
</svg>
