<svg width="18" height="21" viewBox="0 0 18 21" fill="none" xmlns="http://www.w3.org/2000/svg">
<path fill-rule="evenodd" clip-rule="evenodd" d="M8.96292 0H8.88803C5.35043 0 2.10687 2.56679 1.79219 5.96501C1.7712 6.2081 1.7569 6.45651 1.74766 6.7241L1.73473 7.34973L1.73217 7.91065L1.74797 7.84671C1.60198 8.5586 1.26551 9.21893 0.773361 9.75847L0.702831 9.84921C0.281438 10.4893 0.0393149 11.2303 0.00183716 11.9954L0.000949138 12.2456C-0.0205644 13.2518 0.32426 14.2476 0.972961 15.0384C1.85266 15.9673 2.99141 16.5213 4.21361 16.6389C7.3395 16.9784 10.5021 16.9784 13.6367 16.638C14.8505 16.5263 15.9927 15.9706 16.8355 15.0761C17.4719 14.3148 17.8192 13.4011 17.849 12.4551L17.85 12.0317C17.8152 11.2329 17.5715 10.4913 17.1451 9.85391L17.0803 9.77073L16.922 9.58462C16.5665 9.14051 16.3068 8.62892 16.1591 8.08173L16.1123 7.88525L16.1026 7.6792C16.0997 7.58653 16.0982 7.48377 16.0978 7.35542L16.0976 6.64867C16.0952 6.37831 16.0872 6.18606 16.0685 5.96963C15.7431 2.565 12.4986 0 8.96292 0ZM8.88875 1.46484H8.96364C11.796 1.46484 14.3798 3.50752 14.628 6.10366C14.6427 6.27409 14.6492 6.43669 14.6512 6.67825L14.654 7.62812C14.6572 7.78004 14.6631 7.90636 14.6733 8.04851L14.6869 8.14582L14.755 8.43539C14.9569 9.20141 15.3195 9.91602 15.8187 10.5321L15.9634 10.7019L15.9474 10.6753C16.2243 11.089 16.382 11.5692 16.4041 12.0644L16.4033 12.236C16.4201 12.9249 16.1917 13.5794 15.7595 14.0977C15.1885 14.7018 14.3722 15.099 13.4946 15.1798C10.4511 15.5102 7.39197 15.5102 4.35998 15.181C3.47288 15.0956 2.65597 14.6981 2.05209 14.0624C1.66063 13.5821 1.43469 12.9297 1.44887 12.261L1.44904 12.0314L1.46738 11.8314C1.51156 11.4967 1.62337 11.1575 1.79669 10.8453L1.88458 10.6998C2.5289 9.97512 2.97109 9.09392 3.16585 8.14423L3.18095 7.99533L3.1878 7.0301L3.20466 6.54038C3.21231 6.3859 3.2221 6.23912 3.23438 6.09684C3.47416 3.50764 6.05556 1.46484 8.88875 1.46484ZM1.88458 10.6998C1.869 10.7173 1.8533 10.7348 1.83748 10.7521L1.88921 10.6921L1.88458 10.6998ZM11.6635 18.5759C11.3521 18.3223 10.8966 18.3722 10.646 18.6875C10.5374 18.8241 10.4117 18.9466 10.2718 19.0522C9.79744 19.4243 9.20542 19.59 8.61687 19.5199C8.02919 19.4498 7.49497 19.1507 7.1325 18.6902C6.88345 18.3737 6.42814 18.3216 6.11554 18.5737C5.80294 18.8258 5.75142 19.2867 6.00047 19.6031C6.60151 20.3668 7.48222 20.8599 8.44772 20.9749C9.41237 21.0898 10.3837 20.818 11.1477 20.2185C11.3745 20.0475 11.5885 19.8389 11.7737 19.6058C12.0243 19.2906 11.9749 18.8295 11.6635 18.5759Z" fill="white"/>
</svg>
