<svg width="29" height="25" viewBox="0 0 29 25" fill="none" xmlns="http://www.w3.org/2000/svg">
<path d="M23.9243 21.5347H15.9493V7.79121C16.8746 7.37436 17.5851 6.56863 17.9149 5.57779L23.8962 3.51405C24.2759 3.38302 24.4803 2.96011 24.3529 2.56937L23.8921 1.15468C23.7648 0.763942 23.3538 0.553651 22.9741 0.684675L17.6308 2.52787C17.0051 1.40834 15.8446 0.645508 14.4993 0.645508C12.4974 0.645508 10.8743 2.31571 10.8743 4.37573C10.8743 4.53566 10.901 4.6886 10.9201 4.84341L5.10238 6.85073C4.72266 6.98176 4.51831 7.40467 4.64563 7.79541L5.10646 9.2101C5.23379 9.60084 5.64477 9.81113 6.02449 9.6801L12.4611 7.45922C12.6456 7.58838 12.8431 7.69796 13.0497 7.79121V23.7729C13.0497 24.1851 13.3742 24.5189 13.7747 24.5189H23.9247C24.3253 24.5189 24.6497 24.1851 24.6497 23.7729V22.2808C24.6493 21.8686 24.3249 21.5347 23.9243 21.5347ZM28.9984 14.8204C28.9984 14.0659 29.0591 14.4133 25.1446 6.35694C24.3448 4.71145 22.0547 4.70819 21.2536 6.35694C17.3059 14.4823 17.4002 14.0897 17.4002 14.8204C17.4002 16.8804 19.9961 18.5506 23.1993 18.5506C26.4024 18.5506 28.9984 16.8804 28.9984 14.8204ZM19.9368 14.0743L23.1993 7.35991L26.4618 14.0743H19.9368ZM7.74455 12.3253C6.94479 10.6798 4.6547 10.6765 3.85357 12.3253C-0.0940545 20.4507 0.000195758 20.058 0.000195758 20.7887C0.000195758 22.8487 2.59615 24.5189 5.79929 24.5189C9.00243 24.5189 11.5993 22.8487 11.5993 20.7887C11.5993 20.0343 11.6591 20.3816 7.74455 12.3253ZM2.53679 20.0427L5.79929 13.3283L9.06179 20.0427H2.53679Z" fill="white"/>
</svg>
