<svg width="78" height="103" viewBox="0 0 78 103" fill="none" xmlns="http://www.w3.org/2000/svg">
<path fill-rule="evenodd" clip-rule="evenodd" d="M38.7958 1.53755C34.2706 2.90411 33.5663 3.72206 30.6081 11.0613C28.827 15.4762 27.4877 19.2358 27.6313 19.4145C27.7737 19.592 32.2939 19.1105 37.6756 18.3434C43.0821 17.5726 53.7131 17.2437 61.4366 17.6086C77.2612 18.357 76.4864 19.1055 71.6146 7.79444C69.7072 3.3646 68.6911 2.51934 63.7735 1.27814C56.6391 -0.524079 45.2259 -0.404923 38.7958 1.53755ZM21.5292 25.3611C5.8631 28.3177 -0.630109 33.6734 6.84711 37.469C8.7619 38.4409 13.2512 39.9254 16.8258 40.7681C23.2175 42.2737 23.324 42.3742 23.324 46.8885C23.324 50.2484 24.8353 53.7846 28.9693 60.0961C34.2409 68.144 34.5615 69.101 33.8126 74.561C33.0997 79.7567 32.5675 80.5535 29.0374 81.7227C26.6924 82.4988 25.1572 84.7485 25.2893 87.215L25.5135 91.4016C25.7599 96.0027 26.1856 100.466 26.4604 101.319C27.182 103.56 76.4022 103.56 77.1238 101.319C77.3986 100.466 77.8244 96.0027 78.0707 91.4016L78.295 87.215C78.4271 84.7485 76.8918 82.4988 74.5468 81.7227C71.0168 80.5535 70.4846 79.7567 69.7716 74.561C69.0228 69.101 69.3433 68.144 74.6149 60.0961C78.749 53.7846 80.2603 50.2484 80.2603 46.8885C80.2603 42.3742 80.3667 42.2737 86.7584 40.7681C104.013 36.7007 104.28 31.1501 87.4553 26.3317C77.6957 23.5366 34.5627 22.9023 21.5292 25.3611ZM69.43 33.352C71.9377 34.5683 72.8338 35.915 72.8338 38.4682C72.8338 40.3747 73.4786 43.3548 74.2683 45.0912C75.4194 47.6258 75.339 48.6758 73.8586 50.4247C72.8449 51.6224 70.5316 55.2082 68.7195 58.3932C64.5149 65.7845 56.1044 73.0815 51.7921 73.0815C47.4798 73.0815 39.0693 65.7845 34.8647 58.3932C33.0527 55.2082 30.7393 51.6224 29.7256 50.4247C28.2453 48.6758 28.1648 47.6258 29.3159 45.0912C30.1056 43.3548 30.7504 40.2853 30.7504 38.2696C30.7504 36.2539 30.8891 34.5957 31.0599 34.5857C31.2307 34.5758 33.5973 33.7318 36.3203 32.7103C42.3964 30.4314 64.2847 30.8559 69.43 33.352ZM44.3656 76.8051C48.4254 79.99 54.8394 79.9317 59.408 76.6698C61.4243 75.23 63.2648 74.252 63.4975 74.4977C63.7314 74.7422 64.1163 78.2933 64.3552 82.3893L64.5225 85.2644C64.6797 87.966 63.0169 90.4413 60.4563 91.3172C52.5991 94.0069 38.62 92.0396 38.9196 88.2862C38.9876 87.4335 39.1275 83.942 39.229 80.5287C39.3305 77.1154 39.8318 74.3351 40.343 74.35C40.8542 74.3649 42.6637 75.4696 44.3656 76.8051ZM5.55367 88.8361C-0.274876 90.6209 -0.434545 90.7971 0.32048 94.5853C1.43321 100.163 3.7119 101.892 10.8537 102.581C17.9212 103.261 17.8408 103.41 16.348 92.4939C15.4643 86.0247 15.114 85.9056 5.55367 88.8361ZM87.2362 92.4939C85.7435 103.41 85.663 103.261 92.7305 102.581C99.8785 101.892 102.151 100.163 103.267 94.5642C104.036 90.7127 103.922 90.5973 97.5008 88.6859C93.8977 87.6122 90.2922 86.7347 89.4864 86.7347C88.6819 86.7347 87.6694 89.3263 87.2362 92.4939Z" fill="#FFBA57"/>
</svg>
