<svg width="14" height="18" viewBox="0 0 14 18" fill="none" xmlns="http://www.w3.org/2000/svg">
<path fill-rule="evenodd" clip-rule="evenodd" d="M6.76906 0H6.56271C4.57168 0 2.95703 1.78333 2.95703 3.98235V8.09154C2.95703 10.2912 4.57144 12.0739 6.56271 12.0739H6.76906C8.76033 12.0739 10.3747 10.2912 10.3747 8.09154V3.98235C10.3747 1.78333 8.76009 0 6.76906 0ZM6.56284 1.35453H6.76919C8.08288 1.35453 9.14844 2.53141 9.14844 3.98234V8.09154C9.14844 9.543 8.08317 10.7193 6.76919 10.7193H6.56284C5.24886 10.7193 4.18359 9.543 4.18359 8.09154V3.98234C4.18359 2.53141 5.24915 1.35453 6.56284 1.35453ZM12.7201 7.42112C13.0588 7.42112 13.3333 7.72434 13.3333 8.09839C13.3333 11.9373 10.6743 15.0894 7.27916 15.4308V17.3227C7.27916 17.6967 7.00461 18 6.66595 18C6.3555 18 6.09894 17.7452 6.05833 17.4146L6.05273 17.3227V15.4307C2.65828 15.0885 0 11.9368 0 8.09839C0 7.72434 0.274543 7.42112 0.61321 7.42112C0.951877 7.42112 1.22642 7.72434 1.22642 8.09839C1.22642 11.4173 3.66168 14.107 6.66666 14.107C9.67165 14.107 12.1069 11.4173 12.1069 8.09839C12.1069 7.72434 12.3815 7.42112 12.7201 7.42112Z" fill="#563E1F"/>
</svg>
