<svg width="20" height="20" viewBox="0 0 20 20" fill="none" xmlns="http://www.w3.org/2000/svg">
<path d="M4.16536 11.6667C2.3237 11.6667 0.832031 13.1584 0.832031 15.0001C0.832031 16.8417 2.3237 18.3334 4.16536 18.3334C6.00703 18.3334 7.4987 16.8417 7.4987 15.0001C7.4987 13.1584 6.00703 11.6667 4.16536 11.6667ZM4.9987 14.7334C4.9987 15.2417 4.7237 15.7251 4.29036 15.9834L3.65703 16.3667C3.55703 16.4334 3.44036 16.4584 3.33203 16.4584C3.1237 16.4584 2.91536 16.3501 2.7987 16.1584C2.6237 15.8667 2.71536 15.4751 3.01536 15.3001L3.6487 14.9167C3.70703 14.8834 3.7487 14.8084 3.7487 14.7417V13.9667C3.7487 13.6167 4.03203 13.3334 4.3737 13.3334C4.71536 13.3334 4.9987 13.6167 4.9987 13.9584V14.7334Z" fill="#E26B26"/>
<path d="M14.168 3.33325H5.83464C3.33464 3.33325 1.66797 4.58325 1.66797 7.49992V10.4666C1.66797 10.7749 1.98464 10.9666 2.25964 10.8416C3.0763 10.4666 4.01797 10.3249 5.00964 10.4999C7.2013 10.8916 8.80964 12.9249 8.7513 15.1499C8.74297 15.4999 8.69297 15.8416 8.6013 16.1749C8.53464 16.4333 8.74297 16.6749 9.00964 16.6749H14.168C16.668 16.6749 18.3346 15.4249 18.3346 12.5083V7.49992C18.3346 4.58325 16.668 3.33325 14.168 3.33325ZM10.0013 12.0833C8.8513 12.0833 7.91797 11.1499 7.91797 9.99992C7.91797 8.84992 8.8513 7.91658 10.0013 7.91658C11.1513 7.91658 12.0846 8.84992 12.0846 9.99992C12.0846 11.1499 11.1513 12.0833 10.0013 12.0833ZM16.043 11.6666C16.043 12.0083 15.7596 12.2916 15.418 12.2916C15.0763 12.2916 14.793 12.0083 14.793 11.6666V8.33325C14.793 7.99159 15.0763 7.70825 15.418 7.70825C15.7596 7.70825 16.043 7.99159 16.043 8.33325V11.6666Z" fill="#E26B26"/>
</svg>
