<svg width="20" height="20" viewBox="0 0 20 20" fill="none" xmlns="http://www.w3.org/2000/svg">
<path d="M14.168 3.33325H5.83464C3.33464 3.33325 1.66797 4.58325 1.66797 7.49992V10.4666C1.66797 10.7749 1.98464 10.9666 2.25964 10.8416C3.0763 10.4666 4.01797 10.3249 5.00964 10.4999C7.2013 10.8916 8.80964 12.9249 8.7513 15.1499C8.74297 15.4999 8.69297 15.8416 8.6013 16.1749C8.53464 16.4333 8.74297 16.6749 9.00964 16.6749H14.168C16.668 16.6749 18.3346 15.4249 18.3346 12.5083V7.49992C18.3346 4.58325 16.668 3.33325 14.168 3.33325ZM10.0013 12.0833C8.8513 12.0833 7.91797 11.1499 7.91797 9.99992C7.91797 8.84992 8.8513 7.91659 10.0013 7.91659C11.1513 7.91659 12.0846 8.84992 12.0846 9.99992C12.0846 11.1499 11.1513 12.0833 10.0013 12.0833ZM16.043 11.6666C16.043 12.0083 15.7596 12.2916 15.418 12.2916C15.0763 12.2916 14.793 12.0083 14.793 11.6666V8.33325C14.793 7.99159 15.0763 7.70825 15.418 7.70825C15.7596 7.70825 16.043 7.99159 16.043 8.33325V11.6666Z" fill="white"/>
<path d="M4.16536 11.6667C2.3237 11.6667 0.832031 13.1584 0.832031 15.0001C0.832031 15.6251 1.00703 16.2167 1.31536 16.7167C1.89036 17.6834 2.9487 18.3334 4.16536 18.3334C5.38203 18.3334 6.44036 17.6834 7.01537 16.7167C7.3237 16.2167 7.4987 15.6251 7.4987 15.0001C7.4987 13.1584 6.00703 11.6667 4.16536 11.6667ZM5.80703 14.7251L4.03203 16.3667C3.91536 16.4751 3.75703 16.5334 3.60703 16.5334C3.4487 16.5334 3.29036 16.4751 3.16536 16.3501L2.34036 15.5251C2.0987 15.2834 2.0987 14.8834 2.34036 14.6417C2.58203 14.4001 2.98203 14.4001 3.2237 14.6417L3.6237 15.0417L4.95703 13.8084C5.20703 13.5751 5.60703 13.5917 5.84036 13.8417C6.0737 14.0917 6.05703 14.4917 5.80703 14.7251Z" fill="white"/>
</svg>
