<svg width="24" height="24" viewBox="0 0 24 24" fill="none" xmlns="http://www.w3.org/2000/svg">
<path d="M11.9996 20.75C11.787 20.75 11.609 20.6781 11.4654 20.5344C11.3218 20.3907 11.25 20.2125 11.25 20V12.8135C10.2474 12.8135 9.28654 12.6238 8.36732 12.2443C7.44809 11.8648 6.63591 11.3225 5.93079 10.6173C5.22566 9.91223 4.68752 9.10006 4.31637 8.18082C3.94522 7.26161 3.75964 6.30072 3.75964 5.29815V4.6828C3.75964 4.42943 3.84534 4.21705 4.01672 4.04565C4.18812 3.87426 4.4005 3.78857 4.65387 3.78857H5.26922C6.25005 3.78857 7.19974 3.97992 8.11829 4.3626C9.03684 4.7453 9.84869 5.28921 10.5538 5.99432C11.0769 6.51741 11.5061 7.10171 11.8413 7.74722C12.1766 8.39274 12.4166 9.07832 12.5615 9.80395C12.6769 9.60395 12.8054 9.41452 12.9471 9.23567C13.0888 9.05682 13.2468 8.88022 13.4211 8.70585C14.1241 8.00188 14.9364 7.45827 15.8581 7.075C16.7798 6.69172 17.7405 6.50007 18.7403 6.50007H19.3557C19.6091 6.50007 19.8214 6.58577 19.9928 6.75717C20.1642 6.92857 20.2499 7.14095 20.2499 7.3943V8.00967C20.2499 9.00946 20.0583 9.97019 19.675 10.8919C19.2917 11.8136 18.7481 12.6259 18.0441 13.3289C17.339 14.034 16.531 14.5721 15.6201 14.9433C14.7092 15.3144 13.7525 15.5 12.7499 15.5V20C12.7499 20.2125 12.678 20.3907 12.5342 20.5344C12.3904 20.6781 12.2122 20.75 11.9996 20.75Z" fill="#E26B26"/>
</svg>
