<svg width="16" height="14" viewBox="0 0 16 14" fill="none" xmlns="http://www.w3.org/2000/svg">
<path fill-rule="evenodd" clip-rule="evenodd" d="M0.232096 0.158292C0.104358 0.286029 0 0.974862 0 1.68945V2.98816H3.04943C4.85639 2.98816 6.09886 3.12607 6.09886 3.32699C6.09886 3.52486 4.96651 3.66582 3.37945 3.66582H0.660032L0.753548 8.83291L0.847064 14H7.79299H14.7389L14.8324 8.83291L14.9259 3.66582H12.2065C10.6195 3.66582 9.48712 3.52486 9.48712 3.32699C9.48712 3.12607 10.736 2.98816 12.5559 2.98816H15.6249L15.5206 1.54816L15.4166 0.108146L7.94038 0.0170018C3.82873 -0.0328056 0.359833 0.0305548 0.232096 0.158292ZM8.80947 3.15758V5.69877H7.79299H6.77651V3.15758V0.616385H7.79299H8.80947V3.15758Z" fill="#FAA326"/>
</svg>
