<svg width="16" height="14" viewBox="0 0 16 14" fill="none" xmlns="http://www.w3.org/2000/svg">
<path fill-rule="evenodd" clip-rule="evenodd" d="M0.399308 0.399308C0.179689 0.618928 0 1.29276 0 1.89671V2.99481H7.65341C13.7112 2.99481 15.3068 2.90464 15.3068 2.56223C15.3068 1.51138 14.5042 1.33103 9.82997 1.33103C5.51179 1.33103 5.11947 1.27978 4.7358 0.665514C4.40537 0.136098 3.95981 0 2.55957 0C1.59091 0 0.618928 0.179689 0.399308 0.399308ZM0 8.41875C0 11.6761 0.126115 13.3033 0.399308 13.5765C0.963997 14.1412 14.3428 14.1412 14.9075 13.5765C15.1807 13.3033 15.3068 11.6761 15.3068 8.41875V3.66033H7.65341H0V8.41875ZM10.3987 6.2565C11.3863 7.10769 11.0851 8.16153 9.31719 10.0426L7.65341 11.8129L5.98962 10.0426C4.25796 8.20013 3.97046 7.26675 4.83862 6.30741C5.52277 5.55138 9.53781 5.51478 10.3987 6.2565Z" fill="#FAA326"/>
</svg>
