<svg width="129" height="129" viewBox="0 0 129 129" fill="none" xmlns="http://www.w3.org/2000/svg">
<g clip-path="url(#clip0_522_540)">
<path d="M87.3801 57.5185C81.3867 51.5245 73.2578 48.1568 64.7814 48.1563C56.3051 48.1558 48.1758 51.5225 42.1817 57.5159C36.1877 63.5092 32.82 71.6381 32.8195 80.1145C32.819 88.5908 36.1857 96.7202 42.1791 102.714L60.8592 120.984C61.9072 122.008 63.3143 122.582 64.7796 122.582C66.2449 122.582 67.652 122.008 68.6999 120.984L87.3801 102.714C93.3731 96.7207 96.74 88.5921 96.74 80.1164C96.74 71.6406 93.3731 63.512 87.3801 57.5185ZM64.7796 90.7028C62.6726 90.7028 60.6129 90.078 58.861 88.9075C57.1091 87.7369 55.7437 86.0731 54.9374 84.1265C54.1311 82.1799 53.9201 80.0379 54.3312 77.9715C54.7422 75.905 55.7568 74.0068 57.2467 72.5169C58.7366 71.027 60.6348 70.0124 62.7013 69.6014C64.7677 69.1903 66.9097 69.4013 68.8563 70.2076C70.8029 71.0139 72.4667 72.3793 73.6373 74.1312C74.8078 75.8831 75.4326 77.9428 75.4326 80.0498C75.4326 82.8751 74.3103 85.5848 72.3124 87.5826C70.3146 89.5805 67.6049 90.7028 64.7796 90.7028Z" fill="#E36E26"/>
<path d="M116.977 29.9043L79.6912 4.7417C75.2921 1.75169 70.0959 0.152939 64.7769 0.152939C59.4578 0.152939 54.2616 1.75169 49.8625 4.7417L12.5768 29.9043C8.9639 32.3424 6.00561 35.6311 3.96221 39.4811C1.91882 43.331 0.85296 47.6242 0.858419 51.9828V101.392C0.866877 108.453 3.67553 115.222 8.66829 120.215C13.6611 125.207 20.4303 128.016 27.4911 128.024H52.8134L34.7299 110.335C30.7291 106.392 27.5474 101.697 25.3677 96.5202C23.1881 91.3432 22.0534 85.7863 22.0291 80.1693C22.0048 74.5522 23.0913 68.9857 25.2261 63.7901C27.3609 58.5944 30.5019 53.8721 34.4683 49.8947C38.4348 45.9174 43.1485 42.7635 48.3383 40.6145C53.5281 38.4654 59.0915 37.3637 64.7086 37.3726C70.3258 37.3815 75.8857 38.5009 81.0686 40.6664C86.2516 42.8319 90.9552 46.0007 94.9091 49.9907C102.899 57.9819 107.388 68.8197 107.388 80.1202C107.388 91.4208 102.899 102.259 94.9091 110.25L76.7349 128.024H102.063C109.123 128.016 115.893 125.207 120.885 120.215C125.878 115.222 128.687 108.453 128.695 101.392V51.9828C128.697 47.6248 127.63 43.3328 125.587 39.4834C123.544 35.634 120.587 32.3448 116.977 29.9043Z" fill="#E36E26"/>
</g>
<defs>
<clipPath id="clip0_522_540">
<rect width="127.837" height="127.837" fill="white" transform="translate(0.859375 0.185547)"/>
</clipPath>
</defs>
</svg>
