<svg width="129" height="128" viewBox="0 0 129 128" fill="none" xmlns="http://www.w3.org/2000/svg">
<g clip-path="url(#clip0_522_517)">
<path d="M128.695 51.7969V101.206C128.687 108.267 125.878 115.036 120.885 120.029C115.893 125.021 109.123 127.83 102.063 127.839H96.7361C95.3234 127.839 93.9686 127.277 92.9697 126.279C91.9708 125.28 91.4096 123.925 91.4096 122.512C91.4096 121.099 91.9708 119.745 92.9697 118.746C93.9686 117.747 95.3234 117.186 96.7361 117.186H102.063C106.301 117.186 110.365 115.502 113.362 112.505C116.359 109.508 118.042 105.444 118.042 101.206V51.7969C118.042 49.1812 117.4 46.6054 116.173 44.2957C114.945 41.9859 113.169 40.0129 111.001 38.5498L73.7148 13.3926C71.0802 11.5965 67.9655 10.6359 64.7769 10.6359C61.5883 10.6359 58.4736 11.5965 55.8389 13.3926L18.5532 38.5498C16.3849 40.0129 14.6089 41.9859 13.3811 44.2957C12.1533 46.6054 11.5113 49.1812 11.5115 51.7969V101.206C11.5115 105.444 13.1951 109.508 16.1918 112.505C19.1886 115.502 23.2531 117.186 27.4911 117.186H32.8176C34.2303 117.186 35.5852 117.747 36.5841 118.746C37.583 119.745 38.1442 121.099 38.1442 122.512C38.1442 123.925 37.583 125.28 36.5841 126.279C35.5852 127.277 34.2303 127.839 32.8176 127.839H27.4911C20.4303 127.83 13.6611 125.021 8.6683 120.029C3.67553 115.036 0.866877 108.267 0.858419 101.206V51.7969C0.85296 47.4383 1.91882 43.1452 3.96222 39.2952C6.00561 35.4453 8.96391 32.1566 12.5768 29.7184L49.8626 4.55587C54.2584 1.57276 59.4485 -0.0220337 64.7609 -0.0220337C70.0733 -0.0220337 75.2634 1.57276 79.6592 4.55587L116.945 29.7184C120.561 32.1553 123.524 35.4429 125.573 39.2926C127.622 43.1422 128.694 47.4361 128.695 51.7969ZM102.063 79.937C102.076 84.8348 101.118 89.6866 99.2439 94.2115C97.3696 98.7364 94.6162 102.845 91.1432 106.298L72.4205 124.611C70.3708 126.595 67.6298 127.705 64.7769 127.705C61.924 127.705 59.1829 126.595 57.1333 124.611L38.4531 106.341C34.1088 102.01 30.9 96.6742 29.1114 90.8065C27.3227 84.9388 27.0094 78.7204 28.1992 72.7026C29.3889 66.6849 32.0451 61.0536 35.9321 56.3081C39.8191 51.5625 44.8169 47.8493 50.4825 45.4976C56.148 43.1459 62.3063 42.2283 68.4114 42.8263C74.5164 43.4242 80.3796 45.5192 85.4812 48.9255C90.5828 52.3317 94.7652 56.9441 97.6576 62.3536C100.55 67.7632 102.063 73.8028 102.063 79.937ZM91.4096 79.937C91.4096 75.5574 90.3296 71.2453 88.2652 67.3828C86.2007 63.5202 83.2156 60.2264 79.5742 57.793C75.9327 55.3597 71.7474 53.8619 67.3889 53.4324C63.0303 53.0029 58.6332 53.6548 54.5868 55.3305C50.5404 57.0063 46.9697 59.654 44.191 63.0393C41.4123 66.4245 39.5113 70.4428 38.6565 74.7382C37.8016 79.0336 38.0192 83.4736 39.2901 87.6648C40.5609 91.856 42.8458 95.6691 45.9422 98.7664L64.5851 116.994L83.6541 98.7237C86.1236 96.2597 88.0804 93.3309 89.4115 90.1064C90.7427 86.8818 91.4217 83.4255 91.4096 79.937ZM80.7565 79.8998C80.7565 83.0602 79.8193 86.1497 78.0634 88.7776C76.3076 91.4054 73.8119 93.4535 70.892 94.663C67.9721 95.8725 64.7592 96.1889 61.6594 95.5723C58.5597 94.9558 55.7124 93.4338 53.4776 91.1991C51.2428 88.9643 49.7209 86.117 49.1043 83.0172C48.4877 79.9175 48.8042 76.7045 50.0136 73.7846C51.2231 70.8647 53.2712 68.3691 55.8991 66.6132C58.5269 64.8573 61.6164 63.9201 64.7769 63.9201C69.0149 63.9201 73.0794 65.6037 76.0762 68.6005C79.0729 71.5972 80.7565 75.6617 80.7565 79.8998Z" fill="#A6A4A4"/>
</g>
<defs>
<clipPath id="clip0_522_517">
<rect width="127.837" height="127.837" fill="white" transform="translate(0.859375)"/>
</clipPath>
</defs>
</svg>
