<svg width="30" height="26" viewBox="0 0 30 26" fill="none" xmlns="http://www.w3.org/2000/svg">
<path d="M13.8197 18.6836H6.19217C2.7758 18.6836 0 15.6872 0 11.9913V11.8822C0 8.19281 2.7758 5.18994 6.19217 5.18994H13.8256C14.4781 5.18994 15 5.761 15 6.4668V17.4132C15 18.1126 14.4721 18.6836 13.8197 18.6836ZM6.19217 7.73725C4.07473 7.73725 2.35468 9.598 2.35468 11.8822V11.9913C2.35468 14.2755 4.07473 16.1363 6.19217 16.1363H12.6453V7.73725H6.19217Z" fill="white"/>
<path d="M28.7943 23.8734C28.6664 23.8734 28.5386 23.8483 28.4046 23.8107L12.8281 18.4646C12.3349 18.2953 12 17.8253 12 17.2863V6.59389C12 6.05489 12.3349 5.57856 12.8281 5.40933L28.4107 0.0631475C28.7821 -0.0622027 29.184 0.000471613 29.5007 0.238637C29.8112 0.470535 30 0.852853 30 1.24771V22.6325C30 23.0336 29.8112 23.4096 29.5007 23.6415C29.2936 23.7982 29.044 23.8734 28.7943 23.8734ZM14.4175 16.3837L27.5825 20.9089V2.98381L14.4175 7.49642V16.3837Z" fill="white"/>
<path d="M10.2671 25.9493H5.18123C4.79963 25.9493 4.44189 25.7573 4.22129 25.4415C4.00068 25.1194 3.94106 24.7045 4.0603 24.3329L6.60027 16.4119C6.76125 15.9102 7.21439 15.5696 7.72715 15.5696H12.813C13.1946 15.5696 13.5524 15.7616 13.773 16.0836C13.9996 16.3995 14.0592 16.8144 13.9399 17.1922L11.4 25.1194C11.233 25.6087 10.7799 25.9493 10.2671 25.9493ZM6.82087 23.4844H9.40854L11.1615 18.0221H8.57381L6.82087 23.4844Z" fill="white"/>
</svg>
