<svg width="129" height="123" viewBox="0 0 129 123" fill="none" xmlns="http://www.w3.org/2000/svg">
<rect x="11.7031" y="13.0137" width="7.77778" height="97.6027" fill="#EFEFEF"/>
<rect x="108.926" y="13.0137" width="7.77778" height="97.6027" fill="#EFEFEF"/>
<rect x="15.5898" y="20.8218" width="7.80822" height="97.2222" transform="rotate(-90 15.5898 20.8218)" fill="#EFEFEF"/>
<rect x="15.5898" y="110.616" width="7.80822" height="97.2222" transform="rotate(-90 15.5898 110.616)" fill="#EFEFEF"/>
<path d="M36.2209 19.5205C36.2209 28.1071 29.2915 35.0411 20.7765 35.0411C12.2615 35.0411 5.33203 28.1071 5.33203 19.5205C5.33203 10.934 12.2615 4 20.7765 4C29.2915 4 36.2209 10.934 36.2209 19.5205Z" fill="white" stroke="#EFEFEF" stroke-width="8"/>
<path d="M124.369 19.5205C124.369 28.1071 117.44 35.0411 108.925 35.0411C100.41 35.0411 93.4805 28.1071 93.4805 19.5205C93.4805 10.934 100.41 4 108.925 4C117.44 4 124.369 10.934 124.369 19.5205Z" fill="white" stroke="#EFEFEF" stroke-width="8"/>
<path d="M124.369 102.808C124.369 111.395 117.44 118.329 108.925 118.329C100.41 118.329 93.4805 111.395 93.4805 102.808C93.4805 94.2216 100.41 87.2876 108.925 87.2876C117.44 87.2876 124.369 94.2216 124.369 102.808Z" fill="white" stroke="#EFEFEF" stroke-width="8"/>
<path d="M34.924 102.808C34.924 111.395 27.9946 118.329 19.4796 118.329C10.9646 118.329 4.03516 111.395 4.03516 102.808C4.03516 94.2216 10.9646 87.2876 19.4796 87.2876C27.9946 87.2876 34.924 94.2216 34.924 102.808Z" fill="white" stroke="#EFEFEF" stroke-width="8"/>
</svg>
