<svg width="18" height="21" viewBox="0 0 18 21" fill="none" xmlns="http://www.w3.org/2000/svg">
<path fill-rule="evenodd" clip-rule="evenodd" d="M8.96292 0H8.88803C5.35043 0 2.10687 2.56679 1.79219 5.96501C1.7712 6.2081 1.7569 6.45651 1.74766 6.7241L1.73473 7.34973L1.73217 7.91065L1.74797 7.84671C1.60198 8.5586 1.26551 9.21893 0.773361 9.75847L0.702831 9.84921C0.281438 10.4893 0.0393149 11.2303 0.00183716 11.9954L0.000949138 12.2456C-0.0205644 13.2518 0.32426 14.2476 0.972961 15.0384C1.85266 15.9673 2.99141 16.5213 4.21361 16.6389C7.3395 16.9784 10.5021 16.9784 13.6367 16.638C14.8505 16.5263 15.9927 15.9706 16.8355 15.0761C17.4719 14.3148 17.8192 13.4011 17.849 12.4551L17.85 12.0317C17.8152 11.2329 17.5715 10.4913 17.1451 9.85391L17.0803 9.77073L16.922 9.58462C16.5665 9.14051 16.3068 8.62892 16.1591 8.08173L16.1123 7.88525L16.1026 7.6792C16.0997 7.58653 16.0982 7.48377 16.0978 7.35542L16.0976 6.64867C16.0952 6.37831 16.0872 6.18606 16.0685 5.96963C15.7431 2.565 12.4986 0 8.96292 0ZM8.88836 1.46509H8.96325C11.7956 1.46509 14.3794 3.50776 14.6276 6.1039C14.6423 6.27434 14.6488 6.43694 14.6508 6.6785L14.6536 7.62837C14.6568 7.78028 14.6627 7.90661 14.673 8.04876L14.6865 8.14606L14.7546 8.43564C14.9565 9.20166 15.3191 9.91627 15.8183 10.5324L15.963 10.7022L15.947 10.6755C16.2239 11.0893 16.3816 11.5695 16.4037 12.0646L16.403 12.2362C16.4197 12.9251 16.1913 13.5797 15.7591 14.098C15.1881 14.702 14.3718 15.0992 13.4943 15.1801C10.4507 15.5105 7.39158 15.5105 4.35959 15.1812C3.47249 15.0958 2.65558 14.6984 2.0517 14.0627C1.66024 13.5824 1.4343 12.9299 1.44848 12.2613L1.44865 12.0316L1.46699 11.8316C1.51117 11.497 1.62298 11.1578 1.7963 10.8455L1.88419 10.7001C2.52851 9.97536 2.9707 9.09416 3.16545 8.14448L3.18056 7.99558L3.18741 7.03034L3.20427 6.54063C3.21192 6.38615 3.22171 6.23937 3.23399 6.09709C3.47377 3.50788 6.05517 1.46509 8.88836 1.46509ZM1.88419 10.7001C1.86861 10.7176 1.85291 10.735 1.83709 10.7524L1.88882 10.6924L1.88419 10.7001ZM11.6634 18.5751C11.352 18.3215 10.8965 18.3715 10.6459 18.6867C10.5373 18.8233 10.4116 18.9459 10.2717 19.0515C9.79735 19.4235 9.20532 19.5892 8.61677 19.5191C8.02909 19.4491 7.49488 19.15 7.1324 18.6894C6.88335 18.373 6.42804 18.3209 6.11544 18.573C5.80284 18.8251 5.75133 19.286 6.00038 19.6024C6.60141 20.366 7.48213 20.8592 8.44763 20.9742C9.41227 21.0891 10.3836 20.8173 11.1476 20.2178C11.3744 20.0468 11.5884 19.8381 11.7736 19.6051C12.0242 19.2899 11.9748 18.8287 11.6634 18.5751Z" fill="white"/>
</svg>
