<svg width="68" height="105" viewBox="0 0 68 105" fill="none" xmlns="http://www.w3.org/2000/svg">
<path fill-rule="evenodd" clip-rule="evenodd" d="M5.27002 0.127784C3.15578 0.646547 1.19145 2.35035 0.460965 4.29936L0 5.52927V45.8862C0 85.2091 0.0105406 86.2709 0.414289 87.3316C0.944948 88.7256 1.71351 89.7247 2.86259 90.5138C4.69914 91.775 5.21108 91.8304 15.0499 91.8304H23.9988L24.3761 92.4679C24.5837 92.8188 25.3789 93.6571 26.1432 94.3313L27.5332 95.5569V100.005C27.5332 103.863 27.5784 104.47 27.8735 104.583C28.0606 104.655 33.4618 104.714 39.8762 104.714C48.6602 104.714 51.6023 104.65 51.7968 104.456C51.9801 104.273 52.0584 102.917 52.067 99.7858L52.079 95.3733L53.2143 94.4794C54.6555 93.3448 56.1989 91.0972 56.953 89.0341L57.54 87.4287L57.6072 73.9013C57.6532 64.6538 57.6009 60.1243 57.442 59.5847C57.1477 58.585 56.138 57.7289 55.0481 57.5547L54.2027 57.4199L54.258 44.0813L54.3135 30.7427L62.3898 30.6354C69.6232 30.5392 70.5262 30.4885 71.0431 30.1503C72.3015 29.3266 72.2927 29.4145 72.2271 18.5196L72.167 8.55359L71.6293 7.97192C70.5738 6.83026 70.3361 6.80148 61.9864 6.80148H54.266L54.1403 5.74249C53.8919 3.6494 52.4017 1.63125 50.3687 0.634737L49.151 0.037817L27.5332 0.00367648C15.6434 -0.0152188 5.62494 0.0406083 5.27002 0.127784ZM33.9697 4.99548C34.8407 5.72703 34.9009 6.98163 34.1035 7.77738L33.5756 8.30452H27.103H20.6303L20.1024 7.77738C19.3395 7.01599 19.3814 5.88742 20.2031 5.06719L20.8319 4.43957H27.0698H33.308L33.9697 4.99548ZM70.0375 8.6835C70.7196 9.13806 70.7689 9.82946 70.7689 18.9288V28.0783L70.2408 28.6052L69.7129 29.1323H56.8448C45.5463 29.1323 43.9184 29.0915 43.4988 28.798L43.0206 28.4639V18.8842C43.0206 10.2716 43.0565 9.26496 43.3766 8.91196C43.7141 8.53964 44.4104 8.51945 56.7668 8.52246C63.9355 8.52439 69.9074 8.59675 70.0375 8.6835ZM41.2998 20.8755C41.4189 29.6839 41.3996 29.5669 42.8612 30.3607C43.4508 30.6809 44.2643 30.7509 48.1293 30.8131L52.7002 30.887V44.1812V57.4753H51.37C50.4808 57.4753 49.746 57.6172 49.154 57.9032C48.2693 58.3307 48.2674 58.3307 47.4274 57.9032C46.2114 57.2844 41.781 57.2767 40.5732 57.8914C39.7607 58.3048 39.7506 58.3048 38.9095 57.8672C38.1477 57.4708 37.7646 57.4349 35.0654 57.509L32.0676 57.5912L32.0052 48.5687L31.9428 39.5462L31.3394 38.5216C29.348 35.14 24.3038 35.2877 22.532 38.7795L21.9405 39.9454L21.9358 53.0583L21.9313 66.1714L19.6234 69.2817L17.3158 72.3921L17.2467 75.6723L17.1779 78.9526L9.39548 78.8961L1.61327 78.8399L1.55799 46.0952C1.52766 28.0856 1.54896 13.2291 1.60553 13.081C1.68705 12.8669 5.77013 12.8226 21.4503 12.8662L41.1922 12.921L41.2998 20.8755ZM28.6044 38.0973C29.0161 38.3036 29.5728 38.8009 29.8412 39.2022L30.3295 39.9319V53.4135C30.3295 61.6533 30.411 67.1091 30.5392 67.4458C30.7625 68.0322 31.3588 68.1716 31.7922 67.7389C31.9731 67.5583 32.0503 66.3694 32.0503 63.7666C32.0503 58.9901 31.8976 59.1931 35.492 59.1931C39.0864 59.1931 38.9336 58.9901 38.9336 63.7666C38.9336 67.6002 39.0175 67.9966 39.8295 67.9966C40.5155 67.9966 40.6545 67.2508 40.6545 63.572C40.6545 58.9618 40.4802 59.192 43.9681 59.1963C45.399 59.1982 46.6926 59.2774 46.8425 59.3726C47.3551 59.6972 47.5378 61.0147 47.5378 64.3858C47.5378 66.5223 47.621 67.8078 47.7651 67.8967C47.8901 67.9738 48.2229 67.9792 48.5046 67.9087L49.0168 67.7803L49.0839 63.7911C49.1454 60.1331 49.1857 59.7764 49.5685 59.4975C49.8746 59.2742 50.6841 59.1931 52.6004 59.1931C54.8799 59.1931 55.2615 59.2444 55.5783 59.5942C55.913 59.9633 55.9371 61.0892 55.8805 73.8193L55.8192 87.6434L55.2303 89.0163C54.4568 90.8187 53.1859 92.4716 51.7284 93.5701L50.5492 94.4586V98.7272V102.996H39.794H29.0389V98.7307V94.4655L28.1553 93.8542C26.6874 92.8388 25.2307 91.0239 24.4753 89.2692L23.7751 87.6434L23.6357 75.4044C23.5589 68.6729 23.4849 58.089 23.4712 51.8844L23.4462 40.6035L23.9302 39.6471C24.8347 37.86 26.8193 37.2019 28.6044 38.0973ZM21.9405 77.3369C21.9405 81.7654 21.8678 85.3852 21.7792 85.3809C21.6906 85.3766 21.013 84.4789 20.2735 83.3862L18.9291 81.3994V77.1926V72.9856L20.2735 71.1405C21.013 70.1255 21.6906 69.2928 21.7792 69.29C21.8678 69.2872 21.9405 72.9083 21.9405 77.3369ZM21.3649 87.9655C21.2242 88.107 20.4346 87.1287 20.4359 86.8144C20.4365 86.68 20.6697 86.8597 20.9543 87.214C21.2388 87.5682 21.4236 87.9064 21.3649 87.9655Z" fill="#FFBA57"/>
</svg>
