<svg width="40" height="40" viewBox="0 0 40 40" fill="none" xmlns="http://www.w3.org/2000/svg">
<rect width="40" height="40" rx="20" fill="white"/>
<path d="M30.97 26.33C30.97 26.69 30.89 27.06 30.72 27.42C30.55 27.78 30.33 28.12 30.04 28.44C29.55 28.98 29.01 29.37 28.4 29.62C27.8 29.87 27.15 30 26.45 30C25.43 30 24.34 29.76 23.19 29.27C22.04 28.78 20.89 28.12 19.75 27.29C18.6 26.45 17.51 25.52 16.47 24.49C15.44 23.45 14.51 22.36 13.68 21.22C12.86 20.08 12.2 18.94 11.72 17.81C11.24 16.67 11 15.58 11 14.54C11 13.86 11.12 13.21 11.36 12.61C11.6 12 11.98 11.44 12.51 10.94C13.15 10.31 13.85 10 14.59 10C14.87 10 15.15 10.06 15.4 10.18C15.66 10.3 15.89 10.48 16.07 10.74L18.39 14.01C18.57 14.26 18.7 14.49 18.79 14.71C18.88 14.92 18.93 15.13 18.93 15.32C18.93 15.56 18.86 15.8 18.72 16.03C18.59 16.26 18.4 16.5 18.16 16.74L17.4 17.53C17.29 17.64 17.24 17.77 17.24 17.93C17.24 18.01 17.25 18.08 17.27 18.16C17.3 18.24 17.33 18.3 17.35 18.36C17.53 18.69 17.84 19.12 18.28 19.64C18.73 20.16 19.21 20.69 19.73 21.22C20.27 21.75 20.79 22.24 21.32 22.69C21.84 23.13 22.27 23.43 22.61 23.61C22.66 23.63 22.72 23.66 22.79 23.69C22.87 23.72 22.95 23.73 23.04 23.73C23.21 23.73 23.34 23.67 23.45 23.56L24.21 22.81C24.46 22.56 24.7 22.37 24.93 22.25C25.16 22.11 25.39 22.04 25.64 22.04C25.83 22.04 26.03 22.08 26.25 22.17C26.47 22.26 26.7 22.39 26.95 22.56L30.26 24.91C30.52 25.09 30.7 25.3 30.81 25.55C30.91 25.8 30.97 26.05 30.97 26.33Z" fill="#3A974C"/>
</svg>
