<svg width="26" height="26" viewBox="0 0 26 26" fill="none" xmlns="http://www.w3.org/2000/svg">
<mask id="path-1-outside-1_26_18378" maskUnits="userSpaceOnUse" x="0.234375" y="0.761719" width="25" height="25" fill="black">
<rect fill="white" x="0.234375" y="0.761719" width="25" height="25"/>
<path d="M11.4447 1.33561C4.51494 2.28457 -0.112259 9.08929 1.58718 15.8278C2.51406 19.5281 5.25798 22.603 8.86999 23.9933C15.8586 26.6931 23.6564 21.985 24.6567 14.4667C25.3556 9.19969 22.244 4.02073 17.168 2.00521C15.476 1.33561 13.2985 1.07833 11.4447 1.33561ZM13.2692 1.96105C13.5929 2.26273 13.946 3.16009 14.2402 4.38865C14.402 5.09497 14.6816 6.69121 14.6449 6.72793C14.5861 6.79417 12.5261 6.83089 11.9451 6.78673L11.3125 6.72793L11.3492 6.46321C11.4521 5.72761 11.8273 3.97681 12.0039 3.42505C12.3277 2.40241 12.6881 1.81393 12.9896 1.81393C13.0558 1.81393 13.1809 1.88017 13.2692 1.96105ZM11.9377 2.04937C11.4154 3.21169 11.1284 4.20481 10.8711 5.77177C10.7902 6.22777 10.7165 6.61777 10.6945 6.63241C10.6431 6.69121 9.15703 6.39697 8.36983 6.17641L7.69303 5.98513L7.96519 5.49961C8.86255 3.88129 10.0839 2.66737 11.3492 2.14513C11.8273 1.94617 11.9965 1.91689 11.9377 2.04937ZM14.6005 2.13745C15.5422 2.52001 16.4912 3.29977 17.2561 4.32241C17.6828 4.89625 18.2125 5.78641 18.2125 5.92609C18.2125 6.05113 16.903 6.39697 15.5422 6.63241C15.2185 6.68401 15.2552 6.75001 15.086 5.67601C15.0198 5.22721 14.8652 4.49161 14.7476 4.02817C14.5638 3.32185 14.4459 2.99089 14.0415 2.04937C13.9827 1.91689 14.1152 1.93897 14.6005 2.13745ZM9.57631 2.58625C8.86999 3.16729 7.96519 4.32241 7.43551 5.34481C7.31791 5.56561 7.2147 5.76409 7.20007 5.77873C7.15591 5.85217 5.25054 4.97689 5.28006 4.89601C5.31678 4.80049 6.3099 3.99865 6.75871 3.70441C7.43551 3.25561 8.38447 2.77753 9.11263 2.50537C9.48775 2.37289 9.83359 2.26273 9.88495 2.25529C9.94399 2.25529 9.80431 2.40241 9.57631 2.58625ZM16.7929 2.48329C17.5652 2.75545 18.4995 3.22633 19.2205 3.70441C19.7502 4.05745 20.6991 4.83001 20.7066 4.91089C20.714 4.99177 18.8233 5.83777 18.7717 5.77897C18.757 5.76433 18.6541 5.56561 18.5437 5.34505C18.0582 4.38865 17.1166 3.17497 16.4029 2.58649C16.1749 2.40265 16.0278 2.25553 16.0645 2.25553C16.1086 2.25529 16.4324 2.35825 16.7929 2.48329ZM5.36094 5.65393C5.61102 5.77897 6.06726 5.98489 6.37614 6.10993L6.93534 6.33793L6.65574 7.07353C6.1407 8.41969 5.78022 10.2075 5.66262 11.9434L5.61102 12.7011H3.69846H1.7931L1.8447 12.1272C2.02134 10.1556 2.65398 8.33857 3.7059 6.75697C4.11054 6.15361 4.72854 5.41801 4.8315 5.41801C4.86822 5.41849 5.11086 5.52145 5.36094 5.65393ZM21.5744 5.82313C22.9942 7.47841 23.9137 9.73681 24.1417 12.1644L24.1933 12.7015H22.2807H20.3682L20.2873 11.6496C20.1474 9.91345 19.7281 8.03017 19.2207 6.77977L19.0369 6.34585L19.677 6.08113C20.0226 5.93401 20.4788 5.72809 20.6775 5.61769C20.8834 5.51473 21.0822 5.42641 21.1335 5.41897C21.1772 5.41849 21.3759 5.60233 21.5744 5.82313ZM8.53903 6.82345C8.98783 6.93385 9.62047 7.08097 9.95887 7.13977C10.2973 7.19137 10.5915 7.25737 10.6136 7.27945C10.6282 7.30153 10.6136 7.67665 10.5694 8.11801C10.4665 9.10369 10.3414 11.2812 10.3414 12.0905V12.7013H8.27431H6.19974L6.2511 11.9069C6.35406 10.362 6.6999 8.56705 7.14126 7.33129C7.41343 6.57361 7.45759 6.49993 7.60471 6.55897C7.67095 6.58825 8.09767 6.70585 8.53903 6.82345ZM18.7791 7.19137C19.25 8.41993 19.6105 10.2663 19.7281 11.9436L19.7797 12.7013H17.72H15.6603L15.6087 11.2815C15.5794 10.5091 15.5132 9.29521 15.447 8.58889C15.3294 7.20577 15.3366 7.18393 15.7045 7.18393C15.9325 7.18393 17.4627 6.83809 17.985 6.66889C18.213 6.59521 18.4338 6.54385 18.4705 6.55129C18.5142 6.55873 18.6466 6.84553 18.7791 7.19137ZM14.755 7.40473C14.755 7.42681 14.8066 7.97113 14.8654 8.61865C14.917 9.26593 14.9905 10.4503 15.02 11.245L15.0716 12.7015H12.9896H10.9078L10.9594 11.2596C10.9889 10.4652 11.0552 9.28081 11.114 8.62609C11.1728 7.97881 11.2244 7.42705 11.2244 7.40497C11.2244 7.38289 12.0188 7.36825 12.9898 7.36825C13.9606 7.36801 14.755 7.38265 14.755 7.40473ZM5.66262 14.0403C5.78022 15.7985 6.16278 17.6523 6.68503 18.9984L6.93511 19.6531L6.5967 19.7856C6.41286 19.8593 5.93454 20.0727 5.53014 20.2637L4.80198 20.6095L4.44894 20.2123C3.03654 18.6379 2.05806 16.2545 1.8447 13.8564L1.7931 13.29H3.69846H5.61102L5.66262 14.0403ZM10.3412 13.9299C10.3412 14.7463 10.4588 16.8355 10.5692 17.8728C10.6133 18.3142 10.6354 18.6821 10.6205 18.6967C10.6059 18.7114 10.1645 18.8146 9.64207 18.9175C9.11239 19.0131 8.42095 19.1825 8.10463 19.278C7.78087 19.381 7.49407 19.4472 7.46455 19.4251C7.36159 19.3663 6.9423 18.1083 6.72894 17.2255C6.47886 16.1736 6.3243 15.1584 6.25086 14.077L6.1995 13.2898H8.27407H10.3412V13.9299ZM15.02 14.7022C14.9758 16.0116 14.895 17.2181 14.7846 18.2184L14.7404 18.6231H12.9821C12.0185 18.6231 11.2239 18.6084 11.2239 18.5863C11.2239 18.5643 11.1723 18.0125 11.1135 17.3652C11.0547 16.7105 10.9885 15.5261 10.9589 14.7317L10.9073 13.2898H12.9896H15.0714L15.02 14.7022ZM19.7281 14.0403C19.6472 15.2247 19.478 16.3279 19.2058 17.3727C18.9704 18.2921 18.632 19.3001 18.5218 19.4105C18.4923 19.44 18.1909 19.381 17.845 19.278C17.4992 19.1751 16.8078 19.0131 16.3002 18.9101C15.7926 18.8071 15.3733 18.7114 15.3586 18.7042C15.3512 18.6895 15.3879 18.1011 15.447 17.4022C15.5132 16.6959 15.5794 15.4822 15.6087 14.7024L15.6603 13.29H17.72H19.7797L19.7281 14.0403ZM24.1419 13.8195C24.0022 15.2981 23.5902 16.8209 23.0091 17.9683C22.634 18.7186 21.9351 19.7707 21.5084 20.2414L21.1774 20.6093L20.4493 20.2635C20.0446 20.0722 19.5666 19.8588 19.3753 19.7854L19.0369 19.6529L19.2207 19.2115C19.7283 17.9609 20.1476 16.0851 20.2873 14.3343L20.3682 13.2895H22.2807H24.1933L24.1419 13.8195ZM14.2916 19.219L14.6667 19.2703L14.63 19.5353C14.4387 20.9182 13.9458 22.8531 13.6369 23.4783C13.453 23.8459 13.1439 24.1771 12.9896 24.1771C12.6879 24.1771 12.3274 23.5887 12.0039 22.566C11.8273 22.0143 11.4521 20.2709 11.3492 19.5279L11.305 19.2557L11.6139 19.2262C12.1582 19.1823 13.8944 19.1748 14.2916 19.219ZM10.7458 19.4839C10.7605 19.5795 10.8341 19.9841 10.9004 20.3887C11.0696 21.4481 11.4154 22.728 11.7022 23.3976C11.8419 23.7211 11.9377 24.0007 11.923 24.0156C11.8642 24.0744 11.1949 23.8023 10.6798 23.5006C9.73087 22.9416 8.66407 21.7644 7.95799 20.4919L7.69327 20.0064L8.40679 19.8005C9.01735 19.6313 10.3047 19.3517 10.6138 19.3296C10.6649 19.3219 10.7237 19.3956 10.7458 19.4839ZM16.5133 19.5502C17.433 19.734 18.2127 19.9695 18.2127 20.0652C18.2127 20.2049 17.683 21.0951 17.2563 21.6689C16.4912 22.6913 15.5422 23.4713 14.6007 23.8536C13.9609 24.1186 13.9385 24.0965 14.2107 23.5299C14.527 22.8751 14.8508 21.7056 15.0493 20.4917C15.1376 19.9474 15.2257 19.4619 15.2406 19.4103C15.2701 19.3073 15.351 19.3147 16.5133 19.5502ZM7.42087 20.6167C7.88431 21.5583 8.85535 22.8163 9.57631 23.4048C9.80431 23.5887 9.95143 23.7358 9.91471 23.7358C9.87055 23.7358 9.54679 23.6328 9.18631 23.5078C8.41399 23.2356 7.47967 22.7647 6.75871 22.2867C6.18486 21.9041 5.27262 21.1611 5.27262 21.0655C5.26518 21.036 5.41974 20.9405 5.61846 20.8522C6.78822 20.3371 7.07503 20.2123 7.14126 20.2123C7.18543 20.2047 7.31047 20.3887 7.42087 20.6167ZM19.3602 20.4183C20.1841 20.7641 20.7138 21.0214 20.7063 21.073C20.6989 21.1687 19.7425 21.9336 19.1468 22.3236C18.8158 22.5444 18.2934 22.8461 17.9919 23.0004C17.4769 23.2579 16.2337 23.736 16.0719 23.736C16.0278 23.736 16.2044 23.5594 16.4619 23.3388C17.205 22.7136 18.2348 21.3598 18.6099 20.514C18.6836 20.3448 18.7717 20.2051 18.8012 20.2051C18.8305 20.2047 19.0806 20.3004 19.3602 20.4183Z"/>
</mask>
<path d="M11.4447 1.33561C4.51494 2.28457 -0.112259 9.08929 1.58718 15.8278C2.51406 19.5281 5.25798 22.603 8.86999 23.9933C15.8586 26.6931 23.6564 21.985 24.6567 14.4667C25.3556 9.19969 22.244 4.02073 17.168 2.00521C15.476 1.33561 13.2985 1.07833 11.4447 1.33561ZM13.2692 1.96105C13.5929 2.26273 13.946 3.16009 14.2402 4.38865C14.402 5.09497 14.6816 6.69121 14.6449 6.72793C14.5861 6.79417 12.5261 6.83089 11.9451 6.78673L11.3125 6.72793L11.3492 6.46321C11.4521 5.72761 11.8273 3.97681 12.0039 3.42505C12.3277 2.40241 12.6881 1.81393 12.9896 1.81393C13.0558 1.81393 13.1809 1.88017 13.2692 1.96105ZM11.9377 2.04937C11.4154 3.21169 11.1284 4.20481 10.8711 5.77177C10.7902 6.22777 10.7165 6.61777 10.6945 6.63241C10.6431 6.69121 9.15703 6.39697 8.36983 6.17641L7.69303 5.98513L7.96519 5.49961C8.86255 3.88129 10.0839 2.66737 11.3492 2.14513C11.8273 1.94617 11.9965 1.91689 11.9377 2.04937ZM14.6005 2.13745C15.5422 2.52001 16.4912 3.29977 17.2561 4.32241C17.6828 4.89625 18.2125 5.78641 18.2125 5.92609C18.2125 6.05113 16.903 6.39697 15.5422 6.63241C15.2185 6.68401 15.2552 6.75001 15.086 5.67601C15.0198 5.22721 14.8652 4.49161 14.7476 4.02817C14.5638 3.32185 14.4459 2.99089 14.0415 2.04937C13.9827 1.91689 14.1152 1.93897 14.6005 2.13745ZM9.57631 2.58625C8.86999 3.16729 7.96519 4.32241 7.43551 5.34481C7.31791 5.56561 7.2147 5.76409 7.20007 5.77873C7.15591 5.85217 5.25054 4.97689 5.28006 4.89601C5.31678 4.80049 6.3099 3.99865 6.75871 3.70441C7.43551 3.25561 8.38447 2.77753 9.11263 2.50537C9.48775 2.37289 9.83359 2.26273 9.88495 2.25529C9.94399 2.25529 9.80431 2.40241 9.57631 2.58625ZM16.7929 2.48329C17.5652 2.75545 18.4995 3.22633 19.2205 3.70441C19.7502 4.05745 20.6991 4.83001 20.7066 4.91089C20.714 4.99177 18.8233 5.83777 18.7717 5.77897C18.757 5.76433 18.6541 5.56561 18.5437 5.34505C18.0582 4.38865 17.1166 3.17497 16.4029 2.58649C16.1749 2.40265 16.0278 2.25553 16.0645 2.25553C16.1086 2.25529 16.4324 2.35825 16.7929 2.48329ZM5.36094 5.65393C5.61102 5.77897 6.06726 5.98489 6.37614 6.10993L6.93534 6.33793L6.65574 7.07353C6.1407 8.41969 5.78022 10.2075 5.66262 11.9434L5.61102 12.7011H3.69846H1.7931L1.8447 12.1272C2.02134 10.1556 2.65398 8.33857 3.7059 6.75697C4.11054 6.15361 4.72854 5.41801 4.8315 5.41801C4.86822 5.41849 5.11086 5.52145 5.36094 5.65393ZM21.5744 5.82313C22.9942 7.47841 23.9137 9.73681 24.1417 12.1644L24.1933 12.7015H22.2807H20.3682L20.2873 11.6496C20.1474 9.91345 19.7281 8.03017 19.2207 6.77977L19.0369 6.34585L19.677 6.08113C20.0226 5.93401 20.4788 5.72809 20.6775 5.61769C20.8834 5.51473 21.0822 5.42641 21.1335 5.41897C21.1772 5.41849 21.3759 5.60233 21.5744 5.82313ZM8.53903 6.82345C8.98783 6.93385 9.62047 7.08097 9.95887 7.13977C10.2973 7.19137 10.5915 7.25737 10.6136 7.27945C10.6282 7.30153 10.6136 7.67665 10.5694 8.11801C10.4665 9.10369 10.3414 11.2812 10.3414 12.0905V12.7013H8.27431H6.19974L6.2511 11.9069C6.35406 10.362 6.6999 8.56705 7.14126 7.33129C7.41343 6.57361 7.45759 6.49993 7.60471 6.55897C7.67095 6.58825 8.09767 6.70585 8.53903 6.82345ZM18.7791 7.19137C19.25 8.41993 19.6105 10.2663 19.7281 11.9436L19.7797 12.7013H17.72H15.6603L15.6087 11.2815C15.5794 10.5091 15.5132 9.29521 15.447 8.58889C15.3294 7.20577 15.3366 7.18393 15.7045 7.18393C15.9325 7.18393 17.4627 6.83809 17.985 6.66889C18.213 6.59521 18.4338 6.54385 18.4705 6.55129C18.5142 6.55873 18.6466 6.84553 18.7791 7.19137ZM14.755 7.40473C14.755 7.42681 14.8066 7.97113 14.8654 8.61865C14.917 9.26593 14.9905 10.4503 15.02 11.245L15.0716 12.7015H12.9896H10.9078L10.9594 11.2596C10.9889 10.4652 11.0552 9.28081 11.114 8.62609C11.1728 7.97881 11.2244 7.42705 11.2244 7.40497C11.2244 7.38289 12.0188 7.36825 12.9898 7.36825C13.9606 7.36801 14.755 7.38265 14.755 7.40473ZM5.66262 14.0403C5.78022 15.7985 6.16278 17.6523 6.68503 18.9984L6.93511 19.6531L6.5967 19.7856C6.41286 19.8593 5.93454 20.0727 5.53014 20.2637L4.80198 20.6095L4.44894 20.2123C3.03654 18.6379 2.05806 16.2545 1.8447 13.8564L1.7931 13.29H3.69846H5.61102L5.66262 14.0403ZM10.3412 13.9299C10.3412 14.7463 10.4588 16.8355 10.5692 17.8728C10.6133 18.3142 10.6354 18.6821 10.6205 18.6967C10.6059 18.7114 10.1645 18.8146 9.64207 18.9175C9.11239 19.0131 8.42095 19.1825 8.10463 19.278C7.78087 19.381 7.49407 19.4472 7.46455 19.4251C7.36159 19.3663 6.9423 18.1083 6.72894 17.2255C6.47886 16.1736 6.3243 15.1584 6.25086 14.077L6.1995 13.2898H8.27407H10.3412V13.9299ZM15.02 14.7022C14.9758 16.0116 14.895 17.2181 14.7846 18.2184L14.7404 18.6231H12.9821C12.0185 18.6231 11.2239 18.6084 11.2239 18.5863C11.2239 18.5643 11.1723 18.0125 11.1135 17.3652C11.0547 16.7105 10.9885 15.5261 10.9589 14.7317L10.9073 13.2898H12.9896H15.0714L15.02 14.7022ZM19.7281 14.0403C19.6472 15.2247 19.478 16.3279 19.2058 17.3727C18.9704 18.2921 18.632 19.3001 18.5218 19.4105C18.4923 19.44 18.1909 19.381 17.845 19.278C17.4992 19.1751 16.8078 19.0131 16.3002 18.9101C15.7926 18.8071 15.3733 18.7114 15.3586 18.7042C15.3512 18.6895 15.3879 18.1011 15.447 17.4022C15.5132 16.6959 15.5794 15.4822 15.6087 14.7024L15.6603 13.29H17.72H19.7797L19.7281 14.0403ZM24.1419 13.8195C24.0022 15.2981 23.5902 16.8209 23.0091 17.9683C22.634 18.7186 21.9351 19.7707 21.5084 20.2414L21.1774 20.6093L20.4493 20.2635C20.0446 20.0722 19.5666 19.8588 19.3753 19.7854L19.0369 19.6529L19.2207 19.2115C19.7283 17.9609 20.1476 16.0851 20.2873 14.3343L20.3682 13.2895H22.2807H24.1933L24.1419 13.8195ZM14.2916 19.219L14.6667 19.2703L14.63 19.5353C14.4387 20.9182 13.9458 22.8531 13.6369 23.4783C13.453 23.8459 13.1439 24.1771 12.9896 24.1771C12.6879 24.1771 12.3274 23.5887 12.0039 22.566C11.8273 22.0143 11.4521 20.2709 11.3492 19.5279L11.305 19.2557L11.6139 19.2262C12.1582 19.1823 13.8944 19.1748 14.2916 19.219ZM10.7458 19.4839C10.7605 19.5795 10.8341 19.9841 10.9004 20.3887C11.0696 21.4481 11.4154 22.728 11.7022 23.3976C11.8419 23.7211 11.9377 24.0007 11.923 24.0156C11.8642 24.0744 11.1949 23.8023 10.6798 23.5006C9.73087 22.9416 8.66407 21.7644 7.95799 20.4919L7.69327 20.0064L8.40679 19.8005C9.01735 19.6313 10.3047 19.3517 10.6138 19.3296C10.6649 19.3219 10.7237 19.3956 10.7458 19.4839ZM16.5133 19.5502C17.433 19.734 18.2127 19.9695 18.2127 20.0652C18.2127 20.2049 17.683 21.0951 17.2563 21.6689C16.4912 22.6913 15.5422 23.4713 14.6007 23.8536C13.9609 24.1186 13.9385 24.0965 14.2107 23.5299C14.527 22.8751 14.8508 21.7056 15.0493 20.4917C15.1376 19.9474 15.2257 19.4619 15.2406 19.4103C15.2701 19.3073 15.351 19.3147 16.5133 19.5502ZM7.42087 20.6167C7.88431 21.5583 8.85535 22.8163 9.57631 23.4048C9.80431 23.5887 9.95143 23.7358 9.91471 23.7358C9.87055 23.7358 9.54679 23.6328 9.18631 23.5078C8.41399 23.2356 7.47967 22.7647 6.75871 22.2867C6.18486 21.9041 5.27262 21.1611 5.27262 21.0655C5.26518 21.036 5.41974 20.9405 5.61846 20.8522C6.78822 20.3371 7.07503 20.2123 7.14126 20.2123C7.18543 20.2047 7.31047 20.3887 7.42087 20.6167ZM19.3602 20.4183C20.1841 20.7641 20.7138 21.0214 20.7063 21.073C20.6989 21.1687 19.7425 21.9336 19.1468 22.3236C18.8158 22.5444 18.2934 22.8461 17.9919 23.0004C17.4769 23.2579 16.2337 23.736 16.0719 23.736C16.0278 23.736 16.2044 23.5594 16.4619 23.3388C17.205 22.7136 18.2348 21.3598 18.6099 20.514C18.6836 20.3448 18.7717 20.2051 18.8012 20.2051C18.8305 20.2047 19.0806 20.3004 19.3602 20.4183Z" fill="#FAA326"/>
<path d="M11.4447 1.33561C4.51494 2.28457 -0.112259 9.08929 1.58718 15.8278C2.51406 19.5281 5.25798 22.603 8.86999 23.9933C15.8586 26.6931 23.6564 21.985 24.6567 14.4667C25.3556 9.19969 22.244 4.02073 17.168 2.00521C15.476 1.33561 13.2985 1.07833 11.4447 1.33561ZM13.2692 1.96105C13.5929 2.26273 13.946 3.16009 14.2402 4.38865C14.402 5.09497 14.6816 6.69121 14.6449 6.72793C14.5861 6.79417 12.5261 6.83089 11.9451 6.78673L11.3125 6.72793L11.3492 6.46321C11.4521 5.72761 11.8273 3.97681 12.0039 3.42505C12.3277 2.40241 12.6881 1.81393 12.9896 1.81393C13.0558 1.81393 13.1809 1.88017 13.2692 1.96105ZM11.9377 2.04937C11.4154 3.21169 11.1284 4.20481 10.8711 5.77177C10.7902 6.22777 10.7165 6.61777 10.6945 6.63241C10.6431 6.69121 9.15703 6.39697 8.36983 6.17641L7.69303 5.98513L7.96519 5.49961C8.86255 3.88129 10.0839 2.66737 11.3492 2.14513C11.8273 1.94617 11.9965 1.91689 11.9377 2.04937ZM14.6005 2.13745C15.5422 2.52001 16.4912 3.29977 17.2561 4.32241C17.6828 4.89625 18.2125 5.78641 18.2125 5.92609C18.2125 6.05113 16.903 6.39697 15.5422 6.63241C15.2185 6.68401 15.2552 6.75001 15.086 5.67601C15.0198 5.22721 14.8652 4.49161 14.7476 4.02817C14.5638 3.32185 14.4459 2.99089 14.0415 2.04937C13.9827 1.91689 14.1152 1.93897 14.6005 2.13745ZM9.57631 2.58625C8.86999 3.16729 7.96519 4.32241 7.43551 5.34481C7.31791 5.56561 7.2147 5.76409 7.20007 5.77873C7.15591 5.85217 5.25054 4.97689 5.28006 4.89601C5.31678 4.80049 6.3099 3.99865 6.75871 3.70441C7.43551 3.25561 8.38447 2.77753 9.11263 2.50537C9.48775 2.37289 9.83359 2.26273 9.88495 2.25529C9.94399 2.25529 9.80431 2.40241 9.57631 2.58625ZM16.7929 2.48329C17.5652 2.75545 18.4995 3.22633 19.2205 3.70441C19.7502 4.05745 20.6991 4.83001 20.7066 4.91089C20.714 4.99177 18.8233 5.83777 18.7717 5.77897C18.757 5.76433 18.6541 5.56561 18.5437 5.34505C18.0582 4.38865 17.1166 3.17497 16.4029 2.58649C16.1749 2.40265 16.0278 2.25553 16.0645 2.25553C16.1086 2.25529 16.4324 2.35825 16.7929 2.48329ZM5.36094 5.65393C5.61102 5.77897 6.06726 5.98489 6.37614 6.10993L6.93534 6.33793L6.65574 7.07353C6.1407 8.41969 5.78022 10.2075 5.66262 11.9434L5.61102 12.7011H3.69846H1.7931L1.8447 12.1272C2.02134 10.1556 2.65398 8.33857 3.7059 6.75697C4.11054 6.15361 4.72854 5.41801 4.8315 5.41801C4.86822 5.41849 5.11086 5.52145 5.36094 5.65393ZM21.5744 5.82313C22.9942 7.47841 23.9137 9.73681 24.1417 12.1644L24.1933 12.7015H22.2807H20.3682L20.2873 11.6496C20.1474 9.91345 19.7281 8.03017 19.2207 6.77977L19.0369 6.34585L19.677 6.08113C20.0226 5.93401 20.4788 5.72809 20.6775 5.61769C20.8834 5.51473 21.0822 5.42641 21.1335 5.41897C21.1772 5.41849 21.3759 5.60233 21.5744 5.82313ZM8.53903 6.82345C8.98783 6.93385 9.62047 7.08097 9.95887 7.13977C10.2973 7.19137 10.5915 7.25737 10.6136 7.27945C10.6282 7.30153 10.6136 7.67665 10.5694 8.11801C10.4665 9.10369 10.3414 11.2812 10.3414 12.0905V12.7013H8.27431H6.19974L6.2511 11.9069C6.35406 10.362 6.6999 8.56705 7.14126 7.33129C7.41343 6.57361 7.45759 6.49993 7.60471 6.55897C7.67095 6.58825 8.09767 6.70585 8.53903 6.82345ZM18.7791 7.19137C19.25 8.41993 19.6105 10.2663 19.7281 11.9436L19.7797 12.7013H17.72H15.6603L15.6087 11.2815C15.5794 10.5091 15.5132 9.29521 15.447 8.58889C15.3294 7.20577 15.3366 7.18393 15.7045 7.18393C15.9325 7.18393 17.4627 6.83809 17.985 6.66889C18.213 6.59521 18.4338 6.54385 18.4705 6.55129C18.5142 6.55873 18.6466 6.84553 18.7791 7.19137ZM14.755 7.40473C14.755 7.42681 14.8066 7.97113 14.8654 8.61865C14.917 9.26593 14.9905 10.4503 15.02 11.245L15.0716 12.7015H12.9896H10.9078L10.9594 11.2596C10.9889 10.4652 11.0552 9.28081 11.114 8.62609C11.1728 7.97881 11.2244 7.42705 11.2244 7.40497C11.2244 7.38289 12.0188 7.36825 12.9898 7.36825C13.9606 7.36801 14.755 7.38265 14.755 7.40473ZM5.66262 14.0403C5.78022 15.7985 6.16278 17.6523 6.68503 18.9984L6.93511 19.6531L6.5967 19.7856C6.41286 19.8593 5.93454 20.0727 5.53014 20.2637L4.80198 20.6095L4.44894 20.2123C3.03654 18.6379 2.05806 16.2545 1.8447 13.8564L1.7931 13.29H3.69846H5.61102L5.66262 14.0403ZM10.3412 13.9299C10.3412 14.7463 10.4588 16.8355 10.5692 17.8728C10.6133 18.3142 10.6354 18.6821 10.6205 18.6967C10.6059 18.7114 10.1645 18.8146 9.64207 18.9175C9.11239 19.0131 8.42095 19.1825 8.10463 19.278C7.78087 19.381 7.49407 19.4472 7.46455 19.4251C7.36159 19.3663 6.9423 18.1083 6.72894 17.2255C6.47886 16.1736 6.3243 15.1584 6.25086 14.077L6.1995 13.2898H8.27407H10.3412V13.9299ZM15.02 14.7022C14.9758 16.0116 14.895 17.2181 14.7846 18.2184L14.7404 18.6231H12.9821C12.0185 18.6231 11.2239 18.6084 11.2239 18.5863C11.2239 18.5643 11.1723 18.0125 11.1135 17.3652C11.0547 16.7105 10.9885 15.5261 10.9589 14.7317L10.9073 13.2898H12.9896H15.0714L15.02 14.7022ZM19.7281 14.0403C19.6472 15.2247 19.478 16.3279 19.2058 17.3727C18.9704 18.2921 18.632 19.3001 18.5218 19.4105C18.4923 19.44 18.1909 19.381 17.845 19.278C17.4992 19.1751 16.8078 19.0131 16.3002 18.9101C15.7926 18.8071 15.3733 18.7114 15.3586 18.7042C15.3512 18.6895 15.3879 18.1011 15.447 17.4022C15.5132 16.6959 15.5794 15.4822 15.6087 14.7024L15.6603 13.29H17.72H19.7797L19.7281 14.0403ZM24.1419 13.8195C24.0022 15.2981 23.5902 16.8209 23.0091 17.9683C22.634 18.7186 21.9351 19.7707 21.5084 20.2414L21.1774 20.6093L20.4493 20.2635C20.0446 20.0722 19.5666 19.8588 19.3753 19.7854L19.0369 19.6529L19.2207 19.2115C19.7283 17.9609 20.1476 16.0851 20.2873 14.3343L20.3682 13.2895H22.2807H24.1933L24.1419 13.8195ZM14.2916 19.219L14.6667 19.2703L14.63 19.5353C14.4387 20.9182 13.9458 22.8531 13.6369 23.4783C13.453 23.8459 13.1439 24.1771 12.9896 24.1771C12.6879 24.1771 12.3274 23.5887 12.0039 22.566C11.8273 22.0143 11.4521 20.2709 11.3492 19.5279L11.305 19.2557L11.6139 19.2262C12.1582 19.1823 13.8944 19.1748 14.2916 19.219ZM10.7458 19.4839C10.7605 19.5795 10.8341 19.9841 10.9004 20.3887C11.0696 21.4481 11.4154 22.728 11.7022 23.3976C11.8419 23.7211 11.9377 24.0007 11.923 24.0156C11.8642 24.0744 11.1949 23.8023 10.6798 23.5006C9.73087 22.9416 8.66407 21.7644 7.95799 20.4919L7.69327 20.0064L8.40679 19.8005C9.01735 19.6313 10.3047 19.3517 10.6138 19.3296C10.6649 19.3219 10.7237 19.3956 10.7458 19.4839ZM16.5133 19.5502C17.433 19.734 18.2127 19.9695 18.2127 20.0652C18.2127 20.2049 17.683 21.0951 17.2563 21.6689C16.4912 22.6913 15.5422 23.4713 14.6007 23.8536C13.9609 24.1186 13.9385 24.0965 14.2107 23.5299C14.527 22.8751 14.8508 21.7056 15.0493 20.4917C15.1376 19.9474 15.2257 19.4619 15.2406 19.4103C15.2701 19.3073 15.351 19.3147 16.5133 19.5502ZM7.42087 20.6167C7.88431 21.5583 8.85535 22.8163 9.57631 23.4048C9.80431 23.5887 9.95143 23.7358 9.91471 23.7358C9.87055 23.7358 9.54679 23.6328 9.18631 23.5078C8.41399 23.2356 7.47967 22.7647 6.75871 22.2867C6.18486 21.9041 5.27262 21.1611 5.27262 21.0655C5.26518 21.036 5.41974 20.9405 5.61846 20.8522C6.78822 20.3371 7.07503 20.2123 7.14126 20.2123C7.18543 20.2047 7.31047 20.3887 7.42087 20.6167ZM19.3602 20.4183C20.1841 20.7641 20.7138 21.0214 20.7063 21.073C20.6989 21.1687 19.7425 21.9336 19.1468 22.3236C18.8158 22.5444 18.2934 22.8461 17.9919 23.0004C17.4769 23.2579 16.2337 23.736 16.0719 23.736C16.0278 23.736 16.2044 23.5594 16.4619 23.3388C17.205 22.7136 18.2348 21.3598 18.6099 20.514C18.6836 20.3448 18.7717 20.2051 18.8012 20.2051C18.8305 20.2047 19.0806 20.3004 19.3602 20.4183Z" stroke="#FAA326" stroke-width="0.6" mask="url(#path-1-outside-1_26_18378)"/>
</svg>
