<svg width="14" height="14" viewBox="0 0 14 14" fill="none" xmlns="http://www.w3.org/2000/svg">
<path fill-rule="evenodd" clip-rule="evenodd" d="M1.53185 4.64665L1.4898 8.83526C1.48719 9.09445 1.28694 9.30868 1.02851 9.32874L0.742599 9.35093L0.461312 9.37283C0.200959 9.39311 5.60614e-05 9.61032 0.000128692 9.87146L0.000349433 10.6651C0.000524162 12.0976 0.338101 12.9937 1.10481 13.5981C1.5785 13.9713 1.81212 13.9869 6.96593 13.9869C14.4802 13.9869 13.8702 14.6712 13.9455 6.15723L13.9955 0.504427C13.998 0.226565 13.7734 0 13.4956 0H7.78925H2.07366C1.79949 0 1.57645 0.220799 1.57369 0.494961L1.53185 4.64665ZM12.3649 6.78542C12.3228 11.5808 12.2901 12.0879 12.0126 12.2758C11.7902 12.4265 11.6235 12.4267 11.4011 12.2765C11.1655 12.1175 11.0834 11.7619 11.0439 10.7286L11.011 9.86803C11.0007 9.59953 10.78 9.38716 10.5113 9.38716H6.98148H3.4704C3.19425 9.38716 2.9704 9.16331 2.9704 8.88716V5.44456V2.00195C2.9704 1.7258 3.19425 1.50195 3.4704 1.50195H7.69088H11.9068C12.1846 1.50195 12.4092 1.72848 12.4068 2.00633L12.3649 6.78542ZM4.40195 3.8018C4.45542 4.59783 4.45717 4.59971 5.15451 4.59971C5.85185 4.59971 5.8536 4.59783 5.90707 3.8018L5.92489 3.53754C5.94437 3.24881 5.71541 3.00389 5.42603 3.00389H5.15451H4.88299C4.59361 3.00389 4.36465 3.24881 4.38413 3.53754L4.40195 3.8018ZM7.33862 3.85531V4.19156C7.33862 4.47356 7.57169 4.69976 7.85356 4.69134L9.1296 4.65322L10.4671 4.61326C10.7243 4.60557 10.9337 4.40383 10.951 4.14702L10.9742 3.8018L10.992 3.53754C11.0115 3.24881 10.7826 3.00389 10.4932 3.00389H9.18324H7.83862C7.56248 3.00389 7.33862 3.22775 7.33862 3.50389V3.85531ZM4.36823 6.9465V7.19747C4.36823 7.47362 4.59209 7.69747 4.86823 7.69747H5.15451H5.44079C5.71693 7.69747 5.94079 7.47362 5.94079 7.19747V6.9465V6.69553C5.94079 6.41939 5.71693 6.19553 5.44079 6.19553H5.15451H4.86823C4.59209 6.19553 4.36823 6.41939 4.36823 6.69553V6.9465ZM7.33862 6.9465V7.19747C7.33862 7.47362 7.56248 7.69747 7.83862 7.69747H9.17328H10.5079C10.7841 7.69747 11.0079 7.47362 11.0079 7.19747V6.9465V6.69553C11.0079 6.41939 10.7841 6.19553 10.5079 6.19553H9.17328H7.83862C7.56248 6.19553 7.33862 6.41939 7.33862 6.69553V6.9465ZM9.43538 11.0534C9.43538 11.1437 9.48447 11.4816 9.54458 11.8044C9.60136 12.1094 9.36728 12.3911 9.05701 12.3911H5.82285C1.69889 12.3911 1.57256 12.362 1.57256 11.4148V11.3891C1.57256 11.113 1.79642 10.8891 2.07256 10.8891H5.50397C7.66624 10.8891 9.43538 10.9631 9.43538 11.0534Z" fill="#A8A8A8"/>
</svg>
