<svg width="118" height="148" viewBox="0 0 118 148" fill="none" xmlns="http://www.w3.org/2000/svg">
<path fill-rule="evenodd" clip-rule="evenodd" d="M16.2614 0.341857C9.0394 1.32386 4.71467 3.17103 3.31635 5.87141C-1.15711 14.5088 -1.09635 32.3351 3.44709 44.5275C5.88455 51.0683 6.92709 52.3758 20.3664 65.7504C27.4649 72.8149 33.6847 78.8166 34.1883 79.088C34.981 79.5151 36.4031 78.3057 44.7848 70.0743L54.4656 60.567L57.8503 64.0435C60.592 66.8593 61.1816 67.7302 60.9532 68.6274C60.7738 69.3317 60.9512 69.9642 61.4402 70.364C62.0856 70.8916 62.369 70.8514 63.1953 70.115C64.1673 69.2479 64.3384 69.3921 76.0659 80.9376C82.6031 87.373 87.9514 92.8581 87.9514 93.1257C87.9514 93.3938 83.9314 97.5689 79.0181 102.404L70.0848 111.194L67.5594 110.368C64.178 109.262 58.8817 109.549 55.8338 111.004C54.6095 111.588 50.5632 114.504 46.8421 117.483C38.3701 124.266 37.1497 126.414 39.1225 131.065C40.0425 133.233 52.938 146.165 55.2661 147.253C57.3565 148.23 60.6805 148.245 62.5624 147.286C64.4317 146.334 74.2778 134.602 76.0805 131.179C77.2805 128.9 77.4628 128.02 77.4647 124.486C77.4667 121.614 77.2314 119.982 76.6657 118.944L75.8637 117.472L85.1883 108.3L94.5128 99.1273L103.802 108.191L113.091 117.255L112.134 120.033C110.874 123.69 111.234 127.498 113.213 131.428C114.89 134.758 124.591 146.317 126.564 147.335C128.167 148.163 131.386 148.228 133.39 147.473C135.465 146.691 148.618 133.77 149.724 131.428C150.836 129.072 150.891 126.807 149.885 124.719C148.936 122.75 137.203 113.044 133.565 111.22C130.178 109.522 125.137 109.167 121.464 110.369L118.936 111.196L109.791 102.16L100.647 93.1247L117.341 76.3728C133.503 60.1547 134.065 59.6472 134.969 60.453C136.119 61.4786 136.739 61.5016 137.544 60.5469C138.002 60.003 138.023 59.6673 137.623 59.2733C137.223 58.8793 137.609 58.1156 139.09 56.3737C140.196 55.0729 141.402 53.8941 141.772 53.7543C142.194 53.5953 148.238 59.1929 157.977 68.7639C166.519 77.159 174.138 84.3255 174.908 84.6889C175.842 85.1309 176.929 85.2352 178.181 85.0044C180.148 84.641 181.235 83.6725 189.046 75.3233L192.692 71.4269L196.458 71.1032C200.22 70.7796 200.225 70.7772 200.225 69.3839V67.9882H196.078C193.649 67.9882 191.284 68.2602 190.367 68.6447C189.507 69.0061 187.012 70.8375 184.823 72.7144C182.634 74.5917 180.652 76.1277 180.417 76.1277C180.184 76.1277 178.437 74.5869 176.537 72.7043L173.083 69.2805L176.537 65.4028C178.437 63.2698 180.35 61.2694 180.788 60.9577C181.227 60.646 183.481 60.2395 185.797 60.0547C190.278 59.6965 191.623 59.0219 190.505 57.6942C190.042 57.1451 188.777 56.9761 185.13 56.9761C182.507 56.9761 179.824 57.1772 179.169 57.4228C178.513 57.6684 176.078 59.4998 173.758 61.4925C171.438 63.4852 169.32 65.1155 169.051 65.1155C168.261 65.1155 163.778 60.6331 163.784 59.8488C163.787 59.4538 165.59 57.2298 167.791 54.9067L171.792 50.6828L176.263 50.4085C179.576 50.2055 180.805 49.9508 181.01 49.4251C181.62 47.858 180.332 47.4003 175.314 47.4003C169.644 47.4003 169.212 47.5908 163.081 52.7938L159.231 56.0621L156.641 53.5431C155.217 52.1575 154.052 50.7987 154.052 50.5234C154.052 49.7315 161.235 41.75 162.186 41.4838C162.658 41.3522 164.864 41.0975 167.089 40.9179C171.394 40.5703 172.608 39.7717 170.806 38.4732C169.66 37.6478 161.935 37.5937 160.029 38.398C159.281 38.7136 156.774 40.5449 154.457 42.4678C152.14 44.3906 149.945 45.9639 149.579 45.9639C148.88 45.9639 144.331 41.661 144.331 40.9998C144.331 40.1566 151.827 32.0498 152.783 31.8587C153.347 31.7462 155.41 31.5619 157.368 31.4489C161.042 31.2377 162.157 30.7403 161.683 29.5237C161.297 28.5316 153.661 27.9255 151.095 28.6829C149.988 29.0094 147.293 30.8408 144.554 33.1266L139.897 37.0148L137.254 34.4437C135.8 33.0294 134.611 31.6811 134.611 31.4474C134.611 30.8169 141.402 23.3152 142.584 22.6396C143.144 22.3198 145.024 22.0478 146.761 22.0349C151.099 22.0023 152.194 21.6629 152.012 20.406C151.879 19.4901 151.441 19.3561 147.529 19.0353C144.991 18.8275 142.464 18.8734 141.434 19.1468C140.388 19.424 137.823 21.1697 135.107 23.4521C132.595 25.5636 130.409 27.2911 130.249 27.2911C130.091 27.2911 128.786 26.1195 127.35 24.6869C124.273 21.6179 124.151 22.0382 129.818 16.1577L133.396 12.4452L137.284 12.4395C141.542 12.4332 142.573 12.0794 142.308 10.7153C142.151 9.91144 141.576 9.80084 136.921 9.67923C130.743 9.51835 130.479 9.62081 124.9 14.3551C122.722 16.2032 120.783 17.7152 120.59 17.7152C120.397 17.7152 119.073 16.5513 117.646 15.1288L115.053 12.5419L118.834 8.2079C120.914 5.82401 122.954 3.74606 123.366 3.58997C123.779 3.43388 125.876 3.17965 128.027 3.02404C132.45 2.70469 133.383 2.27665 132.639 0.907308C132.206 0.109643 131.559 0 127.279 0C121.336 0 120.936 0.180025 114.373 5.80581C106.857 12.2479 105.987 13.5201 106.638 17.1201C106.92 18.6781 108.772 20.678 120.827 32.439C128.452 39.8785 134.618 46.1348 134.529 46.3421C134.441 46.549 133.339 47.644 132.082 48.7749C130.457 50.2376 129.53 50.7475 128.871 50.5411C127.464 50.1016 126.466 51.4977 127.275 52.7742C127.855 53.6882 127.256 54.3983 119.131 62.4309C114.308 67.1992 106.896 74.6018 102.66 78.8807C98.4235 83.1597 94.7466 86.6611 94.4885 86.6611C94.2305 86.6611 88.6741 81.3925 82.1413 74.9527C70.4211 63.4 70.2748 63.2315 71.155 62.2739C71.9025 61.4599 71.9434 61.1808 71.4078 60.545C71.0432 60.1121 70.337 59.8871 69.7611 60.0202C69.0145 60.1931 67.8077 59.3944 65.1093 56.9421L61.4655 53.6308L71.1161 44.1148C78.7717 36.5667 80.7051 34.4073 80.4684 33.6714C79.9678 32.1192 54.608 8.07289 51.4459 6.15294C47.8584 3.97444 40.4766 1.6073 34.4561 0.70478C30.2523 0.0742126 19.7657 -0.13454 16.2614 0.341857ZM64.3787 115.815C66.8668 116.946 69.8452 119.88 70.9937 122.331C72.0109 124.502 72.201 128.799 71.3504 130.382C70.6777 131.633 65.6084 137.797 64.318 138.933C63.4135 139.729 62.0195 140.024 59.8455 139.882C58.2508 139.776 47.8181 129.667 47.1036 127.535C46.1369 124.65 46.8417 123.33 51.3112 119.652C53.5689 117.794 56.0112 115.969 56.7383 115.595C58.5633 114.657 62.0536 114.757 64.3787 115.815ZM134.852 117.302C140.31 121.45 142.387 123.675 142.387 125.372C142.387 127.74 141.431 129.09 135.971 134.422C128.581 141.641 127.114 141.774 121.823 135.704C117.97 131.285 117.113 129.637 117.113 126.64C117.113 123.769 118.052 121.667 120.506 119.045C123.384 115.969 125.926 114.814 129.341 115.03C131.71 115.18 132.473 115.494 134.852 117.302Z" fill="#FFB141"/>
</svg>
