<svg width="17" height="17" viewBox="0 0 17 17" fill="none" xmlns="http://www.w3.org/2000/svg">
<path d="M0.75 5.47624C0.75 5.35689 0.797411 5.24243 0.881802 5.15804L5.15804 0.881802C5.24243 0.797411 5.35689 0.75 5.47624 0.75L11.5238 0.75C11.6431 0.75 11.7576 0.797411 11.842 0.881802L12.3723 0.351472L11.842 0.881802L16.1182 5.15804C16.2026 5.24243 16.25 5.35689 16.25 5.47624V11.5238C16.25 11.6431 16.2026 11.7576 16.1182 11.842L11.842 16.1182C11.7576 16.2026 11.6431 16.25 11.5238 16.25H5.47624C5.35689 16.25 5.24243 16.2026 5.15804 16.1182L0.881802 11.842C0.79741 11.7576 0.75 11.6431 0.75 11.5238L0.75 5.47624Z" stroke="#EA1F44" stroke-width="1.5"/>
<path d="M8.40469 13.0359C8.87413 13.0359 9.25469 12.6554 9.25469 12.1859C9.25469 11.7165 8.87413 11.3359 8.40469 11.3359C7.93525 11.3359 7.55469 11.7165 7.55469 12.1859C7.55469 12.6554 7.93525 13.0359 8.40469 13.0359Z" fill="#EA1F44"/>
<path d="M7.55469 4.1793C7.55469 3.95838 7.73377 3.7793 7.95469 3.7793H8.85469C9.0756 3.7793 9.25469 3.95838 9.25469 4.1793V9.99041C9.25469 10.2113 9.0756 10.3904 8.85469 10.3904H7.95469C7.73377 10.3904 7.55469 10.2113 7.55469 9.99041V4.1793Z" fill="#EA1F44"/>
</svg>
