<svg width="11" height="16" viewBox="0 0 11 16" fill="none" xmlns="http://www.w3.org/2000/svg">
<path d="M2.94351 0.98864L7.82237 0.969811C9.75417 0.962355 10.7687 1.75596 10.7751 3.42065L10.8227 15.7524C10.8229 15.8039 10.8045 15.8533 10.7716 15.8898C10.7386 15.9263 10.6938 15.947 10.647 15.9471C10.6172 15.9466 10.5789 15.9363 10.5442 15.9169L5.95586 13.1936C5.61316 12.9919 5.2032 12.9934 4.86373 13.1969L0.309319 15.9644C0.240215 16.0041 0.141152 15.9787 0.0881141 15.8999L0.057294 15.8455C0.0669375 15.8601 0.0579756 15.8221 0.05724 15.7834L0.0103655 3.61702C0.00347155 1.83072 0.986608 0.996192 2.94351 0.98864Z" fill="#FAA326"/>
</svg>
