<svg width="11" height="15" viewBox="0 0 11 15" fill="none" xmlns="http://www.w3.org/2000/svg">
<path d="M3.34402 1.04697L7.50115 1.03095C9.14718 1.0246 10.0116 1.69998 10.0171 3.11667L10.0577 13.6113C10.0578 13.6551 10.0421 13.6972 10.0141 13.7282C9.98599 13.7593 9.94782 13.7768 9.90794 13.777C9.88255 13.7766 9.8499 13.7678 9.82031 13.7512L5.91075 11.4337C5.61875 11.262 5.26943 11.2633 4.98018 11.4365L1.0995 13.7917C1.04062 13.8255 0.956209 13.8038 0.911017 13.7368L0.884756 13.6905C0.892973 13.703 0.885337 13.6706 0.88471 13.6377L0.84477 3.28379C0.838896 1.76361 1.6766 1.0534 3.34402 1.04697Z" stroke="#563E1F" stroke-width="1.5"/>
</svg>
