<svg width="20" height="24" viewBox="0 0 20 24" fill="none" xmlns="http://www.w3.org/2000/svg">
<path d="M10.9904 12.7293C10.9904 12.2661 10.6208 11.7812 9.97279 11.7812C9.39439 11.7812 9.02479 12.1509 9.02479 12.7293C9.02479 12.89 9.02479 13.0988 9.13999 13.262C9.18559 13.3772 9.41839 13.4228 9.41839 13.586C9.41839 13.7012 8.93359 14.534 8.93359 14.6276C8.93359 14.7884 8.97919 14.7428 8.97919 14.7884H11.06L11.1056 14.6276C11.1056 14.5124 10.6208 13.6796 10.6208 13.586C10.6208 13.3532 10.9904 13.0748 10.9904 12.7293Z" fill="#FAA326"/>
<path d="M19.1541 2.64503H17.9277C16.0077 2.64503 12.5157 1.74263 11.1285 0.818634C10.7805 0.609834 10.3893 0.240234 9.97174 0.240234C9.71734 0.240234 8.05174 1.23383 7.68214 1.39703C7.03414 1.65143 6.41014 1.86023 5.83174 2.02103C5.46214 2.11463 5.09254 2.22983 4.72054 2.27543C3.86374 2.43623 2.96374 2.55383 2.06134 2.64503H0.789338C0.465338 2.64503 0.210938 3.10823 0.210938 3.26903L0.258938 5.95223C0.489338 7.94183 0.628538 10.0466 1.11574 12.0338C1.64854 14.1842 2.34214 16.4978 3.65974 18.5786C4.07494 19.3178 4.72294 19.9898 5.25574 20.729C5.74054 21.4706 9.02374 23.7602 9.97174 23.7602C10.3413 23.7602 11.5221 23.1362 11.6589 23.0906C16.6557 20.2682 18.1365 15.1106 18.9909 11.2946C19.3605 9.55943 19.5693 7.57223 19.7301 5.88263L19.7757 4.05623C19.8021 3.70823 19.8477 2.80823 19.1541 2.64503ZM14.4357 15.9194C14.3901 16.1282 13.9509 16.8674 13.5333 16.8674H6.41014C5.97094 16.8218 5.53174 16.3346 5.55334 15.989V10.9946C5.66854 10.3706 6.08614 10.1162 6.66454 10.001V7.73543C7.07974 5.70023 8.51494 4.96103 9.94774 4.96103C11.1045 4.96103 12.3309 5.37623 13.0245 6.95063C13.1397 7.15943 13.2789 7.62023 13.2789 7.78343V9.97943C13.6485 10.025 14.3901 10.5578 14.3901 10.973V15.9218H14.4357V15.9194Z" fill="#FAA326"/>
<path d="M9.97363 6.57617C9.23443 6.57617 8.54083 6.94577 8.33203 8.05697V9.99857H11.6848V8.05697C11.6632 7.22417 10.7824 6.57617 9.97363 6.57617Z" fill="#FAA326"/>
</svg>
