<svg width="22" height="28" viewBox="0 0 22 28" fill="none" xmlns="http://www.w3.org/2000/svg">
<path d="M15.4238 14.4572C14.6571 13.0705 13.3298 12.0377 11.7374 11.6543C10.6463 12.274 9.40776 12.6279 8.08052 12.6279C6.75349 12.6279 5.48528 12.274 4.42361 11.6543C1.88741 12.2443 0 14.5162 0 17.2012V20.0337C0 20.6828 0.530729 21.2138 1.17953 21.2138H8.43425C8.43425 24.9609 11.4718 27.9998 15.2171 27.9998C18.9625 27.9998 22 24.9609 22 21.2138C22 17.5552 19.0805 14.5753 15.4236 14.4572L15.4238 14.4572ZM15.2172 26.4656C12.3272 26.4656 9.99732 24.1051 9.99732 21.2432C9.99732 18.3518 12.3566 16.0208 15.2172 16.0208C18.1073 16.0208 20.4372 18.3812 20.4372 21.2432C20.4372 24.1051 18.1075 26.4656 15.2172 26.4656Z" fill="#F39A00"/>
<path d="M15.4238 20.5948H14.9519C14.6569 20.5948 14.3915 20.3881 14.3621 20.1226C14.3031 19.7686 14.5686 19.4441 14.9225 19.4441H15.5713C15.7482 19.4441 15.9251 19.562 15.9547 19.7392C15.9841 19.7983 16.0138 19.8571 16.1022 19.8571H17.1345C17.223 19.8571 17.282 19.7981 17.282 19.7096C17.223 18.9425 16.6332 18.3523 15.8665 18.2049L15.8661 17.2608C15.8661 17.1723 15.807 17.1133 15.7186 17.1133H14.6863C14.5978 17.1133 14.5388 17.1723 14.5388 17.2608V18.1754C13.654 18.3524 12.9758 19.1785 13.0348 20.1228C13.0939 21.1259 13.9786 21.8635 14.9813 21.8635H15.3647C15.7185 21.8635 15.9841 22.0701 16.0135 22.3356C16.0726 22.6896 15.807 23.0142 15.4531 23.0142H14.8043C14.6274 23.0142 14.4505 22.8963 14.4209 22.7191C14.3915 22.66 14.3619 22.6011 14.2734 22.6011H13.2411C13.1527 22.6011 13.0936 22.6602 13.0936 22.7487C13.1527 23.5158 13.7424 24.106 14.5091 24.2534V25.1976C14.5091 25.2861 14.5682 25.3452 14.6566 25.3452L15.7187 25.345C15.8072 25.345 15.8662 25.2859 15.8662 25.1974V24.2828C16.751 24.1058 17.4292 23.2797 17.3702 22.3355C17.3111 21.3324 16.4264 20.5948 15.4237 20.5948L15.4238 20.5948Z" fill="#F39A00"/>
<path d="M13.3029 5.22237C13.3029 8.10655 10.9658 10.4445 8.08299 10.4445C5.20016 10.4445 2.86328 8.10655 2.86328 5.22237C2.86328 2.33819 5.20016 0 8.08299 0C10.9658 0 13.3029 2.33819 13.3029 5.22237Z" fill="#F39A00"/>
</svg>
