<svg width="40" height="40" viewBox="0 0 40 40" fill="none" xmlns="http://www.w3.org/2000/svg">
<rect width="40" height="40" rx="14.5" fill="#FEF9EE"/>
<path d="M25.4238 21.4572C24.6571 20.0705 23.3298 19.0377 21.7374 18.6543C20.6463 19.274 19.4078 19.6279 18.0805 19.6279C16.7535 19.6279 15.4853 19.274 14.4236 18.6543C11.8874 19.2443 10 21.5162 10 24.2012V27.0337C10 27.6828 10.5307 28.2138 11.1795 28.2138H18.4343C18.4343 31.9609 21.4718 34.9998 25.2171 34.9998C28.9625 34.9998 32 31.9609 32 28.2138C32 24.5552 29.0805 21.5753 25.4236 21.4572L25.4238 21.4572ZM25.2172 33.4656C22.3272 33.4656 19.9973 31.1051 19.9973 28.2432C19.9973 25.3518 22.3566 23.0208 25.2172 23.0208C28.1073 23.0208 30.4372 25.3812 30.4372 28.2432C30.4372 31.1051 28.1075 33.4656 25.2172 33.4656Z" fill="#F39A00"/>
<path d="M25.4238 27.5948H24.9519C24.6569 27.5948 24.3915 27.3881 24.3621 27.1226C24.3031 26.7686 24.5686 26.4441 24.9225 26.4441H25.5713C25.7482 26.4441 25.9251 26.562 25.9547 26.7392C25.9841 26.7983 26.0138 26.8571 26.1022 26.8571H27.1345C27.223 26.8571 27.282 26.7981 27.282 26.7096C27.223 25.9425 26.6332 25.3523 25.8665 25.2049L25.8661 24.2608C25.8661 24.1723 25.807 24.1133 25.7186 24.1133H24.6863C24.5978 24.1133 24.5388 24.1723 24.5388 24.2608V25.1754C23.654 25.3524 22.9758 26.1785 23.0348 27.1228C23.0939 28.1259 23.9786 28.8635 24.9813 28.8635H25.3647C25.7185 28.8635 25.9841 29.0701 26.0135 29.3356C26.0726 29.6896 25.807 30.0142 25.4531 30.0142H24.8043C24.6274 30.0142 24.4505 29.8963 24.4209 29.7191C24.3915 29.66 24.3619 29.6011 24.2734 29.6011H23.2411C23.1527 29.6011 23.0936 29.6602 23.0936 29.7487C23.1527 30.5158 23.7424 31.106 24.5091 31.2534V32.1976C24.5091 32.2861 24.5682 32.3452 24.6566 32.3452L25.7187 32.345C25.8072 32.345 25.8662 32.2859 25.8662 32.1974V31.2828C26.751 31.1058 27.4292 30.2797 27.3702 29.3355C27.3111 28.3324 26.4264 27.5948 25.4237 27.5948L25.4238 27.5948Z" fill="#F39A00"/>
<path d="M23.3029 12.2224C23.3029 15.1065 20.9658 17.4445 18.083 17.4445C15.2002 17.4445 12.8633 15.1065 12.8633 12.2224C12.8633 9.33819 15.2002 7 18.083 7C20.9658 7 23.3029 9.33819 23.3029 12.2224Z" fill="#F39A00"/>
</svg>
