<svg width="64" height="29" viewBox="0 0 64 29" fill="none" xmlns="http://www.w3.org/2000/svg">
<rect x="0.25" y="0.25" width="63.5" height="28.5" rx="14.25" fill="#FFF3D7"/>
<path d="M24.4223 13.48V14.856H21.1903V18.088H19.8143V14.856H16.5823V13.48H19.8143V10.248H21.1903V13.48H24.4223Z" fill="#E26B26"/>
<path d="M32.4875 10.32C32.9355 10.32 33.3395 10.364 33.6995 10.452C34.0675 10.532 34.4035 10.648 34.7075 10.8L34.3715 11.928C34.0435 11.768 33.7315 11.648 33.4355 11.568C33.1395 11.488 32.8475 11.448 32.5595 11.448C32.1515 11.448 31.8315 11.532 31.5995 11.7C31.3755 11.868 31.2635 12.096 31.2635 12.384C31.2635 12.664 31.3555 12.88 31.5395 13.032C31.7315 13.176 32.0355 13.316 32.4515 13.452L33.1835 13.692C33.8075 13.9 34.2835 14.188 34.6115 14.556C34.9395 14.924 35.1035 15.36 35.1035 15.864C35.1035 16.192 35.0395 16.492 34.9115 16.764C34.7835 17.036 34.5995 17.276 34.3595 17.484C34.1195 17.684 33.8235 17.84 33.4715 17.952C33.1275 18.064 32.7355 18.12 32.2955 18.12C31.8635 18.12 31.4435 18.08 31.0355 18C30.6275 17.912 30.2355 17.776 29.8595 17.592L30.1955 16.476C30.5395 16.644 30.8755 16.772 31.2035 16.86C31.5315 16.948 31.8755 16.992 32.2355 16.992C32.6675 16.992 33.0035 16.908 33.2435 16.74C33.4915 16.572 33.6155 16.328 33.6155 16.008C33.6155 15.896 33.5955 15.788 33.5555 15.684C33.5155 15.58 33.4435 15.484 33.3395 15.396C33.2435 15.3 33.1075 15.212 32.9315 15.132C32.7635 15.044 32.5435 14.956 32.2715 14.868L31.5995 14.64C31.0475 14.448 30.6035 14.196 30.2675 13.884C29.9395 13.564 29.7755 13.116 29.7755 12.54C29.7755 11.876 30.0075 11.34 30.4715 10.932C30.9355 10.524 31.6075 10.32 32.4875 10.32ZM41.3359 15.468H37.4599V15.516C37.4599 16.036 37.6199 16.424 37.9399 16.68C38.2679 16.936 38.6959 17.064 39.2239 17.064C39.5359 17.064 39.8119 17.036 40.0519 16.98C40.2999 16.924 40.5359 16.848 40.7599 16.752L41.0359 17.748C40.8039 17.852 40.5279 17.94 40.2079 18.012C39.8879 18.084 39.5159 18.12 39.0919 18.12C38.6679 18.12 38.2679 18.064 37.8919 17.952C37.5239 17.84 37.1999 17.664 36.9199 17.424C36.6399 17.184 36.4159 16.88 36.2479 16.512C36.0879 16.144 36.0079 15.704 36.0079 15.192C36.0079 14.744 36.0759 14.336 36.2119 13.968C36.3479 13.6 36.5399 13.284 36.7879 13.02C37.0359 12.756 37.3359 12.552 37.6879 12.408C38.0399 12.264 38.4279 12.192 38.8519 12.192C39.6119 12.192 40.2159 12.424 40.6639 12.888C41.1119 13.352 41.3359 13.996 41.3359 14.82V15.468ZM39.8839 14.484C39.8839 14.316 39.8639 14.156 39.8239 14.004C39.7839 13.844 39.7199 13.704 39.6319 13.584C39.5439 13.464 39.4279 13.372 39.2839 13.308C39.1479 13.236 38.9839 13.2 38.7919 13.2C38.4319 13.2 38.1359 13.32 37.9039 13.56C37.6719 13.8 37.5319 14.116 37.4839 14.508L39.8839 14.484ZM42.544 18V9.456H43.936V18H42.544ZM45.5322 18V9.456H46.9242V18H45.5322Z" fill="#E26B26"/>
<rect x="0.25" y="0.25" width="63.5" height="28.5" rx="14.25" stroke="#E26B26" stroke-width="0.5"/>
</svg>
