<svg width="16" height="16" viewBox="0 0 16 16" fill="none" xmlns="http://www.w3.org/2000/svg">
<path d="M15.1579 6.48443V12.6673C15.1569 13.5509 14.8239 14.3979 14.2319 15.0227C13.6399 15.6475 12.8372 15.9989 12 16H11.3684C11.2009 16 11.0403 15.9298 10.9218 15.8048C10.8034 15.6798 10.7368 15.5102 10.7368 15.3335C10.7368 15.1567 10.8034 14.9871 10.9218 14.8621C11.0403 14.7371 11.2009 14.6669 11.3684 14.6669H12C12.5025 14.6669 12.9844 14.4562 13.3398 14.0812C13.6951 13.7062 13.8947 13.1976 13.8947 12.6673V6.48443C13.8948 6.1571 13.8186 5.83478 13.6731 5.54575C13.5275 5.25672 13.3169 5.00982 13.0598 4.82674L8.63874 1.67866C8.32634 1.4539 7.95703 1.33369 7.57895 1.33369C7.20087 1.33369 6.83156 1.4539 6.51916 1.67866L2.09811 4.82674C1.84101 5.00982 1.63042 5.25672 1.48484 5.54575C1.33926 5.83478 1.26314 6.1571 1.26316 6.48443V12.6673C1.26316 13.1976 1.46278 13.7062 1.81812 14.0812C2.17345 14.4562 2.65538 14.6669 3.1579 14.6669H3.78948C3.95698 14.6669 4.11762 14.7371 4.23607 14.8621C4.35451 14.9871 4.42105 15.1567 4.42105 15.3335C4.42105 15.5102 4.35451 15.6798 4.23607 15.8048C4.11762 15.9298 3.95698 16 3.78948 16H3.1579C2.32068 15.9989 1.51804 15.6475 0.926036 15.0227C0.334033 14.3979 0.00100533 13.5509 2.47394e-06 12.6673V6.48443C-0.000644815 5.93901 0.125736 5.40178 0.368026 4.92002C0.610316 4.43825 0.961087 4.02671 1.38948 3.72161L5.81053 0.572862C6.33175 0.199567 6.94715 0 7.57705 0C8.20696 0 8.82236 0.199567 9.34358 0.572862L13.7646 3.72161C14.1934 4.02655 14.5447 4.43795 14.7877 4.91968C15.0306 5.40141 15.1577 5.93873 15.1579 6.48443ZM12 10.0058C12.0016 10.6187 11.888 11.2258 11.6658 11.792C11.4435 12.3583 11.1171 12.8723 10.7053 13.3045L8.48526 15.5961C8.24224 15.8444 7.91722 15.9832 7.57895 15.9832C7.24067 15.9832 6.91566 15.8444 6.67263 15.5961L4.45769 13.3098C3.94257 12.7679 3.5621 12.1002 3.35001 11.3659C3.13793 10.6317 3.10078 9.85353 3.24185 9.10049C3.38293 8.34745 3.69787 7.64278 4.15876 7.04894C4.61965 6.4551 5.21226 5.99044 5.88403 5.69615C6.55581 5.40187 7.28601 5.28705 8.0099 5.36187C8.73378 5.4367 9.429 5.69886 10.0339 6.12511C10.6388 6.55135 11.1347 7.12853 11.4777 7.80546C11.8206 8.48239 12 9.23816 12 10.0058ZM10.7368 10.0058C10.7368 9.45773 10.6088 8.91813 10.364 8.43478C10.1192 7.95144 9.76527 7.53926 9.33349 7.23476C8.90172 6.93026 8.40546 6.74284 7.88866 6.68909C7.37186 6.63533 6.85047 6.71692 6.37069 6.92661C5.8909 7.13631 5.46752 7.46764 5.13804 7.89126C4.80856 8.31487 4.58316 8.81771 4.48179 9.35522C4.38043 9.89273 4.40624 10.4483 4.55692 10.9728C4.70761 11.4973 4.97853 11.9744 5.34569 12.362L7.55621 14.6429L9.81726 12.3567C10.1101 12.0483 10.3421 11.6818 10.4999 11.2783C10.6578 10.8748 10.7383 10.4423 10.7368 10.0058ZM9.47368 10.0011C9.47368 10.3966 9.36256 10.7832 9.15436 11.112C8.94617 11.4409 8.65025 11.6972 8.30403 11.8485C7.95781 11.9999 7.57685 12.0395 7.2093 11.9623C6.84176 11.8852 6.50415 11.6947 6.23917 11.4151C5.97418 11.1354 5.79373 10.7791 5.72062 10.3912C5.64751 10.0033 5.68503 9.60127 5.82844 9.23589C5.97185 8.8705 6.2147 8.5582 6.52629 8.33848C6.83788 8.11876 7.2042 8.00148 7.57895 8.00148C8.08146 8.00148 8.5634 8.21216 8.91873 8.58716C9.27406 8.96216 9.47368 9.47078 9.47368 10.0011Z" fill="#FAA326"/>
</svg>
