<svg width="18" height="20" viewBox="0 0 18 20" fill="none" xmlns="http://www.w3.org/2000/svg">
<path fill-rule="evenodd" clip-rule="evenodd" d="M16.4008 12.8552C17.5735 12.2115 17.6891 10.4807 16.5614 9.70926L4.06899 1.19082L3.94403 1.11249C2.68328 0.390492 1.1112 1.49296 1.33257 3.01358L2.37441 10.1669L0.150884 16.9788L0.10918 17.1246C-0.248001 18.5771 1.16986 19.8496 2.53336 19.2243L16.28 12.9159L16.4008 12.8552ZM15.8508 10.9464C16.044 11.1363 15.993 11.4886 15.7277 11.6101L1.98057 17.9187L1.90861 17.9441C1.62184 18.0155 1.35765 17.736 1.45789 17.429L3.56222 10.981L10.394 11.5148L10.4962 11.515C10.8317 11.49 11.1093 11.2139 11.1372 10.8563L11.138 10.7505C11.1157 10.4033 10.8505 10.1175 10.5053 10.0906L3.68266 9.55767L2.69708 2.79263L2.69273 2.71405C2.70385 2.40787 3.04559 2.2069 3.30545 2.38436L15.7974 10.9025L15.8508 10.9464Z" fill="white"/>
</svg>
