<svg width="22" height="24" viewBox="0 0 22 24" fill="none" xmlns="http://www.w3.org/2000/svg">
<path fill-rule="evenodd" clip-rule="evenodd" d="M11.7134 2.52027e-07H10.2833C9.47795 2.52027e-07 8.70576 0.314427 8.13764 0.873717C7.63408 1.36944 7.32605 2.02303 7.26666 2.71851L7.2568 2.94315C7.24582 3.6746 6.6549 4.24524 5.92959 4.24517C5.7651 4.24345 5.59427 4.20591 5.437 4.13519L5.28272 4.05462C3.85759 3.25388 2.00464 3.74436 1.16852 5.16613L0.41672 6.37648C-0.382693 7.7353 0.0115875 9.44236 1.30204 10.3216L1.48151 10.4344C1.92383 10.6855 2.17669 11.1146 2.17669 11.5789C2.17669 12.006 1.96253 12.4053 1.60537 12.6475L1.48344 12.7223C0.14649 13.4793 -0.380284 15.1501 0.29175 16.5399L0.389968 16.7249L1.12793 17.9733C1.51151 18.6517 2.16881 19.1628 2.94621 19.3793C3.63525 19.5711 4.37059 19.5181 5.02251 19.2308L5.22865 19.1299C5.5756 18.9334 5.93403 18.8863 6.27044 18.9745C6.60685 19.0627 6.89336 19.2789 7.06629 19.5751C7.16162 19.7327 7.21759 19.8952 7.23757 20.0636L7.2474 20.2346C7.2457 21.8255 8.6057 23.1579 10.2833 23.1579H11.7137C13.2978 23.1579 14.6126 21.9656 14.7412 20.4269L14.7506 20.2282C14.7497 19.8438 14.8885 19.5133 15.1368 19.2699C15.3852 19.0266 15.7226 18.8906 16.0739 18.8923C16.2353 18.8967 16.4127 18.9363 16.5771 19.0083L16.7347 19.0878C18.0644 19.8398 19.8067 19.4535 20.7041 18.1892L20.8193 18.0134L21.583 16.7668C21.9943 16.0754 22.1056 15.2631 21.898 14.5003C21.714 13.8243 21.2921 13.2344 20.7082 12.8342L20.5149 12.7129C20.1789 12.5226 19.9574 12.2399 19.8672 11.9082C19.7769 11.5766 19.8253 11.2234 20.0016 10.9268C20.0993 10.7598 20.2291 10.6209 20.3849 10.5145L20.6828 10.3311C21.8892 9.52862 22.341 7.94917 21.706 6.62133L21.6401 6.49202C21.6259 6.4583 21.6094 6.42541 21.5907 6.39359L20.8807 5.18653C20.0908 3.84326 18.3827 3.32197 16.9585 3.97795L16.7688 4.07392C16.4285 4.26901 16.0691 4.31833 15.7308 4.23227C15.3925 4.1462 15.103 3.93183 14.9262 3.63642C14.8354 3.48661 14.7795 3.32408 14.7595 3.15567L14.7497 2.98466C14.7746 2.25753 14.465 1.47841 13.8927 0.901665C13.3205 0.324922 12.5343 -0.00033051 11.7134 2.52027e-07ZM10.2837 1.67634H11.7141C12.073 1.6762 12.4163 1.81825 12.6663 2.07013C12.9162 2.32201 13.0514 2.66228 13.0411 3.01342L13.0563 3.30527C13.108 3.75141 13.2417 4.13953 13.4529 4.4882C13.8573 5.16382 14.5231 5.65686 15.3012 5.8548C16.0793 6.05275 16.9058 5.93933 17.5984 5.53955L17.7179 5.47993L17.8464 5.42949C18.4119 5.24357 19.0783 5.47888 19.3986 6.02348L20.0757 7.17578L20.0904 7.20824L20.1723 7.36287C20.4463 7.93743 20.2173 8.6642 19.6244 9.00396L19.4383 9.1188C19.0436 9.38745 18.7408 9.71146 18.5205 10.0883C18.118 10.765 18.0067 11.5774 18.2143 12.3402C18.403 13.0336 18.8412 13.634 19.444 14.0331L19.7593 14.2284C19.9817 14.3818 20.1651 14.6383 20.2451 14.9322C20.3354 15.2639 20.287 15.6171 20.1106 15.9137L19.3645 17.1319L19.2806 17.2604C18.9354 17.7457 18.2542 17.9259 17.68 17.6789L17.3141 17.4958C16.9061 17.3159 16.5069 17.2269 16.1013 17.2163C15.2746 17.2121 14.4986 17.5249 13.9274 18.0846C13.3561 18.6443 13.0369 19.4045 13.0408 20.1961L13.0342 20.3224C12.9802 20.9606 12.4057 21.4816 11.7141 21.4816H10.2837C9.59987 21.4816 9.03688 20.9747 8.96486 20.3234L8.94152 19.914C8.88978 19.4679 8.75613 19.0798 8.54491 18.7311C8.15228 18.0585 7.49034 17.559 6.71312 17.3552C5.9359 17.1514 5.1078 17.2602 4.41288 17.6575L4.287 17.7179C4.03643 17.8274 3.71526 17.8506 3.41434 17.7668C3.07482 17.6723 2.78776 17.4491 2.61666 17.1466L1.88806 15.9152L1.82288 15.7918C1.54689 15.2194 1.77605 14.4925 2.36988 14.156L2.55028 14.0448C3.39778 13.471 3.88806 12.5569 3.88806 11.579C3.88806 10.5866 3.3837 9.66456 2.55232 9.1138L2.25044 8.92651C1.71703 8.56225 1.54474 7.81631 1.88923 7.23055L2.64104 6.02019C3.01658 5.38208 3.82583 5.16787 4.46047 5.52416L4.68321 5.63926C5.09923 5.82761 5.50718 5.91725 5.921 5.92146C7.52633 5.92167 8.83904 4.71365 8.95883 3.17438L8.97439 2.82135C8.99789 2.55596 9.13183 2.27176 9.35076 2.05623C9.59778 1.81305 9.93352 1.67634 10.2837 1.67634ZM11.0035 7.79492C8.87031 7.79492 7.14103 9.48917 7.14103 11.5791C7.14103 13.6691 8.87031 15.3633 11.0035 15.3633C13.1367 15.3633 14.8659 13.6691 14.8659 11.5791C14.8659 9.48917 13.1367 7.79492 11.0035 7.79492ZM11.0035 9.47126C12.1918 9.47126 13.155 10.415 13.155 11.5791C13.155 12.7433 12.1918 13.687 11.0035 13.687C9.81532 13.687 8.85208 12.7433 8.85208 11.5791C8.85208 10.415 9.81532 9.47126 11.0035 9.47126Z" fill="#563E1F"/>
</svg>
