<svg width="14" height="15" viewBox="0 0 14 15" fill="none" xmlns="http://www.w3.org/2000/svg">
<path fill-rule="evenodd" clip-rule="evenodd" d="M1.83381 0.018073C1.60615 0.0587664 1.30735 0.168395 1.07783 0.295427C0.78721 0.456266 0.412561 0.843952 0.257493 1.14427C0.0468188 1.55238 -0.00037858 1.75374 2.27919e-06 2.24291C0.000353842 2.72086 0.0379124 2.90604 0.205549 3.25684C0.489641 3.85139 1.03404 4.2834 1.6996 4.44252C1.91889 4.49493 2.0224 4.50298 2.32831 4.49153C2.85718 4.4717 3.23373 4.33514 3.59977 4.03037C3.67872 3.96465 3.75267 3.91462 3.7641 3.91916C3.77552 3.92373 4.98044 4.61838 6.44174 5.46284C8.56583 6.69029 9.09466 7.00754 9.07887 7.04487C9.02183 7.17952 9.02016 7.87552 9.07656 8.01439C9.09009 8.04776 8.45655 8.43518 6.44139 9.62572C4.98226 10.4878 3.77628 11.1975 3.76143 11.2029C3.74661 11.2082 3.67187 11.1575 3.59537 11.0902C3.40087 10.9189 2.9824 10.7236 2.68122 10.6635C2.3441 10.5962 1.89914 10.6183 1.591 10.7175C0.869973 10.9496 0.33135 11.5138 0.128352 12.2495C0.042014 12.5623 0.0416625 13.0303 0.127473 13.3548C0.39009 14.348 1.34502 15.0428 2.35702 14.9769C2.71415 14.9537 2.89254 14.9045 3.23643 14.7342C3.46776 14.6197 3.5567 14.554 3.76377 14.345C3.90079 14.2067 4.06266 14.0078 4.12351 13.9031C4.38009 13.4613 4.46974 12.8905 4.37283 12.3152C4.36647 12.2774 5.00476 11.8863 7.03046 10.6869L9.69648 9.10834L9.81768 9.21322C10.1105 9.46664 10.5149 9.63817 10.949 9.69304C11.4145 9.7519 11.9836 9.63231 12.3956 9.38909C12.489 9.33392 12.6728 9.18334 12.8041 9.05443C13.0729 8.79041 13.2384 8.52193 13.3641 8.14623C13.4351 7.93391 13.4426 7.86911 13.4445 7.45775C13.4467 6.94995 13.4041 6.75228 13.2113 6.37503C12.9458 5.85583 12.4553 5.47605 11.8591 5.32822C11.5503 5.25167 10.9907 5.25905 10.6939 5.34366C10.4153 5.42305 10.1285 5.56889 9.93273 5.73064C9.85404 5.79568 9.77242 5.84505 9.75141 5.84033C9.73038 5.83564 8.52563 5.14623 7.07418 4.30834L4.43517 2.7849L4.4584 2.68236C4.50085 2.49498 4.48055 1.8624 4.42553 1.65867C4.20674 0.848288 3.62948 0.281745 2.78242 0.0460808C2.62149 0.00128592 2.02597 -0.0162922 1.83381 0.018073Z" fill="#FAA326"/>
</svg>
