<svg width="13" height="15" viewBox="0 0 13 15" fill="none" xmlns="http://www.w3.org/2000/svg">
<path d="M10.1638 14.1718C9.45414 14.1801 8.78152 13.8519 8.34597 13.2847C7.91041 12.7176 7.76208 11.9769 7.94509 11.2829L3.83954 8.90787C3.13011 9.56571 2.09021 9.70494 1.23618 9.25643C0.382155 8.80791 -0.104095 7.86719 0.0188706 6.90135C0.141836 5.93551 0.847825 5.15029 1.78629 4.93555C2.72476 4.72082 3.69582 5.12233 4.2173 5.94071L7.94443 3.78404C7.89621 3.59963 7.87066 3.4099 7.86835 3.21915C7.85895 2.10844 8.62113 1.14356 9.69368 0.908368C10.7662 0.673172 11.8546 1.23225 12.3003 2.2473C12.7459 3.26236 12.4264 4.45462 11.5351 5.10267C10.6438 5.75072 9.42548 5.67658 8.61732 4.9251L4.58326 7.25834C4.57927 7.43048 4.5555 7.60156 4.51243 7.76813L8.61732 10.1425C9.37302 9.44059 10.4975 9.33224 11.3705 9.87722C12.2434 10.4222 12.6525 11.4879 12.3719 12.4864C12.0913 13.4849 11.1895 14.1733 10.1638 14.1718ZM10.1638 10.8528C9.62047 10.8528 9.18003 11.2986 9.18003 11.8485C9.18003 12.3984 9.62047 12.8442 10.1638 12.8442C10.7071 12.8442 11.1475 12.3984 11.1475 11.8485C11.1475 11.2986 10.7071 10.8528 10.1638 10.8528ZM2.29373 6.20623C1.75042 6.20623 1.30997 6.65201 1.30997 7.20192C1.30997 7.75182 1.75042 8.19761 2.29373 8.19761C2.83705 8.19761 3.27749 7.75182 3.27749 7.20192C3.27749 6.65201 2.83705 6.20623 2.29373 6.20623ZM10.1638 2.22346C9.62047 2.22346 9.18003 2.66925 9.18003 3.21915C9.18003 3.76906 9.62047 4.21484 10.1638 4.21484C10.7071 4.21484 11.1475 3.76906 11.1475 3.21915C11.1475 2.66925 10.7071 2.22346 10.1638 2.22346Z" fill="#563E1F"/>
</svg>
