<svg width="40" height="40" viewBox="0 0 40 40" fill="none" xmlns="http://www.w3.org/2000/svg">
<rect width="40" height="40" rx="14.5" fill="#F98DA0" fill-opacity="0.2"/>
<path fill-rule="evenodd" clip-rule="evenodd" d="M17.0274 11.3875C14.8022 12.2342 13.2476 13.5482 12.0789 15.5714C11.1971 17.0982 11 17.9174 11 20.0614C11 22.2851 11.1806 22.9811 12.1855 24.6355C12.9205 25.8451 14.1005 27.0458 15.2891 27.7937C16.9209 28.8202 17.5959 29 19.8149 29C22.0355 29 22.7093 28.8202 24.3508 27.7889C25.5622 27.0283 26.3258 26.2501 26.4045 25.696C26.5722 24.5132 26.0829 24.5849 24.3328 25.9997C20.9263 28.7544 16.3316 27.8933 13.4451 23.9594C11.7291 21.6205 12.0997 17.5913 14.2545 15.1615C17.1939 11.8467 21.3577 11.4844 24.6008 14.261C25.9736 15.4366 26.475 15.5032 26.475 14.5109C26.475 12.1517 20.3453 10.1253 17.0274 11.3875ZM24.694 16.8706C24.551 17.1062 24.8296 17.7273 25.313 18.2507L26.1918 19.2027L22.3179 19.3175C19.1853 19.4104 18.4437 19.5467 18.4437 20.0303C18.4437 20.5139 19.1853 20.6502 22.3179 20.7431L26.1918 20.8579L25.2809 21.8446C24.5702 22.6144 24.4735 22.9369 24.8421 23.312C25.2104 23.6867 25.7193 23.3802 27.1571 21.9171L29 20.0419L27.2641 18.2419C25.4372 16.3479 25.116 16.1765 24.694 16.8706Z" fill="#E22648"/>
</svg>
