<svg width="19" height="19" viewBox="0 0 19 19" fill="none" xmlns="http://www.w3.org/2000/svg">
<path fill-rule="evenodd" clip-rule="evenodd" d="M6.154 0.388795C3.882 1.2384 2.2948 2.5568 1.1016 4.5868C0.2012 6.11879 0 6.94079 0 9.09199C0 11.3232 0.1844 12.0216 1.2104 13.6816C1.9608 14.8952 3.1656 16.1 4.3792 16.8504C6.0452 17.8804 6.7344 18.0608 9 18.0608C11.2672 18.0608 11.9552 17.8804 13.6312 16.8456C14.868 16.0824 15.6476 15.3016 15.728 14.7456C15.8992 13.5588 15.3996 13.6308 13.6128 15.0504C10.1348 17.8144 5.4436 16.9504 2.4964 13.0032C0.7444 10.6564 1.1228 6.6136 3.3228 4.1756C6.324 0.849596 10.5752 0.485995 13.8864 3.272C15.288 4.4516 15.8 4.5184 15.8 3.5228C15.8 1.1556 9.5416 -0.877604 6.154 0.388795ZM13.9816 5.8904C13.8356 6.12679 14.12 6.74999 14.6136 7.27519L15.5108 8.2304L11.5556 8.3456C8.3572 8.4388 7.6 8.57559 7.6 9.06079C7.6 9.54599 8.3572 9.6828 11.5556 9.776L15.5108 9.8912L14.5808 10.8812C13.8552 11.6536 13.7564 11.9772 14.1328 12.3536C14.5088 12.7296 15.0284 12.422 16.4964 10.954L18.378 9.07239L16.6056 7.2664C14.7404 5.366 14.4124 5.19399 13.9816 5.8904Z" fill="#E26B26"/>
</svg>
