<svg width="63" height="93" viewBox="0 0 63 93" fill="none" xmlns="http://www.w3.org/2000/svg">
<g clip-path="url(#clip0_2247_3633)">
<path d="M38.6633 54.2969C31.7334 54.2969 26.0957 59.9512 26.0957 66.9016C26.0957 73.852 31.7334 79.5063 38.6633 79.5063C45.5933 79.5063 51.2312 73.852 51.2312 66.9016C51.2312 59.9512 45.5928 54.2969 38.6633 54.2969ZM38.6633 74.8868C34.2733 74.8868 30.7016 71.3046 30.7016 66.9016C30.7016 65.5388 31.0445 64.255 31.6472 63.1315L37.0348 68.535C37.4667 68.968 38.0525 69.2116 38.6633 69.2116H46.2843C45.2937 72.4915 42.2527 74.8868 38.6633 74.8868ZM39.6173 64.5919L34.9041 59.8647C36.0245 59.2603 37.3045 58.9164 38.6631 58.9164C42.2529 58.9164 45.294 61.3117 46.2843 64.5919H39.6173Z" fill="#EC884F"/>
<path d="M62.3395 9.14939H53.5063C52.4267 6.47045 49.8081 4.57438 46.7549 4.57438H41.9868C40.8028 1.88322 38.1167 0 35 0C31.8833 0 29.1972 1.88322 28.0132 4.5747H23.2451C20.1919 4.5747 17.573 6.47076 16.4937 9.1497H7.66046C3.43666 9.1497 0 12.5965 0 16.8327V85.3973C0 89.6336 3.43666 93.08 7.66046 93.08H62.3395C66.5633 93.08 70 89.6336 70 85.3973V16.8324C70 12.5962 66.5633 9.14939 62.3395 9.14939ZM22.1049 11.8763C22.1052 11.246 22.6167 10.733 23.2451 10.733H30.4384C32.1339 10.733 33.5085 9.35435 33.5085 7.65385C33.5085 6.82929 34.1776 6.1583 34.9997 6.1583C35.8218 6.1583 36.4908 6.82929 36.4908 7.65385C36.4908 9.35435 37.8654 10.733 39.561 10.733H46.7543C47.3827 10.733 47.8942 11.246 47.8942 11.8763V17.1561C47.8942 17.7864 47.3827 18.2994 46.7543 18.2994H23.2448C22.6164 18.2994 22.1049 17.7864 22.1049 17.1561V11.8763ZM62.3395 86.9214H7.66046C6.82207 86.9214 6.14024 86.2376 6.14024 85.397V16.8324C6.14024 15.9915 6.82207 15.3077 7.66046 15.3077H15.9649V17.1558C15.9649 21.1821 19.231 24.4574 23.2451 24.4574H46.7546C50.769 24.4574 54.0347 21.1817 54.0347 17.1558V15.3077H62.3392C63.1776 15.3077 63.8594 15.9915 63.8594 16.8324V85.397C63.8591 86.2376 63.1776 86.9214 62.3395 86.9214Z" fill="#EC884F"/>
<path d="M22.1534 36.8447H0V31.0271H22.1534C23.8003 31.0271 25.1355 32.3295 25.1355 33.9359C25.1355 35.5423 23.8003 36.8447 22.1534 36.8447Z" fill="#EC884F"/>
<path d="M18.7452 46.5402H0V40.7227H18.7452C20.1387 40.7227 21.2685 42.025 21.2685 43.6314C21.2685 45.2379 20.1387 46.5402 18.7452 46.5402Z" fill="#EC884F"/>
<path d="M15.337 56.2368H0V50.4192H15.337C16.4771 50.4192 17.4015 51.7216 17.4015 53.328C17.4015 54.9344 16.4771 56.2368 15.337 56.2368Z" fill="#EC884F"/>
</g>
<defs>
<clipPath id="clip0_2247_3633">
<rect width="63" height="93" fill="white"/>
</clipPath>
</defs>
</svg>
