<svg width="111" height="32" viewBox="0 0 111 32" fill="none" xmlns="http://www.w3.org/2000/svg">
<rect width="111" height="32" rx="16" fill="#E26B26"/>
<path d="M23.144 11.32C23.968 11.32 24.688 11.472 25.304 11.776L25.004 12.796C24.668 12.636 24.356 12.52 24.068 12.448C23.788 12.368 23.504 12.328 23.216 12.328C22.784 12.328 22.444 12.42 22.196 12.604C21.948 12.788 21.824 13.044 21.824 13.372C21.824 13.66 21.92 13.888 22.112 14.056C22.304 14.224 22.616 14.376 23.048 14.512L23.792 14.752C24.448 14.96 24.928 15.252 25.232 15.628C25.536 15.996 25.688 16.424 25.688 16.912C25.688 17.24 25.624 17.54 25.496 17.812C25.368 18.084 25.184 18.316 24.944 18.508C24.712 18.7 24.428 18.852 24.092 18.964C23.756 19.068 23.384 19.12 22.976 19.12C22.568 19.12 22.16 19.08 21.752 19C21.352 18.928 20.96 18.8 20.576 18.616L20.876 17.608C21.22 17.776 21.556 17.904 21.884 17.992C22.212 18.072 22.556 18.112 22.916 18.112C23.348 18.112 23.7 18.02 23.972 17.836C24.244 17.652 24.38 17.38 24.38 17.02C24.38 16.764 24.284 16.536 24.092 16.336C23.908 16.136 23.544 15.948 23 15.772L22.292 15.544C21.74 15.36 21.304 15.116 20.984 14.812C20.672 14.5 20.516 14.068 20.516 13.516C20.516 12.852 20.74 12.32 21.188 11.92C21.636 11.52 22.288 11.32 23.144 11.32ZM30.0172 14.248H28.4092V17.308C28.4092 17.588 28.4732 17.776 28.6012 17.872C28.7372 17.968 28.9172 18.016 29.1412 18.016C29.3012 18.016 29.4692 18 29.6452 17.968C29.8292 17.928 29.9892 17.884 30.1252 17.836L30.3172 18.748C30.1572 18.812 29.9492 18.872 29.6932 18.928C29.4452 18.976 29.1812 19 28.9012 19C28.2932 19 27.8532 18.876 27.5812 18.628C27.3172 18.372 27.1852 17.996 27.1852 17.5V14.248H26.3212V13.336H27.1852V11.548H28.4092V13.336H30.0172V14.248ZM31.4106 13.84C31.7786 13.64 32.1306 13.492 32.4666 13.396C32.8106 13.292 33.1906 13.24 33.6066 13.24C33.9266 13.24 34.2186 13.276 34.4826 13.348C34.7546 13.42 34.9866 13.536 35.1786 13.696C35.3706 13.856 35.5186 14.072 35.6226 14.344C35.7346 14.608 35.7906 14.932 35.7906 15.316V19H34.7946L34.6626 18.388H34.6266C34.4026 18.644 34.1426 18.832 33.8466 18.952C33.5506 19.064 33.2226 19.12 32.8626 19.12C32.2946 19.12 31.8346 18.968 31.4826 18.664C31.1386 18.36 30.9666 17.956 30.9666 17.452C30.9666 17.14 31.0306 16.872 31.1586 16.648C31.2866 16.416 31.4666 16.224 31.6986 16.072C31.9306 15.92 32.2066 15.808 32.5266 15.736C32.8466 15.656 33.1986 15.616 33.5826 15.616H34.5426V15.184C34.5426 14.824 34.4466 14.576 34.2546 14.44C34.0626 14.296 33.7986 14.224 33.4626 14.224C33.2546 14.224 33.0186 14.26 32.7546 14.332C32.4986 14.396 32.2026 14.52 31.8666 14.704L31.4106 13.84ZM34.5546 16.432L33.7986 16.444C33.2306 16.46 32.8306 16.56 32.5986 16.744C32.3666 16.928 32.2506 17.144 32.2506 17.392C32.2506 17.552 32.2746 17.684 32.3226 17.788C32.3786 17.892 32.4506 17.976 32.5386 18.04C32.6266 18.104 32.7266 18.152 32.8386 18.184C32.9586 18.208 33.0786 18.22 33.1986 18.22C33.4466 18.22 33.6906 18.16 33.9306 18.04C34.1786 17.912 34.3866 17.732 34.5546 17.5V16.432ZM37.268 19V13.336H38.204L38.384 14.428C38.52 14.092 38.74 13.812 39.044 13.588C39.348 13.356 39.716 13.24 40.148 13.24C40.34 13.24 40.504 13.256 40.64 13.288C40.784 13.32 40.912 13.364 41.024 13.42L40.796 14.452C40.7 14.404 40.588 14.364 40.46 14.332C40.34 14.3 40.2 14.284 40.04 14.284C39.6 14.284 39.232 14.436 38.936 14.74C38.64 15.036 38.492 15.488 38.492 16.096V19H37.268ZM45.2984 14.248H43.6904V17.308C43.6904 17.588 43.7544 17.776 43.8824 17.872C44.0184 17.968 44.1984 18.016 44.4224 18.016C44.5824 18.016 44.7504 18 44.9264 17.968C45.1104 17.928 45.2704 17.884 45.4064 17.836L45.5984 18.748C45.4384 18.812 45.2304 18.872 44.9744 18.928C44.7264 18.976 44.4624 19 44.1824 19C43.5744 19 43.1344 18.876 42.8624 18.628C42.5984 18.372 42.4664 17.996 42.4664 17.5V14.248H41.6024V13.336H42.4664V11.548H43.6904V13.336H45.2984V14.248ZM51.9789 11.44C52.5309 11.44 53.0389 11.516 53.5029 11.668C53.9669 11.82 54.3669 12.048 54.7029 12.352C55.0389 12.648 55.2989 13.024 55.4829 13.48C55.6749 13.928 55.7709 14.452 55.7709 15.052C55.7709 15.764 55.6589 16.372 55.4349 16.876C55.2109 17.372 54.9069 17.78 54.5229 18.1C54.1469 18.412 53.7029 18.64 53.1909 18.784C52.6869 18.928 52.1549 19 51.5949 19H49.4589V11.44H51.9789ZM50.7429 17.968H51.4869C51.8549 17.968 52.2109 17.928 52.5549 17.848C52.9069 17.76 53.2189 17.608 53.4909 17.392C53.7629 17.168 53.9789 16.868 54.1389 16.492C54.3069 16.116 54.3909 15.636 54.3909 15.052C54.3909 14.22 54.1509 13.584 53.6709 13.144C53.1989 12.696 52.5629 12.472 51.7629 12.472H50.7429V17.968ZM61.9927 16.384H58.0207V16.432C58.0207 17.008 58.1887 17.444 58.5247 17.74C58.8607 18.036 59.3047 18.184 59.8567 18.184C60.1607 18.184 60.4327 18.16 60.6727 18.112C60.9207 18.056 61.1687 17.972 61.4167 17.86L61.6567 18.76C61.4247 18.864 61.1487 18.948 60.8287 19.012C60.5087 19.084 60.1567 19.12 59.7727 19.12C59.3647 19.12 58.9767 19.064 58.6087 18.952C58.2407 18.84 57.9167 18.664 57.6367 18.424C57.3647 18.184 57.1487 17.88 56.9887 17.512C56.8287 17.144 56.7487 16.704 56.7487 16.192C56.7487 15.752 56.8127 15.352 56.9407 14.992C57.0767 14.624 57.2647 14.312 57.5047 14.056C57.7527 13.792 58.0487 13.592 58.3927 13.456C58.7447 13.312 59.1327 13.24 59.5567 13.24C59.9247 13.24 60.2567 13.3 60.5527 13.42C60.8567 13.54 61.1127 13.712 61.3207 13.936C61.5367 14.152 61.7007 14.42 61.8127 14.74C61.9327 15.052 61.9927 15.4 61.9927 15.784V16.384ZM60.7207 15.52C60.7207 15.328 60.6967 15.148 60.6487 14.98C60.6007 14.812 60.5287 14.668 60.4327 14.548C60.3367 14.42 60.2087 14.32 60.0487 14.248C59.8967 14.168 59.7127 14.128 59.4967 14.128C59.0967 14.128 58.7687 14.256 58.5127 14.512C58.2647 14.768 58.1127 15.112 58.0567 15.544L60.7207 15.52ZM63.2382 19V10.468H64.4502V19H63.2382ZM66.205 19V13.336H67.441V19H66.205ZM66.829 11.932C66.613 11.932 66.441 11.868 66.313 11.74C66.185 11.604 66.121 11.436 66.121 11.236C66.121 11.036 66.185 10.872 66.313 10.744C66.441 10.608 66.613 10.54 66.829 10.54C67.037 10.54 67.205 10.608 67.333 10.744C67.469 10.872 67.537 11.036 67.537 11.236C67.537 11.444 67.469 11.612 67.333 11.74C67.205 11.868 67.037 11.932 66.829 11.932ZM72.6473 13.336H73.9553L71.8793 19H70.5833L68.5073 13.336H69.8393L70.9673 16.864L71.2193 18.04H71.2673L71.5193 16.876L72.6473 13.336ZM79.6528 16.384H75.6808V16.432C75.6808 17.008 75.8488 17.444 76.1848 17.74C76.5208 18.036 76.9648 18.184 77.5168 18.184C77.8208 18.184 78.0928 18.16 78.3328 18.112C78.5808 18.056 78.8288 17.972 79.0768 17.86L79.3168 18.76C79.0848 18.864 78.8088 18.948 78.4888 19.012C78.1688 19.084 77.8168 19.12 77.4328 19.12C77.0248 19.12 76.6368 19.064 76.2688 18.952C75.9008 18.84 75.5768 18.664 75.2968 18.424C75.0248 18.184 74.8088 17.88 74.6488 17.512C74.4888 17.144 74.4088 16.704 74.4088 16.192C74.4088 15.752 74.4728 15.352 74.6008 14.992C74.7368 14.624 74.9248 14.312 75.1648 14.056C75.4128 13.792 75.7088 13.592 76.0528 13.456C76.4048 13.312 76.7928 13.24 77.2168 13.24C77.5848 13.24 77.9168 13.3 78.2128 13.42C78.5168 13.54 78.7728 13.712 78.9808 13.936C79.1968 14.152 79.3608 14.42 79.4728 14.74C79.5928 15.052 79.6528 15.4 79.6528 15.784V16.384ZM78.3808 15.52C78.3808 15.328 78.3568 15.148 78.3088 14.98C78.2608 14.812 78.1888 14.668 78.0928 14.548C77.9968 14.42 77.8688 14.32 77.7088 14.248C77.5568 14.168 77.3728 14.128 77.1568 14.128C76.7568 14.128 76.4288 14.256 76.1728 14.512C75.9248 14.768 75.7728 15.112 75.7168 15.544L78.3808 15.52ZM80.8383 19V13.336H81.7743L81.9543 14.428C82.0903 14.092 82.3103 13.812 82.6143 13.588C82.9183 13.356 83.2863 13.24 83.7183 13.24C83.9103 13.24 84.0743 13.256 84.2103 13.288C84.3543 13.32 84.4823 13.364 84.5943 13.42L84.3663 14.452C84.2703 14.404 84.1583 14.364 84.0303 14.332C83.9103 14.3 83.7703 14.284 83.6103 14.284C83.1703 14.284 82.8023 14.436 82.5063 14.74C82.2103 15.036 82.0623 15.488 82.0623 16.096V19H80.8383ZM84.9358 13.336H86.2678L87.4078 16.396L87.8158 17.752H87.8398L88.2358 16.384L89.2678 13.336H90.5278L88.3798 19.384C88.1398 20.064 87.8318 20.616 87.4558 21.04C87.0878 21.472 86.6038 21.792 86.0038 22L85.4758 21.028C85.8758 20.876 86.2238 20.656 86.5198 20.368C86.8158 20.088 87.0358 19.72 87.1798 19.264L87.2758 18.988L84.9358 13.336Z" fill="white"/>
</svg>
