<svg width="80" height="118" viewBox="0 0 80 118" fill="none" xmlns="http://www.w3.org/2000/svg">
<g clip-path="url(#clip0_2247_3494)">
<path d="M121.135 32.5367L66.9422 5.50878C65.7868 4.93197 64.4261 4.93197 63.2704 5.50878L9.07809 32.5367C7.68718 33.2306 6.80859 34.6481 6.80859 36.1996V110.526C6.80859 112.788 8.64665 114.622 10.9142 114.622H24.4624C26.7296 114.622 28.568 112.788 28.568 110.526V47.0518H101.646V110.526C101.646 112.788 103.484 114.622 105.751 114.622H119.3C121.567 114.622 123.405 112.788 123.405 110.526V36.1996C123.404 34.6481 122.526 33.2306 121.135 32.5367ZM115.194 106.431H109.856V42.9565C109.856 40.6951 108.018 38.8613 105.751 38.8613H24.4621C22.1949 38.8613 20.3565 40.6947 20.3565 42.9565V106.431H15.0194V38.7305L65.1065 13.7502L115.194 38.7305V106.431Z" fill="#EC884F"/>
<path d="M92.2027 53.6038H65.1065C63.5193 53.6038 62.2329 54.887 62.2329 56.4702V80.6317H38.0104C36.4232 80.6317 35.1367 81.9149 35.1367 83.4981V110.526C35.1367 112.109 36.4232 113.392 38.0104 113.392H92.2027C93.7899 113.392 95.0764 112.109 95.0764 110.526V56.4706C95.0768 54.887 93.7899 53.6038 92.2027 53.6038ZM67.9802 90.4195L74.59 97.0127L67.9802 103.606V90.4195ZM62.2329 103.605L55.623 97.0123L62.2329 90.4191V103.605ZM72.045 86.3649H85.2643L78.6544 92.9581L72.045 86.3649ZM72.045 80.6317L78.6548 74.0385L85.2646 80.6317H72.045ZM89.329 76.5775L82.7196 69.9843L89.329 63.3912V76.5775ZM78.6548 65.9302L72.045 59.337H85.2643L78.6548 65.9302ZM74.59 69.9843L67.9802 76.5775V63.3915L74.59 69.9843ZM51.5583 92.9581L44.9484 86.3649H58.1677L51.5583 92.9581ZM47.4939 97.0123L40.8841 103.605V90.4195L47.4939 97.0123ZM51.5583 101.067L58.1681 107.66H44.9488L51.5583 101.067ZM78.6544 101.067L85.2643 107.66H72.045L78.6544 101.067ZM82.7192 97.0123L89.329 90.4191V103.605L82.7192 97.0123Z" fill="#EC884F"/>
</g>
<defs>
<clipPath id="clip0_2247_3494">
<rect width="80" height="118" fill="white"/>
</clipPath>
</defs>
</svg>
