<svg width="64" height="64" viewBox="0 0 64 64" fill="none" xmlns="http://www.w3.org/2000/svg">
<path d="M46.9883 25.6536H32.9883C31.8949 25.6536 30.9883 24.7469 30.9883 23.6536C30.9883 22.5602 31.8949 21.6536 32.9883 21.6536H46.9883C48.0816 21.6536 48.9883 22.5602 48.9883 23.6536C48.9883 24.7469 48.1083 25.6536 46.9883 25.6536Z" fill="#DDDDDD"/>
<path d="M18.9816 27.6796C18.4749 27.6796 17.9683 27.4929 17.5683 27.0929L15.5683 25.0929C14.7949 24.3196 14.7949 23.0396 15.5683 22.2663C16.3416 21.4929 17.6216 21.4929 18.3949 22.2663L18.9816 22.8529L23.5683 18.2663C24.3416 17.4929 25.6216 17.4929 26.3949 18.2663C27.1683 19.0396 27.1683 20.3196 26.3949 21.0929L20.3949 27.0929C20.0216 27.4663 19.5149 27.6796 18.9816 27.6796Z" fill="#DDDDDD"/>
<path d="M46.9883 44.3203H32.9883C31.8949 44.3203 30.9883 43.4136 30.9883 42.3203C30.9883 41.227 31.8949 40.3203 32.9883 40.3203H46.9883C48.0816 40.3203 48.9883 41.227 48.9883 42.3203C48.9883 43.4136 48.1083 44.3203 46.9883 44.3203Z" fill="#DDDDDD"/>
<path d="M18.9816 46.3461C18.4749 46.3461 17.9683 46.1595 17.5683 45.7594L15.5683 43.7594C14.7949 42.9861 14.7949 41.7061 15.5683 40.9328C16.3416 40.1595 17.6216 40.1595 18.3949 40.9328L18.9816 41.5194L23.5683 36.9328C24.3416 36.1594 25.6216 36.1594 26.3949 36.9328C27.1683 37.7061 27.1683 38.9861 26.3949 39.7594L20.3949 45.7594C20.0216 46.1328 19.5149 46.3461 18.9816 46.3461Z" fill="#DDDDDD"/>
<path d="M39.9987 60.6666H23.9987C9.5187 60.6666 3.33203 54.4799 3.33203 39.9999V23.9999C3.33203 9.51992 9.5187 3.33325 23.9987 3.33325H39.9987C54.4787 3.33325 60.6654 9.51992 60.6654 23.9999V39.9999C60.6654 54.4799 54.4787 60.6666 39.9987 60.6666ZM23.9987 7.33325C11.7054 7.33325 7.33203 11.7066 7.33203 23.9999V39.9999C7.33203 52.2933 11.7054 56.6666 23.9987 56.6666H39.9987C52.292 56.6666 56.6654 52.2933 56.6654 39.9999V23.9999C56.6654 11.7066 52.292 7.33325 39.9987 7.33325H23.9987Z" fill="#DDDDDD"/>
</svg>
