<svg width="27" height="27" viewBox="0 0 27 27" fill="none" xmlns="http://www.w3.org/2000/svg">
<circle cx="14.0625" cy="12.9375" r="6.1875" fill="white"/>
<path d="M24.2533 12.0824L22.7233 10.3049C22.4308 9.96738 22.1945 9.33738 22.1945 8.88738V6.97488C22.1945 5.78238 21.2158 4.80363 20.0233 4.80363H18.1108C17.672 4.80363 17.0308 4.56738 16.6933 4.27488L14.9158 2.74488C14.1395 2.08113 12.8683 2.08113 12.0808 2.74488L10.3145 4.28613C9.97703 4.56738 9.33578 4.80363 8.89703 4.80363H6.95078C5.75828 4.80363 4.77953 5.78238 4.77953 6.97488V8.89863C4.77953 9.33738 4.54328 9.96738 4.26203 10.3049L2.74328 12.0936C2.09078 12.8699 2.09078 14.1299 2.74328 14.9061L4.26203 16.6949C4.54328 17.0324 4.77953 17.6624 4.77953 18.1011V20.0249C4.77953 21.2174 5.75828 22.1961 6.95078 22.1961H8.89703C9.33578 22.1961 9.97703 22.4324 10.3145 22.7249L12.092 24.2549C12.8683 24.9186 14.1395 24.9186 14.927 24.2549L16.7045 22.7249C17.042 22.4324 17.672 22.1961 18.122 22.1961H20.0345C21.227 22.1961 22.2058 21.2174 22.2058 20.0249V18.1124C22.2058 17.6736 22.442 17.0324 22.7345 16.6949L24.2645 14.9174C24.917 14.1411 24.917 12.8586 24.2533 12.0824ZM18.1783 11.3736L12.7445 16.8074C12.587 16.9649 12.3733 17.0549 12.1483 17.0549C11.9233 17.0549 11.7095 16.9649 11.552 16.8074L8.82953 14.0849C8.50328 13.7586 8.50328 13.2186 8.82953 12.8924C9.15578 12.5661 9.69578 12.5661 10.022 12.8924L12.1483 15.0186L16.9858 10.1811C17.312 9.85488 17.852 9.85488 18.1783 10.1811C18.5045 10.5074 18.5045 11.0474 18.1783 11.3736Z" fill="#4ABB77"/>
</svg>
