<svg width="96" height="103" viewBox="0 0 96 103" fill="none" xmlns="http://www.w3.org/2000/svg">
<path fill-rule="evenodd" clip-rule="evenodd" d="M142.566 0.491688C143.099 0.761387 143.767 1.29798 144.048 1.68386C144.33 2.06975 145.413 5.25871 146.454 8.77013L148.347 15.1548L163.648 15.161C178.067 15.1668 179.017 15.1977 180.133 15.7001C182.938 16.9632 182.938 20.9237 180.133 22.1869C179.021 22.6873 178.088 22.7201 164.87 22.726C155.38 22.7302 150.792 22.8267 150.792 23.0221C150.792 23.1815 151.325 25.0758 151.976 27.2317L153.161 31.1515H163.729C175.19 31.1515 175.589 31.1986 176.771 32.6894C178.091 34.3531 177.702 36.6917 175.886 38.009C175.122 38.5639 174.672 38.5922 165.345 38.6725C158.444 38.732 155.603 38.847 155.603 39.0679C155.603 39.2394 156.132 41.1275 156.778 43.2638L157.953 47.1482H163.437C169.426 47.1482 170.311 47.3202 171.402 48.6957C172.139 49.6246 172.226 51.5439 171.586 52.7703C170.767 54.3408 169.843 54.5853 164.726 54.5853C161.629 54.5853 160.162 54.6815 160.239 54.8799C161.217 57.4214 170.386 88.8626 170.397 89.7138C170.415 91.0875 169.801 92.1394 168.534 92.9055C167.67 93.4275 167.01 93.4525 153.97 93.4533L140.311 93.4545L140.442 92.823C140.783 91.1885 140.853 89.5167 140.649 87.9117L140.426 86.1577H150.969C156.768 86.1577 161.566 86.0631 161.632 85.9472C161.698 85.8313 160.896 82.8952 159.85 79.4222C158.803 75.9493 157.734 72.3817 157.475 71.4941L157.002 69.8804H117.124H77.2461L75.6945 65.0392C74.8414 62.3765 69.9229 46.8288 64.7644 30.4883C59.606 14.1481 55.3177 0.603383 55.2348 0.389251C55.1069 0.0583721 61.5685 -3.08351e-07 98.3398 0.00056098C138.962 0.000841624 141.654 0.0308705 142.566 0.491688ZM50.3022 10.033C52.0476 15.5513 57.0054 31.2427 61.3197 44.903L69.1639 69.74L38.6671 69.8113L8.1701 69.8829V77.8798V85.8771H14.3249H20.4797V89.6658V93.4545H12.0469C2.90553 93.4545 2.61972 93.4121 1.40347 91.8786L0.812607 91.1335V56.6704C0.812607 35.3061 0.915894 21.9377 1.08455 21.4982C1.23425 21.1078 4.54794 16.3136 8.44884 10.8441C14.0114 3.04471 15.7472 0.80236 16.4968 0.449871C17.3358 0.0550053 19.2652 0 32.2905 0H47.1288L50.3022 10.033ZM14.1444 15.6846L8.1701 24.0725V29.8572V35.6418H21.4702H34.7702V21.6565C34.7702 13.9643 34.6853 7.58665 34.5815 7.48394C34.4779 7.38094 31.1812 7.29674 27.256 7.29674H20.1187L14.1444 15.6846ZM101.389 15.6055C99.4448 16.5204 98.7107 19.0706 99.8602 20.9153C101.043 22.8133 99.9344 22.7322 124.73 22.7322C137.041 22.7322 147.117 22.6376 147.122 22.5217C147.126 22.4058 146.654 20.7009 146.071 18.733L145.013 15.1548H123.68C104.675 15.1548 102.242 15.2039 101.389 15.6055ZM114.655 31.7015C112.901 32.7624 112.344 35.1987 113.446 36.9917C114.536 38.7648 114.109 38.7289 134.087 38.7289C144.053 38.7289 152.207 38.6517 152.207 38.5577C152.207 38.4224 150.606 33.1216 150.076 31.5023C149.986 31.2267 146.272 31.1518 132.761 31.1526C116.201 31.1534 115.527 31.1739 114.655 31.7015ZM128.29 48.3182C127.057 49.6532 126.793 50.9925 127.488 52.38C127.776 52.9556 128.372 53.6872 128.811 54.0057C129.588 54.5698 129.978 54.5872 143.314 54.6633C150.851 54.7059 157.021 54.6428 157.026 54.523C157.03 54.4028 156.557 52.6906 155.973 50.7183L154.912 47.1319L142.077 47.2102L129.242 47.2885L128.29 48.3182ZM124.609 76.629C131.305 77.7653 135.844 83.088 135.829 89.7864C135.821 93.7387 134.508 96.7284 131.62 99.376C126.223 104.323 118.32 104.191 113.155 99.0685C109.022 94.9702 108.042 89.0312 110.625 83.7397C112.036 80.8488 115.885 77.7106 118.957 76.9473C120.751 76.5013 123.082 76.37 124.609 76.629ZM40.7128 76.6397C43.2645 77.0629 46.0671 78.6061 47.995 80.6498C48.9241 81.6348 49.9697 83.0254 50.3183 83.7397C52.901 89.0312 51.9211 94.9702 47.7885 99.0685C42.5581 104.256 34.5201 104.302 29.1016 99.1765C26.1917 96.4234 25.0184 93.3649 25.1956 88.9925C25.2929 86.5874 25.4166 86.0612 26.3241 84.1898C26.8844 83.0341 27.8027 81.565 28.3647 80.9251C31.2095 77.687 36.3238 75.9122 40.7128 76.6397ZM104.525 89.8064V93.4545L100.139 93.4533C95.3399 93.4522 94.5173 93.2268 93.4569 91.6216C92.8194 90.6567 92.8327 88.7337 93.4835 87.7484C94.4137 86.3404 95.1681 86.1577 100.054 86.1577L104.525 86.158V89.8064ZM84.238 86.5374C86.6943 87.8893 86.4636 91.9757 83.8701 93.0503C82.4994 93.6183 74.765 93.6183 73.3942 93.0503C70.8171 91.9825 70.5404 87.8261 72.9632 86.5835C74.0646 86.0188 83.2275 85.9812 84.238 86.5374ZM63.6676 87.2472C64.6088 88.1809 64.7659 88.5123 64.765 89.5625C64.7636 91.1293 63.9164 92.5241 62.6466 93.0503C62.0357 93.3035 60.6907 93.4545 59.0448 93.4545H56.4182V89.8061V86.1577H59.4936H62.5688L63.6676 87.2472Z" fill="#FFB141"/>
</svg>
