<svg width="91" height="28" viewBox="0 0 91 28" fill="none" xmlns="http://www.w3.org/2000/svg">
<path d="M12.5 13C13.0523 13 13.5 12.5523 13.5 12C13.5 11.4477 13.0523 11 12.5 11C11.9477 11 11.5 11.4477 11.5 12C11.5 12.5523 11.9477 13 12.5 13Z" stroke="#6F6F6F" stroke-linecap="round" stroke-linejoin="round"/>
<path d="M14.5 9H12.5C10 9 9 10 9 12.5V15.5C9 18 10 19 12.5 19H15.5C18 19 19 18 19 15.5V13" stroke="#6F6F6F" stroke-linecap="round" stroke-linejoin="round"/>
<path d="M15.875 10.5H18.625" stroke="#6F6F6F" stroke-linecap="round"/>
<path d="M17.25 11.875V9.125" stroke="#6F6F6F" stroke-linecap="round"/>
<path d="M9.33594 17.4748L11.8009 15.8198C12.1959 15.5548 12.7659 15.5848 13.1209 15.8898L13.2859 16.0348C13.6759 16.3698 14.3059 16.3698 14.6959 16.0348L16.7759 14.2498C17.1659 13.9148 17.7959 13.9148 18.1859 14.2498L19.0009 14.9498" stroke="#6F6F6F" stroke-linecap="round" stroke-linejoin="round"/>
<path d="M24.8104 10.2H25.8804V13.97C25.8804 14.5967 25.997 15.05 26.2304 15.33C26.4637 15.61 26.837 15.75 27.3504 15.75C27.857 15.75 28.2237 15.6 28.4504 15.3C28.6837 14.9933 28.8004 14.59 28.8004 14.09V10.2H29.8704V14.04C29.8704 14.9133 29.6504 15.56 29.2104 15.98C28.777 16.3933 28.157 16.6 27.3504 16.6C26.557 16.6 25.9337 16.3933 25.4804 15.98C25.0337 15.56 24.8104 14.8967 24.8104 13.99V10.2ZM33.285 16.6C33.085 16.6 32.8916 16.5733 32.705 16.52C32.5183 16.4667 32.3583 16.3933 32.225 16.3V18.8H31.205V11.72H32.035L32.165 12.31C32.3516 12.1367 32.5616 11.9933 32.795 11.88C33.0283 11.76 33.2983 11.7 33.605 11.7C34.2316 11.7 34.725 11.9033 35.085 12.31C35.445 12.7167 35.625 13.2933 35.625 14.04C35.625 14.4733 35.5583 14.8533 35.425 15.18C35.2983 15.5 35.125 15.7667 34.905 15.98C34.6916 16.1867 34.4416 16.3433 34.155 16.45C33.875 16.55 33.585 16.6 33.285 16.6ZM33.355 12.51C33.1016 12.51 32.875 12.5733 32.675 12.7C32.4816 12.82 32.3316 12.9467 32.225 13.08V15.51C32.4983 15.7167 32.8083 15.82 33.155 15.82C33.3283 15.82 33.4983 15.79 33.665 15.73C33.8316 15.67 33.9816 15.57 34.115 15.43C34.2483 15.29 34.355 15.11 34.435 14.89C34.515 14.6633 34.555 14.39 34.555 14.07C34.555 13.5967 34.455 13.22 34.255 12.94C34.0616 12.6533 33.7616 12.51 33.355 12.51ZM36.6851 16.5V9.39H37.6951V16.5H36.6851ZM43.4675 14.09C43.4675 14.4833 43.4041 14.8367 43.2775 15.15C43.1575 15.4633 42.9908 15.7267 42.7775 15.94C42.5641 16.1533 42.3141 16.3167 42.0275 16.43C41.7408 16.5433 41.4308 16.6 41.0975 16.6C40.7641 16.6 40.4541 16.5467 40.1675 16.44C39.8875 16.3333 39.6408 16.18 39.4275 15.98C39.2208 15.7733 39.0575 15.52 38.9375 15.22C38.8241 14.92 38.7675 14.5767 38.7675 14.19C38.7675 13.79 38.8275 13.4367 38.9475 13.13C39.0741 12.8233 39.2441 12.5633 39.4575 12.35C39.6708 12.1367 39.9208 11.9767 40.2075 11.87C40.4941 11.7567 40.8041 11.7 41.1375 11.7C41.4708 11.7 41.7775 11.7533 42.0575 11.86C42.3441 11.96 42.5908 12.11 42.7975 12.31C43.0108 12.51 43.1741 12.76 43.2875 13.06C43.4075 13.36 43.4675 13.7033 43.4675 14.09ZM42.3975 14.14C42.3975 13.84 42.3608 13.5867 42.2875 13.38C42.2141 13.1667 42.1175 12.9933 41.9975 12.86C41.8775 12.7267 41.7408 12.63 41.5875 12.57C41.4341 12.51 41.2741 12.48 41.1075 12.48C40.9475 12.48 40.7908 12.5067 40.6375 12.56C40.4841 12.6133 40.3475 12.7033 40.2275 12.83C40.1075 12.9567 40.0108 13.1267 39.9375 13.34C39.8708 13.5533 39.8375 13.82 39.8375 14.14C39.8375 14.4333 39.8741 14.6867 39.9475 14.9C40.0208 15.1133 40.1175 15.29 40.2375 15.43C40.3575 15.5633 40.4941 15.6633 40.6475 15.73C40.8075 15.79 40.9675 15.82 41.1275 15.82C41.2875 15.82 41.4441 15.7933 41.5975 15.74C41.7508 15.6867 41.8875 15.5967 42.0075 15.47C42.1275 15.3367 42.2208 15.1633 42.2875 14.95C42.3608 14.73 42.3975 14.46 42.3975 14.14ZM44.5567 12.2C44.8633 12.0333 45.1567 11.91 45.4367 11.83C45.7233 11.7433 46.04 11.7 46.3867 11.7C46.6533 11.7 46.8967 11.73 47.1167 11.79C47.3433 11.85 47.5367 11.9467 47.6967 12.08C47.8567 12.2133 47.98 12.3933 48.0667 12.62C48.16 12.84 48.2067 13.11 48.2067 13.43V16.5H47.3767L47.2667 15.99H47.2367C47.05 16.2033 46.8333 16.36 46.5867 16.46C46.34 16.5533 46.0667 16.6 45.7667 16.6C45.2933 16.6 44.91 16.4733 44.6167 16.22C44.33 15.9667 44.1867 15.63 44.1867 15.21C44.1867 14.95 44.24 14.7267 44.3467 14.54C44.4533 14.3467 44.6033 14.1867 44.7967 14.06C44.99 13.9333 45.22 13.84 45.4867 13.78C45.7533 13.7133 46.0467 13.68 46.3667 13.68H47.1667V13.32C47.1667 13.02 47.0867 12.8133 46.9267 12.7C46.7667 12.58 46.5467 12.52 46.2667 12.52C46.0933 12.52 45.8967 12.55 45.6767 12.61C45.4633 12.6633 45.2167 12.7667 44.9367 12.92L44.5567 12.2ZM47.1767 14.36L46.5467 14.37C46.0733 14.3833 45.74 14.4667 45.5467 14.62C45.3533 14.7733 45.2567 14.9533 45.2567 15.16C45.2567 15.2933 45.2767 15.4033 45.3167 15.49C45.3633 15.5767 45.4233 15.6467 45.4967 15.7C45.57 15.7533 45.6533 15.7933 45.7467 15.82C45.8467 15.84 45.9467 15.85 46.0467 15.85C46.2533 15.85 46.4567 15.8 46.6567 15.7C46.8633 15.5933 47.0367 15.4433 47.1767 15.25V14.36ZM52.5579 9.39H53.5879V16.5H52.7779L52.6579 15.98H52.6179C52.4445 16.18 52.2512 16.3333 52.0379 16.44C51.8245 16.5467 51.5479 16.6 51.2079 16.6C50.9412 16.6 50.6845 16.55 50.4379 16.45C50.1979 16.3433 49.9812 16.1867 49.7879 15.98C49.6012 15.7733 49.4512 15.5167 49.3379 15.21C49.2245 14.9033 49.1679 14.55 49.1679 14.15C49.1679 13.7767 49.2145 13.44 49.3079 13.14C49.4079 12.84 49.5479 12.5833 49.7279 12.37C49.9145 12.1567 50.1412 11.9933 50.4079 11.88C50.6745 11.76 50.9779 11.7 51.3179 11.7C51.5512 11.7 51.7779 11.7367 51.9979 11.81C52.2179 11.8833 52.4045 11.9867 52.5579 12.12V9.39ZM52.5579 12.95C52.2779 12.63 51.9412 12.47 51.5479 12.47C51.3745 12.47 51.2079 12.5 51.0479 12.56C50.8879 12.62 50.7445 12.7167 50.6179 12.85C50.4912 12.9833 50.3912 13.1533 50.3179 13.36C50.2445 13.5667 50.2079 13.82 50.2079 14.12C50.2079 14.42 50.2412 14.6767 50.3079 14.89C50.3812 15.1033 50.4745 15.28 50.5879 15.42C50.7012 15.56 50.8312 15.6633 50.9779 15.73C51.1312 15.79 51.2879 15.82 51.4479 15.82C51.6879 15.82 51.8979 15.7667 52.0779 15.66C52.2645 15.5533 52.4245 15.4033 52.5579 15.21V12.95ZM58.3329 10.2V16.5H57.2629V10.2H58.3329ZM60.7708 16.5H59.7408V11.78H60.5408L60.6808 12.41C60.9008 12.19 61.1375 12.0167 61.3908 11.89C61.6442 11.7633 61.9408 11.7 62.2808 11.7C62.6208 11.7 62.8975 11.7667 63.1108 11.9C63.3308 12.0333 63.4975 12.22 63.6108 12.46C63.8375 12.22 64.0875 12.0333 64.3608 11.9C64.6408 11.7667 64.9475 11.7 65.2808 11.7C65.7742 11.7 66.1442 11.8367 66.3908 12.11C66.6442 12.3767 66.7708 12.7567 66.7708 13.25V16.5H65.7408V13.41C65.7408 13.1233 65.6775 12.9033 65.5508 12.75C65.4308 12.5967 65.2308 12.52 64.9508 12.52C64.5242 12.52 64.1308 12.71 63.7708 13.09V16.5H62.7408V13.41C62.7408 13.1233 62.6775 12.9033 62.5508 12.75C62.4308 12.5967 62.2308 12.52 61.9508 12.52C61.5242 12.52 61.1308 12.72 60.7708 13.12V16.5ZM68.1407 12.2C68.4473 12.0333 68.7407 11.91 69.0207 11.83C69.3073 11.7433 69.624 11.7 69.9707 11.7C70.2373 11.7 70.4807 11.73 70.7007 11.79C70.9273 11.85 71.1207 11.9467 71.2807 12.08C71.4407 12.2133 71.564 12.3933 71.6507 12.62C71.744 12.84 71.7907 13.11 71.7907 13.43V16.5H70.9607L70.8507 15.99H70.8207C70.634 16.2033 70.4173 16.36 70.1707 16.46C69.924 16.5533 69.6507 16.6 69.3507 16.6C68.8773 16.6 68.494 16.4733 68.2007 16.22C67.914 15.9667 67.7707 15.63 67.7707 15.21C67.7707 14.95 67.824 14.7267 67.9307 14.54C68.0373 14.3467 68.1873 14.1867 68.3807 14.06C68.574 13.9333 68.804 13.84 69.0707 13.78C69.3373 13.7133 69.6307 13.68 69.9507 13.68H70.7507V13.32C70.7507 13.02 70.6707 12.8133 70.5107 12.7C70.3507 12.58 70.1307 12.52 69.8507 12.52C69.6773 12.52 69.4807 12.55 69.2607 12.61C69.0473 12.6633 68.8007 12.7667 68.5207 12.92L68.1407 12.2ZM70.7607 14.36L70.1307 14.37C69.6573 14.3833 69.324 14.4667 69.1307 14.62C68.9373 14.7733 68.8407 14.9533 68.8407 15.16C68.8407 15.2933 68.8607 15.4033 68.9007 15.49C68.9473 15.5767 69.0073 15.6467 69.0807 15.7C69.154 15.7533 69.2373 15.7933 69.3307 15.82C69.4307 15.84 69.5307 15.85 69.6307 15.85C69.8373 15.85 70.0407 15.8 70.2407 15.7C70.4473 15.5933 70.6207 15.4433 70.7607 15.25V14.36ZM72.9914 13.36C72.9914 13.1 73.038 12.8667 73.1314 12.66C73.2314 12.4533 73.368 12.28 73.5414 12.14C73.7147 11.9933 73.9214 11.8833 74.1614 11.81C74.4014 11.7367 74.6614 11.7 74.9414 11.7C75.148 11.7 75.358 11.7267 75.5714 11.78H77.6014V12.49H77.2514L76.5114 12.39C76.6247 12.5167 76.7147 12.6633 76.7814 12.83C76.848 12.9967 76.8814 13.17 76.8814 13.35C76.8814 13.61 76.8347 13.8433 76.7414 14.05C76.648 14.25 76.5147 14.4233 76.3414 14.57C76.1747 14.71 75.9714 14.8167 75.7314 14.89C75.4914 14.9633 75.228 15 74.9414 15C74.848 15 74.758 14.9967 74.6714 14.99C74.5914 14.9833 74.5114 14.9733 74.4314 14.96C74.3047 15.0133 74.2147 15.0767 74.1614 15.15C74.108 15.2233 74.0814 15.3033 74.0814 15.39C74.0814 15.5233 74.128 15.6167 74.2214 15.67C74.3147 15.7233 74.448 15.75 74.6214 15.75H75.8114C76.3314 15.75 76.7347 15.87 77.0214 16.11C77.3147 16.3433 77.4614 16.68 77.4614 17.12C77.4614 17.38 77.4014 17.6133 77.2814 17.82C77.168 18.0333 77.0014 18.2133 76.7814 18.36C76.568 18.5133 76.308 18.63 76.0014 18.71C75.6947 18.79 75.3514 18.83 74.9714 18.83C74.2714 18.83 73.718 18.7067 73.3114 18.46C72.9047 18.2133 72.7014 17.85 72.7014 17.37C72.7014 17.1367 72.778 16.9367 72.9314 16.77C73.0847 16.6033 73.288 16.4733 73.5414 16.38C73.4214 16.3 73.3247 16.2067 73.2514 16.1C73.178 15.9867 73.1414 15.84 73.1414 15.66C73.1414 15.4467 73.2047 15.2667 73.3314 15.12C73.458 14.9667 73.6247 14.8467 73.8314 14.76C73.5914 14.6467 73.3914 14.4767 73.2314 14.25C73.0714 14.0167 72.9914 13.72 72.9914 13.36ZM74.1314 16.55C73.8247 16.6967 73.6714 16.9167 73.6714 17.21C73.6714 17.4767 73.778 17.68 73.9914 17.82C74.2114 17.96 74.5514 18.03 75.0114 18.03C75.2714 18.03 75.4914 18.0033 75.6714 17.95C75.8514 17.9033 75.998 17.84 76.1114 17.76C76.2314 17.68 76.318 17.59 76.3714 17.49C76.4247 17.39 76.4514 17.2867 76.4514 17.18C76.4514 16.9267 76.3647 16.7567 76.1914 16.67C76.0247 16.59 75.8014 16.55 75.5214 16.55H74.1314ZM75.8514 13.37C75.8514 13.05 75.768 12.8133 75.6014 12.66C75.4347 12.5 75.2147 12.42 74.9414 12.42C74.6614 12.42 74.438 12.4967 74.2714 12.65C74.1114 12.8033 74.0314 13.0333 74.0314 13.34C74.0314 13.66 74.1147 13.8967 74.2814 14.05C74.448 14.2033 74.668 14.28 74.9414 14.28C75.2214 14.28 75.4414 14.2033 75.6014 14.05C75.768 13.8967 75.8514 13.67 75.8514 13.37ZM82.5418 14.32H79.2318V14.36C79.2318 14.84 79.3718 15.2033 79.6518 15.45C79.9318 15.6967 80.3018 15.82 80.7618 15.82C81.0151 15.82 81.2418 15.8 81.4418 15.76C81.6484 15.7133 81.8551 15.6433 82.0618 15.55L82.2618 16.3C82.0684 16.3867 81.8384 16.4567 81.5718 16.51C81.3051 16.57 81.0118 16.6 80.6918 16.6C80.3518 16.6 80.0284 16.5533 79.7218 16.46C79.4151 16.3667 79.1451 16.22 78.9118 16.02C78.6851 15.82 78.5051 15.5667 78.3718 15.26C78.2384 14.9533 78.1718 14.5867 78.1718 14.16C78.1718 13.7933 78.2251 13.46 78.3318 13.16C78.4451 12.8533 78.6018 12.5933 78.8018 12.38C79.0084 12.16 79.2551 11.9933 79.5418 11.88C79.8351 11.76 80.1584 11.7 80.5118 11.7C80.8184 11.7 81.0951 11.75 81.3418 11.85C81.5951 11.95 81.8084 12.0933 81.9818 12.28C82.1618 12.46 82.2984 12.6833 82.3918 12.95C82.4918 13.21 82.5418 13.5 82.5418 13.82V14.32ZM81.4818 13.6C81.4818 13.44 81.4618 13.29 81.4218 13.15C81.3818 13.01 81.3218 12.89 81.2418 12.79C81.1618 12.6833 81.0551 12.6 80.9218 12.54C80.7951 12.4733 80.6418 12.44 80.4618 12.44C80.1284 12.44 79.8551 12.5467 79.6418 12.76C79.4351 12.9733 79.3084 13.26 79.2618 13.62L81.4818 13.6Z" fill="#6F6F6F"/>
<rect x="0.25" y="0.25" width="90.5" height="27.5" rx="13.75" stroke="#848484" stroke-width="0.5"/>
</svg>
