<svg width="20" height="16" viewBox="0 0 20 16" fill="none" xmlns="http://www.w3.org/2000/svg">
<path fill-rule="evenodd" clip-rule="evenodd" d="M10.5064 0H4.27691C1.72795 0 0 1.70827 0 4.16164V11.1325C0 13.5858 1.72795 15.2941 4.27691 15.2941H10.5064C12.9094 15.2941 14.5885 13.7683 14.7675 11.5337L17.4005 12.6099L17.5322 12.658C18.6768 13.0274 19.8765 12.1766 19.8765 10.9472V4.34998L19.8713 4.20986C19.7809 3.01078 18.539 2.2217 17.4009 2.68611L14.7677 3.76237C14.59 1.52516 12.9141 0 10.5064 0ZM14.7834 5.36623V9.92995L17.964 11.23C18.1434 11.3032 18.3373 11.1946 18.3782 11.0169L18.386 10.9472V4.34998C18.386 4.15642 18.2117 4.0178 18.0318 4.04699L17.9644 4.06603L14.7834 5.36623ZM4.27532 1.48897H10.5049C12.2338 1.48897 13.2912 2.53413 13.2912 4.16005V11.1309C13.2912 12.7545 12.2301 13.802 10.5049 13.802H4.27532C2.54578 13.802 1.48897 12.7572 1.48897 11.1309V4.16005C1.48897 2.53374 2.54578 1.48897 4.27532 1.48897Z" fill="#E26B26"/>
</svg>
